<svg width="97" height="19" viewBox="0 0 97 19" fill="none" xmlns="http://www.w3.org/2000/svg">
<path d="M39.6095 1.27344H51.1891C51.5596 1.27344 51.8375 1.27344 51.9302 1.36868C52.1155 1.55915 52.3007 1.74963 52.3007 2.03534C52.3007 2.32106 52.2081 2.51153 51.9302 2.70201C51.7449 2.79725 51.467 2.79725 51.1891 2.79725H46.2794V16.702C46.2794 17.083 46.1867 17.3687 46.0941 17.5592C45.9088 17.8449 45.7235 17.9401 45.353 17.9401C44.9825 17.9401 44.7972 17.8449 44.6119 17.5592C44.5193 17.3687 44.4266 17.083 44.4266 16.702V2.89249H39.5169C39.1464 2.89249 38.8685 2.89249 38.7758 2.79725C38.5905 2.60677 38.4053 2.41629 38.4053 2.13058C38.4053 1.84487 38.4979 1.65439 38.7758 1.46391C39.0537 1.36868 39.3316 1.27344 39.6095 1.27344Z" fill="white"/>
<path d="M53.97 7.46317V7.84412C54.3406 7.36793 54.7111 6.98698 55.3596 6.70127C55.9154 6.41555 56.5639 6.32031 57.2123 6.32031C58.046 6.32031 58.6945 6.51079 59.343 6.89174C59.8061 7.17746 59.9914 7.46317 59.9914 7.74888C59.9914 7.93936 59.8988 8.22507 59.7135 8.32031C59.5282 8.51079 59.343 8.60603 59.1577 8.60603C58.9724 8.60603 58.6945 8.51079 58.324 8.32031C57.8608 8.0346 57.3976 7.93936 56.8418 7.93936C56.008 7.93936 55.267 8.22507 54.8038 8.7965C54.3406 9.36793 54.0627 10.1298 54.0627 10.987V16.8917C54.0627 17.2727 53.97 17.4632 53.8774 17.6536C53.6921 17.9394 53.5069 18.0346 53.1363 18.0346C52.7658 18.0346 52.5805 17.9394 52.3952 17.6536C52.3026 17.4632 52.21 17.2727 52.21 16.8917V7.46317C52.21 7.08222 52.3026 6.89174 52.3952 6.70127C52.5805 6.41555 52.7658 6.32031 53.1363 6.32031C53.5069 6.32031 53.6921 6.41555 53.8774 6.70127C53.8774 6.7965 53.97 7.08222 53.97 7.46317Z" fill="white"/>
<path d="M61.0107 14.6075C61.0107 13.5599 61.3813 12.798 62.1224 12.2266C62.8635 11.6551 63.7898 11.3694 65.0867 11.3694H68.6069V10.417C68.6069 9.5599 68.4217 8.89323 67.9585 8.41704C67.4953 7.94085 66.7542 7.75037 65.7352 7.75037C65.1794 7.75037 64.7162 7.84561 64.253 7.94085C63.8825 8.13133 63.4193 8.3218 63.0487 8.70275C62.8635 8.89323 62.5856 8.98847 62.3077 8.98847C62.1224 8.98847 61.9371 8.89323 61.7518 8.79799C61.5666 8.60752 61.5666 8.41704 61.5666 8.22656C61.5666 7.84561 61.9371 7.46466 62.6782 6.98847C63.5119 6.51228 64.5309 6.22656 65.7352 6.22656C67.2174 6.22656 68.4217 6.51228 69.1628 7.17894C69.9038 7.84561 70.367 8.79799 70.367 10.0361V16.7028C70.367 17.0837 70.2744 17.2742 70.1818 17.4647C69.9965 17.7504 69.8112 17.8456 69.4407 17.8456C69.0701 17.8456 68.8848 17.7504 68.6996 17.4647C68.6069 17.2742 68.5143 17.0837 68.5143 16.7028C68.0511 17.1789 67.5879 17.4647 67.0321 17.6551C66.4763 17.8456 65.9205 17.9409 65.1794 17.9409C64.3457 17.9409 63.6972 17.8456 63.234 17.6551C62.6782 17.4647 62.3077 17.1789 61.9371 16.8932C61.2887 16.3218 61.0107 15.5599 61.0107 14.6075ZM62.7708 14.6075C62.7708 15.9409 63.6972 16.6075 65.4573 16.6075C66.0131 16.6075 66.4763 16.5123 66.9395 16.417C67.31 16.3218 67.6806 16.1313 68.0511 15.7504C68.4217 15.3694 68.6996 14.7028 68.6996 13.7504V12.5123H65.3647C64.5309 12.5123 63.8825 12.7028 63.5119 12.9885C62.9561 13.3694 62.7708 13.9409 62.7708 14.6075Z" fill="white"/>
<path d="M73.8857 12.1321C73.8857 9.84635 74.3489 8.22731 75.3679 7.27493C76.0164 6.60826 77.0354 6.32254 78.2396 6.32254C78.9807 6.32254 79.5366 6.41778 80.0924 6.60826C80.6482 6.79874 81.1114 7.17969 81.5746 7.75112V2.32254C81.5746 1.94159 81.6672 1.75112 81.7598 1.56064C81.9451 1.27493 82.1304 1.17969 82.5009 1.17969C82.8715 1.17969 83.0567 1.27493 83.242 1.56064C83.3346 1.75112 83.4273 1.94159 83.4273 2.32254V16.7987C83.4273 17.1797 83.3346 17.3702 83.242 17.5606C83.0567 17.8464 82.8715 17.9416 82.5009 17.9416C82.1304 17.9416 81.9451 17.8464 81.7598 17.5606C81.6672 17.3702 81.5746 17.1797 81.5746 16.7987V16.513C81.1114 17.0844 80.6482 17.4654 80.0924 17.6559C79.5366 17.8464 78.9807 17.9416 78.2396 17.9416C77.0354 17.9416 76.109 17.6559 75.3679 16.9892C74.3489 16.0368 73.8857 14.4178 73.8857 12.1321ZM75.6458 10.7987C75.6458 11.1797 75.5532 11.6559 75.5532 12.1321C75.5532 12.6083 75.5532 13.0844 75.6458 13.4654C75.6458 13.8464 75.7385 14.2273 75.9237 14.6083C76.0164 14.9892 76.2017 15.3702 76.3869 15.5606C76.5722 15.8464 76.8501 16.0368 77.2206 16.2273C77.5912 16.4178 78.0544 16.513 78.5176 16.513C78.9807 16.513 79.4439 16.4178 79.8145 16.2273C80.185 16.0368 80.4629 15.8464 80.6482 15.5606C80.8335 15.2749 81.0187 14.9892 81.1114 14.6083C81.204 14.2273 81.2966 13.8464 81.3893 13.4654C81.3893 13.0844 81.4819 12.6083 81.4819 12.1321C81.4819 11.6559 81.4819 11.1797 81.3893 10.7987C81.3893 10.4178 81.2966 10.0368 81.1114 9.65588C81.0187 9.27493 80.8335 8.89397 80.6482 8.7035C80.4629 8.41778 80.185 8.13207 79.8145 8.03683C79.4439 7.84635 78.9807 7.75112 78.5176 7.75112C78.0544 7.75112 77.5912 7.84635 77.2206 8.03683C76.8501 8.22731 76.5722 8.41778 76.3869 8.7035C76.2017 8.98921 76.0164 9.27493 75.9237 9.65588C75.8311 10.0368 75.7385 10.4178 75.6458 10.7987Z" fill="white"/>
<path d="M95.5673 12.5123H88.6196C88.6196 13.7504 88.8975 14.7028 89.546 15.4647C90.1018 16.1313 91.0282 16.5123 92.1398 16.5123C93.1588 16.5123 93.9925 16.2266 94.641 15.6551C95.0115 15.3694 95.1968 15.2742 95.4747 15.2742C95.66 15.2742 95.8452 15.3694 96.0305 15.4647C96.2158 15.5599 96.2158 15.7504 96.2158 15.9409C96.2158 16.3218 95.8452 16.798 95.0115 17.2742C94.2704 17.7504 93.2514 17.9409 92.1398 17.9409C90.565 17.9409 89.2681 17.4647 88.3417 16.5123C87.4153 15.5599 86.9521 14.0361 86.9521 12.1313C86.9521 10.2266 87.4153 8.79799 88.2491 7.84561C89.0828 6.79799 90.1944 6.22656 91.6766 6.22656C93.1588 6.22656 94.2704 6.70275 95.1968 7.65513C96.0305 8.60752 96.4937 9.94085 96.4937 11.4647C96.4937 11.8456 96.4011 12.0361 96.2158 12.2266C96.1232 12.5123 95.8452 12.5123 95.5673 12.5123ZM88.6196 11.2742H94.8262C94.8262 10.5123 94.641 9.94085 94.4557 9.36942C94.2704 8.79799 93.8999 8.41704 93.4367 8.13132C92.9735 7.84561 92.4177 7.65513 91.7692 7.65513C91.1208 7.65513 90.565 7.84561 90.0092 8.13132C89.4533 8.41704 89.1754 8.89323 88.9902 9.36942C88.8049 9.94085 88.6196 10.5123 88.6196 11.2742Z" fill="white"/>
<path d="M10.3362 6.60761C10.1509 6.41713 9.87303 6.22666 9.50248 6.03618C9.22457 5.94094 8.76139 5.8457 8.20557 5.8457C7.64976 5.8457 7.27921 5.94094 6.90866 6.03618C6.53812 6.22666 6.26021 6.41713 6.07494 6.60761C5.88967 6.79808 5.70439 7.0838 5.61176 7.46475C5.42648 7.8457 5.42648 8.22666 5.33385 8.60761C5.33385 8.98856 5.24121 9.46475 5.24121 9.94094C5.24121 10.4171 5.24121 10.8933 5.33385 11.2743C5.33385 11.6552 5.42648 12.0362 5.61176 12.4171C5.70439 12.7981 5.88967 13.0838 6.07494 13.2743C6.26021 13.4648 6.53812 13.6552 6.90866 13.8457C7.64976 14.1314 8.85403 14.1314 9.59512 13.8457C9.96566 13.7505 10.2436 13.56 10.4288 13.2743C10.6141 13.0838 10.7994 12.7981 10.892 12.4171C10.9847 12.0362 11.0773 11.6552 11.1699 11.2743C11.1699 10.8933 11.2626 10.4171 11.2626 9.94094C11.2626 9.46475 11.2626 8.98856 11.1699 8.60761C11.1699 8.22666 11.0773 7.8457 10.892 7.46475C10.7068 7.0838 10.6141 6.79808 10.3362 6.60761Z" fill="#D21D1D"/>
<path d="M35.5345 8.7022C33.8671 6.98791 29.9764 2.60696 27.6604 0.987909C27.1046 0.511719 26.2709 0.511719 26.0856 0.511719C24.6035 0.511719 19.2305 0.511719 14.1355 0.511719V14.7974C14.1355 15.2736 14.0429 15.6546 13.8576 15.9403C13.6724 16.226 13.3018 16.5117 12.6534 16.5117C12.0049 16.5117 11.6344 16.226 11.4491 15.9403C11.3565 15.8451 11.2638 15.6546 11.2638 15.5593C10.8933 15.8451 10.5227 16.1308 10.0595 16.226C9.41109 16.5117 8.67 16.607 7.74364 16.607C6.16882 16.607 4.96455 16.226 4.13082 15.4641C2.92655 14.4165 2.2781 12.5117 2.2781 10.0355C2.2781 7.4641 2.92655 5.65458 4.13082 4.60696C4.96455 3.84505 6.26146 3.4641 7.74364 3.4641C8.57737 3.4641 9.41109 3.55934 10.0595 3.84505C10.4301 3.94029 10.8006 4.226 11.1712 4.41648V0.511719C7.00255 0.511719 3.48237 0.511719 3.48237 0.511719C1.62964 0.511719 0.147461 2.03553 0.147461 3.94029V15.0831C0.147461 16.9879 1.62964 18.5117 3.48237 18.5117H25.993C26.2709 18.5117 26.9194 18.4165 27.6604 17.8451C30.3469 15.8451 34.8861 11.0831 35.5345 10.3212C35.9977 9.94029 35.9977 9.17839 35.5345 8.7022ZM26.5488 16.3212C26.2709 16.4165 25.993 16.5117 25.8077 16.5117C25.5298 16.5117 25.2519 16.4165 24.974 16.226C24.7887 16.1308 24.6035 15.8451 24.4182 15.5593L21.917 12.0355L19.4158 15.6546C19.2305 15.9403 19.0453 16.1308 18.86 16.3212C18.3968 16.607 17.841 16.607 17.2852 16.3212C16.7294 15.9403 16.5441 15.5593 16.5441 15.1784C16.5441 14.8927 16.7294 14.5117 17.0073 14.1308L20.0643 9.84505L17.0073 5.65458C16.7294 5.17839 16.5441 4.89267 16.5441 4.60696C16.5441 4.32124 16.6367 3.84505 17.2852 3.4641C17.841 3.17839 18.3968 3.17839 18.86 3.55934C19.0453 3.65458 19.2305 3.94029 19.4158 4.226L21.8244 7.74981L24.2329 4.226C24.4182 3.94029 24.6035 3.74981 24.7887 3.55934C25.1593 3.27362 25.8077 3.17839 26.3635 3.55934C27.012 3.94029 27.1046 4.41648 27.1046 4.7022C27.1046 4.98791 27.012 5.27362 26.6414 5.74981L23.5844 9.94029L26.6414 14.226C26.9194 14.607 27.1046 14.9879 27.1046 15.2736C27.1973 15.5593 27.1046 16.0355 26.5488 16.3212Z" fill="#D21D1D"/>
</svg>
