<svg width="115" height="30" viewBox="0 0 115 30" fill="none" xmlns="http://www.w3.org/2000/svg">
<mask id="mask0" mask-type="alpha" maskUnits="userSpaceOnUse" x="0" y="0" width="30" height="30">
<path d="M0.384766 0.429688H29.1247V29.0524H0.384766V0.429688Z" fill="#3E3E3E"/>
</mask>
<g mask="url(#mask0)">
<path fill-rule="evenodd" clip-rule="evenodd" d="M14.7416 0.439041C6.80472 0.446524 0.377265 6.85951 0.384772 14.7635C0.391354 21.8416 5.59118 27.8514 12.6188 28.9028V24.5719C6.14347 23.3943 1.85192 17.2114 3.03541 10.7629C4.21796 4.3134 10.4266 0.040568 16.9019 1.21822C23.3782 2.39586 27.6688 8.57875 26.4863 15.0282C25.5949 19.8847 21.7786 23.6852 16.9019 24.5719V8.7546H15.803L11.0033 13.1696V14.3295H14.0841V29.0524H14.751C22.6878 29.0543 29.1228 22.6469 29.1247 14.7429C29.1256 6.83894 22.6925 0.430623 14.7557 0.429688H14.751L14.7416 0.439041Z" fill="#4193CF"/>
</g>
<path fill-rule="evenodd" clip-rule="evenodd" d="M46.3066 24.5938H49.6663V25.3101H47.1029V26.5366H49.3718V27.2205H47.1029V29.0548H46.3066V24.5938Z" fill="white"/>
<mask id="mask1" mask-type="alpha" maskUnits="userSpaceOnUse" x="0" y="0" width="115" height="30">
<path d="M0.384766 29.0516H114.615V0.0546875H0.384766V29.0516Z" fill="#F89898"/>
</mask>
<g mask="url(#mask1)">
<path fill-rule="evenodd" clip-rule="evenodd" d="M53.1816 29.0548H53.988V24.5938H53.1816V29.0548Z" fill="white"/>
<path fill-rule="evenodd" clip-rule="evenodd" d="M58.623 24.5938H59.2483L61.3201 27.6755V24.5938H61.9828V29.0548H61.4135L59.2857 25.8868V29.0548H58.623V24.5938Z" fill="white"/>
<path fill-rule="evenodd" clip-rule="evenodd" d="M68.2951 27.2907L67.5542 25.5255L66.8348 27.2907H68.2951ZM67.2674 24.5938H67.956L69.8253 29.0548H69.035L68.6034 27.985H66.5481L66.1052 29.0548H65.3457L67.2674 24.5938Z" fill="white"/>
<path fill-rule="evenodd" clip-rule="evenodd" d="M74.3396 24.5938H74.9579L77.0073 27.6755V24.5938H77.6624V29.0548H77.0986L74.9579 25.8868V29.0548H74.3027L74.3396 24.5938Z" fill="white"/>
<path fill-rule="evenodd" clip-rule="evenodd" d="M81.0224 26.83C80.9975 25.6251 81.8088 24.6249 82.8342 24.5956C82.8608 24.5946 82.8884 24.5946 82.915 24.5956C83.4553 24.5695 83.9787 24.817 84.3545 25.2743L83.9369 25.8276C83.6694 25.4998 83.3016 25.3087 82.915 25.2952C82.2326 25.3056 81.687 25.9644 81.6959 26.7652C81.6968 26.783 81.6968 26.8018 81.6977 26.8195C81.663 27.6266 82.1909 28.3125 82.8777 28.3533C82.8902 28.3533 82.9026 28.3543 82.915 28.3543C83.3167 28.3491 83.6979 28.1444 83.9636 27.7905L84.3812 28.2812C84.008 28.7907 83.4597 29.0737 82.8884 29.0538C81.8674 29.0664 81.0321 28.1037 81.0215 26.903C81.0215 26.879 81.0215 26.854 81.0224 26.83Z" fill="white"/>
<path fill-rule="evenodd" clip-rule="evenodd" d="M89.0176 29.0548H89.8239V24.5938H89.0176V29.0548Z" fill="white"/>
<path fill-rule="evenodd" clip-rule="evenodd" d="M96.2844 27.2907L95.5618 25.5255L94.8391 27.2907H96.2844ZM95.2666 24.5938H95.9679L97.8214 29.0548H96.9858L96.5694 27.985H94.5337L94.1052 29.0548H93.3418L95.2666 24.5938Z" fill="white"/>
<path fill-rule="evenodd" clip-rule="evenodd" d="M102.291 24.5938H103.122V28.3329H105.651V29.0548H102.348L102.291 24.5938Z" fill="white"/>
<path fill-rule="evenodd" clip-rule="evenodd" d="M40.3645 18.1462C40.8122 18.8366 41.5935 19.2048 42.3868 19.1024C43.1801 19.2029 43.9605 18.8347 44.4091 18.1462C44.82 17.1823 44.9974 16.1294 44.9239 15.0775C45.0011 14.0371 44.8108 12.9938 44.3724 12.0548C43.9081 11.4141 43.1534 11.0756 42.3868 11.1655C41.6174 11.0737 40.859 11.4122 40.3921 12.0548C39.9536 12.9938 39.7633 14.0371 39.8405 15.0775C39.7753 16.117 39.9554 17.1574 40.3645 18.1079V18.1462ZM38.526 10.4961C39.2982 9.48243 40.5851 8.97656 42.3868 8.97656C44.1885 8.97656 45.4754 9.48243 46.2476 10.4961C47.1126 11.8434 47.5207 13.4519 47.4058 15.067C47.5161 16.6812 47.119 18.2887 46.2752 19.6475C45.5343 20.7128 44.2372 21.2445 42.3868 21.2445C40.5483 21.2445 39.243 20.7281 38.4893 19.6953C37.6528 18.3336 37.2602 16.728 37.3678 15.1158C37.2428 13.4844 37.6509 11.8568 38.526 10.4961Z" fill="white"/>
<path fill-rule="evenodd" clip-rule="evenodd" d="M51.9919 20.1034H49.666V9.19054H51.9658V9.86813C52.8534 9.31001 53.8691 9.00242 54.9101 8.97656C56.33 8.97656 57.3057 9.38579 57.8196 10.206C58.4364 11.4667 58.7073 12.8754 58.6037 14.2814V20.1292H56.2952V14.3171C56.3518 13.4638 56.2238 12.6079 55.9206 11.8118C55.6027 11.275 55.0033 10.9835 54.3962 11.0718C53.6714 11.053 52.9501 11.1894 52.2794 11.4721L51.9658 11.5969L51.9919 20.1034Z" fill="white"/>
<path fill-rule="evenodd" clip-rule="evenodd" d="M68.3813 14.2081C68.4544 13.3583 68.2485 12.5074 67.7944 11.784C67.3163 11.2733 66.6255 11.0155 65.928 11.0845C65.2083 11.0222 64.5003 11.2905 64.0038 11.8127C63.543 12.5237 63.3236 13.363 63.3785 14.2081H68.3813ZM69.7956 18.8552L70.4498 18.7786V20.6949C68.8864 21.0264 67.2951 21.2056 65.6971 21.2315C64.3155 21.3359 62.9628 20.8061 62.0219 19.7942C61.1512 18.4317 60.7529 16.823 60.8867 15.2142C60.8867 11.0558 62.5896 8.97656 65.9963 8.97656C69.2857 8.97656 70.9405 10.7683 70.9405 14.3519L70.7769 16.182H63.4362C63.3852 16.9437 63.6103 17.6987 64.0721 18.3091C64.7033 18.8418 65.5287 19.0881 66.3513 18.9894C67.4673 18.9894 68.6122 18.9415 69.7956 18.8552Z" fill="white"/>
<path fill-rule="evenodd" clip-rule="evenodd" d="M73.1777 6.73139V4.51562H83.2477V6.95483L76.1337 17.4844V17.9126H83.2569V20.1293H73.1869V17.7078L80.2908 7.18758V6.73139H73.1777Z" fill="white"/>
<path fill-rule="evenodd" clip-rule="evenodd" d="M91.9866 14.1993C92.0683 13.3522 91.8731 12.5022 91.429 11.7748C90.9503 11.264 90.2611 11.0062 89.5632 11.0752C88.8451 11.013 88.1376 11.2813 87.6406 11.8036C87.1811 12.5146 86.961 13.3541 87.0167 14.1993H91.9866ZM93.3996 18.8471L94.0524 18.7704V20.687C92.4912 21.0186 90.9013 21.1978 89.3046 21.2237C87.8963 21.3588 86.5063 20.8308 85.546 19.7948C84.6731 18.434 84.2704 16.826 84.4011 15.2151C84.4011 11.0561 86.1064 8.97656 89.5161 8.97656C92.8037 8.97656 94.4561 10.7686 94.4561 14.3526L94.284 16.183H87.0446C86.9898 16.9458 87.2148 17.7019 87.68 18.3104C88.3106 18.8442 89.1364 19.0914 89.9583 18.9908C91.0733 18.9812 92.2173 18.9333 93.3996 18.8471Z" fill="white"/>
<path fill-rule="evenodd" clip-rule="evenodd" d="M96.7012 20.1292V9.21727H99.3105V10.5269C100.553 9.77178 101.949 9.2449 103.421 8.97656V11.3569C102.199 11.5619 101.007 11.8837 99.8628 12.3197L99.3293 12.5149V20.1292H96.7012Z" fill="white"/>
<path fill-rule="evenodd" clip-rule="evenodd" d="M107.556 18.1821C108.591 19.3513 110.337 19.4253 111.458 18.3462C111.513 18.2934 111.565 18.2397 111.615 18.1821C112.023 17.2134 112.2 16.1564 112.132 15.1014C112.209 14.0569 112.018 13.0095 111.579 12.0668C110.524 10.9196 108.775 10.8812 107.675 11.9823C107.648 12.0102 107.62 12.039 107.593 12.0668C107.154 13.0095 106.964 14.0569 107.041 15.1014C106.962 16.1392 107.118 17.1817 107.501 18.1437L107.556 18.1821ZM105.716 10.502C106.49 9.48441 107.777 8.97656 109.572 8.97656C111.368 8.97656 112.666 9.48441 113.439 10.502C114.304 11.8547 114.712 13.4694 114.597 15.0908C114.706 16.7104 114.312 18.3222 113.475 19.6893C112.72 20.7261 111.422 21.2445 109.572 21.2445C107.723 21.2445 106.433 20.7261 105.679 19.6893C104.838 18.3241 104.444 16.7104 104.556 15.0908C104.442 13.4694 104.85 11.8547 105.716 10.502Z" fill="white"/>
</g>
</svg>
