<svg width="109" height="27" viewBox="0 0 109 27" fill="none" xmlns="http://www.w3.org/2000/svg">
<mask id="mask0" mask-type="alpha" maskUnits="userSpaceOnUse" x="0" y="0" width="109" height="27">
<rect x="0.5" y="0.0546875" width="108" height="26" fill="#C4C4C4"/>
</mask>
<g mask="url(#mask0)">
<ellipse cx="4.08505" cy="5.69843" rx="3.18661" ry="3.18671" fill="#EB3A45"/>
<ellipse cx="4.08505" cy="12.0734" rx="3.18661" ry="3.18671" fill="#2BEB78"/>
<ellipse cx="4.08505" cy="18.4465" rx="3.18661" ry="3.18671" fill="#2BEB78"/>
<ellipse cx="10.46" cy="12.0734" rx="3.18661" ry="3.18671" fill="#EB3A45"/>
<ellipse cx="10.46" cy="18.4465" rx="3.18661" ry="3.18671" fill="#2BEB78"/>
<ellipse cx="16.8331" cy="5.69843" rx="3.18661" ry="3.18671" fill="#EB3A45"/>
<ellipse cx="16.8331" cy="12.0734" rx="3.18661" ry="3.18671" fill="#2BEB78"/>
<ellipse cx="16.8331" cy="18.4465" rx="3.18661" ry="3.18671" fill="#2BEB78"/>
<path d="M52.3565 5.34242L56.9657 16.8652L61.5748 5.34242H63.9859V19.4646H62.1268V13.9651L62.3011 8.02912L57.6725 19.4646H56.2491L51.6303 8.05822L51.8142 13.9651V19.4646H49.9551V5.34242H52.3565Z" fill="white"/>
<path d="M73.456 19.4646C73.3527 19.2576 73.2688 18.8891 73.2043 18.3588C72.3715 19.2253 71.3774 19.6585 70.2219 19.6585C69.189 19.6585 68.3401 19.3676 67.6752 18.7856C67.0167 18.1972 66.6875 17.4536 66.6875 16.5548C66.6875 15.462 67.1007 14.6149 67.927 14.0136C68.7597 13.4057 69.9281 13.1018 71.4322 13.1018H73.1752V12.2774C73.1752 11.6502 72.988 11.1523 72.6136 10.7837C72.2392 10.4087 71.6872 10.2212 70.9578 10.2212C70.3187 10.2212 69.7829 10.3828 69.3504 10.7061C68.9179 11.0294 68.7016 11.4206 68.7016 11.8797H66.9005C66.9005 11.356 67.0845 10.8516 67.4525 10.3666C67.8269 9.87521 68.3304 9.48724 68.9631 9.20273C69.6021 8.91822 70.3026 8.77596 71.0643 8.77596C72.2715 8.77596 73.2172 9.07987 73.9014 9.68769C74.5857 10.289 74.9408 11.12 74.9666 12.1804V17.0106C74.9666 17.9741 75.0892 18.7403 75.3346 19.3094V19.4646H73.456ZM70.4833 18.097C71.0449 18.097 71.5775 17.9515 72.081 17.6605C72.5845 17.3695 72.9493 16.9912 73.1752 16.5257V14.3724H71.7712C69.5763 14.3724 68.4789 15.0158 68.4789 16.3026C68.4789 16.8652 68.6661 17.3049 69.0405 17.6217C69.4149 17.9385 69.8959 18.097 70.4833 18.097Z" fill="white"/>
<path d="M82.839 10.58C82.5678 10.5348 82.2741 10.5121 81.9578 10.5121C80.7829 10.5121 79.9857 11.0133 79.5661 12.0155V19.4646H77.7747V8.96995H79.5177L79.5467 10.1824C80.1341 9.24476 80.9669 8.77596 82.045 8.77596C82.3935 8.77596 82.6582 8.82123 82.839 8.91175V10.58Z" fill="white"/>
<path d="M83.8751 14.13C83.8751 12.494 84.2527 11.1943 85.008 10.2309C85.7633 9.26093 86.7639 8.77596 88.0098 8.77596C89.2879 8.77596 90.2853 9.2286 91.0018 10.1339L91.089 8.96995H92.7254V19.2124C92.7254 20.5703 92.322 21.6404 91.5151 22.4228C90.7146 23.2052 89.6365 23.5964 88.2809 23.5964C87.5256 23.5964 86.7865 23.4348 86.0634 23.1115C85.3404 22.7882 84.7885 22.3452 84.4076 21.7827L85.3372 20.7061C86.1054 21.6566 87.0447 22.1319 88.155 22.1319C89.0265 22.1319 89.7043 21.8861 90.1885 21.3947C90.6791 20.9033 90.9244 20.2114 90.9244 19.3191V18.417C90.2078 19.2447 89.2298 19.6585 87.9904 19.6585C86.7639 19.6585 85.7697 19.1639 85.008 18.1746C84.2527 17.1852 83.8751 15.837 83.8751 14.13ZM85.6761 14.3336C85.6761 15.517 85.9182 16.4481 86.4024 17.127C86.8865 17.7995 87.5643 18.1358 88.4358 18.1358C89.5655 18.1358 90.395 17.6217 90.9244 16.5936V11.8021C90.3757 10.7999 89.5526 10.2987 88.4552 10.2987C87.5837 10.2987 86.9027 10.6382 86.412 11.3172C85.9214 11.9961 85.6761 13.0016 85.6761 14.3336Z" fill="white"/>
<path d="M97.383 19.4646H95.5917V8.96995H97.383V19.4646ZM95.4464 6.18626C95.4464 5.89528 95.5336 5.64957 95.7078 5.44911C95.8886 5.24866 96.1533 5.14844 96.5019 5.14844C96.8505 5.14844 97.1151 5.24866 97.2959 5.44911C97.4766 5.64957 97.567 5.89528 97.567 6.18626C97.567 6.47724 97.4766 6.71972 97.2959 6.9137C97.1151 7.10769 96.8505 7.20468 96.5019 7.20468C96.1533 7.20468 95.8886 7.10769 95.7078 6.9137C95.5336 6.71972 95.4464 6.47724 95.4464 6.18626Z" fill="white"/>
<path d="M101.953 8.96995L102.012 10.289C102.812 9.28032 103.858 8.77596 105.149 8.77596C107.363 8.77596 108.48 10.0272 108.499 12.5296V19.4646H106.708V12.5199C106.701 11.7633 106.527 11.204 106.185 10.8419C105.849 10.4798 105.323 10.2987 104.607 10.2987C104.026 10.2987 103.516 10.4539 103.077 10.7643C102.638 11.0747 102.296 11.4821 102.05 11.9864V19.4646H100.259V8.96995H101.953Z" fill="white"/>
<path d="M30.0607 19.4538C33.2549 19.4538 35.459 17.925 35.459 15.4357C35.459 13.5932 33.8149 12.2211 31.803 12.0447V11.8683C33.3067 11.6429 34.7226 10.3296 34.7226 8.83996C34.7226 6.66426 32.7571 5.3118 29.9155 5.3118H23.7891V19.4538H30.0607ZM26.5919 7.28169H29.2621C30.88 7.28169 31.9509 8.01672 31.9509 9.28098C31.9509 10.5746 30.8177 11.2705 28.9199 11.2705H26.5919V7.28169ZM26.5919 17.484V13.064H29.3451C31.3881 13.064 32.5939 13.8186 32.5939 15.2593C32.5939 16.7097 31.4192 17.484 29.4488 17.484H26.5919Z" fill="white"/>
<path d="M36.844 9.61678H39.4809C39.4809 8.12711 40.3908 6.98768 42.019 6.98768C43.585 6.98768 44.5184 7.97752 44.5184 9.26138C44.5184 10.3394 44.0621 11.0157 42.1746 12.8189L36.9892 17.7486V19.4538H47.5079V17.3566H40.619V17.1899L43.9611 14.2008C46.5331 11.8193 47.2901 10.6726 47.2901 9.02617C47.2901 6.67406 45.1407 4.95898 42.1642 4.95898C39.0426 4.95898 36.844 6.94126 36.844 9.61678Z" fill="white"/>
</g>
</svg>
