<svg width="108" height="15" viewBox="0 0 108 15" fill="none" xmlns="http://www.w3.org/2000/svg">
<path d="M0.915039 0.727707H7.62569C9.42942 0.727707 12.3387 1.55239 12.3387 4.32098C12.3387 6.71649 10.341 7.34482 10.341 7.34482C10.341 7.34482 12.8041 7.73753 12.8235 10.5847C12.8235 12.7249 11.2913 14.5117 8.16875 14.5117H0.915039V12.8623L2.40845 12.5875V2.65197L0.915039 2.35744V0.727707ZM13.8127 4.98858C13.8127 4.98858 13.7351 0.511719 18.5451 0.511719C22.8313 0.511719 23.1417 3.83009 23.1223 4.49769C23.1223 5.32238 22.7538 6.57904 22.2883 7.12883C21.5513 8.03205 17.6141 12.4107 17.6141 12.4107H21.3185L21.4349 11.0363H23.5102V14.5117H14.026V12.7053L18.4287 8.07133C18.4287 8.07133 20.4264 6.00961 20.3488 4.5566C20.31 3.96754 20.0385 2.65197 18.5257 2.65197C16.9935 2.65197 16.528 3.92827 16.528 5.00821L13.8127 4.98858ZM8.24633 12.4107C8.24633 12.4107 10.0889 12.2929 10.0889 10.5454C10.0889 8.79783 8.84758 8.38549 8.3821 8.38549H5.18193V12.4107H8.24633ZM7.54811 2.82869H5.16253V6.52013C5.16253 6.52013 7.64509 6.52013 7.74206 6.52013C7.85843 6.52013 9.5264 6.38269 9.5264 4.71368C9.54579 2.8876 7.54811 2.82869 7.54811 2.82869Z" fill="#01B68F"/>
<path d="M38.4648 4.82952H37.6114V1.80567H33.3445V13.3709H34.6052V14.2741H31.0753V13.3709H32.336V1.80567H28.0691V4.84915H27.1963V0.882812H38.4648V4.82952Z" fill="white"/>
<path d="M34.8017 14.4714H30.8839V13.1755H32.1445V1.98333H28.2656V5.02681H27.0049V0.707031H38.6419V5.02681H37.42V1.98333H33.541V13.1755H34.8017V14.4714ZM31.2718 14.0787H34.4332V13.5485H33.1725V1.61026H37.8079V4.65373H38.2927V1.0801H27.3928V4.65373H27.897V1.61026H32.5324V13.5485H31.2718V14.0787Z" fill="white"/>
<path d="M52.6058 13.3708V14.274H49.9681L49.5414 13.4101C48.6686 11.6429 48.048 10.4451 47.6795 9.85606C47.311 9.24736 46.9813 8.85466 46.6516 8.6583C46.3218 8.46195 45.837 8.36377 45.1775 8.36377H42.6756V13.3708H44.2466V14.274H40.4258V13.3708H41.6865V1.80557H40.4258V0.902344H46.9231C49.7741 0.902344 51.0348 2.02156 51.0348 4.57415C51.0348 6.91076 49.9293 8.02997 47.5049 8.08888V8.18705C47.7959 8.28523 48.0286 8.44231 48.2032 8.6583C48.3971 8.87429 48.6686 9.30627 48.9984 9.97387C49.3475 10.6022 49.9099 11.7607 50.7051 13.3708H52.6058ZM46.9813 1.80557H42.695V7.46055H46.9619C49.0953 7.46055 50.0263 6.59659 50.0263 4.63306C50.0069 2.63025 49.1147 1.80557 46.9813 1.80557Z" fill="white"/>
<path d="M52.7987 14.4696H49.8506L49.3852 13.4878C48.5124 11.7402 47.8917 10.5425 47.5426 9.95343C47.1935 9.36437 46.8638 8.9913 46.5729 8.81458C46.282 8.63786 45.8165 8.55932 45.1959 8.55932H42.8879V13.1736H44.4588V14.4696H40.2695V13.1736H41.5302V1.98148H40.2695V0.685547H46.922C49.8894 0.685547 51.2083 1.8833 51.2083 4.55371C51.2083 6.81177 50.161 8.00953 48.0275 8.22552C48.1439 8.30406 48.2409 8.40224 48.3378 8.50041C48.5318 8.7164 48.8033 9.14838 49.1718 9.85525C49.5403 10.5229 50.1028 11.6617 50.8204 13.154H52.7987V14.4696ZM50.0834 14.0768H52.4108V13.5467H50.5682L50.5101 13.4485C49.7731 11.8973 49.1718 10.7388 48.8227 10.0516C48.4736 9.40364 48.2215 8.97166 48.0469 8.77531C47.8724 8.57895 47.659 8.44151 47.4263 8.36296L47.2905 8.32369V7.91135H47.4651C49.7731 7.85245 50.8204 6.83141 50.8204 4.57334C50.8204 2.13856 49.6567 1.09789 46.9026 1.09789H40.6186V1.62804H41.8793V13.5663H40.6186V14.0965H44.0709V13.5663H42.5V8.16661H45.1959C45.8747 8.16661 46.4177 8.26479 46.7668 8.48078C47.1159 8.69676 47.4651 9.10911 47.8724 9.73744C48.2409 10.3461 48.8615 11.5439 49.7343 13.3111L50.0834 14.0768ZM46.9608 7.63646H42.5193V1.60841H46.9802C49.2106 1.60841 50.1997 2.53127 50.1997 4.61262C50.1997 6.69396 49.1912 7.63646 46.9608 7.63646ZM42.8879 7.26339H46.9608C48.9973 7.26339 49.8312 6.49761 49.8312 4.63225C49.8312 2.72762 49.0361 2.00111 46.9802 2.00111H42.8879V7.26339Z" fill="white"/>
<path d="M67.1699 13.3708V14.274H63.0775V13.3708H64.8813L63.3879 9.50262H57.6276L56.1342 13.3708H57.9379V14.274H53.9619V13.3708H55.1644L59.9162 0.902344H61.1962L65.9674 13.3708H67.1699ZM63.0582 8.63867L60.5368 2.06083H60.4592L57.9379 8.63867H63.0582Z" fill="white"/>
<path d="M67.347 14.4695H62.8861V13.1735H64.5929L63.2546 9.67843H57.7465L56.4082 13.1735H58.115V14.4695H53.7705V13.1735H55.0312L59.7829 0.705078H61.3151L66.0863 13.1735H67.347V14.4695ZM63.2546 14.0767H66.9591V13.5466H65.8148L61.0436 1.07815H60.0157L55.2639 13.5466H54.1196V14.0767H57.7077V13.5466H55.8458L57.4749 9.30536H63.5068L65.136 13.5466H63.2546V14.0767ZM63.3322 8.83411H57.6689L60.326 1.8832H60.6557L63.3322 8.83411ZM58.212 8.46104H62.7892L60.5006 2.49189L58.212 8.46104Z" fill="white"/>
<path d="M74.0383 14.276H68.7822V13.3727H70.0429V1.80752H68.7822V0.904297H74.0383C78.0336 0.904297 80.2059 3.182 80.2059 7.59995C80.2059 11.9786 78.0336 14.276 74.0383 14.276ZM74.0964 1.80752H71.032V13.3727H74.0964C77.3936 13.3727 79.1973 11.3896 79.1973 7.59995C79.1973 3.79069 77.3936 1.80752 74.0964 1.80752Z" fill="white"/>
<path d="M74.037 14.4696H68.6064V13.1736H69.8671V1.98148H68.6064V0.685547H74.037C78.1876 0.685547 80.3986 3.06142 80.3986 7.55792C80.3986 12.0151 78.1294 14.4696 74.037 14.4696ZM68.975 14.0768H74.037C77.9548 14.0768 80.0107 11.8384 80.0107 7.57755C80.0107 3.31668 77.9354 1.07825 74.037 1.07825H68.975V1.60841H70.2356V13.5467H68.975V14.0768ZM74.0952 13.5467H70.8563V1.60841H74.0952C77.5087 1.60841 79.39 3.72902 79.39 7.57755C79.39 11.4261 77.5087 13.5467 74.0952 13.5467ZM71.2248 13.1736H74.0952C77.3148 13.1736 79.0021 11.2494 79.0021 7.57755C79.0021 3.92538 77.2954 1.98148 74.0952 1.98148H71.2248V13.1736Z" fill="white"/>
<path d="M92.0147 4.1834V1.80752H84.5477V6.89308H90.5795V7.77667H84.5477V13.3727H92.0147V10.6238H92.9651V14.276H82.2979V13.3727H83.5585V1.80752H82.2979V0.904297H92.9651V4.1834H92.0147Z" fill="white"/>
<path d="M93.1616 14.4696H82.1064V13.1736H83.3671V1.98148H82.1064V0.685547H93.1616V4.35735H91.8233V1.98148H84.7248V6.69396H90.7566V7.97026H84.7248V13.1736H91.8233V10.4247H93.1616V14.4696ZM82.4749 14.0768H92.7737V10.7977H92.1918V13.5467H84.3563V7.57755H90.3881V7.06703H84.3563V1.60841H92.1918V3.98428H92.7737V1.07825H82.4749V1.60841H83.7356V13.5467H82.4749V14.0768Z" fill="white"/>
<path d="M107.533 13.3727V14.276H104.895L104.468 13.412C103.595 11.6448 102.975 10.4471 102.606 9.85801C102.238 9.24932 101.908 8.85661 101.578 8.66026C101.249 8.4639 100.764 8.36573 100.104 8.36573H97.6023V13.3727H99.1733V14.276H95.3525V13.3727H96.6132V1.80752H95.3525V0.904297H101.83C104.682 0.904297 105.942 2.02351 105.942 4.5761C105.942 6.91271 104.837 8.03192 102.412 8.09083V8.18901C102.703 8.28718 102.936 8.44427 103.111 8.66026C103.304 8.87624 103.576 9.30822 103.906 9.97582C104.255 10.6042 104.817 11.7626 105.612 13.3727H107.533ZM101.908 1.80752H97.6217V7.4625H101.889C104.022 7.4625 104.953 6.59855 104.953 4.63501C104.934 2.63221 104.041 1.80752 101.908 1.80752Z" fill="white"/>
<path d="M107.725 14.4696H104.777L104.312 13.4878C103.439 11.7402 102.819 10.5425 102.469 9.95343C102.12 9.36437 101.791 8.9913 101.5 8.81458C101.209 8.63786 100.743 8.55932 100.123 8.55932H97.8146V13.1736H99.3856V14.4696H95.1963V13.1736H96.457V1.98148H95.1963V0.685547H101.849C104.816 0.685547 106.135 1.8833 106.135 4.55371C106.135 6.81177 105.088 8.00953 102.954 8.22552C103.071 8.30406 103.168 8.40224 103.265 8.50041C103.459 8.7164 103.73 9.14838 104.099 9.85525C104.448 10.5229 105.03 11.6617 105.747 13.154H107.725V14.4696ZM105.01 14.0768H107.338V13.5467H105.495L105.437 13.4485C104.7 11.8973 104.099 10.7388 103.749 10.0516C103.4 9.384 103.148 8.97166 102.974 8.77531C102.799 8.57895 102.586 8.44151 102.353 8.36296L102.217 8.32369V7.91135H102.392C104.7 7.85245 105.747 6.83141 105.747 4.57334C105.747 2.13856 104.583 1.09789 101.829 1.09789H95.5454V1.62804H96.8061V13.5663H95.5454V14.0965H98.9977V13.5663H97.4267V8.16661H100.123C100.801 8.16661 101.344 8.26479 101.694 8.48078C102.043 8.69676 102.392 9.10911 102.799 9.73744C103.168 10.3461 103.788 11.5439 104.661 13.3111L105.01 14.0768ZM101.888 7.63646H97.4461V1.60841H101.907C104.137 1.60841 105.127 2.53127 105.127 4.61262C105.127 6.69396 104.118 7.63646 101.888 7.63646ZM97.8146 7.26339H101.888C103.924 7.26339 104.758 6.49761 104.758 4.63225C104.758 2.72762 103.963 2.00111 101.907 2.00111H97.8146V7.26339Z" fill="white"/>
</svg>
