<svg width="91" height="87" viewBox="0 0 91 87" fill="none" xmlns="http://www.w3.org/2000/svg">
                  <path d="M0.999992 79.3262V80.3262H-7.62939e-06V79.3262H0.999992ZM90.7071 78.6191C91.0976 79.0096 91.0976 79.6428 90.7071 80.0333L84.3431 86.3972C83.9526 86.7878 83.3195 86.7878 82.9289 86.3972C82.5384 86.0067 82.5384 85.3736 82.9289 84.983L88.5858 79.3262L82.9289 73.6693C82.5384 73.2788 82.5384 72.6456 82.9289 72.2551C83.3195 71.8646 83.9526 71.8646 84.3431 72.2551L90.7071 78.6191ZM1.99999 0.326172V79.3262H-7.62939e-06V0.326172H1.99999ZM0.999992 78.3262H90V80.3262H0.999992V78.3262Z" fill="#AABDCC"/>
                  </svg>