<svg width="156" height="16" viewBox="0 0 156 16" fill="none" xmlns="http://www.w3.org/2000/svg">
<path fill-rule="evenodd" clip-rule="evenodd" d="M149.343 0.928622L155.707 7.29258C156.098 7.68311 156.098 8.31627 155.707 8.7068L149.343 15.0708C148.953 15.4613 148.319 15.4613 147.929 15.0708C147.538 14.6802 147.538 14.0471 147.929 13.6565L152.586 8.99969L7.31202e-07 8.99972L5.56356e-07 6.99972L152.586 6.99969L147.929 2.34284C147.538 1.95231 147.538 1.31915 147.929 0.928623C148.319 0.538098 148.953 0.538098 149.343 0.928622Z" fill="#B0C4D4"/>
<path d="M99 8.5C99 10.433 97.433 12 95.5 12C93.567 12 92 10.433 92 8.5C92 6.567 93.567 5 95.5 5C97.433 5 99 6.567 99 8.5Z" fill="#9DAFBD"/>
</svg>
