<svg width="503" height="69" viewBox="0 0 503 69" fill="none" xmlns="http://www.w3.org/2000/svg">
<path fill-rule="evenodd" clip-rule="evenodd" d="M502.071 62.3432L495.707 68.7071C495.317 69.0977 494.683 69.0977 494.293 68.7071L487.929 62.3432C487.538 61.9526 487.538 61.3195 487.929 60.929C488.32 60.5384 488.953 60.5384 489.343 60.929L494 65.5858L494 40.2308L9.00006 40.2308L9.00006 65.5858L13.6569 60.929C14.0475 60.5384 14.6806 60.5384 15.0711 60.929C15.4616 61.3195 15.4616 61.9527 15.0711 62.3432L8.70715 68.7071C8.31665 69.0977 7.68347 69.0977 7.29297 68.7071L0.928983 62.3432C0.53848 61.9527 0.53848 61.3195 0.928983 60.929C1.31952 60.5384 1.95266 60.5384 2.3432 60.929L7.00006 65.5858L7.00006 38.2308L250.5 38.2308L250.5 1.95083e-05L252.5 1.95957e-05L252.5 38.2308L496 38.2308L496 65.5858L500.657 60.929C501.047 60.5384 501.681 60.5384 502.071 60.929C502.462 61.3195 502.462 61.9526 502.071 62.3432Z" fill="#B0C4D4"/>
</svg>
