<svg width="24" height="358" viewBox="0 0 24 358" fill="none" xmlns="http://www.w3.org/2000/svg">
<path fill-rule="evenodd" clip-rule="evenodd" d="M0 172.5H19.8889V174.5H2V221.5H18.5858L13.9289 216.843C13.5384 216.453 13.5384 215.819 13.9289 215.429C14.3195 215.038 14.9526 215.038 15.3431 215.429L21.7071 221.793C22.0976 222.183 22.0976 222.817 21.7071 223.207L15.3431 229.571C14.9526 229.962 14.3195 229.962 13.9289 229.571C13.5384 229.181 13.5384 228.547 13.9289 228.157L18.5858 223.5H0V172.5Z" fill="#B0C4D4"/>
<path fill-rule="evenodd" clip-rule="evenodd" d="M0 285.5H19.8889V287.5H2V349.5H18.5858L13.9289 344.843C13.5384 344.453 13.5384 343.819 13.9289 343.429C14.3195 343.038 14.9526 343.038 15.3431 343.429L21.7071 349.793C22.0976 350.183 22.0976 350.817 21.7071 351.207L15.3431 357.571C14.9526 357.962 14.3195 357.962 13.9289 357.571C13.5384 357.181 13.5384 356.547 13.9289 356.157L18.5858 351.5H0V285.5Z" fill="#B0C4D4"/>
<path fill-rule="evenodd" clip-rule="evenodd" d="M0 0H24V2H2V74.5H18.5858L13.9289 69.8431C13.5384 69.4526 13.5384 68.8195 13.9289 68.4289C14.3195 68.0384 14.9526 68.0384 15.3431 68.4289L21.7071 74.7929C22.0976 75.1834 22.0976 75.8166 21.7071 76.2071L15.3431 82.5711C14.9526 82.9616 14.3195 82.9616 13.9289 82.5711C13.5384 82.1805 13.5384 81.5474 13.9289 81.1569L18.5858 76.5H0V0Z" fill="#B0C4D4"/>
<path fill-rule="evenodd" clip-rule="evenodd" d="M0 221.5H19.8889V223.5H2V285.5H18.5858L13.9289 280.843C13.5384 280.453 13.5384 279.819 13.9289 279.429C14.3195 279.038 14.9526 279.038 15.3431 279.429L21.7071 285.793C22.0976 286.183 22.0976 286.817 21.7071 287.207L15.3431 293.571C14.9526 293.962 14.3195 293.962 13.9289 293.571C13.5384 293.181 13.5384 292.547 13.9289 292.157L18.5858 287.5H0V221.5Z" fill="#B0C4D4"/>
<path fill-rule="evenodd" clip-rule="evenodd" d="M0 123.5H19.8889V125.5H2V172.5H18.5858L13.9289 167.843C13.5384 167.453 13.5384 166.819 13.9289 166.429C14.3195 166.038 14.9526 166.038 15.3431 166.429L21.7071 172.793C22.0976 173.183 22.0976 173.817 21.7071 174.207L15.3431 180.571C14.9526 180.962 14.3195 180.962 13.9289 180.571C13.5384 180.181 13.5384 179.547 13.9289 179.157L18.5858 174.5H0V123.5Z" fill="#B0C4D4"/>
<path fill-rule="evenodd" clip-rule="evenodd" d="M0 74.5H19.8889V76.5H2V123.5H18.5858L13.9289 118.843C13.5384 118.453 13.5384 117.819 13.9289 117.429C14.3195 117.038 14.9526 117.038 15.3431 117.429L21.7071 123.793C22.0976 124.183 22.0976 124.817 21.7071 125.207L15.3431 131.571C14.9526 131.962 14.3195 131.962 13.9289 131.571C13.5384 131.181 13.5384 130.547 13.9289 130.157L18.5858 125.5H0V74.5Z" fill="#B0C4D4"/>
</svg>
