<svg width="195" height="68" viewBox="0 0 195 68" fill="none" xmlns="http://www.w3.org/2000/svg">
<path d="M188.494 26.9741L189.494 26.9741L189.494 25.9741L188.494 25.9741L188.494 26.9741ZM1.7929 26.266C1.40237 26.6566 1.40237 27.2897 1.79288 27.6803L8.15682 34.0442C8.54733 34.4348 9.1805 34.4348 9.57103 34.0443C9.96156 33.6537 9.96156 33.0206 9.57103 32.63L3.91421 26.9732L9.5711 21.3163C9.96162 20.9258 9.96163 20.2926 9.5711 19.9021C9.18058 19.5116 8.54742 19.5116 8.15689 19.9021L1.7929 26.266ZM189.494 67.9741L189.494 26.9741L187.494 26.9741L187.494 67.9741L189.494 67.9741ZM188.494 25.9741L2.50001 25.9731L2.49999 27.9731L188.494 27.9741L188.494 25.9741Z" fill="#30B3FD"/>
<circle cx="67" cy="26.4727" r="3.5" fill="#30B3FD"/>
</svg>
