<svg width="259" height="70" viewBox="0 0 259 70" fill="none" xmlns="http://www.w3.org/2000/svg">
<path fill-rule="evenodd" clip-rule="evenodd" d="M258.5 3.97266L6.5 3.97299L6.5 49.5584L1.84314 44.9016C1.45261 44.5111 0.819462 44.5111 0.428928 44.9016C0.0384252 45.2921 0.0384253 45.9253 0.428928 46.3158L6.7929 52.6798C7.18341 53.0703 7.81659 53.0703 8.20711 52.6798L14.5711 46.3158C14.9616 45.9253 14.9616 45.2921 14.5711 44.9016C14.1805 44.5111 13.5474 44.5111 13.1569 44.9016L8.5 49.5584L8.5 5.97299L256.5 5.97266L256.5 69.9726L258.5 69.9726L258.5 3.97266Z" fill="#5CE9CC"/>
<path d="M111.5 4.47266C111.5 6.40565 109.933 7.97266 108 7.97266C106.067 7.97266 104.5 6.40565 104.5 4.47266C104.5 2.53966 106.067 0.972656 108 0.972656C109.933 0.972656 111.5 2.53966 111.5 4.47266Z" fill="#03E2B2"/>
</svg>
