<svg width="31" height="352" viewBox="0 0 31 352" fill="none" xmlns="http://www.w3.org/2000/svg">
<path fill-rule="evenodd" clip-rule="evenodd" d="M0 97.9999H20.0909V99.9999H2V147H23.1312L18.4744 142.343C18.0839 141.953 18.0839 141.319 18.4744 140.929C18.8649 140.538 19.4981 140.538 19.8886 140.929L26.2526 147.293C26.6431 147.683 26.6431 148.317 26.2526 148.707L19.8886 155.071C19.4981 155.462 18.8649 155.462 18.4744 155.071C18.0839 154.68 18.0839 154.047 18.4744 153.657L23.1312 149H0V97.9999Z" fill="#B0C4D4"/>
<path fill-rule="evenodd" clip-rule="evenodd" d="M0 147H20.0909V149H2V196H23.1312L18.4744 191.343C18.0839 190.953 18.0839 190.319 18.4744 189.929C18.8649 189.538 19.4981 189.538 19.8886 189.929L26.2526 196.293C26.6431 196.683 26.6431 197.317 26.2526 197.707L19.8886 204.071C19.4981 204.462 18.8649 204.462 18.4744 204.071C18.0839 203.68 18.0839 203.047 18.4744 202.657L23.1312 198H0V147Z" fill="#B0C4D4"/>
<path fill-rule="evenodd" clip-rule="evenodd" d="M0 196H20.0909V198H2V245H23.1312L18.4744 240.343C18.0839 239.953 18.0839 239.319 18.4744 238.929C18.8649 238.538 19.4981 238.538 19.8886 238.929L26.2526 245.293C26.6431 245.683 26.6431 246.317 26.2526 246.707L19.8886 253.071C19.4981 253.462 18.8649 253.462 18.4744 253.071C18.0839 252.68 18.0839 252.047 18.4744 251.657L23.1312 247H0V196Z" fill="#B0C4D4"/>
<path fill-rule="evenodd" clip-rule="evenodd" d="M0 294H20.0909V296H2V343H23.1312L18.4744 338.343C18.0839 337.953 18.0839 337.319 18.4744 336.929C18.8649 336.538 19.4981 336.538 19.8886 336.929L26.2526 343.293C26.6431 343.683 26.6431 344.317 26.2526 344.707L19.8886 351.071C19.4981 351.462 18.8649 351.462 18.4744 351.071C18.0839 350.68 18.0839 350.047 18.4744 349.657L23.1312 345H0V294Z" fill="#B0C4D4"/>
<path fill-rule="evenodd" clip-rule="evenodd" d="M0 245H20.0909V247H2V294H23.1312L18.4744 289.343C18.0839 288.953 18.0839 288.319 18.4744 287.929C18.8649 287.538 19.4981 287.538 19.8886 287.929L26.2526 294.293C26.6431 294.683 26.6431 295.317 26.2526 295.707L19.8886 302.071C19.4981 302.462 18.8649 302.462 18.4744 302.071C18.0839 301.68 18.0839 301.047 18.4744 300.657L23.1312 296H0V245Z" fill="#B0C4D4"/>
<path fill-rule="evenodd" clip-rule="evenodd" d="M0 48.9999H24.1818V50.9999H2V97.9999H23.1312L18.4744 93.3431C18.0839 92.9526 18.0839 92.3194 18.4744 91.9289C18.8649 91.5383 19.4981 91.5383 19.8886 91.9289L26.2526 98.2928C26.6431 98.6834 26.6431 99.3165 26.2526 99.707L19.8886 106.071C19.4981 106.462 18.8649 106.462 18.4744 106.071C18.0839 105.68 18.0839 105.047 18.4744 104.657L23.1312 99.9999H0V48.9999Z" fill="#B0C4D4"/>
<path fill-rule="evenodd" clip-rule="evenodd" d="M0 -6.10352e-05H31V1.99994H2V48.9999H23.1312L18.4744 44.3431C18.0839 43.9526 18.0839 43.3194 18.4744 42.9289C18.8649 42.5383 19.4981 42.5383 19.8886 42.9289L26.2526 49.2928C26.6431 49.6834 26.6431 50.3165 26.2526 50.707L19.8886 57.071C19.4981 57.4615 18.8649 57.4615 18.4744 57.071C18.0839 56.6805 18.0839 56.0473 18.4744 55.6568L23.1312 50.9999H0V-6.10352e-05Z" fill="#B0C4D4"/>
</svg>
