<svg width="476" height="103" viewBox="0 0 476 103" fill="none" xmlns="http://www.w3.org/2000/svg">
<circle cx="17.4522" cy="17.9869" r="16.8449" transform="rotate(-0.723142 17.4522 17.9869)" fill="#5599FF"/>
<circle cx="50.9691" cy="17.9863" r="16.8449" transform="rotate(-0.723142 50.9691 17.9863)" fill="#87B7FF"/>
<circle cx="84.486" cy="17.9863" r="16.8449" transform="rotate(-0.723142 84.486 17.9863)" fill="#004DED"/>
<circle cx="17.4522" cy="51.5041" r="16.8449" transform="rotate(-0.723142 17.4522 51.5041)" fill="#87B7FF"/>
<circle cx="84.486" cy="51.5043" r="16.8449" transform="rotate(-0.723142 84.486 51.5043)" fill="#1073FF"/>
<circle cx="17.4522" cy="85.0209" r="16.8449" transform="rotate(-0.723142 17.4522 85.0209)" fill="#004DED"/>
<circle cx="50.9691" cy="85.0218" r="16.8449" transform="rotate(-0.723142 50.9691 85.0218)" fill="#1073FF"/>
<circle cx="84.486" cy="85.0218" r="16.8449" transform="rotate(-0.723142 84.486 85.0218)" fill="#5599FF"/>
<path d="M292.661 92.5208C308.327 92.5208 319.962 82.8209 322.411 69.3492V69.2472H313.124L313.022 69.3492C310.726 77.82 302.918 83.563 292.661 83.563C278.475 83.563 270.083 72.4664 270.083 54.045V53.943C270.083 35.5215 278.475 24.3739 292.61 24.3739C302.765 24.3739 310.624 29.8573 313.073 39.2977L313.124 39.3997H322.36L322.411 39.2977C320.217 25.1627 308.123 15.4161 292.61 15.4161C272.607 15.4161 259.669 30.2145 259.669 53.943V54.045C259.669 77.7224 272.658 92.5208 292.661 92.5208Z" fill="#292929"/>
<path d="M356.728 91.7554C372.394 91.7554 382.576 80.9372 382.576 63.3323V63.2302C382.576 45.5742 372.394 34.8071 356.728 34.8071C341.062 34.8071 331.367 45.5742 331.367 63.2302V63.3323C331.367 80.9372 341.062 91.7554 356.728 91.7554ZM356.728 83.8969C346.318 83.8969 340.45 76.2936 340.45 63.3323V63.2302C340.45 50.2178 346.318 42.6656 356.728 42.6656C367.138 42.6656 373.006 50.2178 373.006 63.2302V63.3323C373.006 76.2936 367.138 83.8969 356.728 83.8969Z" fill="#292929"/>
<path d="M393.29 90.7858H402.656V56.6985C402.656 48.6359 408.677 43.2779 417.148 43.2779C419.087 43.2779 421.258 43.969 423.095 44.2752V35.6513C422.228 35.4982 419.853 34.8071 418.169 34.8071C410.719 34.8071 405.565 38.175 403.472 43.9413H402.656V35.7767H393.29V90.7858Z" fill="#292929"/>
<path d="M452.411 91.7554C465.372 91.7554 473.231 84.4072 475.119 76.957L475.221 76.5488H466.342L466.138 77.008C464.658 80.3249 460.065 83.8459 452.615 83.8459C442.818 83.8459 436.541 77.2121 436.286 65.8327H475.884V62.3627C475.884 45.9314 466.801 34.8071 451.85 34.8071C436.898 34.8071 426.716 46.4417 426.716 63.4343V63.4854C426.716 80.7331 436.694 91.7554 452.411 91.7554ZM451.799 42.7166C459.912 42.7166 465.934 47.8705 466.852 58.7397H436.439C437.409 48.2787 443.634 42.7166 451.799 42.7166Z" fill="#292929"/>
<path d="M155.316 91.6152C172.285 91.6152 183.993 83.4935 183.993 70.2697C183.993 60.482 175.26 53.1933 164.572 52.2562V51.3191C172.56 50.1217 180.082 43.1453 180.082 35.2319C180.082 23.6741 169.64 16.4895 154.545 16.4895H122V91.6152H155.316ZM136.889 26.954H151.074C159.668 26.954 165.357 30.8586 165.357 37.5747C165.357 44.4469 159.338 48.1433 149.256 48.1433H136.889V26.954ZM136.889 81.1507V57.6707H151.515C162.368 57.6707 168.773 61.6795 168.773 69.3326C168.773 77.0378 162.533 81.1507 152.066 81.1507H136.889Z" fill="#292929"/>
<path d="M191.351 39.3585H205.359C205.359 31.445 210.192 25.3921 218.842 25.3921C227.161 25.3921 232.119 30.6504 232.119 37.4705C232.119 43.1974 229.695 46.7897 219.668 56.3691L192.122 82.5564V91.6152H248V80.4739H211.404V79.5889L229.159 63.7099C242.821 51.0588 246.843 44.9675 246.843 36.2211C246.843 23.7261 235.424 14.6152 219.613 14.6152C203.03 14.6152 191.351 25.1455 191.351 39.3585Z" fill="#292929"/>
</svg>
