<svg width="416" height="69" viewBox="0 0 416 69" fill="none" xmlns="http://www.w3.org/2000/svg">
<path d="M7.29289 68.707C7.68341 69.0976 8.31658 69.0976 8.7071 68.707L15.0711 62.3431C15.4616 61.9525 15.4616 61.3194 15.0711 60.9289C14.6805 60.5383 14.0474 60.5383 13.6569 60.9289L8 66.5857L2.34314 60.9289C1.95262 60.5383 1.31945 60.5383 0.92893 60.9289C0.538405 61.3194 0.538405 61.9525 0.928929 62.3431L7.29289 68.707ZM8 45.9999L8 44.9999L7 44.9999L7 45.9999L8 45.9999ZM408 45.9999L409 45.9999L409 44.9999L408 44.9999L408 45.9999ZM407.293 68.707C407.683 69.0975 408.317 69.0975 408.707 68.707L415.071 62.3431C415.462 61.9525 415.462 61.3194 415.071 60.9288C414.681 60.5383 414.047 60.5383 413.657 60.9288L408 66.5857L402.343 60.9288C401.953 60.5383 401.319 60.5383 400.929 60.9288C400.538 61.3194 400.538 61.9525 400.929 62.3431L407.293 68.707ZM208 45.9999L208 46.9999L208 45.9999ZM9 67.9999L9 45.9999L7 45.9999L7 67.9999L9 67.9999ZM407 45.9999L407 67.9999L409 67.9999L409 45.9999L407 45.9999ZM208 46.9999L408 46.9999L408 44.9999L208 44.9999L208 46.9999ZM8 46.9999L208 46.9999L208 44.9999L8 44.9999L8 46.9999ZM207 6.4728e-06L207 45.9999L209 45.9999L209 6.56022e-06L207 6.4728e-06Z" fill="#B0C4D4"/>
</svg>
