<svg width="31" height="352" viewBox="0 0 31 352" fill="none" xmlns="http://www.w3.org/2000/svg">
<path fill-rule="evenodd" clip-rule="evenodd" d="M31 97.9999H10.9091V99.9999H29V147H7.86876L12.5256 142.343C12.9161 141.953 12.9161 141.319 12.5256 140.929C12.1351 140.538 11.5019 140.538 11.1114 140.929L4.74744 147.293C4.35691 147.683 4.35691 148.317 4.74744 148.707L11.1114 155.071C11.5019 155.462 12.1351 155.462 12.5256 155.071C12.9161 154.68 12.9161 154.047 12.5256 153.657L7.86876 149H31V97.9999Z" fill="#B0C4D4"/>
<path fill-rule="evenodd" clip-rule="evenodd" d="M31 147H10.9091V149H29V196H7.86876L12.5256 191.343C12.9161 190.953 12.9161 190.319 12.5256 189.929C12.1351 189.538 11.5019 189.538 11.1114 189.929L4.74744 196.293C4.35691 196.683 4.35691 197.317 4.74744 197.707L11.1114 204.071C11.5019 204.462 12.1351 204.462 12.5256 204.071C12.9161 203.68 12.9161 203.047 12.5256 202.657L7.86876 198H31V147Z" fill="#B0C4D4"/>
<path fill-rule="evenodd" clip-rule="evenodd" d="M31 196H10.9091V198H29V245H7.86876L12.5256 240.343C12.9161 239.953 12.9161 239.319 12.5256 238.929C12.1351 238.538 11.5019 238.538 11.1114 238.929L4.74744 245.293C4.35691 245.683 4.35691 246.317 4.74744 246.707L11.1114 253.071C11.5019 253.462 12.1351 253.462 12.5256 253.071C12.9161 252.68 12.9161 252.047 12.5256 251.657L7.86876 247H31V196Z" fill="#B0C4D4"/>
<path fill-rule="evenodd" clip-rule="evenodd" d="M31 245H10.9091V247H29V294H7.86876L12.5256 289.343C12.9161 288.953 12.9161 288.319 12.5256 287.929C12.1351 287.538 11.5019 287.538 11.1114 287.929L4.74744 294.293C4.35691 294.683 4.35691 295.317 4.74744 295.707L11.1114 302.071C11.5019 302.462 12.1351 302.462 12.5256 302.071C12.9161 301.68 12.9161 301.047 12.5256 300.657L7.86876 296H31V245Z" fill="#B0C4D4"/>
<path fill-rule="evenodd" clip-rule="evenodd" d="M31 294H10.9091V296H29V343H7.86876L12.5256 338.343C12.9161 337.953 12.9161 337.319 12.5256 336.929C12.1351 336.538 11.5019 336.538 11.1114 336.929L4.74744 343.293C4.35691 343.683 4.35691 344.317 4.74744 344.707L11.1114 351.071C11.5019 351.462 12.1351 351.462 12.5256 351.071C12.9161 350.68 12.9161 350.047 12.5256 349.657L7.86876 345H31V294Z" fill="#B0C4D4"/>
<path fill-rule="evenodd" clip-rule="evenodd" d="M31 48.9999H6.81818V50.9999H29V97.9999H7.86876L12.5256 93.3431C12.9161 92.9526 12.9161 92.3194 12.5256 91.9289C12.1351 91.5383 11.5019 91.5383 11.1114 91.9289L4.74744 98.2928C4.35691 98.6834 4.35691 99.3165 4.74744 99.707L11.1114 106.071C11.5019 106.462 12.1351 106.462 12.5256 106.071C12.9161 105.68 12.9161 105.047 12.5256 104.657L7.86876 99.9999H31V48.9999Z" fill="#B0C4D4"/>
<path fill-rule="evenodd" clip-rule="evenodd" d="M31 -6.10352e-05H0V1.99994H29V48.9999H7.86876L12.5256 44.3431C12.9161 43.9526 12.9161 43.3194 12.5256 42.9289C12.1351 42.5383 11.5019 42.5383 11.1114 42.9289L4.74744 49.2928C4.35691 49.6834 4.35691 50.3165 4.74744 50.707L11.1114 57.071C11.5019 57.4615 12.1351 57.4615 12.5256 57.071C12.9161 56.6805 12.9161 56.0473 12.5256 55.6568L7.86876 50.9999H31V-6.10352e-05Z" fill="#B0C4D4"/>
</svg>
