<svg width="9" height="13" viewBox="0 0 9 13" fill="none" xmlns="http://www.w3.org/2000/svg">
                  <path d="M8.23857 4.23697C8.12323 3.00218 7.05806 2.58833 5.71472 2.47299V0.763286H4.6699V2.4255C4.39852 2.4255 4.12035 2.43228 3.84219 2.43907V0.763286H2.79737V2.47299C2.57348 2.47978 2.34959 2.47978 2.13927 2.47978L0.700947 2.47299V3.58565C1.4676 3.57209 1.45403 3.58565 1.45403 3.58565C1.88146 3.58565 2.01715 3.8299 2.05786 4.047V5.99417C2.08499 5.99417 2.1257 5.99417 2.16641 6.00095C2.13249 6.00095 2.09178 6.00095 2.05786 6.00095V8.72834C2.0375 8.86403 1.95609 9.07435 1.66435 9.07435C1.66435 9.07435 1.67792 9.08792 0.911268 9.07435L0.700947 10.3159H2.05786C2.30888 10.3159 2.55313 10.3227 2.79737 10.3227V12.0528H3.84219V10.3431C4.12714 10.3498 4.40531 10.3498 4.6699 10.3498V12.0528H5.71472V10.3227C7.46513 10.2277 8.68635 9.78672 8.84239 8.13808C8.96452 6.8151 8.34034 6.22484 7.3498 5.98738C7.94684 5.68208 8.32677 5.13931 8.23857 4.23697ZM6.77989 7.93454C6.77989 9.23039 4.56813 9.08113 3.86254 9.08113V6.78796C4.56813 6.78796 6.77989 6.59121 6.77989 7.93454ZM6.29819 4.7051C6.29819 5.87883 4.4528 5.74314 3.86254 5.74314V3.66028C4.4528 3.66028 6.29819 3.4771 6.29819 4.7051Z" fill="#01BD95"/>
                  </svg>