<svg width="53" height="366" viewBox="0 0 53 366" fill="none" xmlns="http://www.w3.org/2000/svg">
<path d="M22.963 122.333V121.333H23.963V122.333H22.963ZM22.963 243.667H23.963V244.667H22.963V243.667ZM52.7071 182.293C53.0976 182.683 53.0976 183.317 52.7071 183.707L46.3431 190.071C45.9526 190.462 45.3195 190.462 44.9289 190.071C44.5384 189.681 44.5384 189.047 44.9289 188.657L50.5858 183L44.9289 177.343C44.5384 176.953 44.5384 176.319 44.9289 175.929C45.3195 175.538 45.9526 175.538 46.3431 175.929L52.7071 182.293ZM5.10288 121.333H22.963V123.333H5.10288V121.333ZM22.963 244.667H0V242.667H22.963V244.667ZM23.963 122.333V183H21.963V122.333H23.963ZM23.963 183V243.667H21.963V183H23.963ZM22.963 182H52V184H22.963V182Z" fill="#B0C4D4"/>
<path d="M22.9648 1H0.00188017" stroke="#B0C4D4" stroke-width="2"/>
<path d="M5.10476 1H22.9648V122.333H0.0018816" stroke="#B0C4D4" stroke-width="2"/>
<path d="M5.10476 243.667H22.9648V365H0.0018816" stroke="#B0C4D4" stroke-width="2"/>
</svg>
