<svg width="1" height="264" viewBox="0 0 1 264" fill="none" xmlns="http://www.w3.org/2000/svg">
<path opacity="0.33" fill-rule="evenodd" clip-rule="evenodd" d="M1 263.12L1 264L0 264L-3.8466e-08 263.12L1 263.12ZM1 259.6L1 261.36L-1.15398e-07 261.36L-1.9233e-07 259.6L1 259.6ZM1 256.08L1 257.84L-2.69262e-07 257.84L-3.46194e-07 256.08L1 256.08ZM0.999999 252.56L1 254.32L-4.23126e-07 254.32L-5.00058e-07 252.56L0.999999 252.56ZM0.999999 249.04L0.999999 250.8L-5.7699e-07 250.8L-6.53922e-07 249.04L0.999999 249.04ZM0.999999 245.52L0.999999 247.28L-7.30854e-07 247.28L-8.07787e-07 245.52L0.999999 245.52ZM0.999999 242L0.999999 243.76L-8.84719e-07 243.76L-9.61651e-07 242L0.999999 242ZM0.999999 238.48L0.999999 240.24L-1.03858e-06 240.24L-1.11551e-06 238.48L0.999999 238.48ZM0.999999 234.96L0.999999 236.72L-1.19245e-06 236.72L-1.26938e-06 234.96L0.999999 234.96ZM0.999999 231.44L0.999999 233.2L-1.34631e-06 233.2L-1.42324e-06 231.44L0.999999 231.44ZM0.999998 227.92L0.999998 229.68L-1.50017e-06 229.68L-1.57711e-06 227.92L0.999998 227.92ZM0.999998 224.4L0.999998 226.16L-1.65404e-06 226.16L-1.73097e-06 224.4L0.999998 224.4ZM0.999998 220.88L0.999998 222.64L-1.8079e-06 222.64L-1.88483e-06 220.88L0.999998 220.88ZM0.999998 217.36L0.999998 219.12L-1.96177e-06 219.12L-2.0387e-06 217.36L0.999998 217.36ZM0.999998 213.84L0.999998 215.6L-2.11563e-06 215.6L-2.19256e-06 213.84L0.999998 213.84ZM0.999998 210.32L0.999998 212.08L-2.26949e-06 212.08L-2.34643e-06 210.32L0.999998 210.32ZM0.999997 206.8L0.999998 208.56L-2.42336e-06 208.56L-2.50029e-06 206.8L0.999997 206.8ZM0.999997 203.28L0.999997 205.04L-2.57722e-06 205.04L-2.65415e-06 203.28L0.999997 203.28ZM0.999997 199.76L0.999997 201.52L-2.73109e-06 201.52L-2.80802e-06 199.76L0.999997 199.76ZM0.999997 196.24L0.999997 198L-2.88495e-06 198L-2.96188e-06 196.24L0.999997 196.24ZM0.999997 192.72L0.999997 194.48L-3.03881e-06 194.48L-3.11575e-06 192.72L0.999997 192.72ZM0.999997 189.2L0.999997 190.96L-3.19268e-06 190.96L-3.26961e-06 189.2L0.999997 189.2ZM0.999997 185.68L0.999997 187.44L-3.34654e-06 187.44L-3.42348e-06 185.68L0.999997 185.68ZM0.999996 182.16L0.999996 183.92L-3.50041e-06 183.92L-3.57734e-06 182.16L0.999996 182.16ZM0.999996 178.64L0.999996 180.4L-3.65427e-06 180.4L-3.7312e-06 178.64L0.999996 178.64ZM0.999996 175.12L0.999996 176.88L-3.80814e-06 176.88L-3.88507e-06 175.12L0.999996 175.12ZM0.999996 171.6L0.999996 173.36L-3.962e-06 173.36L-4.03893e-06 171.6L0.999996 171.6ZM0.999996 168.08L0.999996 169.84L-4.11586e-06 169.84L-4.1928e-06 168.08L0.999996 168.08ZM0.999996 164.56L0.999996 166.32L-4.26973e-06 166.32L-4.34666e-06 164.56L0.999996 164.56ZM0.999995 161.04L0.999996 162.8L-4.42359e-06 162.8L-4.50053e-06 161.04L0.999995 161.04ZM0.999995 157.52L0.999995 159.28L-4.57746e-06 159.28L-4.65439e-06 157.52L0.999995 157.52ZM0.999995 154L0.999995 155.76L-4.73132e-06 155.76L-4.80825e-06 154L0.999995 154ZM0.999995 150.48L0.999995 152.24L-4.88519e-06 152.24L-4.96212e-06 150.48L0.999995 150.48ZM0.999995 146.96L0.999995 148.72L-5.03905e-06 148.72L-5.11598e-06 146.96L0.999995 146.96ZM0.999995 143.44L0.999995 145.2L-5.19291e-06 145.2L-5.26985e-06 143.44L0.999995 143.44ZM0.999995 139.92L0.999995 141.68L-5.34678e-06 141.68L-5.42371e-06 139.92L0.999995 139.92ZM0.999994 136.4L0.999994 138.16L-5.50064e-06 138.16L-5.57758e-06 136.4L0.999994 136.4ZM0.999994 132.88L0.999994 134.64L-5.65451e-06 134.64L-5.73144e-06 132.88L0.999994 132.88ZM0.999994 129.36L0.999994 131.12L-5.80837e-06 131.12L-5.8853e-06 129.36L0.999994 129.36ZM0.999994 125.84L0.999994 127.6L-5.96223e-06 127.6L-6.03917e-06 125.84L0.999994 125.84ZM0.999994 122.32L0.999994 124.08L-6.1161e-06 124.08L-6.19303e-06 122.32L0.999994 122.32ZM0.999994 118.8L0.999994 120.56L-6.26996e-06 120.56L-6.34689e-06 118.8L0.999994 118.8ZM0.999993 115.28L0.999994 117.04L-6.42383e-06 117.04L-6.50076e-06 115.28L0.999993 115.28ZM0.999993 111.76L0.999993 113.52L-6.57769e-06 113.52L-6.65462e-06 111.76L0.999993 111.76ZM0.999993 108.24L0.999993 110L-6.73155e-06 110L-6.80848e-06 108.24L0.999993 108.24ZM0.999993 104.72L0.999993 106.48L-6.88542e-06 106.48L-6.96235e-06 104.72L0.999993 104.72ZM0.999993 101.2L0.999993 102.96L-7.03928e-06 102.96L-7.11621e-06 101.2L0.999993 101.2ZM0.999993 97.6801L0.999993 99.4401L-7.19314e-06 99.4401L-7.27008e-06 97.6801L0.999993 97.6801ZM0.999993 94.1601L0.999993 95.9201L-7.34701e-06 95.9201L-7.42394e-06 94.1601L0.999993 94.1601ZM0.999992 90.6401L0.999992 92.4001L-7.50087e-06 92.4001L-7.5778e-06 90.6401L0.999992 90.6401ZM0.999992 87.1201L0.999992 88.8801L-7.65473e-06 88.8801L-7.73167e-06 87.1201L0.999992 87.1201ZM0.999992 83.6001L0.999992 85.3601L-7.8086e-06 85.3601L-7.88553e-06 83.6001L0.999992 83.6001ZM0.999992 80.0801L0.999992 81.8401L-7.96246e-06 81.8401L-8.03939e-06 80.0801L0.999992 80.0801ZM0.999992 76.5601L0.999992 78.3201L-8.11632e-06 78.3201L-8.19326e-06 76.5601L0.999992 76.5601ZM0.999992 73.0401L0.999992 74.8001L-8.27019e-06 74.8001L-8.34712e-06 73.0401L0.999992 73.0401ZM0.999991 69.5202L0.999992 71.2802L-8.42405e-06 71.2802L-8.50098e-06 69.5202L0.999991 69.5202ZM0.999991 66.0002L0.999991 67.7602L-8.57792e-06 67.7602L-8.65485e-06 66.0002L0.999991 66.0002ZM0.999991 62.4802L0.999991 64.2402L-8.73178e-06 64.2402L-8.80871e-06 62.4802L0.999991 62.4802ZM0.999991 58.9602L0.999991 60.7202L-8.88564e-06 60.7202L-8.96257e-06 58.9602L0.999991 58.9602ZM0.999991 55.4402L0.999991 57.2002L-9.03951e-06 57.2002L-9.11644e-06 55.4402L0.999991 55.4402ZM0.999991 51.9202L0.999991 53.6802L-9.19337e-06 53.6802L-9.2703e-06 51.9202L0.999991 51.9202ZM0.999991 48.4002L0.999991 50.1602L-9.34723e-06 50.1602L-9.42417e-06 48.4002L0.999991 48.4002ZM0.99999 44.8802L0.99999 46.6402L-9.5011e-06 46.6402L-9.57803e-06 44.8802L0.99999 44.8802ZM0.99999 41.3602L0.99999 43.1202L-9.65496e-06 43.1202L-9.73189e-06 41.3602L0.99999 41.3602ZM0.99999 37.8403L0.99999 39.6003L-9.80882e-06 39.6003L-9.88576e-06 37.8403L0.99999 37.8403ZM0.99999 34.3203L0.99999 36.0803L-9.96269e-06 36.0803L-1.00396e-05 34.3203L0.99999 34.3203ZM0.99999 30.8003L0.99999 32.5603L-1.01166e-05 32.5603L-1.01935e-05 30.8003L0.99999 30.8003ZM0.99999 27.2803L0.99999 29.0403L-1.02704e-05 29.0403L-1.03473e-05 27.2803L0.99999 27.2803ZM0.999989 23.7603L0.99999 25.5203L-1.04243e-05 25.5203L-1.05012e-05 23.7603L0.999989 23.7603ZM0.999989 20.2403L0.999989 22.0003L-1.05781e-05 22.0003L-1.06551e-05 20.2403L0.999989 20.2403ZM0.999989 16.7203L0.999989 18.4803L-1.0732e-05 18.4803L-1.08089e-05 16.7203L0.999989 16.7203ZM0.999989 13.2003L0.999989 14.9603L-1.08859e-05 14.9603L-1.09628e-05 13.2003L0.999989 13.2003ZM0.999989 9.68034L0.999989 11.4403L-1.10397e-05 11.4403L-1.11167e-05 9.68034L0.999989 9.68034ZM0.999989 6.16034L0.999989 7.92035L-1.11936e-05 7.92035L-1.12705e-05 6.16034L0.999989 6.16034ZM0.999989 2.64032L0.999989 4.40033L-1.13475e-05 4.40033L-1.14244e-05 2.64032L0.999989 2.64032ZM0.999988 -4.37114e-08L0.999988 0.88031L-1.15013e-05 0.88031L-1.15398e-05 0L0.999988 -4.37114e-08Z" fill="black"/>
</svg>
