<svg width="1" height="35" viewBox="0 0 1 35" fill="none" xmlns="http://www.w3.org/2000/svg">
<path opacity="0.33" fill-rule="evenodd" clip-rule="evenodd" d="M1 34.125L1 35L0 35L-3.82475e-08 34.125L1 34.125ZM1 30.625L1 32.375L-1.14742e-07 32.375L-1.91237e-07 30.625L1 30.625ZM1 27.125L1 28.875L-2.67732e-07 28.875L-3.44227e-07 27.125L1 27.125ZM1 23.625L1 25.375L-4.20722e-07 25.375L-4.97217e-07 23.625L1 23.625ZM0.999999 20.125L0.999999 21.875L-5.73712e-07 21.875L-6.50207e-07 20.125L0.999999 20.125ZM0.999999 16.625L0.999999 18.375L-7.26702e-07 18.375L-8.03197e-07 16.625L0.999999 16.625ZM0.999999 13.125L0.999999 14.875L-8.79692e-07 14.875L-9.56187e-07 13.125L0.999999 13.125ZM0.999999 9.625L0.999999 11.375L-1.03268e-06 11.375L-1.10918e-06 9.625L0.999999 9.625ZM0.999999 6.125L0.999999 7.875L-1.18567e-06 7.875L-1.26217e-06 6.125L0.999999 6.125ZM0.999999 2.625L0.999999 4.375L-1.33866e-06 4.375L-1.41516e-06 2.625L0.999999 2.625ZM0.999998 -4.37114e-08L0.999999 0.875L-1.49165e-06 0.875L-1.5299e-06 0L0.999998 -4.37114e-08Z" fill="black"/>
</svg>
