<svg width="1" height="108" viewBox="0 0 1 108" fill="none" xmlns="http://www.w3.org/2000/svg">
<path opacity="0.33" fill-rule="evenodd" clip-rule="evenodd" d="M1 107.129L1 108L0 108L-3.80712e-08 107.129L1 107.129ZM1 103.645L1 105.387L-1.14214e-07 105.387L-1.90356e-07 103.645L1 103.645ZM1 100.161L1 101.903L-2.66498e-07 101.903L-3.42641e-07 100.161L1 100.161ZM1 96.6774L1 98.4194L-4.18783e-07 98.4194L-4.94926e-07 96.6774L1 96.6774ZM0.999999 93.1935L0.999999 94.9355L-5.71068e-07 94.9355L-6.47211e-07 93.1935L0.999999 93.1935ZM0.999999 89.7097L0.999999 91.4516L-7.23353e-07 91.4516L-7.99495e-07 89.7097L0.999999 89.7097ZM0.999999 86.2258L0.999999 87.9677L-8.75638e-07 87.9677L-9.5178e-07 86.2258L0.999999 86.2258ZM0.999999 82.7419L0.999999 84.4839L-1.02792e-06 84.4839L-1.10407e-06 82.7419L0.999999 82.7419ZM0.999999 79.2581L0.999999 81L-1.18021e-06 81L-1.25635e-06 79.2581L0.999999 79.2581ZM0.999999 75.7742L0.999999 77.5161L-1.33249e-06 77.5161L-1.40863e-06 75.7742L0.999999 75.7742ZM0.999998 72.2903L0.999999 74.0323L-1.48478e-06 74.0323L-1.56092e-06 72.2903L0.999998 72.2903ZM0.999998 68.8064L0.999998 70.5484L-1.63706e-06 70.5484L-1.7132e-06 68.8064L0.999998 68.8064ZM0.999998 65.3226L0.999998 67.0645L-1.78935e-06 67.0645L-1.86549e-06 65.3226L0.999998 65.3226ZM0.999998 61.8387L0.999998 63.5806L-1.94163e-06 63.5806L-2.01777e-06 61.8387L0.999998 61.8387ZM0.999998 58.3548L0.999998 60.0968L-2.09392e-06 60.0968L-2.17006e-06 58.3548L0.999998 58.3548ZM0.999998 54.871L0.999998 56.6129L-2.2462e-06 56.6129L-2.32234e-06 54.871L0.999998 54.871ZM0.999998 51.3871L0.999998 53.129L-2.39849e-06 53.129L-2.47463e-06 51.3871L0.999998 51.3871ZM0.999997 47.9032L0.999997 49.6452L-2.55077e-06 49.6452L-2.62691e-06 47.9032L0.999997 47.9032ZM0.999997 44.4193L0.999997 46.1613L-2.70306e-06 46.1613L-2.7792e-06 44.4193L0.999997 44.4193ZM0.999997 40.9355L0.999997 42.6774L-2.85534e-06 42.6774L-2.93148e-06 40.9355L0.999997 40.9355ZM0.999997 37.4516L0.999997 39.1935L-3.00763e-06 39.1935L-3.08377e-06 37.4516L0.999997 37.4516ZM0.999997 33.9677L0.999997 35.7097L-3.15991e-06 35.7097L-3.23605e-06 33.9677L0.999997 33.9677ZM0.999997 30.4839L0.999997 32.2258L-3.3122e-06 32.2258L-3.38834e-06 30.4839L0.999997 30.4839ZM0.999996 27L0.999997 28.7419L-3.46448e-06 28.7419L-3.54062e-06 27L0.999996 27ZM0.999996 23.5161L0.999996 25.2581L-3.61677e-06 25.2581L-3.69291e-06 23.5161L0.999996 23.5161ZM0.999996 20.0322L0.999996 21.7742L-3.76905e-06 21.7742L-3.84519e-06 20.0322L0.999996 20.0322ZM0.999996 16.5484L0.999996 18.2903L-3.92133e-06 18.2903L-3.99748e-06 16.5484L0.999996 16.5484ZM0.999996 13.0645L0.999996 14.8064L-4.07362e-06 14.8064L-4.14976e-06 13.0645L0.999996 13.0645ZM0.999996 9.58064L0.999996 11.3226L-4.2259e-06 11.3226L-4.30205e-06 9.58064L0.999996 9.58064ZM0.999996 6.09676L0.999996 7.8387L-4.37819e-06 7.8387L-4.45433e-06 6.09676L0.999996 6.09676ZM0.999995 2.61289L0.999995 4.35483L-4.53047e-06 4.35483L-4.60662e-06 2.61289L0.999995 2.61289ZM0.999995 -4.37114e-08L0.999995 0.870956L-4.68276e-06 0.870956L-4.72083e-06 0L0.999995 -4.37114e-08Z" fill="black"/>
</svg>
