<svg width="22" height="23" viewBox="0 0 22 23" fill="none" xmlns="http://www.w3.org/2000/svg">
<path d="M11.0855 19.3803H3.56392C5.22452 16.0996 8.05731 14.0733 11.1831 13.8803V8.86273C9.42486 8.86273 8.05731 7.51186 8.05731 5.77501C8.05731 4.03817 9.42486 2.68729 11.1831 2.68729V0.0820312C7.95962 0.0820312 5.41988 2.68729 5.41988 5.77501C5.41988 8.57326 7.47121 10.889 10.2063 11.3715C5.81061 11.9505 2.001 15.3276 0.340404 20.3452C0.242722 20.7312 0.242722 21.2136 0.535769 21.5031C0.828816 21.889 1.21954 22.082 1.61027 22.082H11.1831V19.3803H11.0855Z" fill="#20457C"/>
<path d="M11.0857 19.3803H18.7049C17.0443 16.0996 14.2115 14.0733 11.0857 13.8803V8.86273C12.7463 8.86273 14.2115 7.41537 14.2115 5.77501C14.2115 4.13466 12.844 2.68729 11.0857 2.68729V0.0820312C14.2115 0.0820312 16.8489 2.68729 16.8489 5.77501C16.8489 8.57326 14.7976 10.889 12.0625 11.3715C16.4582 11.9505 20.2678 15.3276 21.9284 20.2487C22.0261 20.6347 22.0261 21.1171 21.7331 21.4066C21.44 21.7926 21.0493 21.9855 20.6586 21.9855H11.0857V19.3803Z" fill="#20457C"/>
</svg>
