<svg width="22" height="21" viewBox="0 0 22 21" fill="none" xmlns="http://www.w3.org/2000/svg">
<path fill-rule="evenodd" clip-rule="evenodd" d="M12.782 6.1875V3.1875H8.78198V6.1875H12.782ZM2.78198 8.1875V18.1875H18.782V8.1875H2.78198ZM18.782 6.1875C19.892 6.1875 20.782 7.0775 20.782 8.1875V18.1875C20.782 19.2975 19.892 20.1875 18.782 20.1875H2.78198C1.67198 20.1875 0.781982 19.2975 0.781982 18.1875L0.791982 8.1875C0.791982 7.0775 1.67198 6.1875 2.78198 6.1875H6.78198V3.1875C6.78198 2.0775 7.67198 1.1875 8.78198 1.1875H12.782C13.892 1.1875 14.782 2.0775 14.782 3.1875V6.1875H18.782Z" fill="#0A9D7E" stroke="#0A9D7E"/>
</svg>
