<svg width="31" height="36" viewBox="0 0 31 36" fill="none" xmlns="http://www.w3.org/2000/svg">
<path d="M0.03125 6.55054C0.394355 5.51131 1.12057 4.77258 1.99703 4.15905C3.9002 2.81932 6.07883 2.13067 8.32006 1.65488C10.962 1.07892 13.6414 0.891107 16.3459 1.00379C19.7767 1.15404 23.1323 1.6674 26.275 3.14486C27.3017 3.63318 28.2533 4.20914 29.0546 5.03551C30.3443 6.40029 30.3568 7.81515 29.0546 9.17992C28.0404 10.2442 26.7633 10.9078 25.4236 11.4587C23.1698 12.3602 20.8409 12.8485 18.4369 13.0739C14.6181 13.437 10.8493 13.2617 7.13058 12.2976C5.22741 11.8093 3.39936 11.1207 1.80921 9.93117C1.0204 9.33017 0.369313 8.629 0.03125 7.67742C0.03125 7.30179 0.03125 6.92616 0.03125 6.55054Z" fill="#9DAFBD"/>
<path d="M0.03125 12.5605C2.73576 14.4512 5.80337 15.3652 8.99619 15.9161C11.5004 16.3544 14.0296 16.4671 16.5713 16.3669C20.3276 16.2166 23.9962 15.5906 27.452 14.0004C28.3034 13.6123 29.0922 13.1115 29.9812 12.6357C29.9937 12.7859 30.0187 12.9237 30.0187 13.0739C30.0187 14.7642 30.0187 16.4545 30.0312 18.1449C30.0312 18.9462 29.6681 19.5848 29.1548 20.1607C28.2282 21.1999 27.0388 21.8761 25.7867 22.4145C23.5079 23.3786 21.1164 23.8919 18.6623 24.1549C16.4837 24.3928 14.2925 24.4053 12.1014 24.23C8.95863 23.9671 5.90354 23.3535 3.09886 21.851C2.54794 21.5631 2.03459 21.1874 1.54628 20.8118C0.845106 20.2859 0.331751 19.5973 0.0437709 18.7584C0.03125 16.6924 0.03125 14.6265 0.03125 12.5605Z" fill="#9DAFBD"/>
<path d="M0.03125 23.6667C2.73576 25.5574 5.80337 26.4714 8.99619 27.0223C11.5004 27.4606 14.0296 27.5733 16.5713 27.4731C20.3276 27.3228 23.9962 26.6968 27.452 25.1066C28.3034 24.7185 29.0922 24.2177 29.9812 23.7419C29.9937 23.8921 30.0187 24.0299 30.0187 24.1801C30.0187 25.8704 30.0187 27.5607 30.0312 29.2511C30.0312 30.0524 29.6681 30.691 29.1548 31.2669C28.2282 32.3061 27.0388 32.9823 25.7867 33.5207C23.5079 34.4848 21.1164 34.9981 18.6623 35.2611C16.4837 35.499 14.2925 35.5115 12.1014 35.3362C8.95863 35.0733 5.90354 34.4597 3.09886 32.9572C2.54794 32.6693 2.03459 32.2936 1.54628 31.918C0.845106 31.3921 0.331751 30.7035 0.0437709 29.8646C0.03125 27.7986 0.03125 25.7327 0.03125 23.6667Z" fill="#9DAFBD"/>
</svg>
