<svg width="845" height="361" viewBox="0 0 845 361" fill="none" xmlns="http://www.w3.org/2000/svg">
<rect y="2" width="796" height="54" fill="white" fill-opacity="0.5"/>
<rect y="110" width="796" height="54" fill="white" fill-opacity="0.5"/>
<rect y="218" width="796" height="54" fill="white" fill-opacity="0.5"/>
<rect x="35" y="307" width="100" height="7" rx="3.5" fill="#9DAFBD"/>
<path d="M0 329H170" stroke="#B0C4D4" stroke-width="2"/>
<path d="M75.999 353H69.1768V351.646L72.3965 348.215C72.8385 347.732 73.1644 347.31 73.374 346.95C73.5882 346.59 73.6953 346.248 73.6953 345.925C73.6953 345.483 73.5837 345.136 73.3604 344.886C73.137 344.631 72.818 344.503 72.4033 344.503C71.9567 344.503 71.6035 344.658 71.3438 344.968C71.0885 345.273 70.9609 345.676 70.9609 346.178H68.9785C68.9785 345.572 69.1221 345.018 69.4092 344.517C69.7008 344.015 70.111 343.623 70.6396 343.341C71.1683 343.054 71.7676 342.91 72.4375 342.91C73.4629 342.91 74.2581 343.156 74.8232 343.648C75.3929 344.141 75.6777 344.836 75.6777 345.733C75.6777 346.226 75.5501 346.727 75.2949 347.237C75.0397 347.748 74.6022 348.342 73.9824 349.021L71.7197 351.407H75.999V353ZM83.915 348.885C83.915 350.261 83.6302 351.314 83.0605 352.043C82.4909 352.772 81.6569 353.137 80.5586 353.137C79.474 353.137 78.6445 352.779 78.0703 352.063C77.4961 351.348 77.2021 350.323 77.1885 348.987V347.155C77.1885 345.765 77.4756 344.71 78.0498 343.99C78.6286 343.27 79.4603 342.91 80.5449 342.91C81.6296 342.91 82.459 343.268 83.0332 343.983C83.6074 344.694 83.9014 345.717 83.915 347.053V348.885ZM81.9395 346.875C81.9395 346.05 81.8255 345.451 81.5977 345.077C81.3743 344.699 81.0234 344.51 80.5449 344.51C80.0801 344.51 79.736 344.69 79.5127 345.05C79.2939 345.405 79.1777 345.964 79.1641 346.725V349.145C79.1641 349.956 79.2734 350.56 79.4922 350.956C79.7155 351.348 80.071 351.544 80.5586 351.544C81.0417 351.544 81.3903 351.355 81.6045 350.977C81.8187 350.598 81.9303 350.02 81.9395 349.24V346.875ZM91.9541 348.885C91.9541 350.261 91.6693 351.314 91.0996 352.043C90.5299 352.772 89.696 353.137 88.5977 353.137C87.513 353.137 86.6836 352.779 86.1094 352.063C85.5352 351.348 85.2412 350.323 85.2275 348.987V347.155C85.2275 345.765 85.5146 344.71 86.0889 343.99C86.6676 343.27 87.4993 342.91 88.584 342.91C89.6686 342.91 90.498 343.268 91.0723 343.983C91.6465 344.694 91.9404 345.717 91.9541 347.053V348.885ZM89.9785 346.875C89.9785 346.05 89.8646 345.451 89.6367 345.077C89.4134 344.699 89.0625 344.51 88.584 344.51C88.1191 344.51 87.7751 344.69 87.5518 345.05C87.333 345.405 87.2168 345.964 87.2031 346.725V349.145C87.2031 349.956 87.3125 350.56 87.5312 350.956C87.7546 351.348 88.11 351.544 88.5977 351.544C89.0807 351.544 89.4294 351.355 89.6436 350.977C89.8577 350.598 89.9694 350.02 89.9785 349.24V346.875ZM97.915 349.021C97.4001 349.527 96.7985 349.78 96.1104 349.78C95.2308 349.78 94.5267 349.479 93.998 348.878C93.4694 348.272 93.2051 347.456 93.2051 346.431C93.2051 345.779 93.3464 345.182 93.6289 344.64C93.916 344.093 94.3148 343.669 94.8252 343.368C95.3356 343.063 95.9098 342.91 96.5479 342.91C97.2041 342.91 97.7874 343.074 98.2979 343.402C98.8083 343.73 99.2048 344.202 99.4873 344.817C99.7699 345.433 99.9134 346.137 99.918 346.93V347.661C99.918 349.32 99.5055 350.623 98.6807 351.571C97.8558 352.519 96.6868 353.025 95.1738 353.089L94.6885 353.096V351.448L95.126 351.441C96.8441 351.364 97.7738 350.557 97.915 349.021ZM96.5957 348.27C96.9147 348.27 97.1882 348.188 97.416 348.023C97.6484 347.859 97.8239 347.661 97.9424 347.429V346.615C97.9424 345.945 97.8148 345.426 97.5596 345.057C97.3044 344.688 96.9626 344.503 96.5342 344.503C96.1377 344.503 95.8118 344.685 95.5566 345.05C95.3014 345.41 95.1738 345.863 95.1738 346.41C95.1738 346.952 95.2969 347.399 95.543 347.75C95.7936 348.096 96.1445 348.27 96.5957 348.27Z" fill="#6E8198"/>
<rect x="190" y="301" width="100" height="13" rx="5" fill="#9DAFBD"/>
<path d="M155 329H325" stroke="#B0C4D4" stroke-width="2"/>
<path d="M230.999 353H224.177V351.646L227.396 348.215C227.839 347.732 228.164 347.31 228.374 346.95C228.588 346.59 228.695 346.248 228.695 345.925C228.695 345.483 228.584 345.136 228.36 344.886C228.137 344.631 227.818 344.503 227.403 344.503C226.957 344.503 226.604 344.658 226.344 344.968C226.089 345.273 225.961 345.676 225.961 346.178H223.979C223.979 345.572 224.122 345.018 224.409 344.517C224.701 344.015 225.111 343.623 225.64 343.341C226.168 343.054 226.768 342.91 227.438 342.91C228.463 342.91 229.258 343.156 229.823 343.648C230.393 344.141 230.678 344.836 230.678 345.733C230.678 346.226 230.55 346.727 230.295 347.237C230.04 347.748 229.602 348.342 228.982 349.021L226.72 351.407H230.999V353ZM238.915 348.885C238.915 350.261 238.63 351.314 238.061 352.043C237.491 352.772 236.657 353.137 235.559 353.137C234.474 353.137 233.645 352.779 233.07 352.063C232.496 351.348 232.202 350.323 232.188 348.987V347.155C232.188 345.765 232.476 344.71 233.05 343.99C233.629 343.27 234.46 342.91 235.545 342.91C236.63 342.91 237.459 343.268 238.033 343.983C238.607 344.694 238.901 345.717 238.915 347.053V348.885ZM236.939 346.875C236.939 346.05 236.826 345.451 236.598 345.077C236.374 344.699 236.023 344.51 235.545 344.51C235.08 344.51 234.736 344.69 234.513 345.05C234.294 345.405 234.178 345.964 234.164 346.725V349.145C234.164 349.956 234.273 350.56 234.492 350.956C234.715 351.348 235.071 351.544 235.559 351.544C236.042 351.544 236.39 351.355 236.604 350.977C236.819 350.598 236.93 350.02 236.939 349.24V346.875ZM245.054 353H243.078V345.385L240.72 346.116V344.51L244.842 343.033H245.054V353ZM250.304 347.148H251.356C251.858 347.148 252.229 347.023 252.471 346.772C252.712 346.522 252.833 346.189 252.833 345.774C252.833 345.373 252.712 345.061 252.471 344.838C252.234 344.615 251.906 344.503 251.486 344.503C251.108 344.503 250.791 344.608 250.536 344.817C250.281 345.022 250.153 345.291 250.153 345.624H248.178C248.178 345.104 248.317 344.64 248.595 344.229C248.877 343.815 249.269 343.491 249.771 343.259C250.276 343.026 250.832 342.91 251.438 342.91C252.491 342.91 253.316 343.163 253.913 343.669C254.51 344.17 254.809 344.863 254.809 345.747C254.809 346.203 254.67 346.622 254.392 347.005C254.114 347.388 253.749 347.682 253.298 347.887C253.858 348.087 254.275 348.388 254.549 348.789C254.827 349.19 254.966 349.664 254.966 350.211C254.966 351.095 254.642 351.804 253.995 352.337C253.353 352.87 252.5 353.137 251.438 353.137C250.445 353.137 249.632 352.875 248.998 352.351C248.369 351.826 248.055 351.134 248.055 350.272H250.03C250.03 350.646 250.169 350.951 250.447 351.188C250.73 351.425 251.076 351.544 251.486 351.544C251.956 351.544 252.323 351.421 252.587 351.175C252.856 350.924 252.99 350.594 252.99 350.184C252.99 349.19 252.443 348.693 251.35 348.693H250.304V347.148Z" fill="#6E8198"/>
<rect x="345" y="252" width="100" height="62" rx="5" fill="#9DAFBD"/>
<path d="M310 329H480" stroke="#B0C4D4" stroke-width="2"/>
<path d="M385.999 353H379.177V351.646L382.396 348.215C382.839 347.732 383.164 347.31 383.374 346.95C383.588 346.59 383.695 346.248 383.695 345.925C383.695 345.483 383.584 345.136 383.36 344.886C383.137 344.631 382.818 344.503 382.403 344.503C381.957 344.503 381.604 344.658 381.344 344.968C381.089 345.273 380.961 345.676 380.961 346.178H378.979C378.979 345.572 379.122 345.018 379.409 344.517C379.701 344.015 380.111 343.623 380.64 343.341C381.168 343.054 381.768 342.91 382.438 342.91C383.463 342.91 384.258 343.156 384.823 343.648C385.393 344.141 385.678 344.836 385.678 345.733C385.678 346.226 385.55 346.727 385.295 347.237C385.04 347.748 384.602 348.342 383.982 349.021L381.72 351.407H385.999V353ZM393.915 348.885C393.915 350.261 393.63 351.314 393.061 352.043C392.491 352.772 391.657 353.137 390.559 353.137C389.474 353.137 388.645 352.779 388.07 352.063C387.496 351.348 387.202 350.323 387.188 348.987V347.155C387.188 345.765 387.476 344.71 388.05 343.99C388.629 343.27 389.46 342.91 390.545 342.91C391.63 342.91 392.459 343.268 393.033 343.983C393.607 344.694 393.901 345.717 393.915 347.053V348.885ZM391.939 346.875C391.939 346.05 391.826 345.451 391.598 345.077C391.374 344.699 391.023 344.51 390.545 344.51C390.08 344.51 389.736 344.69 389.513 345.05C389.294 345.405 389.178 345.964 389.164 346.725V349.145C389.164 349.956 389.273 350.56 389.492 350.956C389.715 351.348 390.071 351.544 390.559 351.544C391.042 351.544 391.39 351.355 391.604 350.977C391.819 350.598 391.93 350.02 391.939 349.24V346.875ZM400.054 353H398.078V345.385L395.72 346.116V344.51L399.842 343.033H400.054V353ZM410.062 344.154L406.213 353H404.128L407.983 344.646H403.034V343.047H410.062V344.154Z" fill="#6E8198"/>
<rect x="500" y="206" width="100" height="108" rx="5" fill="#9DAFBD"/>
<path d="M465 329H635" stroke="#B0C4D4" stroke-width="2"/>
<path d="M540.999 353H534.177V351.646L537.396 348.215C537.839 347.732 538.164 347.31 538.374 346.95C538.588 346.59 538.695 346.248 538.695 345.925C538.695 345.483 538.584 345.136 538.36 344.886C538.137 344.631 537.818 344.503 537.403 344.503C536.957 344.503 536.604 344.658 536.344 344.968C536.089 345.273 535.961 345.676 535.961 346.178H533.979C533.979 345.572 534.122 345.018 534.409 344.517C534.701 344.015 535.111 343.623 535.64 343.341C536.168 343.054 536.768 342.91 537.438 342.91C538.463 342.91 539.258 343.156 539.823 343.648C540.393 344.141 540.678 344.836 540.678 345.733C540.678 346.226 540.55 346.727 540.295 347.237C540.04 347.748 539.602 348.342 538.982 349.021L536.72 351.407H540.999V353ZM548.915 348.885C548.915 350.261 548.63 351.314 548.061 352.043C547.491 352.772 546.657 353.137 545.559 353.137C544.474 353.137 543.645 352.779 543.07 352.063C542.496 351.348 542.202 350.323 542.188 348.987V347.155C542.188 345.765 542.476 344.71 543.05 343.99C543.629 343.27 544.46 342.91 545.545 342.91C546.63 342.91 547.459 343.268 548.033 343.983C548.607 344.694 548.901 345.717 548.915 347.053V348.885ZM546.939 346.875C546.939 346.05 546.826 345.451 546.598 345.077C546.374 344.699 546.023 344.51 545.545 344.51C545.08 344.51 544.736 344.69 544.513 345.05C544.294 345.405 544.178 345.964 544.164 346.725V349.145C544.164 349.956 544.273 350.56 544.492 350.956C544.715 351.348 545.071 351.544 545.559 351.544C546.042 351.544 546.39 351.355 546.604 350.977C546.819 350.598 546.93 350.02 546.939 349.24V346.875ZM557.077 353H550.255V351.646L553.475 348.215C553.917 347.732 554.243 347.31 554.452 346.95C554.666 346.59 554.773 346.248 554.773 345.925C554.773 345.483 554.662 345.136 554.438 344.886C554.215 344.631 553.896 344.503 553.481 344.503C553.035 344.503 552.682 344.658 552.422 344.968C552.167 345.273 552.039 345.676 552.039 346.178H550.057C550.057 345.572 550.2 345.018 550.487 344.517C550.779 344.015 551.189 343.623 551.718 343.341C552.246 343.054 552.846 342.91 553.516 342.91C554.541 342.91 555.336 343.156 555.901 343.648C556.471 344.141 556.756 344.836 556.756 345.733C556.756 346.226 556.628 346.727 556.373 347.237C556.118 347.748 555.68 348.342 555.061 349.021L552.798 351.407H557.077V353ZM563.093 353H561.117V345.385L558.759 346.116V344.51L562.881 343.033H563.093V353Z" fill="#6E8198"/>
<rect x="655" y="56" width="100" height="258" rx="5" fill="url(#paint0_linear)"/>
<path d="M620 329H790" stroke="#B0C4D4" stroke-width="2"/>
<path d="M695.999 353H689.177V351.646L692.396 348.215C692.839 347.732 693.164 347.31 693.374 346.95C693.588 346.59 693.695 346.248 693.695 345.925C693.695 345.483 693.584 345.136 693.36 344.886C693.137 344.631 692.818 344.503 692.403 344.503C691.957 344.503 691.604 344.658 691.344 344.968C691.089 345.273 690.961 345.676 690.961 346.178H688.979C688.979 345.572 689.122 345.018 689.409 344.517C689.701 344.015 690.111 343.623 690.64 343.341C691.168 343.054 691.768 342.91 692.438 342.91C693.463 342.91 694.258 343.156 694.823 343.648C695.393 344.141 695.678 344.836 695.678 345.733C695.678 346.226 695.55 346.727 695.295 347.237C695.04 347.748 694.602 348.342 693.982 349.021L691.72 351.407H695.999V353ZM703.915 348.885C703.915 350.261 703.63 351.314 703.061 352.043C702.491 352.772 701.657 353.137 700.559 353.137C699.474 353.137 698.645 352.779 698.07 352.063C697.496 351.348 697.202 350.323 697.188 348.987V347.155C697.188 345.765 697.476 344.71 698.05 343.99C698.629 343.27 699.46 342.91 700.545 342.91C701.63 342.91 702.459 343.268 703.033 343.983C703.607 344.694 703.901 345.717 703.915 347.053V348.885ZM701.939 346.875C701.939 346.05 701.826 345.451 701.598 345.077C701.374 344.699 701.023 344.51 700.545 344.51C700.08 344.51 699.736 344.69 699.513 345.05C699.294 345.405 699.178 345.964 699.164 346.725V349.145C699.164 349.956 699.273 350.56 699.492 350.956C699.715 351.348 700.071 351.544 700.559 351.544C701.042 351.544 701.39 351.355 701.604 350.977C701.819 350.598 701.93 350.02 701.939 349.24V346.875ZM712.077 353H705.255V351.646L708.475 348.215C708.917 347.732 709.243 347.31 709.452 346.95C709.666 346.59 709.773 346.248 709.773 345.925C709.773 345.483 709.662 345.136 709.438 344.886C709.215 344.631 708.896 344.503 708.481 344.503C708.035 344.503 707.682 344.658 707.422 344.968C707.167 345.273 707.039 345.676 707.039 346.178H705.057C705.057 345.572 705.2 345.018 705.487 344.517C705.779 344.015 706.189 343.623 706.718 343.341C707.246 343.054 707.846 342.91 708.516 342.91C709.541 342.91 710.336 343.156 710.901 343.648C711.471 344.141 711.756 344.836 711.756 345.733C711.756 346.226 711.628 346.727 711.373 347.237C711.118 347.748 710.68 348.342 710.061 349.021L707.798 351.407H712.077V353ZM713.588 348.105L714.162 343.047H719.74V344.694H715.782L715.536 346.834C716.006 346.583 716.505 346.458 717.033 346.458C717.981 346.458 718.724 346.752 719.262 347.34C719.799 347.928 720.068 348.75 720.068 349.808C720.068 350.45 719.932 351.027 719.658 351.537C719.389 352.043 719.002 352.437 718.496 352.72C717.99 352.998 717.393 353.137 716.705 353.137C716.104 353.137 715.545 353.016 715.03 352.774C714.515 352.528 714.107 352.184 713.807 351.742C713.51 351.3 713.353 350.797 713.335 350.231H715.29C715.331 350.646 715.475 350.97 715.721 351.202C715.971 351.43 716.297 351.544 716.698 351.544C717.145 351.544 717.489 351.384 717.73 351.065C717.972 350.742 718.093 350.286 718.093 349.698C718.093 349.133 717.954 348.7 717.676 348.399C717.398 348.099 717.004 347.948 716.493 347.948C716.024 347.948 715.643 348.071 715.352 348.317L715.16 348.495L713.588 348.105Z" fill="#6E8198"/>
<path d="M811.376 325.885C811.376 327.261 811.091 328.314 810.521 329.043C809.952 329.772 809.118 330.137 808.02 330.137C806.935 330.137 806.105 329.779 805.531 329.063C804.957 328.348 804.663 327.323 804.649 325.987V324.155C804.649 322.765 804.937 321.71 805.511 320.99C806.09 320.27 806.921 319.91 808.006 319.91C809.09 319.91 809.92 320.268 810.494 320.983C811.068 321.694 811.362 322.717 811.376 324.053V325.885ZM809.4 323.875C809.4 323.05 809.286 322.451 809.059 322.077C808.835 321.699 808.484 321.51 808.006 321.51C807.541 321.51 807.197 321.69 806.974 322.05C806.755 322.405 806.639 322.964 806.625 323.725V326.145C806.625 326.956 806.734 327.56 806.953 327.956C807.176 328.348 807.532 328.544 808.02 328.544C808.503 328.544 808.851 328.355 809.065 327.977C809.28 327.598 809.391 327.02 809.4 326.24V323.875Z" fill="#6E8198"/>
<path d="M806.687 270.148H807.739C808.241 270.148 808.612 270.023 808.854 269.772C809.095 269.522 809.216 269.189 809.216 268.774C809.216 268.373 809.095 268.061 808.854 267.838C808.617 267.615 808.288 267.503 807.869 267.503C807.491 267.503 807.174 267.608 806.919 267.817C806.664 268.022 806.536 268.291 806.536 268.624H804.561C804.561 268.104 804.7 267.64 804.978 267.229C805.26 266.815 805.652 266.491 806.153 266.259C806.659 266.026 807.215 265.91 807.821 265.91C808.874 265.91 809.699 266.163 810.296 266.669C810.893 267.17 811.191 267.863 811.191 268.747C811.191 269.203 811.052 269.622 810.774 270.005C810.496 270.388 810.132 270.682 809.681 270.887C810.241 271.087 810.658 271.388 810.932 271.789C811.21 272.19 811.349 272.664 811.349 273.211C811.349 274.095 811.025 274.804 810.378 275.337C809.735 275.87 808.883 276.137 807.821 276.137C806.828 276.137 806.014 275.875 805.381 275.351C804.752 274.826 804.438 274.134 804.438 273.272H806.413C806.413 273.646 806.552 273.951 806.83 274.188C807.113 274.425 807.459 274.544 807.869 274.544C808.339 274.544 808.705 274.421 808.97 274.175C809.239 273.924 809.373 273.594 809.373 273.184C809.373 272.19 808.826 271.693 807.732 271.693H806.687V270.148ZM819.415 271.885C819.415 273.261 819.13 274.314 818.561 275.043C817.991 275.772 817.157 276.137 816.059 276.137C814.974 276.137 814.145 275.779 813.57 275.063C812.996 274.348 812.702 273.323 812.688 271.987V270.155C812.688 268.765 812.976 267.71 813.55 266.99C814.129 266.27 814.96 265.91 816.045 265.91C817.13 265.91 817.959 266.268 818.533 266.983C819.107 267.694 819.401 268.717 819.415 270.053V271.885ZM817.439 269.875C817.439 269.05 817.326 268.451 817.098 268.077C816.874 267.699 816.523 267.51 816.045 267.51C815.58 267.51 815.236 267.69 815.013 268.05C814.794 268.405 814.678 268.964 814.664 269.725V272.145C814.664 272.956 814.773 273.56 814.992 273.956C815.215 274.348 815.571 274.544 816.059 274.544C816.542 274.544 816.89 274.355 817.104 273.977C817.319 273.598 817.43 273.02 817.439 272.24V269.875ZM827.454 271.885C827.454 273.261 827.169 274.314 826.6 275.043C826.03 275.772 825.196 276.137 824.098 276.137C823.013 276.137 822.184 275.779 821.609 275.063C821.035 274.348 820.741 273.323 820.728 271.987V270.155C820.728 268.765 821.015 267.71 821.589 266.99C822.168 266.27 822.999 265.91 824.084 265.91C825.169 265.91 825.998 266.268 826.572 266.983C827.146 267.694 827.44 268.717 827.454 270.053V271.885ZM825.479 269.875C825.479 269.05 825.365 268.451 825.137 268.077C824.913 267.699 824.562 267.51 824.084 267.51C823.619 267.51 823.275 267.69 823.052 268.05C822.833 268.405 822.717 268.964 822.703 269.725V272.145C822.703 272.956 822.812 273.56 823.031 273.956C823.255 274.348 823.61 274.544 824.098 274.544C824.581 274.544 824.929 274.355 825.144 273.977C825.358 273.598 825.469 273.02 825.479 272.24V269.875Z" fill="#6E8198"/>
<path d="M809.476 222H807.5V214.385L805.142 215.116V213.51L809.264 212.033H809.476V222ZM819.415 217.885C819.415 219.261 819.13 220.314 818.561 221.043C817.991 221.772 817.157 222.137 816.059 222.137C814.974 222.137 814.145 221.779 813.57 221.063C812.996 220.348 812.702 219.323 812.688 217.987V216.155C812.688 214.765 812.976 213.71 813.55 212.99C814.129 212.27 814.96 211.91 816.045 211.91C817.13 211.91 817.959 212.268 818.533 212.983C819.107 213.694 819.401 214.717 819.415 216.053V217.885ZM817.439 215.875C817.439 215.05 817.326 214.451 817.098 214.077C816.874 213.699 816.523 213.51 816.045 213.51C815.58 213.51 815.236 213.69 815.013 214.05C814.794 214.405 814.678 214.964 814.664 215.725V218.145C814.664 218.956 814.773 219.56 814.992 219.956C815.215 220.348 815.571 220.544 816.059 220.544C816.542 220.544 816.89 220.355 817.104 219.977C817.319 219.598 817.43 219.02 817.439 218.24V215.875ZM827.454 217.885C827.454 219.261 827.169 220.314 826.6 221.043C826.03 221.772 825.196 222.137 824.098 222.137C823.013 222.137 822.184 221.779 821.609 221.063C821.035 220.348 820.741 219.323 820.728 217.987V216.155C820.728 214.765 821.015 213.71 821.589 212.99C822.168 212.27 822.999 211.91 824.084 211.91C825.169 211.91 825.998 212.268 826.572 212.983C827.146 213.694 827.44 214.717 827.454 216.053V217.885ZM825.479 215.875C825.479 215.05 825.365 214.451 825.137 214.077C824.913 213.699 824.562 213.51 824.084 213.51C823.619 213.51 823.275 213.69 823.052 214.05C822.833 214.405 822.717 214.964 822.703 215.725V218.145C822.703 218.956 822.812 219.56 823.031 219.956C823.255 220.348 823.61 220.544 824.098 220.544C824.581 220.544 824.929 220.355 825.144 219.977C825.358 219.598 825.469 219.02 825.479 218.24V215.875ZM835.493 217.885C835.493 219.261 835.208 220.314 834.639 221.043C834.069 221.772 833.235 222.137 832.137 222.137C831.052 222.137 830.223 221.779 829.648 221.063C829.074 220.348 828.78 219.323 828.767 217.987V216.155C828.767 214.765 829.054 213.71 829.628 212.99C830.207 212.27 831.038 211.91 832.123 211.91C833.208 211.91 834.037 212.268 834.611 212.983C835.186 213.694 835.479 214.717 835.493 216.053V217.885ZM833.518 215.875C833.518 215.05 833.404 214.451 833.176 214.077C832.952 213.699 832.602 213.51 832.123 213.51C831.658 213.51 831.314 213.69 831.091 214.05C830.872 214.405 830.756 214.964 830.742 215.725V218.145C830.742 218.956 830.852 219.56 831.07 219.956C831.294 220.348 831.649 220.544 832.137 220.544C832.62 220.544 832.968 220.355 833.183 219.977C833.397 219.598 833.508 219.02 833.518 218.24V215.875Z" fill="#6E8198"/>
<path d="M806.687 162.148H807.739C808.241 162.148 808.612 162.023 808.854 161.772C809.095 161.522 809.216 161.189 809.216 160.774C809.216 160.373 809.095 160.061 808.854 159.838C808.617 159.615 808.288 159.503 807.869 159.503C807.491 159.503 807.174 159.608 806.919 159.817C806.664 160.022 806.536 160.291 806.536 160.624H804.561C804.561 160.104 804.7 159.64 804.978 159.229C805.26 158.815 805.652 158.491 806.153 158.259C806.659 158.026 807.215 157.91 807.821 157.91C808.874 157.91 809.699 158.163 810.296 158.669C810.893 159.17 811.191 159.863 811.191 160.747C811.191 161.203 811.052 161.622 810.774 162.005C810.496 162.388 810.132 162.682 809.681 162.887C810.241 163.087 810.658 163.388 810.932 163.789C811.21 164.19 811.349 164.664 811.349 165.211C811.349 166.095 811.025 166.804 810.378 167.337C809.735 167.87 808.883 168.137 807.821 168.137C806.828 168.137 806.014 167.875 805.381 167.351C804.752 166.826 804.438 166.134 804.438 165.272H806.413C806.413 165.646 806.552 165.951 806.83 166.188C807.113 166.425 807.459 166.544 807.869 166.544C808.339 166.544 808.705 166.421 808.97 166.175C809.239 165.924 809.373 165.594 809.373 165.184C809.373 164.19 808.826 163.693 807.732 163.693H806.687V162.148ZM819.415 163.885C819.415 165.261 819.13 166.314 818.561 167.043C817.991 167.772 817.157 168.137 816.059 168.137C814.974 168.137 814.145 167.779 813.57 167.063C812.996 166.348 812.702 165.323 812.688 163.987V162.155C812.688 160.765 812.976 159.71 813.55 158.99C814.129 158.27 814.96 157.91 816.045 157.91C817.13 157.91 817.959 158.268 818.533 158.983C819.107 159.694 819.401 160.717 819.415 162.053V163.885ZM817.439 161.875C817.439 161.05 817.326 160.451 817.098 160.077C816.874 159.699 816.523 159.51 816.045 159.51C815.58 159.51 815.236 159.69 815.013 160.05C814.794 160.405 814.678 160.964 814.664 161.725V164.145C814.664 164.956 814.773 165.56 814.992 165.956C815.215 166.348 815.571 166.544 816.059 166.544C816.542 166.544 816.89 166.355 817.104 165.977C817.319 165.598 817.43 165.02 817.439 164.24V161.875ZM827.454 163.885C827.454 165.261 827.169 166.314 826.6 167.043C826.03 167.772 825.196 168.137 824.098 168.137C823.013 168.137 822.184 167.779 821.609 167.063C821.035 166.348 820.741 165.323 820.728 163.987V162.155C820.728 160.765 821.015 159.71 821.589 158.99C822.168 158.27 822.999 157.91 824.084 157.91C825.169 157.91 825.998 158.268 826.572 158.983C827.146 159.694 827.44 160.717 827.454 162.053V163.885ZM825.479 161.875C825.479 161.05 825.365 160.451 825.137 160.077C824.913 159.699 824.562 159.51 824.084 159.51C823.619 159.51 823.275 159.69 823.052 160.05C822.833 160.405 822.717 160.964 822.703 161.725V164.145C822.703 164.956 822.812 165.56 823.031 165.956C823.255 166.348 823.61 166.544 824.098 166.544C824.581 166.544 824.929 166.355 825.144 165.977C825.358 165.598 825.469 165.02 825.479 164.24V161.875ZM835.493 163.885C835.493 165.261 835.208 166.314 834.639 167.043C834.069 167.772 833.235 168.137 832.137 168.137C831.052 168.137 830.223 167.779 829.648 167.063C829.074 166.348 828.78 165.323 828.767 163.987V162.155C828.767 160.765 829.054 159.71 829.628 158.99C830.207 158.27 831.038 157.91 832.123 157.91C833.208 157.91 834.037 158.268 834.611 158.983C835.186 159.694 835.479 160.717 835.493 162.053V163.885ZM833.518 161.875C833.518 161.05 833.404 160.451 833.176 160.077C832.952 159.699 832.602 159.51 832.123 159.51C831.658 159.51 831.314 159.69 831.091 160.05C830.872 160.405 830.756 160.964 830.742 161.725V164.145C830.742 164.956 830.852 165.56 831.07 165.956C831.294 166.348 831.649 166.544 832.137 166.544C832.62 166.544 832.968 166.355 833.183 165.977C833.397 165.598 833.508 165.02 833.518 164.24V161.875Z" fill="#6E8198"/>
<path d="M810.036 103.944V105.571H809.845C808.951 105.585 808.231 105.817 807.685 106.269C807.142 106.72 806.816 107.346 806.707 108.148C807.236 107.611 807.903 107.342 808.71 107.342C809.576 107.342 810.264 107.652 810.774 108.271C811.285 108.891 811.54 109.707 811.54 110.719C811.54 111.366 811.399 111.951 811.116 112.476C810.838 113 810.442 113.408 809.927 113.699C809.416 113.991 808.838 114.137 808.19 114.137C807.142 114.137 806.295 113.772 805.647 113.043C805.005 112.314 804.684 111.341 804.684 110.124V109.413C804.684 108.333 804.886 107.381 805.292 106.556C805.702 105.726 806.288 105.086 807.049 104.635C807.814 104.179 808.701 103.949 809.708 103.944H810.036ZM808.108 108.928C807.789 108.928 807.5 109.012 807.24 109.181C806.98 109.345 806.789 109.563 806.666 109.837V110.438C806.666 111.099 806.796 111.617 807.056 111.99C807.315 112.359 807.68 112.544 808.149 112.544C808.573 112.544 808.915 112.378 809.175 112.045C809.439 111.708 809.571 111.272 809.571 110.739C809.571 110.197 809.439 109.759 809.175 109.427C808.91 109.094 808.555 108.928 808.108 108.928ZM819.415 109.885C819.415 111.261 819.13 112.314 818.561 113.043C817.991 113.772 817.157 114.137 816.059 114.137C814.974 114.137 814.145 113.779 813.57 113.063C812.996 112.348 812.702 111.323 812.688 109.987V108.155C812.688 106.765 812.976 105.71 813.55 104.99C814.129 104.27 814.96 103.91 816.045 103.91C817.13 103.91 817.959 104.268 818.533 104.983C819.107 105.694 819.401 106.717 819.415 108.053V109.885ZM817.439 107.875C817.439 107.05 817.326 106.451 817.098 106.077C816.874 105.699 816.523 105.51 816.045 105.51C815.58 105.51 815.236 105.69 815.013 106.05C814.794 106.405 814.678 106.964 814.664 107.725V110.145C814.664 110.956 814.773 111.56 814.992 111.956C815.215 112.348 815.571 112.544 816.059 112.544C816.542 112.544 816.89 112.355 817.104 111.977C817.319 111.598 817.43 111.02 817.439 110.24V107.875ZM827.454 109.885C827.454 111.261 827.169 112.314 826.6 113.043C826.03 113.772 825.196 114.137 824.098 114.137C823.013 114.137 822.184 113.779 821.609 113.063C821.035 112.348 820.741 111.323 820.728 109.987V108.155C820.728 106.765 821.015 105.71 821.589 104.99C822.168 104.27 822.999 103.91 824.084 103.91C825.169 103.91 825.998 104.268 826.572 104.983C827.146 105.694 827.44 106.717 827.454 108.053V109.885ZM825.479 107.875C825.479 107.05 825.365 106.451 825.137 106.077C824.913 105.699 824.562 105.51 824.084 105.51C823.619 105.51 823.275 105.69 823.052 106.05C822.833 106.405 822.717 106.964 822.703 107.725V110.145C822.703 110.956 822.812 111.56 823.031 111.956C823.255 112.348 823.61 112.544 824.098 112.544C824.581 112.544 824.929 112.355 825.144 111.977C825.358 111.598 825.469 111.02 825.479 110.24V107.875ZM835.493 109.885C835.493 111.261 835.208 112.314 834.639 113.043C834.069 113.772 833.235 114.137 832.137 114.137C831.052 114.137 830.223 113.779 829.648 113.063C829.074 112.348 828.78 111.323 828.767 109.987V108.155C828.767 106.765 829.054 105.71 829.628 104.99C830.207 104.27 831.038 103.91 832.123 103.91C833.208 103.91 834.037 104.268 834.611 104.983C835.186 105.694 835.479 106.717 835.493 108.053V109.885ZM833.518 107.875C833.518 107.05 833.404 106.451 833.176 106.077C832.952 105.699 832.602 105.51 832.123 105.51C831.658 105.51 831.314 105.69 831.091 106.05C830.872 106.405 830.756 106.964 830.742 107.725V110.145C830.742 110.956 830.852 111.56 831.07 111.956C831.294 112.348 831.649 112.544 832.137 112.544C832.62 112.544 832.968 112.355 833.183 111.977C833.397 111.598 833.508 111.02 833.518 110.24V107.875Z" fill="#6E8198"/>
<path d="M809.476 60H807.5V52.3848L805.142 53.1162V51.5098L809.264 50.0332H809.476V60ZM819.415 55.8848C819.415 57.2611 819.13 58.3138 818.561 59.043C817.991 59.7721 817.157 60.1367 816.059 60.1367C814.974 60.1367 814.145 59.779 813.57 59.0635C812.996 58.348 812.702 57.3226 812.688 55.9873V54.1553C812.688 52.7653 812.976 51.7103 813.55 50.9902C814.129 50.2702 814.96 49.9102 816.045 49.9102C817.13 49.9102 817.959 50.2679 818.533 50.9834C819.107 51.6943 819.401 52.7174 819.415 54.0527V55.8848ZM817.439 53.875C817.439 53.0501 817.326 52.4508 817.098 52.0771C816.874 51.6989 816.523 51.5098 816.045 51.5098C815.58 51.5098 815.236 51.6898 815.013 52.0498C814.794 52.4053 814.678 52.9635 814.664 53.7246V56.1445C814.664 56.9557 814.773 57.5596 814.992 57.9561C815.215 58.348 815.571 58.5439 816.059 58.5439C816.542 58.5439 816.89 58.3548 817.104 57.9766C817.319 57.5983 817.43 57.0195 817.439 56.2402V53.875ZM827.454 55.8848C827.454 57.2611 827.169 58.3138 826.6 59.043C826.03 59.7721 825.196 60.1367 824.098 60.1367C823.013 60.1367 822.184 59.779 821.609 59.0635C821.035 58.348 820.741 57.3226 820.728 55.9873V54.1553C820.728 52.7653 821.015 51.7103 821.589 50.9902C822.168 50.2702 822.999 49.9102 824.084 49.9102C825.169 49.9102 825.998 50.2679 826.572 50.9834C827.146 51.6943 827.44 52.7174 827.454 54.0527V55.8848ZM825.479 53.875C825.479 53.0501 825.365 52.4508 825.137 52.0771C824.913 51.6989 824.562 51.5098 824.084 51.5098C823.619 51.5098 823.275 51.6898 823.052 52.0498C822.833 52.4053 822.717 52.9635 822.703 53.7246V56.1445C822.703 56.9557 822.812 57.5596 823.031 57.9561C823.255 58.348 823.61 58.5439 824.098 58.5439C824.581 58.5439 824.929 58.3548 825.144 57.9766C825.358 57.5983 825.469 57.0195 825.479 56.2402V53.875ZM835.493 55.8848C835.493 57.2611 835.208 58.3138 834.639 59.043C834.069 59.7721 833.235 60.1367 832.137 60.1367C831.052 60.1367 830.223 59.779 829.648 59.0635C829.074 58.348 828.78 57.3226 828.767 55.9873V54.1553C828.767 52.7653 829.054 51.7103 829.628 50.9902C830.207 50.2702 831.038 49.9102 832.123 49.9102C833.208 49.9102 834.037 50.2679 834.611 50.9834C835.186 51.6943 835.479 52.7174 835.493 54.0527V55.8848ZM833.518 53.875C833.518 53.0501 833.404 52.4508 833.176 52.0771C832.952 51.6989 832.602 51.5098 832.123 51.5098C831.658 51.5098 831.314 51.6898 831.091 52.0498C830.872 52.4053 830.756 52.9635 830.742 53.7246V56.1445C830.742 56.9557 830.852 57.5596 831.07 57.9561C831.294 58.348 831.649 58.5439 832.137 58.5439C832.62 58.5439 832.968 58.3548 833.183 57.9766C833.397 57.5983 833.508 57.0195 833.518 56.2402V53.875ZM843.532 55.8848C843.532 57.2611 843.247 58.3138 842.678 59.043C842.108 59.7721 841.274 60.1367 840.176 60.1367C839.091 60.1367 838.262 59.779 837.688 59.0635C837.113 58.348 836.819 57.3226 836.806 55.9873V54.1553C836.806 52.7653 837.093 51.7103 837.667 50.9902C838.246 50.2702 839.077 49.9102 840.162 49.9102C841.247 49.9102 842.076 50.2679 842.65 50.9834C843.225 51.6943 843.519 52.7174 843.532 54.0527V55.8848ZM841.557 53.875C841.557 53.0501 841.443 52.4508 841.215 52.0771C840.992 51.6989 840.641 51.5098 840.162 51.5098C839.697 51.5098 839.353 51.6898 839.13 52.0498C838.911 52.4053 838.795 52.9635 838.781 53.7246V56.1445C838.781 56.9557 838.891 57.5596 839.109 57.9561C839.333 58.348 839.688 58.5439 840.176 58.5439C840.659 58.5439 841.007 58.3548 841.222 57.9766C841.436 57.5983 841.548 57.0195 841.557 56.2402V53.875Z" fill="#6E8198"/>
<path d="M796.5 329L796.5 330L797.5 330L797.5 329L796.5 329ZM797.207 0.292891C796.817 -0.0976335 796.183 -0.0976334 795.793 0.292891L789.429 6.65685C789.038 7.04738 789.038 7.68054 789.429 8.07107C789.819 8.46159 790.453 8.46159 790.843 8.07107L796.5 2.41421L802.157 8.07107C802.547 8.46159 803.181 8.46159 803.571 8.07107C803.962 7.68054 803.962 7.04738 803.571 6.65685L797.207 0.292891ZM797.5 329L797.5 0.999998L795.5 0.999998L795.5 329L797.5 329ZM796.5 328L742.5 328L742.5 330L796.5 330L796.5 328Z" fill="#B0C4D4"/>
<path d="M161 329L161 2" stroke="#B0C4D4" stroke-opacity="0.2" stroke-width="2"/>
<path d="M316 329L316 2" stroke="#B0C4D4" stroke-opacity="0.2" stroke-width="2"/>
<path d="M471 329L471 2" stroke="#B0C4D4" stroke-opacity="0.2" stroke-width="2"/>
<path d="M626 329L626 2" stroke="#B0C4D4" stroke-opacity="0.2" stroke-width="2"/>
<defs>
<linearGradient id="paint0_linear" x1="705" y1="314" x2="807.996" y2="287.534" gradientUnits="userSpaceOnUse">
<stop stop-color="#229AB8"/>
<stop offset="0.994118" stop-color="#1CB1AC"/>
</linearGradient>
</defs>
</svg>
