<svg width="837" height="389" viewBox="0 0 837 389" fill="none" xmlns="http://www.w3.org/2000/svg">
<rect y="30" width="796" height="54" fill="white" fill-opacity="0.5"/>
<rect y="138" width="796" height="54" fill="white" fill-opacity="0.5"/>
<rect y="246" width="796" height="54" fill="white" fill-opacity="0.5"/>
<rect x="35" y="300" width="100" height="42" rx="5" fill="#9DAFBD"/>
<path d="M0 357H170" stroke="#B0C4D4" stroke-width="2"/>
<path d="M75.999 381H69.1768V379.646L72.3965 376.215C72.8385 375.732 73.1644 375.31 73.374 374.95C73.5882 374.59 73.6953 374.248 73.6953 373.925C73.6953 373.483 73.5837 373.136 73.3604 372.886C73.137 372.631 72.818 372.503 72.4033 372.503C71.9567 372.503 71.6035 372.658 71.3438 372.968C71.0885 373.273 70.9609 373.676 70.9609 374.178H68.9785C68.9785 373.572 69.1221 373.018 69.4092 372.517C69.7008 372.015 70.111 371.623 70.6396 371.341C71.1683 371.054 71.7676 370.91 72.4375 370.91C73.4629 370.91 74.2581 371.156 74.8232 371.648C75.3929 372.141 75.6777 372.836 75.6777 373.733C75.6777 374.226 75.5501 374.727 75.2949 375.237C75.0397 375.748 74.6022 376.342 73.9824 377.021L71.7197 379.407H75.999V381ZM83.915 376.885C83.915 378.261 83.6302 379.314 83.0605 380.043C82.4909 380.772 81.6569 381.137 80.5586 381.137C79.474 381.137 78.6445 380.779 78.0703 380.063C77.4961 379.348 77.2021 378.323 77.1885 376.987V375.155C77.1885 373.765 77.4756 372.71 78.0498 371.99C78.6286 371.27 79.4603 370.91 80.5449 370.91C81.6296 370.91 82.459 371.268 83.0332 371.983C83.6074 372.694 83.9014 373.717 83.915 375.053V376.885ZM81.9395 374.875C81.9395 374.05 81.8255 373.451 81.5977 373.077C81.3743 372.699 81.0234 372.51 80.5449 372.51C80.0801 372.51 79.736 372.69 79.5127 373.05C79.2939 373.405 79.1777 373.964 79.1641 374.725V377.145C79.1641 377.956 79.2734 378.56 79.4922 378.956C79.7155 379.348 80.071 379.544 80.5586 379.544C81.0417 379.544 81.3903 379.355 81.6045 378.977C81.8187 378.598 81.9303 378.02 81.9395 377.24V374.875ZM90.0537 381H88.0781V373.385L85.7197 374.116V372.51L89.8418 371.033H90.0537V381ZM100.062 372.154L96.2129 381H94.1279L97.9834 372.646H93.0342V371.047H100.062V372.154Z" fill="#6E8198"/>
<rect x="190" y="247" width="100" height="95" rx="5" fill="#9DAFBD"/>
<path d="M155 357H325" stroke="#B0C4D4" stroke-width="2"/>
<path d="M230.999 381H224.177V379.646L227.396 376.215C227.839 375.732 228.164 375.31 228.374 374.95C228.588 374.59 228.695 374.248 228.695 373.925C228.695 373.483 228.584 373.136 228.36 372.886C228.137 372.631 227.818 372.503 227.403 372.503C226.957 372.503 226.604 372.658 226.344 372.968C226.089 373.273 225.961 373.676 225.961 374.178H223.979C223.979 373.572 224.122 373.018 224.409 372.517C224.701 372.015 225.111 371.623 225.64 371.341C226.168 371.054 226.768 370.91 227.438 370.91C228.463 370.91 229.258 371.156 229.823 371.648C230.393 372.141 230.678 372.836 230.678 373.733C230.678 374.226 230.55 374.727 230.295 375.237C230.04 375.748 229.602 376.342 228.982 377.021L226.72 379.407H230.999V381ZM238.915 376.885C238.915 378.261 238.63 379.314 238.061 380.043C237.491 380.772 236.657 381.137 235.559 381.137C234.474 381.137 233.645 380.779 233.07 380.063C232.496 379.348 232.202 378.323 232.188 376.987V375.155C232.188 373.765 232.476 372.71 233.05 371.99C233.629 371.27 234.46 370.91 235.545 370.91C236.63 370.91 237.459 371.268 238.033 371.983C238.607 372.694 238.901 373.717 238.915 375.053V376.885ZM236.939 374.875C236.939 374.05 236.826 373.451 236.598 373.077C236.374 372.699 236.023 372.51 235.545 372.51C235.08 372.51 234.736 372.69 234.513 373.05C234.294 373.405 234.178 373.964 234.164 374.725V377.145C234.164 377.956 234.273 378.56 234.492 378.956C234.715 379.348 235.071 379.544 235.559 379.544C236.042 379.544 236.39 379.355 236.604 378.977C236.819 378.598 236.93 378.02 236.939 377.24V374.875ZM245.054 381H243.078V373.385L240.72 374.116V372.51L244.842 371.033H245.054V381ZM254.781 373.692C254.781 374.175 254.66 374.604 254.419 374.978C254.177 375.351 253.845 375.65 253.421 375.873C253.904 376.105 254.287 376.427 254.569 376.837C254.852 377.243 254.993 377.721 254.993 378.272C254.993 379.157 254.692 379.856 254.091 380.371C253.489 380.882 252.671 381.137 251.637 381.137C250.602 381.137 249.782 380.879 249.176 380.364C248.57 379.849 248.267 379.152 248.267 378.272C248.267 377.721 248.408 377.24 248.69 376.83C248.973 376.42 249.354 376.101 249.832 375.873C249.408 375.65 249.076 375.351 248.834 374.978C248.597 374.604 248.479 374.175 248.479 373.692C248.479 372.845 248.761 372.17 249.326 371.669C249.891 371.163 250.659 370.91 251.63 370.91C252.596 370.91 253.362 371.161 253.927 371.662C254.496 372.159 254.781 372.836 254.781 373.692ZM253.011 378.129C253.011 377.696 252.885 377.35 252.635 377.09C252.384 376.83 252.047 376.7 251.623 376.7C251.204 376.7 250.869 376.83 250.618 377.09C250.368 377.345 250.242 377.691 250.242 378.129C250.242 378.553 250.365 378.895 250.611 379.154C250.857 379.414 251.199 379.544 251.637 379.544C252.065 379.544 252.4 379.419 252.642 379.168C252.888 378.917 253.011 378.571 253.011 378.129ZM252.806 373.788C252.806 373.401 252.703 373.091 252.498 372.858C252.293 372.621 252.004 372.503 251.63 372.503C251.261 372.503 250.974 372.617 250.769 372.845C250.563 373.073 250.461 373.387 250.461 373.788C250.461 374.185 250.563 374.504 250.769 374.745C250.974 374.987 251.263 375.107 251.637 375.107C252.01 375.107 252.298 374.987 252.498 374.745C252.703 374.504 252.806 374.185 252.806 373.788Z" fill="#6E8198"/>
<rect x="345" y="196" width="100" height="146" rx="5" fill="#9DAFBD"/>
<path d="M310 357H480" stroke="#B0C4D4" stroke-width="2"/>
<path d="M385.999 381H379.177V379.646L382.396 376.215C382.839 375.732 383.164 375.31 383.374 374.95C383.588 374.59 383.695 374.248 383.695 373.925C383.695 373.483 383.584 373.136 383.36 372.886C383.137 372.631 382.818 372.503 382.403 372.503C381.957 372.503 381.604 372.658 381.344 372.968C381.089 373.273 380.961 373.676 380.961 374.178H378.979C378.979 373.572 379.122 373.018 379.409 372.517C379.701 372.015 380.111 371.623 380.64 371.341C381.168 371.054 381.768 370.91 382.438 370.91C383.463 370.91 384.258 371.156 384.823 371.648C385.393 372.141 385.678 372.836 385.678 373.733C385.678 374.226 385.55 374.727 385.295 375.237C385.04 375.748 384.602 376.342 383.982 377.021L381.72 379.407H385.999V381ZM393.915 376.885C393.915 378.261 393.63 379.314 393.061 380.043C392.491 380.772 391.657 381.137 390.559 381.137C389.474 381.137 388.645 380.779 388.07 380.063C387.496 379.348 387.202 378.323 387.188 376.987V375.155C387.188 373.765 387.476 372.71 388.05 371.99C388.629 371.27 389.46 370.91 390.545 370.91C391.63 370.91 392.459 371.268 393.033 371.983C393.607 372.694 393.901 373.717 393.915 375.053V376.885ZM391.939 374.875C391.939 374.05 391.826 373.451 391.598 373.077C391.374 372.699 391.023 372.51 390.545 372.51C390.08 372.51 389.736 372.69 389.513 373.05C389.294 373.405 389.178 373.964 389.164 374.725V377.145C389.164 377.956 389.273 378.56 389.492 378.956C389.715 379.348 390.071 379.544 390.559 379.544C391.042 379.544 391.39 379.355 391.604 378.977C391.819 378.598 391.93 378.02 391.939 377.24V374.875ZM400.054 381H398.078V373.385L395.72 374.116V372.51L399.842 371.033H400.054V381ZM407.915 377.021C407.4 377.527 406.799 377.78 406.11 377.78C405.231 377.78 404.527 377.479 403.998 376.878C403.469 376.272 403.205 375.456 403.205 374.431C403.205 373.779 403.346 373.182 403.629 372.64C403.916 372.093 404.315 371.669 404.825 371.368C405.336 371.063 405.91 370.91 406.548 370.91C407.204 370.91 407.787 371.074 408.298 371.402C408.808 371.73 409.205 372.202 409.487 372.817C409.77 373.433 409.913 374.137 409.918 374.93V375.661C409.918 377.32 409.506 378.623 408.681 379.571C407.856 380.519 406.687 381.025 405.174 381.089L404.688 381.096V379.448L405.126 379.441C406.844 379.364 407.774 378.557 407.915 377.021ZM406.596 376.27C406.915 376.27 407.188 376.188 407.416 376.023C407.648 375.859 407.824 375.661 407.942 375.429V374.615C407.942 373.945 407.815 373.426 407.56 373.057C407.304 372.688 406.963 372.503 406.534 372.503C406.138 372.503 405.812 372.685 405.557 373.05C405.301 373.41 405.174 373.863 405.174 374.41C405.174 374.952 405.297 375.399 405.543 375.75C405.794 376.096 406.145 376.27 406.596 376.27Z" fill="#6E8198"/>
<rect x="500" y="172" width="100" height="170" rx="5" fill="#9DAFBD"/>
<path d="M465 357H635" stroke="#B0C4D4" stroke-width="2"/>
<path d="M540.999 381H534.177V379.646L537.396 376.215C537.839 375.732 538.164 375.31 538.374 374.95C538.588 374.59 538.695 374.248 538.695 373.925C538.695 373.483 538.584 373.136 538.36 372.886C538.137 372.631 537.818 372.503 537.403 372.503C536.957 372.503 536.604 372.658 536.344 372.968C536.089 373.273 535.961 373.676 535.961 374.178H533.979C533.979 373.572 534.122 373.018 534.409 372.517C534.701 372.015 535.111 371.623 535.64 371.341C536.168 371.054 536.768 370.91 537.438 370.91C538.463 370.91 539.258 371.156 539.823 371.648C540.393 372.141 540.678 372.836 540.678 373.733C540.678 374.226 540.55 374.727 540.295 375.237C540.04 375.748 539.602 376.342 538.982 377.021L536.72 379.407H540.999V381ZM548.915 376.885C548.915 378.261 548.63 379.314 548.061 380.043C547.491 380.772 546.657 381.137 545.559 381.137C544.474 381.137 543.645 380.779 543.07 380.063C542.496 379.348 542.202 378.323 542.188 376.987V375.155C542.188 373.765 542.476 372.71 543.05 371.99C543.629 371.27 544.46 370.91 545.545 370.91C546.63 370.91 547.459 371.268 548.033 371.983C548.607 372.694 548.901 373.717 548.915 375.053V376.885ZM546.939 374.875C546.939 374.05 546.826 373.451 546.598 373.077C546.374 372.699 546.023 372.51 545.545 372.51C545.08 372.51 544.736 372.69 544.513 373.05C544.294 373.405 544.178 373.964 544.164 374.725V377.145C544.164 377.956 544.273 378.56 544.492 378.956C544.715 379.348 545.071 379.544 545.559 379.544C546.042 379.544 546.39 379.355 546.604 378.977C546.819 378.598 546.93 378.02 546.939 377.24V374.875ZM557.077 381H550.255V379.646L553.475 376.215C553.917 375.732 554.243 375.31 554.452 374.95C554.666 374.59 554.773 374.248 554.773 373.925C554.773 373.483 554.662 373.136 554.438 372.886C554.215 372.631 553.896 372.503 553.481 372.503C553.035 372.503 552.682 372.658 552.422 372.968C552.167 373.273 552.039 373.676 552.039 374.178H550.057C550.057 373.572 550.2 373.018 550.487 372.517C550.779 372.015 551.189 371.623 551.718 371.341C552.246 371.054 552.846 370.91 553.516 370.91C554.541 370.91 555.336 371.156 555.901 371.648C556.471 372.141 556.756 372.836 556.756 373.733C556.756 374.226 556.628 374.727 556.373 375.237C556.118 375.748 555.68 376.342 555.061 377.021L552.798 379.407H557.077V381ZM564.993 376.885C564.993 378.261 564.708 379.314 564.139 380.043C563.569 380.772 562.735 381.137 561.637 381.137C560.552 381.137 559.723 380.779 559.148 380.063C558.574 379.348 558.28 378.323 558.267 376.987V375.155C558.267 373.765 558.554 372.71 559.128 371.99C559.707 371.27 560.538 370.91 561.623 370.91C562.708 370.91 563.537 371.268 564.111 371.983C564.686 372.694 564.979 373.717 564.993 375.053V376.885ZM563.018 374.875C563.018 374.05 562.904 373.451 562.676 373.077C562.452 372.699 562.102 372.51 561.623 372.51C561.158 372.51 560.814 372.69 560.591 373.05C560.372 373.405 560.256 373.964 560.242 374.725V377.145C560.242 377.956 560.352 378.56 560.57 378.956C560.794 379.348 561.149 379.544 561.637 379.544C562.12 379.544 562.468 379.355 562.683 378.977C562.897 378.598 563.008 378.02 563.018 377.24V374.875Z" fill="#6E8198"/>
<rect x="655" y="30" width="100" height="312" rx="5" fill="url(#paint0_linear)"/>
<path d="M620 357H790" stroke="#B0C4D4" stroke-width="2"/>
<path d="M695.999 381H689.177V379.646L692.396 376.215C692.839 375.732 693.164 375.31 693.374 374.95C693.588 374.59 693.695 374.248 693.695 373.925C693.695 373.483 693.584 373.136 693.36 372.886C693.137 372.631 692.818 372.503 692.403 372.503C691.957 372.503 691.604 372.658 691.344 372.968C691.089 373.273 690.961 373.676 690.961 374.178H688.979C688.979 373.572 689.122 373.018 689.409 372.517C689.701 372.015 690.111 371.623 690.64 371.341C691.168 371.054 691.768 370.91 692.438 370.91C693.463 370.91 694.258 371.156 694.823 371.648C695.393 372.141 695.678 372.836 695.678 373.733C695.678 374.226 695.55 374.727 695.295 375.237C695.04 375.748 694.602 376.342 693.982 377.021L691.72 379.407H695.999V381ZM703.915 376.885C703.915 378.261 703.63 379.314 703.061 380.043C702.491 380.772 701.657 381.137 700.559 381.137C699.474 381.137 698.645 380.779 698.07 380.063C697.496 379.348 697.202 378.323 697.188 376.987V375.155C697.188 373.765 697.476 372.71 698.05 371.99C698.629 371.27 699.46 370.91 700.545 370.91C701.63 370.91 702.459 371.268 703.033 371.983C703.607 372.694 703.901 373.717 703.915 375.053V376.885ZM701.939 374.875C701.939 374.05 701.826 373.451 701.598 373.077C701.374 372.699 701.023 372.51 700.545 372.51C700.08 372.51 699.736 372.69 699.513 373.05C699.294 373.405 699.178 373.964 699.164 374.725V377.145C699.164 377.956 699.273 378.56 699.492 378.956C699.715 379.348 700.071 379.544 700.559 379.544C701.042 379.544 701.39 379.355 701.604 378.977C701.819 378.598 701.93 378.02 701.939 377.24V374.875ZM712.077 381H705.255V379.646L708.475 376.215C708.917 375.732 709.243 375.31 709.452 374.95C709.666 374.59 709.773 374.248 709.773 373.925C709.773 373.483 709.662 373.136 709.438 372.886C709.215 372.631 708.896 372.503 708.481 372.503C708.035 372.503 707.682 372.658 707.422 372.968C707.167 373.273 707.039 373.676 707.039 374.178H705.057C705.057 373.572 705.2 373.018 705.487 372.517C705.779 372.015 706.189 371.623 706.718 371.341C707.246 371.054 707.846 370.91 708.516 370.91C709.541 370.91 710.336 371.156 710.901 371.648C711.471 372.141 711.756 372.836 711.756 373.733C711.756 374.226 711.628 374.727 711.373 375.237C711.118 375.748 710.68 376.342 710.061 377.021L707.798 379.407H712.077V381ZM720.116 381H713.294V379.646L716.514 376.215C716.956 375.732 717.282 375.31 717.491 374.95C717.705 374.59 717.812 374.248 717.812 373.925C717.812 373.483 717.701 373.136 717.478 372.886C717.254 372.631 716.935 372.503 716.521 372.503C716.074 372.503 715.721 372.658 715.461 372.968C715.206 373.273 715.078 373.676 715.078 374.178H713.096C713.096 373.572 713.239 373.018 713.526 372.517C713.818 372.015 714.228 371.623 714.757 371.341C715.285 371.054 715.885 370.91 716.555 370.91C717.58 370.91 718.375 371.156 718.94 371.648C719.51 372.141 719.795 372.836 719.795 373.733C719.795 374.226 719.667 374.727 719.412 375.237C719.157 375.748 718.719 376.342 718.1 377.021L715.837 379.407H720.116V381Z" fill="#6E8198"/>
<path d="M811.376 353.885C811.376 355.261 811.091 356.314 810.521 357.043C809.952 357.772 809.118 358.137 808.02 358.137C806.935 358.137 806.105 357.779 805.531 357.063C804.957 356.348 804.663 355.323 804.649 353.987V352.155C804.649 350.765 804.937 349.71 805.511 348.99C806.09 348.27 806.921 347.91 808.006 347.91C809.09 347.91 809.92 348.268 810.494 348.983C811.068 349.694 811.362 350.717 811.376 352.053V353.885ZM809.4 351.875C809.4 351.05 809.286 350.451 809.059 350.077C808.835 349.699 808.484 349.51 808.006 349.51C807.541 349.51 807.197 349.69 806.974 350.05C806.755 350.405 806.639 350.964 806.625 351.725V354.145C806.625 354.956 806.734 355.56 806.953 355.956C807.176 356.348 807.532 356.544 808.02 356.544C808.503 356.544 808.851 356.355 809.065 355.977C809.28 355.598 809.391 355.02 809.4 354.24V351.875Z" fill="#6E8198"/>
<path d="M806.687 298.148H807.739C808.241 298.148 808.612 298.023 808.854 297.772C809.095 297.522 809.216 297.189 809.216 296.774C809.216 296.373 809.095 296.061 808.854 295.838C808.617 295.615 808.288 295.503 807.869 295.503C807.491 295.503 807.174 295.608 806.919 295.817C806.664 296.022 806.536 296.291 806.536 296.624H804.561C804.561 296.104 804.7 295.64 804.978 295.229C805.26 294.815 805.652 294.491 806.153 294.259C806.659 294.026 807.215 293.91 807.821 293.91C808.874 293.91 809.699 294.163 810.296 294.669C810.893 295.17 811.191 295.863 811.191 296.747C811.191 297.203 811.052 297.622 810.774 298.005C810.496 298.388 810.132 298.682 809.681 298.887C810.241 299.087 810.658 299.388 810.932 299.789C811.21 300.19 811.349 300.664 811.349 301.211C811.349 302.095 811.025 302.804 810.378 303.337C809.735 303.87 808.883 304.137 807.821 304.137C806.828 304.137 806.014 303.875 805.381 303.351C804.752 302.826 804.438 302.134 804.438 301.272H806.413C806.413 301.646 806.552 301.951 806.83 302.188C807.113 302.425 807.459 302.544 807.869 302.544C808.339 302.544 808.705 302.421 808.97 302.175C809.239 301.924 809.373 301.594 809.373 301.184C809.373 300.19 808.826 299.693 807.732 299.693H806.687V298.148ZM819.415 299.885C819.415 301.261 819.13 302.314 818.561 303.043C817.991 303.772 817.157 304.137 816.059 304.137C814.974 304.137 814.145 303.779 813.57 303.063C812.996 302.348 812.702 301.323 812.688 299.987V298.155C812.688 296.765 812.976 295.71 813.55 294.99C814.129 294.27 814.96 293.91 816.045 293.91C817.13 293.91 817.959 294.268 818.533 294.983C819.107 295.694 819.401 296.717 819.415 298.053V299.885ZM817.439 297.875C817.439 297.05 817.326 296.451 817.098 296.077C816.874 295.699 816.523 295.51 816.045 295.51C815.58 295.51 815.236 295.69 815.013 296.05C814.794 296.405 814.678 296.964 814.664 297.725V300.145C814.664 300.956 814.773 301.56 814.992 301.956C815.215 302.348 815.571 302.544 816.059 302.544C816.542 302.544 816.89 302.355 817.104 301.977C817.319 301.598 817.43 301.02 817.439 300.24V297.875ZM827.454 299.885C827.454 301.261 827.169 302.314 826.6 303.043C826.03 303.772 825.196 304.137 824.098 304.137C823.013 304.137 822.184 303.779 821.609 303.063C821.035 302.348 820.741 301.323 820.728 299.987V298.155C820.728 296.765 821.015 295.71 821.589 294.99C822.168 294.27 822.999 293.91 824.084 293.91C825.169 293.91 825.998 294.268 826.572 294.983C827.146 295.694 827.44 296.717 827.454 298.053V299.885ZM825.479 297.875C825.479 297.05 825.365 296.451 825.137 296.077C824.913 295.699 824.562 295.51 824.084 295.51C823.619 295.51 823.275 295.69 823.052 296.05C822.833 296.405 822.717 296.964 822.703 297.725V300.145C822.703 300.956 822.812 301.56 823.031 301.956C823.255 302.348 823.61 302.544 824.098 302.544C824.581 302.544 824.929 302.355 825.144 301.977C825.358 301.598 825.469 301.02 825.479 300.24V297.875Z" fill="#6E8198"/>
<path d="M810.036 239.944V241.571H809.845C808.951 241.585 808.231 241.817 807.685 242.269C807.142 242.72 806.816 243.346 806.707 244.148C807.236 243.611 807.903 243.342 808.71 243.342C809.576 243.342 810.264 243.652 810.774 244.271C811.285 244.891 811.54 245.707 811.54 246.719C811.54 247.366 811.399 247.951 811.116 248.476C810.838 249 810.442 249.408 809.927 249.699C809.416 249.991 808.838 250.137 808.19 250.137C807.142 250.137 806.295 249.772 805.647 249.043C805.005 248.314 804.684 247.341 804.684 246.124V245.413C804.684 244.333 804.886 243.381 805.292 242.556C805.702 241.726 806.288 241.086 807.049 240.635C807.814 240.179 808.701 239.949 809.708 239.944H810.036ZM808.108 244.928C807.789 244.928 807.5 245.012 807.24 245.181C806.98 245.345 806.789 245.563 806.666 245.837V246.438C806.666 247.099 806.796 247.617 807.056 247.99C807.315 248.359 807.68 248.544 808.149 248.544C808.573 248.544 808.915 248.378 809.175 248.045C809.439 247.708 809.571 247.272 809.571 246.739C809.571 246.197 809.439 245.759 809.175 245.427C808.91 245.094 808.555 244.928 808.108 244.928ZM819.415 245.885C819.415 247.261 819.13 248.314 818.561 249.043C817.991 249.772 817.157 250.137 816.059 250.137C814.974 250.137 814.145 249.779 813.57 249.063C812.996 248.348 812.702 247.323 812.688 245.987V244.155C812.688 242.765 812.976 241.71 813.55 240.99C814.129 240.27 814.96 239.91 816.045 239.91C817.13 239.91 817.959 240.268 818.533 240.983C819.107 241.694 819.401 242.717 819.415 244.053V245.885ZM817.439 243.875C817.439 243.05 817.326 242.451 817.098 242.077C816.874 241.699 816.523 241.51 816.045 241.51C815.58 241.51 815.236 241.69 815.013 242.05C814.794 242.405 814.678 242.964 814.664 243.725V246.145C814.664 246.956 814.773 247.56 814.992 247.956C815.215 248.348 815.571 248.544 816.059 248.544C816.542 248.544 816.89 248.355 817.104 247.977C817.319 247.598 817.43 247.02 817.439 246.24V243.875ZM827.454 245.885C827.454 247.261 827.169 248.314 826.6 249.043C826.03 249.772 825.196 250.137 824.098 250.137C823.013 250.137 822.184 249.779 821.609 249.063C821.035 248.348 820.741 247.323 820.728 245.987V244.155C820.728 242.765 821.015 241.71 821.589 240.99C822.168 240.27 822.999 239.91 824.084 239.91C825.169 239.91 825.998 240.268 826.572 240.983C827.146 241.694 827.44 242.717 827.454 244.053V245.885ZM825.479 243.875C825.479 243.05 825.365 242.451 825.137 242.077C824.913 241.699 824.562 241.51 824.084 241.51C823.619 241.51 823.275 241.69 823.052 242.05C822.833 242.405 822.717 242.964 822.703 243.725V246.145C822.703 246.956 822.812 247.56 823.031 247.956C823.255 248.348 823.61 248.544 824.098 248.544C824.581 248.544 824.929 248.355 825.144 247.977C825.358 247.598 825.469 247.02 825.479 246.24V243.875Z" fill="#6E8198"/>
<path d="M809.298 192.021C808.783 192.527 808.181 192.78 807.493 192.78C806.614 192.78 805.91 192.479 805.381 191.878C804.852 191.272 804.588 190.456 804.588 189.431C804.588 188.779 804.729 188.182 805.012 187.64C805.299 187.093 805.698 186.669 806.208 186.368C806.718 186.063 807.293 185.91 807.931 185.91C808.587 185.91 809.17 186.074 809.681 186.402C810.191 186.73 810.588 187.202 810.87 187.817C811.153 188.433 811.296 189.137 811.301 189.93V190.661C811.301 192.32 810.888 193.623 810.063 194.571C809.239 195.519 808.07 196.025 806.557 196.089L806.071 196.096V194.448L806.509 194.441C808.227 194.364 809.157 193.557 809.298 192.021ZM807.979 191.27C808.298 191.27 808.571 191.188 808.799 191.023C809.031 190.859 809.207 190.661 809.325 190.429V189.615C809.325 188.945 809.198 188.426 808.942 188.057C808.687 187.688 808.345 187.503 807.917 187.503C807.521 187.503 807.195 187.685 806.939 188.05C806.684 188.41 806.557 188.863 806.557 189.41C806.557 189.952 806.68 190.399 806.926 190.75C807.176 191.096 807.527 191.27 807.979 191.27ZM819.415 191.885C819.415 193.261 819.13 194.314 818.561 195.043C817.991 195.772 817.157 196.137 816.059 196.137C814.974 196.137 814.145 195.779 813.57 195.063C812.996 194.348 812.702 193.323 812.688 191.987V190.155C812.688 188.765 812.976 187.71 813.55 186.99C814.129 186.27 814.96 185.91 816.045 185.91C817.13 185.91 817.959 186.268 818.533 186.983C819.107 187.694 819.401 188.717 819.415 190.053V191.885ZM817.439 189.875C817.439 189.05 817.326 188.451 817.098 188.077C816.874 187.699 816.523 187.51 816.045 187.51C815.58 187.51 815.236 187.69 815.013 188.05C814.794 188.405 814.678 188.964 814.664 189.725V192.145C814.664 192.956 814.773 193.56 814.992 193.956C815.215 194.348 815.571 194.544 816.059 194.544C816.542 194.544 816.89 194.355 817.104 193.977C817.319 193.598 817.43 193.02 817.439 192.24V189.875ZM827.454 191.885C827.454 193.261 827.169 194.314 826.6 195.043C826.03 195.772 825.196 196.137 824.098 196.137C823.013 196.137 822.184 195.779 821.609 195.063C821.035 194.348 820.741 193.323 820.728 191.987V190.155C820.728 188.765 821.015 187.71 821.589 186.99C822.168 186.27 822.999 185.91 824.084 185.91C825.169 185.91 825.998 186.268 826.572 186.983C827.146 187.694 827.44 188.717 827.454 190.053V191.885ZM825.479 189.875C825.479 189.05 825.365 188.451 825.137 188.077C824.913 187.699 824.562 187.51 824.084 187.51C823.619 187.51 823.275 187.69 823.052 188.05C822.833 188.405 822.717 188.964 822.703 189.725V192.145C822.703 192.956 822.812 193.56 823.031 193.956C823.255 194.348 823.61 194.544 824.098 194.544C824.581 194.544 824.929 194.355 825.144 193.977C825.358 193.598 825.469 193.02 825.479 192.24V189.875Z" fill="#6E8198"/>
<path d="M809.476 142H807.5V134.385L805.142 135.116V133.51L809.264 132.033H809.476V142ZM819.538 142H812.716V140.646L815.936 137.215C816.378 136.732 816.703 136.31 816.913 135.95C817.127 135.59 817.234 135.248 817.234 134.925C817.234 134.483 817.123 134.136 816.899 133.886C816.676 133.631 816.357 133.503 815.942 133.503C815.496 133.503 815.143 133.658 814.883 133.968C814.628 134.273 814.5 134.676 814.5 135.178H812.518C812.518 134.572 812.661 134.018 812.948 133.517C813.24 133.015 813.65 132.623 814.179 132.341C814.707 132.054 815.307 131.91 815.977 131.91C817.002 131.91 817.797 132.156 818.362 132.648C818.932 133.141 819.217 133.836 819.217 134.733C819.217 135.226 819.089 135.727 818.834 136.237C818.579 136.748 818.141 137.342 817.521 138.021L815.259 140.407H819.538V142ZM827.454 137.885C827.454 139.261 827.169 140.314 826.6 141.043C826.03 141.772 825.196 142.137 824.098 142.137C823.013 142.137 822.184 141.779 821.609 141.063C821.035 140.348 820.741 139.323 820.728 137.987V136.155C820.728 134.765 821.015 133.71 821.589 132.99C822.168 132.27 822.999 131.91 824.084 131.91C825.169 131.91 825.998 132.268 826.572 132.983C827.146 133.694 827.44 134.717 827.454 136.053V137.885ZM825.479 135.875C825.479 135.05 825.365 134.451 825.137 134.077C824.913 133.699 824.562 133.51 824.084 133.51C823.619 133.51 823.275 133.69 823.052 134.05C822.833 134.405 822.717 134.964 822.703 135.725V138.145C822.703 138.956 822.812 139.56 823.031 139.956C823.255 140.348 823.61 140.544 824.098 140.544C824.581 140.544 824.929 140.355 825.144 139.977C825.358 139.598 825.469 139.02 825.479 138.24V135.875ZM835.493 137.885C835.493 139.261 835.208 140.314 834.639 141.043C834.069 141.772 833.235 142.137 832.137 142.137C831.052 142.137 830.223 141.779 829.648 141.063C829.074 140.348 828.78 139.323 828.767 137.987V136.155C828.767 134.765 829.054 133.71 829.628 132.99C830.207 132.27 831.038 131.91 832.123 131.91C833.208 131.91 834.037 132.268 834.611 132.983C835.186 133.694 835.479 134.717 835.493 136.053V137.885ZM833.518 135.875C833.518 135.05 833.404 134.451 833.176 134.077C832.952 133.699 832.602 133.51 832.123 133.51C831.658 133.51 831.314 133.69 831.091 134.05C830.872 134.405 830.756 134.964 830.742 135.725V138.145C830.742 138.956 830.852 139.56 831.07 139.956C831.294 140.348 831.649 140.544 832.137 140.544C832.62 140.544 832.968 140.355 833.183 139.977C833.397 139.598 833.508 139.02 833.518 138.24V135.875Z" fill="#6E8198"/>
<path d="M811.499 34H804.677V32.6465L807.896 29.2148C808.339 28.7318 808.664 28.3102 808.874 27.9502C809.088 27.5902 809.195 27.2484 809.195 26.9248C809.195 26.4827 809.084 26.1364 808.86 25.8857C808.637 25.6305 808.318 25.5029 807.903 25.5029C807.457 25.5029 807.104 25.6579 806.844 25.9678C806.589 26.2731 806.461 26.6764 806.461 27.1777H804.479C804.479 26.5716 804.622 26.0179 804.909 25.5166C805.201 25.0153 805.611 24.6234 806.14 24.3408C806.668 24.0537 807.268 23.9102 807.938 23.9102C808.963 23.9102 809.758 24.1562 810.323 24.6484C810.893 25.1406 811.178 25.8356 811.178 26.7334C811.178 27.2256 811.05 27.7269 810.795 28.2373C810.54 28.7477 810.102 29.3424 809.482 30.0215L807.22 32.4072H811.499V34ZM819.415 29.8848C819.415 31.2611 819.13 32.3138 818.561 33.043C817.991 33.7721 817.157 34.1367 816.059 34.1367C814.974 34.1367 814.145 33.779 813.57 33.0635C812.996 32.348 812.702 31.3226 812.688 29.9873V28.1553C812.688 26.7653 812.976 25.7103 813.55 24.9902C814.129 24.2702 814.96 23.9102 816.045 23.9102C817.13 23.9102 817.959 24.2679 818.533 24.9834C819.107 25.6943 819.401 26.7174 819.415 28.0527V29.8848ZM817.439 27.875C817.439 27.0501 817.326 26.4508 817.098 26.0771C816.874 25.6989 816.523 25.5098 816.045 25.5098C815.58 25.5098 815.236 25.6898 815.013 26.0498C814.794 26.4053 814.678 26.9635 814.664 27.7246V30.1445C814.664 30.9557 814.773 31.5596 814.992 31.9561C815.215 32.348 815.571 32.5439 816.059 32.5439C816.542 32.5439 816.89 32.3548 817.104 31.9766C817.319 31.5983 817.43 31.0195 817.439 30.2402V27.875ZM827.454 29.8848C827.454 31.2611 827.169 32.3138 826.6 33.043C826.03 33.7721 825.196 34.1367 824.098 34.1367C823.013 34.1367 822.184 33.779 821.609 33.0635C821.035 32.348 820.741 31.3226 820.728 29.9873V28.1553C820.728 26.7653 821.015 25.7103 821.589 24.9902C822.168 24.2702 822.999 23.9102 824.084 23.9102C825.169 23.9102 825.998 24.2679 826.572 24.9834C827.146 25.6943 827.44 26.7174 827.454 28.0527V29.8848ZM825.479 27.875C825.479 27.0501 825.365 26.4508 825.137 26.0771C824.913 25.6989 824.562 25.5098 824.084 25.5098C823.619 25.5098 823.275 25.6898 823.052 26.0498C822.833 26.4053 822.717 26.9635 822.703 27.7246V30.1445C822.703 30.9557 822.812 31.5596 823.031 31.9561C823.255 32.348 823.61 32.5439 824.098 32.5439C824.581 32.5439 824.929 32.3548 825.144 31.9766C825.358 31.5983 825.469 31.0195 825.479 30.2402V27.875ZM835.493 29.8848C835.493 31.2611 835.208 32.3138 834.639 33.043C834.069 33.7721 833.235 34.1367 832.137 34.1367C831.052 34.1367 830.223 33.779 829.648 33.0635C829.074 32.348 828.78 31.3226 828.767 29.9873V28.1553C828.767 26.7653 829.054 25.7103 829.628 24.9902C830.207 24.2702 831.038 23.9102 832.123 23.9102C833.208 23.9102 834.037 24.2679 834.611 24.9834C835.186 25.6943 835.479 26.7174 835.493 28.0527V29.8848ZM833.518 27.875C833.518 27.0501 833.404 26.4508 833.176 26.0771C832.952 25.6989 832.602 25.5098 832.123 25.5098C831.658 25.5098 831.314 25.6898 831.091 26.0498C830.872 26.4053 830.756 26.9635 830.742 27.7246V30.1445C830.742 30.9557 830.852 31.5596 831.07 31.9561C831.294 32.348 831.649 32.5439 832.137 32.5439C832.62 32.5439 832.968 32.3548 833.183 31.9766C833.397 31.5983 833.508 31.0195 833.518 30.2402V27.875Z" fill="#6E8198"/>
<path d="M809.476 88H807.5V80.3848L805.142 81.1162V79.5098L809.264 78.0332H809.476V88ZM813.01 83.1055L813.584 78.0469H819.162V79.6943H815.204L814.958 81.834C815.427 81.5833 815.926 81.458 816.455 81.458C817.403 81.458 818.146 81.752 818.684 82.3398C819.221 82.9277 819.49 83.7503 819.49 84.8076C819.49 85.4502 819.354 86.0267 819.08 86.5371C818.811 87.043 818.424 87.4372 817.918 87.7197C817.412 87.9977 816.815 88.1367 816.127 88.1367C815.525 88.1367 814.967 88.016 814.452 87.7744C813.937 87.5283 813.529 87.1842 813.229 86.7422C812.932 86.3001 812.775 85.7965 812.757 85.2314H814.712C814.753 85.6462 814.896 85.9697 815.143 86.2021C815.393 86.43 815.719 86.5439 816.12 86.5439C816.567 86.5439 816.911 86.3844 817.152 86.0654C817.394 85.7419 817.515 85.2861 817.515 84.6982C817.515 84.1331 817.376 83.7002 817.098 83.3994C816.82 83.0986 816.425 82.9482 815.915 82.9482C815.446 82.9482 815.065 83.0713 814.773 83.3174L814.582 83.4951L813.01 83.1055ZM827.454 83.8848C827.454 85.2611 827.169 86.3138 826.6 87.043C826.03 87.7721 825.196 88.1367 824.098 88.1367C823.013 88.1367 822.184 87.779 821.609 87.0635C821.035 86.348 820.741 85.3226 820.728 83.9873V82.1553C820.728 80.7653 821.015 79.7103 821.589 78.9902C822.168 78.2702 822.999 77.9102 824.084 77.9102C825.169 77.9102 825.998 78.2679 826.572 78.9834C827.146 79.6943 827.44 80.7174 827.454 82.0527V83.8848ZM825.479 81.875C825.479 81.0501 825.365 80.4508 825.137 80.0771C824.913 79.6989 824.562 79.5098 824.084 79.5098C823.619 79.5098 823.275 79.6898 823.052 80.0498C822.833 80.4053 822.717 80.9635 822.703 81.7246V84.1445C822.703 84.9557 822.812 85.5596 823.031 85.9561C823.255 86.348 823.61 86.5439 824.098 86.5439C824.581 86.5439 824.929 86.3548 825.144 85.9766C825.358 85.5983 825.469 85.0195 825.479 84.2402V81.875ZM835.493 83.8848C835.493 85.2611 835.208 86.3138 834.639 87.043C834.069 87.7721 833.235 88.1367 832.137 88.1367C831.052 88.1367 830.223 87.779 829.648 87.0635C829.074 86.348 828.78 85.3226 828.767 83.9873V82.1553C828.767 80.7653 829.054 79.7103 829.628 78.9902C830.207 78.2702 831.038 77.9102 832.123 77.9102C833.208 77.9102 834.037 78.2679 834.611 78.9834C835.186 79.6943 835.479 80.7174 835.493 82.0527V83.8848ZM833.518 81.875C833.518 81.0501 833.404 80.4508 833.176 80.0771C832.952 79.6989 832.602 79.5098 832.123 79.5098C831.658 79.5098 831.314 79.6898 831.091 80.0498C830.872 80.4053 830.756 80.9635 830.742 81.7246V84.1445C830.742 84.9557 830.852 85.5596 831.07 85.9561C831.294 86.348 831.649 86.5439 832.137 86.5439C832.62 86.5439 832.968 86.3548 833.183 85.9766C833.397 85.5983 833.508 85.0195 833.518 84.2402V81.875Z" fill="#6E8198"/>
<path d="M796.5 357L796.5 358L797.5 358L797.5 357L796.5 357ZM797.207 0.292891C796.817 -0.0976335 796.183 -0.0976334 795.793 0.292891L789.429 6.65685C789.038 7.04738 789.038 7.68054 789.429 8.07107C789.819 8.46159 790.453 8.46159 790.843 8.07107L796.5 2.41421L802.157 8.07107C802.547 8.46159 803.181 8.46159 803.571 8.07107C803.962 7.68054 803.962 7.04738 803.571 6.65685L797.207 0.292891ZM797.5 357L797.5 0.999998L795.5 0.999998L795.5 357L797.5 357ZM796.5 356L742.5 356L742.5 358L796.5 358L796.5 356Z" fill="#B0C4D4"/>
<path d="M161 357L161 1" stroke="#B0C4D4" stroke-opacity="0.2" stroke-width="2"/>
<path d="M316 357L316 1" stroke="#B0C4D4" stroke-opacity="0.2" stroke-width="2"/>
<path d="M471 357L471 1" stroke="#B0C4D4" stroke-opacity="0.2" stroke-width="2"/>
<path d="M626 357L626 1" stroke="#B0C4D4" stroke-opacity="0.2" stroke-width="2"/>
<defs>
<linearGradient id="paint0_linear" x1="705" y1="342" x2="810.054" y2="319.677" gradientUnits="userSpaceOnUse">
<stop stop-color="#229AB8"/>
<stop offset="0.994118" stop-color="#1CB1AC"/>
</linearGradient>
</defs>
</svg>
