<svg width="83" height="30" viewBox="0 0 83 30" fill="none" xmlns="http://www.w3.org/2000/svg">
<path fill-rule="evenodd" clip-rule="evenodd" d="M57.3477 0L62.0453 -1.6275e-07L62.0453 2L59.3477 2L59.3477 4.15L57.3477 4.15L57.3477 0ZM74.3707 2L66.9754 2L66.9754 -3.54211e-07L74.3707 -6.11599e-07L74.3707 2ZM82.9985 2L79.3008 2L79.3008 -8.03059e-07L82.9985 -9.61556e-07L82.9985 2ZM59.3477 8.35L59.3477 14.65L57.3477 14.65L57.3477 8.35L59.3477 8.35ZM59.3477 18.85L59.3477 22L57.3477 22L57.3477 18.85L59.3477 18.85Z" fill="#03E2B2"/>
<path fill-rule="evenodd" clip-rule="evenodd" d="M0.292893 22.5008C-0.0976311 22.1102 -0.0976311 21.4771 0.292893 21.0865L6.65686 14.7226C7.04738 14.3321 7.68054 14.3321 8.07107 14.7226C8.46159 15.1131 8.46159 15.7463 8.07107 16.1368L3.41421 20.7936L3.86746 20.7936L3.86746 22.7936L3.41421 22.7936L8.07107 27.4505C8.46159 27.841 8.46159 28.4742 8.07107 28.8647C7.68054 29.2552 7.04738 29.2552 6.65685 28.8647L0.292893 22.5008ZM13.4257 22.7936L7.69074 22.7936L7.69074 20.7936L13.4257 20.7936L13.4257 22.7936ZM22.9839 22.7936L17.2489 22.7936L17.2489 20.7936L22.9839 20.7936L22.9839 22.7936ZM32.5421 22.7936L26.8071 22.7936L26.8071 20.7936L32.5421 20.7936L32.5421 22.7936ZM42.1003 22.7936L36.3653 22.7936L36.3653 20.7936L42.1003 20.7936L42.1003 22.7936ZM51.6585 22.7936L45.9235 22.7936L45.9235 20.7936L51.6585 20.7936L51.6585 22.7936ZM58.3492 22.7936L55.4817 22.7936L55.4817 20.7936L58.3492 20.7936L58.3492 22.7936Z" fill="#03E2B2"/>
</svg>
