<svg  width="16" height="36" viewBox="0 0 16 36" fill="none" xmlns="http://www.w3.org/2000/svg">
                <path d="M8.70711 1.28508C8.31658 0.894556 7.68342 0.894556 7.29289 1.28508L0.928932 7.64904C0.538408 8.03957 0.538408 8.67273 0.928932 9.06326C1.31946 9.45378 1.95262 9.45378 2.34315 9.06326L8 3.4064L13.6569 9.06326C14.0474 9.45378 14.6805 9.45378 15.0711 9.06326C15.4616 8.67273 15.4616 8.03957 15.0711 7.64904L8.70711 1.28508ZM7.29289 35.6993C7.68342 36.0898 8.31658 36.0898 8.70711 35.6993L15.0711 29.3353C15.4616 28.9448 15.4616 28.3116 15.0711 27.9211C14.6805 27.5306 14.0474 27.5306 13.6569 27.9211L8 33.578L2.34315 27.9211C1.95262 27.5306 1.31946 27.5306 0.928932 27.9211C0.538408 28.3116 0.538408 28.9448 0.928932 29.3353L7.29289 35.6993ZM7 1.99219V34.9922H9V1.99219H7Z" fill="#798E9E"/>
              </svg>