<svg width="15" height="12" viewBox="0 0 15 12" fill="none" xmlns="http://www.w3.org/2000/svg">
    <path d="M14.4196 2.7094C14.4196 2.48619 14.3304 2.26297 14.1696 2.10226L12.9554 0.887974C12.7946 0.72726 12.5714 0.637974 12.3482 0.637974C12.125 0.637974 11.9018 0.72726 11.7411 0.887974L5.88393 6.75405L3.25893 4.12012C3.09821 3.9594 2.875 3.87012 2.65179 3.87012C2.42857 3.87012 2.20536 3.9594 2.04464 4.12012L0.830357 5.3344C0.669643 5.49512 0.580357 5.71833 0.580357 5.94155C0.580357 6.16476 0.669643 6.38797 0.830357 6.54869L4.0625 9.78083L5.27679 10.9951C5.4375 11.1558 5.66071 11.2451 5.88393 11.2451C6.10714 11.2451 6.33036 11.1558 6.49107 10.9951L7.70536 9.78083L14.1696 3.31655C14.3304 3.15583 14.4196 2.93262 14.4196 2.7094Z" fill="#9DAFBD"/>
</svg>  