<svg width="16" height="40" viewBox="0 0 16 40" fill="none" xmlns="http://www.w3.org/2000/svg">
<path d="M8.70711 1.16399C8.31658 0.773463 7.68342 0.773463 7.29289 1.16399L0.928929 7.52794C0.538405 7.91847 0.538405 8.55163 0.928929 8.94216C1.31945 9.33268 1.95262 9.33268 2.34314 8.94216L8 3.28531L13.6569 8.94216C14.0474 9.33269 14.6805 9.33269 15.0711 8.94217C15.4616 8.55164 15.4616 7.91848 15.0711 7.52795L8.70711 1.16399ZM7.29287 39.0782C7.6834 39.4687 8.31656 39.4687 8.70709 39.0782L15.0711 32.7142C15.4616 32.3237 15.4616 31.6906 15.0711 31.3C14.6805 30.9095 14.0474 30.9095 13.6568 31.3L7.99998 36.9569L2.34313 31.3C1.95261 30.9095 1.31944 30.9095 0.928917 31.3C0.538393 31.6905 0.538393 32.3237 0.928917 32.7142L7.29287 39.0782ZM7 1.87109L6.99998 38.3711L8.99998 38.3711L9 1.87109L7 1.87109Z" fill="#B0C4D4"/>
</svg>
