<svg width="37" height="35" viewBox="0 0 37 35" fill="none" xmlns="http://www.w3.org/2000/svg">
<path d="M34.3041 10.2538H2.28694C1.02391 10.2538 0 9.1511 0 7.79091V2.8652C0 1.50501 1.02391 0.402344 2.28694 0.402344H34.3041C35.5671 0.402344 36.591 1.50501 36.591 2.8652V7.79091C36.591 9.1511 35.5671 10.2538 34.3041 10.2538ZM30.8737 3.48092C29.9264 3.48092 29.1585 4.3079 29.1585 5.32806C29.1585 6.34822 29.9264 7.1752 30.8737 7.1752C31.821 7.1752 32.5889 6.34822 32.5889 5.32806C32.5889 4.3079 31.821 3.48092 30.8737 3.48092ZM26.2998 3.48092C25.3525 3.48092 24.5846 4.3079 24.5846 5.32806C24.5846 6.34822 25.3525 7.1752 26.2998 7.1752C27.2471 7.1752 28.015 6.34822 28.015 5.32806C28.015 4.3079 27.2471 3.48092 26.2998 3.48092ZM34.3041 22.5681H2.28694C1.02391 22.5681 0 21.4654 0 20.1052V15.1795C0 13.8193 1.02391 12.7166 2.28694 12.7166H34.3041C35.5671 12.7166 36.591 13.8193 36.591 15.1795V20.1052C36.591 21.4654 35.5671 22.5681 34.3041 22.5681ZM30.8737 15.7952C29.9264 15.7952 29.1585 16.6222 29.1585 17.6423C29.1585 18.6625 29.9264 19.4895 30.8737 19.4895C31.821 19.4895 32.5889 18.6625 32.5889 17.6423C32.5889 16.6222 31.821 15.7952 30.8737 15.7952ZM26.2998 15.7952C25.3525 15.7952 24.5846 16.6222 24.5846 17.6423C24.5846 18.6625 25.3525 19.4895 26.2998 19.4895C27.2471 19.4895 28.015 18.6625 28.015 17.6423C28.015 16.6222 27.2471 15.7952 26.2998 15.7952ZM34.3041 34.8823H2.28694C1.02391 34.8823 0 33.7797 0 32.4195V27.4938C0 26.1336 1.02391 25.0309 2.28694 25.0309H34.3041C35.5671 25.0309 36.591 26.1336 36.591 27.4938V32.4195C36.591 33.7797 35.5671 34.8823 34.3041 34.8823ZM30.8737 28.1095C29.9264 28.1095 29.1585 28.9365 29.1585 29.9566C29.1585 30.9768 29.9264 31.8038 30.8737 31.8038C31.821 31.8038 32.5889 30.9768 32.5889 29.9566C32.5889 28.9365 31.821 28.1095 30.8737 28.1095ZM26.2998 28.1095C25.3525 28.1095 24.5846 28.9365 24.5846 29.9566C24.5846 30.9768 25.3525 31.8038 26.2998 31.8038C27.2471 31.8038 28.015 30.9768 28.015 29.9566C28.015 28.9365 27.2471 28.1095 26.2998 28.1095Z" fill="#E4ECEF"/>
</svg>
