<svg width="517" height="103" viewBox="0 0 517 103" fill="none" xmlns="http://www.w3.org/2000/svg">
<path d="M279.189 22.279H255.282V88.5848H245.525V22.279H221.669V14.2079H279.189V22.279Z" fill="#292929"/>
<path d="M311.576 41.7927C310.145 41.5543 308.596 41.4351 306.927 41.4351C300.729 41.4351 296.523 44.0744 294.31 49.353V88.5848H284.859V33.3129H294.054L294.207 39.6983C297.306 34.7603 301.7 32.2913 307.387 32.2913C309.226 32.2913 310.622 32.5296 311.576 33.0064V41.7927Z" fill="#292929"/>
<path d="M352.391 88.5848C351.846 87.495 351.403 85.5539 351.063 82.7613C346.67 87.3247 341.425 89.6065 335.329 89.6065C329.88 89.6065 325.402 88.074 321.894 85.009C318.421 81.9099 316.684 77.9936 316.684 73.2599C316.684 67.5045 318.863 63.0433 323.223 59.8761C327.616 56.6749 333.78 55.0743 341.715 55.0743H350.91V50.7322C350.91 47.4289 349.922 44.8066 347.947 42.8655C345.972 40.8902 343.06 39.9026 339.212 39.9026C335.84 39.9026 333.013 40.754 330.732 42.4568C328.45 44.1596 327.309 46.2199 327.309 48.6378H317.808C317.808 45.8794 318.778 43.223 320.719 40.6689C322.695 38.0807 325.351 36.0374 328.688 34.5389C332.06 33.0405 335.755 32.2913 339.773 32.2913C346.142 32.2913 351.131 33.8919 354.741 37.0931C358.351 40.2602 360.224 44.6363 360.36 50.2214V75.6608C360.36 80.735 361.007 84.7706 362.301 87.7675V88.5848H352.391ZM336.708 81.3821C339.671 81.3821 342.481 80.6158 345.137 79.0833C347.793 77.5508 349.718 75.5586 350.91 73.1066V61.7662H343.503C331.924 61.7662 326.134 65.1547 326.134 71.9317C326.134 74.8945 327.122 77.2103 329.097 78.879C331.072 80.5477 333.609 81.3821 336.708 81.3821Z" fill="#292929"/>
<path d="M372.875 60.4891C372.875 52.0093 374.885 45.1982 378.903 40.0559C382.922 34.8795 388.183 32.2913 394.688 32.2913C401.158 32.2913 406.284 34.5049 410.064 38.9321V10.1212H419.514V88.5848H410.83L410.37 82.6592C406.59 87.2907 401.329 89.6065 394.586 89.6065C388.183 89.6065 382.956 86.9842 378.903 81.7397C374.885 76.4951 372.875 69.65 372.875 61.2043V60.4891ZM382.326 61.5619C382.326 67.828 383.62 72.732 386.208 76.2738C388.796 79.8155 392.372 81.5864 396.935 81.5864C402.929 81.5864 407.305 78.896 410.064 73.5153V48.127C407.237 42.9165 402.895 40.3113 397.038 40.3113C392.406 40.3113 388.796 42.0992 386.208 45.675C383.62 49.2508 382.326 54.5465 382.326 61.5619Z" fill="#292929"/>
<path d="M457.162 89.6065C449.67 89.6065 443.574 87.1545 438.875 82.2505C434.175 77.3125 431.825 70.7227 431.825 62.4813V60.7445C431.825 55.2616 432.864 50.3747 434.941 46.0837C437.053 41.7587 439.981 38.3872 443.727 35.9692C447.508 33.5173 451.594 32.2913 455.987 32.2913C463.173 32.2913 468.758 34.6581 472.743 39.3918C476.727 44.1255 478.719 50.9025 478.719 59.7229V63.6563H441.275C441.412 69.1051 442.995 73.5153 446.026 76.8868C449.091 80.2242 452.974 81.8929 457.673 81.8929C461.011 81.8929 463.837 81.2118 466.153 79.8496C468.469 78.4874 470.495 76.6824 472.232 74.4348L478.004 78.9301C473.373 86.0477 466.425 89.6065 457.162 89.6065ZM455.987 40.0559C452.173 40.0559 448.972 41.4522 446.384 44.2447C443.796 47.0032 442.195 50.8855 441.582 55.8916H469.269V55.1765C468.997 50.3747 467.702 46.6626 465.387 44.0404C463.071 41.384 459.938 40.0559 455.987 40.0559Z" fill="#292929"/>
<path d="M516.419 41.7927C514.988 41.5543 513.439 41.4351 511.77 41.4351C505.572 41.4351 501.366 44.0744 499.153 49.353V88.5848H489.702V33.3129H498.897L499.05 39.6983C502.149 34.7603 506.543 32.2913 512.23 32.2913C514.069 32.2913 515.465 32.5296 516.419 33.0064V41.7927Z" fill="#292929"/>
<path d="M121.138 88.4513C138.001 88.4513 149.638 80.3798 149.638 67.2377C149.638 57.5105 140.958 50.2669 130.336 49.3356V48.4042C138.275 47.2142 145.75 40.281 145.75 32.4164C145.75 20.9301 135.373 13.7899 120.371 13.7899H88.0277V88.4513H121.138ZM102.825 24.1897H116.922C125.463 24.1897 131.117 28.0703 131.117 34.7448C131.117 41.5745 125.135 45.2481 115.115 45.2481H102.825V24.1897ZM102.825 78.0515V54.7166H117.36C128.146 54.7166 134.512 58.7006 134.512 66.3064C134.512 73.964 128.31 78.0515 117.908 78.0515H102.825Z" fill="#292929"/>
<path d="M156.95 36.5176H170.871C170.871 28.653 175.675 22.6375 184.271 22.6375C192.538 22.6375 197.466 27.8633 197.466 34.6413C197.466 40.3327 195.057 43.9028 185.092 53.423L157.716 79.4485V88.4513H213.249V77.3789H176.879V76.4993L194.524 60.7185C208.102 48.1455 212.099 42.0919 212.099 33.3995C212.099 20.9818 200.751 11.9272 185.037 11.9272C168.557 11.9272 156.95 22.3924 156.95 36.5176Z" fill="#292929"/>
<circle r="16.9588" transform="matrix(1 -2.01952e-08 -2.01952e-08 -1 51.4907 17.7552)" fill="#59C59E"/>
<circle r="16.9588" transform="matrix(1 -2.01952e-08 -2.01952e-08 -1 51.4907 17.7552)" fill="#E54D57"/>
<circle r="16.9588" transform="matrix(1 -2.01952e-08 -2.01952e-08 -1 17.5731 51.6728)" fill="#A4FCDE"/>
<circle r="16.9588" transform="matrix(1 -2.01952e-08 -2.01952e-08 -1 17.5731 51.6728)" fill="#E54D57"/>
<circle r="16.9588" transform="matrix(1 -2.01952e-08 -2.01952e-08 -1 51.4907 51.6728)" fill="#59C59E"/>
<circle r="16.9588" transform="matrix(1 -2.01952e-08 -2.01952e-08 -1 51.4907 51.6728)" fill="#07D6A5"/>
<circle r="16.9588" transform="matrix(1 -2.01952e-08 -2.01952e-08 -1 17.5731 85.5906)" fill="#84F8CF"/>
<circle r="16.9588" transform="matrix(1 -2.01952e-08 -2.01952e-08 -1 17.5731 85.5906)" fill="#07D6A5"/>
<circle r="16.9588" transform="matrix(1 -2.01952e-08 -2.01952e-08 -1 51.4907 85.5906)" fill="#59C59E"/>
<circle r="16.9588" transform="matrix(1 -2.01952e-08 -2.01952e-08 -1 51.4907 85.5906)" fill="#07D6A5"/>
</svg>
