<svg width="138" height="59" viewBox="0 0 138 59" fill="none" xmlns="http://www.w3.org/2000/svg">
<path d="M137 18.9023L138 18.9023L138 17.9023L137 17.9023L137 18.9023ZM8.70711 0.695231C8.31659 0.304707 7.68341 0.304707 7.29289 0.695231L0.928924 7.05919C0.538406 7.44972 0.538406 8.08288 0.928924 8.47341C1.31946 8.86393 1.95262 8.86393 2.34314 8.47341L8 2.81655L13.6569 8.47341C14.0474 8.86393 14.6805 8.86393 15.0711 8.47341C15.4616 8.08288 15.4616 7.44972 15.0711 7.05919L8.70711 0.695231ZM8 18.9023L7 18.9023L7 19.9023L8 19.9023L8 18.9023ZM136 18.9023L136 58.4023L138 58.4023L138 18.9023L136 18.9023ZM7 1.40234L7 18.9023L9 18.9023L9 1.40234L7 1.40234ZM8 19.9023L137 19.9023L137 17.9023L8 17.9023L8 19.9023Z" fill="#B0C4D4"/>
</svg>
