<svg width="43" height="42" viewBox="0 0 43 42" fill="none" xmlns="http://www.w3.org/2000/svg">
<path d="M42.6858 22.1722C42.6896 20.4798 42.1698 18.8277 41.1978 17.4424C40.2259 16.057 38.8492 15.0061 37.2566 14.4337C37.5831 12.7286 37.5297 10.9724 37.1001 9.29023C36.6705 7.60807 35.8753 6.04131 34.7711 4.70151C33.667 3.36171 32.281 2.28182 30.7119 1.53874C29.1428 0.795656 27.4292 0.407651 25.693 0.402352C23.8274 0.400122 21.988 0.841751 20.3268 1.69077C18.6655 2.53978 17.2301 3.77182 16.139 5.28514C15.2132 4.57012 14.1056 4.12889 12.9418 4.01151C11.778 3.89413 10.6045 4.10531 9.55466 4.62107C8.50478 5.13683 7.62048 5.93654 7.00209 6.92944C6.3837 7.92235 6.05599 9.0687 6.05614 10.2384C6.05874 10.9839 6.18993 11.7233 6.44394 12.4242C4.84582 12.996 3.46321 14.0472 2.48506 15.4343C1.50691 16.8214 0.980938 18.4768 0.979009 20.1741C0.97708 21.8714 1.49929 23.5279 2.47429 24.9172C3.44928 26.3066 4.82949 27.361 6.42631 27.9363C5.91329 30.5681 6.31579 33.2962 7.567 35.6677C8.8182 38.0392 10.8428 39.9114 13.3048 40.9736C15.7668 42.0358 18.518 42.224 21.1017 41.5071C23.6854 40.7901 25.9461 39.211 27.5087 37.032C28.5965 37.8966 29.9443 38.3687 31.3338 38.3717C32.9933 38.3713 34.5847 37.7118 35.7582 36.5384C36.9316 35.3649 37.5911 33.7735 37.5915 32.114C37.5889 31.3685 37.4577 30.6291 37.2037 29.9282C38.8014 29.3517 40.1837 28.299 41.164 26.912C42.1444 25.525 42.6755 23.8706 42.6858 22.1722Z" fill="white"/>
<path d="M17.373 18.2938L26.504 22.4538L35.7055 14.3805C35.8415 13.7135 35.9065 13.034 35.8994 12.3533C35.9009 10.156 35.1987 8.01584 33.8956 6.24654C32.5925 4.47723 30.757 3.17176 28.6581 2.52139C26.5592 1.87102 24.3071 1.90993 22.2319 2.63243C20.1567 3.35493 18.3674 4.72304 17.1262 6.53631L15.5927 14.4863L17.373 18.2938Z" fill="#FED10A"/>
<path d="M7.92453 27.9543C7.78853 28.6332 7.72355 29.3244 7.73062 30.0167C7.73331 32.2232 8.44272 34.3708 9.75486 36.1448C11.067 37.9187 12.9129 39.2257 15.0219 39.8742C17.131 40.5227 19.3923 40.4785 21.4744 39.7482C23.5565 39.018 25.35 37.6399 26.5919 35.8161L28.1079 27.9014L26.0807 24.0234L16.9145 19.8457L7.92453 27.9543Z" fill="#24BBB1"/>
<path d="M7.87157 12.1605L14.1293 13.6412L15.5042 6.53732C14.6554 5.88737 13.6184 5.53061 12.5493 5.52072C11.4803 5.51082 10.4369 5.84833 9.57614 6.48246C8.71539 7.11659 8.08382 8.01306 7.77642 9.03703C7.46901 10.061 7.50241 11.1571 7.87157 12.1605Z" fill="#EF5098"/>
<path d="M7.3257 13.6582C5.97181 14.1025 4.7889 14.9555 3.93978 16.0998C3.09067 17.2441 2.61709 18.6234 2.58423 20.048C2.55137 21.4725 2.96085 22.8722 3.7563 24.0545C4.55175 25.2367 5.69407 26.1433 7.02604 26.6496L15.8045 18.7173L14.2004 15.2799L7.3257 13.6582Z" fill="#17A8E0"/>
<path d="M28.1785 35.8157C29.0279 36.4578 30.0622 36.8079 31.127 36.8139C32.1918 36.8198 33.2299 36.4813 34.0865 35.8488C34.9431 35.2162 35.5722 34.3237 35.8798 33.3043C36.1874 32.2849 36.1572 31.1933 35.7935 30.1926L29.5534 28.7295L28.1785 35.8157Z" fill="#93C83E"/>
<path d="M29.4477 27.0904L36.3224 28.6945C37.6763 28.2502 38.8592 27.3972 39.7083 26.2529C40.5574 25.1086 41.031 23.7293 41.0639 22.3047C41.0967 20.8802 40.6872 19.4805 39.8918 18.2982C39.0963 17.116 37.954 16.2094 36.622 15.7031L27.6321 23.5826L29.4477 27.0904Z" fill="#0779A1"/>
</svg>
