<svg width="16" height="180" viewBox="0 0 16 180" fill="none" xmlns="http://www.w3.org/2000/svg">
<path d="M8.7071 0.695237C8.31657 0.304713 7.68341 0.304713 7.29289 0.695237L0.928925 7.0592C0.538401 7.44972 0.538401 8.08289 0.928925 8.47341C1.31945 8.86394 1.95261 8.86394 2.34314 8.47341L7.99999 2.81656L13.6568 8.47341C14.0474 8.86394 14.6805 8.86394 15.0711 8.47341C15.4616 8.08289 15.4616 7.44972 15.0711 7.0592L8.7071 0.695237ZM7.2929 179.109C7.68343 179.5 8.31659 179.5 8.70711 179.109L15.0711 172.745C15.4616 172.355 15.4616 171.722 15.0711 171.331C14.6806 170.941 14.0474 170.941 13.6569 171.331L8.00001 176.988L2.34315 171.331C1.95263 170.941 1.31946 170.941 0.928939 171.331C0.538415 171.722 0.538415 172.355 0.928939 172.745L7.2929 179.109ZM6.99999 1.40234L7.00001 178.402L9.00001 178.402L8.99999 1.40234L6.99999 1.40234Z" fill="#B0C4D4"/>
</svg>
