<svg width="22" height="338" viewBox="0 0 22 338" fill="none" xmlns="http://www.w3.org/2000/svg">
<path fill-rule="evenodd" clip-rule="evenodd" d="M0 280H16.5556V282H2V329H18.5858L13.9289 324.343C13.5384 323.953 13.5384 323.319 13.9289 322.929C14.3195 322.538 14.9526 322.538 15.3431 322.929L21.7071 329.293C22.0976 329.683 22.0976 330.317 21.7071 330.707L15.3431 337.071C14.9526 337.462 14.3195 337.462 13.9289 337.071C13.5384 336.681 13.5384 336.047 13.9289 335.657L18.5858 331H0V280Z" fill="#B0C4D4"/>
<path fill-rule="evenodd" clip-rule="evenodd" d="M0 0H2V35H18.5858L13.9289 30.3431C13.5384 29.9526 13.5384 29.3195 13.9289 28.9289C14.3195 28.5384 14.9526 28.5384 15.3431 28.9289L21.7071 35.2929C22.0976 35.6834 22.0976 36.3166 21.7071 36.7071L15.3431 43.0711C14.9526 43.4616 14.3195 43.4616 13.9289 43.0711C13.5384 42.6805 13.5384 42.0474 13.9289 41.6569L18.5858 37H0V0Z" fill="#B0C4D4"/>
<path fill-rule="evenodd" clip-rule="evenodd" d="M0 35H19.8889V37H2V84H18.5858L13.9289 79.3431C13.5384 78.9526 13.5384 78.3195 13.9289 77.9289C14.3195 77.5384 14.9526 77.5384 15.3431 77.9289L21.7071 84.2929C22.0976 84.6834 22.0976 85.3166 21.7071 85.7071L15.3431 92.0711C14.9526 92.4616 14.3195 92.4616 13.9289 92.0711C13.5384 91.6805 13.5384 91.0474 13.9289 90.6569L18.5858 86H0V35Z" fill="#B0C4D4"/>
<path fill-rule="evenodd" clip-rule="evenodd" d="M0 84H16.5556V86H2V133H18.5858L13.9289 128.343C13.5384 127.953 13.5384 127.319 13.9289 126.929C14.3195 126.538 14.9526 126.538 15.3431 126.929L21.7071 133.293C22.0976 133.683 22.0976 134.317 21.7071 134.707L15.3431 141.071C14.9526 141.462 14.3195 141.462 13.9289 141.071C13.5384 140.681 13.5384 140.047 13.9289 139.657L18.5858 135H0V84Z" fill="#B0C4D4"/>
<path fill-rule="evenodd" clip-rule="evenodd" d="M0 133H16.5556V135H2V182H18.5858L13.9289 177.343C13.5384 176.953 13.5384 176.319 13.9289 175.929C14.3195 175.538 14.9526 175.538 15.3431 175.929L21.7071 182.293C22.0976 182.683 22.0976 183.317 21.7071 183.707L15.3431 190.071C14.9526 190.462 14.3195 190.462 13.9289 190.071C13.5384 189.681 13.5384 189.047 13.9289 188.657L18.5858 184H0V133Z" fill="#B0C4D4"/>
<path fill-rule="evenodd" clip-rule="evenodd" d="M0 182H16.5556V184H2V231H18.5858L13.9289 226.343C13.5384 225.953 13.5384 225.319 13.9289 224.929C14.3195 224.538 14.9526 224.538 15.3431 224.929L21.7071 231.293C22.0976 231.683 22.0976 232.317 21.7071 232.707L15.3431 239.071C14.9526 239.462 14.3195 239.462 13.9289 239.071C13.5384 238.681 13.5384 238.047 13.9289 237.657L18.5858 233H0V182Z" fill="#B0C4D4"/>
<path fill-rule="evenodd" clip-rule="evenodd" d="M0 231H16.5556V233H2V280H18.5858L13.9289 275.343C13.5384 274.953 13.5384 274.319 13.9289 273.929C14.3195 273.538 14.9526 273.538 15.3431 273.929L21.7071 280.293C22.0976 280.683 22.0976 281.317 21.7071 281.707L15.3431 288.071C14.9526 288.462 14.3195 288.462 13.9289 288.071C13.5384 287.681 13.5384 287.047 13.9289 286.657L18.5858 282H0V231Z" fill="#B0C4D4"/>
</svg>
