<svg width="138" height="70" viewBox="0 0 138 70" fill="none" xmlns="http://www.w3.org/2000/svg">
<path d="M8 28.319L7 28.319L7 27.319L8 27.319L8 28.319ZM8.70711 69.4666C8.31659 69.8571 7.68342 69.8571 7.2929 69.4666L0.928935 63.1026C0.538411 62.7121 0.53841 62.0789 0.928935 61.6884C1.31946 61.2979 1.95262 61.2979 2.34315 61.6884L8 67.3452L13.6569 61.6884C14.0474 61.2979 14.6805 61.2979 15.0711 61.6884C15.4616 62.0789 15.4616 62.7121 15.0711 63.1026L8.70711 69.4666ZM137 28.319L138 28.319L138 29.319L137 29.319L137 28.319ZM9 28.319L9 68.7594L7 68.7594L7 28.319L9 28.319ZM138 0.402338L138 28.319L136 28.319L136 0.402338L138 0.402338ZM137 29.319L8 29.319L8 27.319L137 27.319L137 29.319Z" fill="#B0C4D4"/>
</svg>
