<svg width="30" height="35" viewBox="0 0 30 35" fill="none" xmlns="http://www.w3.org/2000/svg">
<path d="M0 5.73902C0.363105 4.69978 1.08932 3.96105 1.96578 3.34753C3.86895 2.0078 6.04758 1.31915 8.28881 0.843356C10.9307 0.267396 13.6102 0.0795832 16.3147 0.192271C19.7454 0.342521 23.101 0.855877 26.2437 2.33334C27.2705 2.82165 28.222 3.39761 29.0234 4.22399C30.313 5.58876 30.3255 7.00362 29.0234 8.3684C28.0092 9.43267 26.7321 10.0963 25.3923 10.6472C23.1386 11.5487 20.8097 12.037 18.4057 12.2624C14.5868 12.6255 10.818 12.4502 7.09933 11.4861C5.19616 10.9978 3.36811 10.3091 1.77796 9.11965C0.989148 8.51865 0.338063 7.81748 0 6.86589C0 6.49027 0 6.11464 0 5.73902Z" fill="#E4ECEF"/>
<path d="M0 11.749C2.70451 13.6397 5.77212 14.5537 8.96494 15.1046C11.4691 15.5428 13.9983 15.6555 16.5401 15.5554C20.2963 15.4051 23.9649 14.7791 27.4207 13.1889C28.2721 12.8008 29.0609 12.2999 29.9499 11.8241C29.9624 11.9744 29.9875 12.1121 29.9875 12.2624C29.9875 13.9527 29.9875 15.643 30 17.3333C30 18.1347 29.6369 18.7732 29.1235 19.3492C28.197 20.3884 27.0075 21.0645 25.7554 21.6029C23.4766 22.5671 21.0851 23.0804 18.6311 23.3433C16.4524 23.5812 14.2613 23.5938 12.0701 23.4185C8.92738 23.1555 5.87229 22.542 3.06761 21.0395C2.51669 20.7515 2.00334 20.3759 1.51503 20.0003C0.813856 19.4744 0.300501 18.7858 0.0125209 17.9469C0 15.8809 0 13.815 0 11.749Z" fill="#E4ECEF"/>
<path d="M0 22.8555C2.70451 24.7461 5.77212 25.6601 8.96494 26.2111C11.4691 26.6493 13.9983 26.762 16.5401 26.6618C20.2963 26.5116 23.9649 25.8855 27.4207 24.2954C28.2721 23.9072 29.0609 23.4064 29.9499 22.9306C29.9624 23.0808 29.9875 23.2186 29.9875 23.3688C29.9875 25.0591 29.9875 26.7495 30 28.4398C30 29.2411 29.6369 29.8797 29.1235 30.4556C28.197 31.4949 27.0075 32.171 25.7554 32.7094C23.4766 33.6735 21.0851 34.1869 18.6311 34.4498C16.4524 34.6877 14.2613 34.7002 12.0701 34.5249C8.92738 34.262 5.87229 33.6485 3.06761 32.146C2.51669 31.858 2.00334 31.4823 1.51503 31.1067C0.813856 30.5808 0.300501 29.8922 0.0125209 29.0533C0 26.9874 0 24.9214 0 22.8555Z" fill="#E4ECEF"/>
</svg>
