<svg width="68" height="99" viewBox="0 0 68 99" fill="none" xmlns="http://www.w3.org/2000/svg">
<path fill-rule="evenodd" clip-rule="evenodd" d="M67.7073 90.2929C68.0979 90.6834 68.0979 91.3166 67.7073 91.7071L61.3434 98.0711C60.9529 98.4616 60.3197 98.4616 59.9292 98.0711C59.5386 97.6805 59.5386 97.0474 59.9292 96.6569L64.586 92L31 92L31 9.00001L3.41422 9.00001L8.07107 13.6569C8.4616 14.0474 8.4616 14.6805 8.07107 15.0711C7.68055 15.4616 7.04739 15.4616 6.65686 15.0711L0.2929 8.70711C-0.0976261 8.31659 -0.097626 7.68342 0.2929 7.2929L6.65686 0.928938C7.04739 0.538414 7.68055 0.538414 8.07108 0.928938C8.4616 1.31946 8.4616 1.95263 8.07108 2.34315L3.41422 7.00001L33 7.00001L33 90L64.586 90L59.9292 85.3432C59.5386 84.9526 59.5386 84.3195 59.9292 83.9289C60.3197 83.5384 60.9529 83.5384 61.3434 83.9289L67.7073 90.2929Z" fill="#B0C4D4"/>
</svg>
