<svg width="82" height="28" viewBox="0 0 82 28" fill="none" xmlns="http://www.w3.org/2000/svg">
                  <path d="M81.7071 19.456C82.0976 19.8465 82.0976 20.4797 81.7071 20.8702L75.3431 27.2342C74.9526 27.6247 74.3195 27.6247 73.9289 27.2342C73.5384 26.8436 73.5384 26.2105 73.9289 25.8199L79.5858 20.1631L73.9289 14.5062C73.5384 14.1157 73.5384 13.4825 73.9289 13.092C74.3195 12.7015 74.9526 12.7015 75.3431 13.092L81.7071 19.456ZM0.292893 20.8702C-0.0976311 20.4797 -0.0976311 19.8465 0.292893 19.456L6.65685 13.092C7.04738 12.7015 7.68054 12.7015 8.07107 13.092C8.46159 13.4825 8.46159 14.1157 8.07107 14.5062L2.41421 20.1631L8.07107 25.8199C8.46159 26.2105 8.46159 26.8436 8.07107 27.2342C7.68054 27.6247 7.04738 27.6247 6.65685 27.2342L0.292893 20.8702ZM81 21.1631L1 21.1631L1 19.1631L81 19.1631L81 21.1631Z" fill="#AABDCC"/>
                </svg>