<svg  width="151" height="56" viewBox="0 0 151 56" fill="none" xmlns="http://www.w3.org/2000/svg">
                <path d="M143.707 55.7071C143.317 56.0976 142.683 56.0976 142.293 55.7071L135.929 49.3431C135.538 48.9526 135.538 48.3195 135.929 47.9289C136.319 47.5384 136.953 47.5384 137.343 47.9289L143 53.5858L148.657 47.9289C149.047 47.5384 149.681 47.5384 150.071 47.9289C150.462 48.3195 150.462 48.9526 150.071 49.3431L143.707 55.7071ZM143 8V7H144V8H143ZM0.292892 8.70711C-0.0976257 8.31658 -0.0976257 7.68342 0.292892 7.29289L6.65686 0.928932C7.04738 0.538408 7.68054 0.538408 8.07108 0.928932C8.46159 1.31946 8.46159 1.95262 8.07108 2.34315L2.41422 8L8.07108 13.6569C8.46159 14.0474 8.46159 14.6805 8.07108 15.0711C7.68054 15.4616 7.04738 15.4616 6.65686 15.0711L0.292892 8.70711ZM142 55V8H144V55H142ZM143 9H1V7H143V9Z" fill="#AABDCC"/>
                </svg>