<svg  width="94" height="16" viewBox="0 0 94 16" fill="none" xmlns="http://www.w3.org/2000/svg">
                <path d="M92.7216 8.88354C93.1122 8.49301 93.1122 7.85985 92.7216 7.46932L86.3577 1.10535C85.9672 0.714824 85.334 0.714822 84.9435 1.10535C84.553 1.49587 84.553 2.12903 84.9435 2.51956L90.6003 8.17643L84.9435 13.8333C84.5529 14.2238 84.5529 14.857 84.9435 15.2475C85.334 15.638 85.9671 15.638 86.3577 15.2475L92.7216 8.88354ZM0.667855 7.46913C0.27733 7.85965 0.277328 8.49282 0.667852 8.88334L7.0318 15.2473C7.42232 15.6378 8.05549 15.6378 8.44601 15.2473C8.83654 14.8568 8.83654 14.2236 8.44602 13.8331L2.78917 8.17624L8.44604 2.5194C8.83657 2.12887 8.83657 1.49571 8.44604 1.10518C8.05552 0.714657 7.42235 0.714656 7.03183 1.10518L0.667855 7.46913ZM92.0145 7.17643L1.37496 7.17623L1.37496 9.17623L92.0145 9.17643L92.0145 7.17643Z" fill="#AABDCC"/>
              </svg> 