<svg width="286" height="218" viewBox="0 0 286 218" fill="none" xmlns="http://www.w3.org/2000/svg">
<path fill-rule="evenodd" clip-rule="evenodd" d="M0 0H3.94828V2H2V3.98565H0V0ZM13.7759 2H7.87931V0H13.7759V2ZM23.6034 2H17.7069V0H23.6034V2ZM33.431 2H27.5345V0H33.431V2ZM43.2586 2H37.3621V0H43.2586V2ZM53.0862 2H47.1897V0H53.0862V2ZM62.9138 2H57.0172V0H62.9138V2ZM72.7414 2H66.8448V0H72.7414V2ZM82.569 2H76.6724V0H82.569V2ZM92.3966 2H86.5V0H92.3966V2ZM102.224 2H96.3276V0H102.224V2ZM112.052 2H106.155V0H112.052V2ZM121.879 2H115.983V0H121.879V2ZM131.707 2H125.81V0H131.707V2ZM141.535 2H135.638V0H141.535V2ZM151.362 2H145.466V0H151.362V2ZM161.19 2H155.293V0H161.19V2ZM171.017 2H165.121V0H171.017V2ZM180.845 2H174.948V0H180.845V2ZM190.672 2H184.776V0H190.672V2ZM200.5 2H194.603V0H200.5V2ZM210.328 2H204.431V0H210.328V2ZM220.155 2H214.259V0H220.155V2ZM229.983 2H224.086V0H229.983V2ZM239.81 2H233.914V0H239.81V2ZM249.638 2H243.741V0H249.638V2ZM259.465 2H253.569V0H259.465V2ZM269.293 2H263.396V0H269.293V2ZM279.121 2H273.224V0H279.121V2ZM286 2H283.052V0H286V2ZM2 7.9666V13.938H0V7.9666H2ZM2 17.919V23.8904H0V17.919H2ZM2 27.8714V33.8428H0V27.8714H2ZM2 37.8238V43.7952H0V37.8238H2ZM2 47.7762V53.7476H0V47.7762H2ZM2 57.7286V63.7H0V57.7286H2ZM2 67.681V73.6524H0V67.681H2ZM2 77.6333V83.6048H0V77.6333H2ZM2 87.5857V93.5572H0V87.5857H2ZM2 97.5381V103.51H0V97.5381H2ZM2 107.49V113.462H0V107.49H2ZM2 117.443V123.414H0V117.443H2ZM2 127.395V133.367H0V127.395H2ZM2 137.348V143.319H0V137.348H2ZM2 147.3V153.271H0V147.3H2ZM2 157.252V163.224H0V157.252H2ZM2 167.205V173.176H0V167.205H2ZM2 177.157V183.129H0V177.157H2ZM2 187.11V193.081H0V187.11H2ZM2 197.062V203.033H0V197.062H2ZM2 207.014V210H0V207.014H2Z" fill="#03E2B2"/>
<path fill-rule="evenodd" clip-rule="evenodd" d="M20.3431 202.93L26.7071 209.294C27.0976 209.684 27.0976 210.317 26.7071 210.708L20.3431 217.072C19.9526 217.462 19.3195 217.462 18.9289 217.072C18.5384 216.681 18.5384 216.048 18.9289 215.658L23.5858 211.001H23.5V209.001H23.5858L18.9289 204.344C18.5384 203.953 18.5384 203.32 18.9289 202.93C19.3195 202.539 19.9526 202.539 20.3431 202.93ZM3.5 211.001H1V209.001H3.5V211.001ZM11.8333 211.001H6.83333V209.001H11.8333V211.001ZM20.1667 211.001H15.1667V209.001H20.1667V211.001Z" fill="#03E2B2"/>
</svg>
