<svg width="105" height="237" viewBox="0 0 105 237" fill="none" xmlns="http://www.w3.org/2000/svg">
<path d="M104.189 125.004V236.004H84.1895" stroke="#AABDCC" stroke-width="2"/>
<path d="M104.189 125.004H105.189V126.004H104.189V125.004ZM104.189 12.0039V11.0039H105.189V12.0039H104.189ZM104.189 126.004H0.189461V124.004H104.189V126.004ZM0.189461 11.0039L104.189 11.0039V13.0039L0.189461 13.0039V11.0039ZM105.189 12.0039L105.189 125.004H103.189L103.189 12.0039H105.189Z" fill="#AABDCC"/>
<rect x="30.3789" y="0.00390625" width="54.189" height="20" rx="3.67383" fill="#EFF4F6"/>
<path d="M53.7734 10.2339L55.1816 7.80029H57.0273L54.7647 11.4438L57.1025 15.1968H55.2705L53.7939 12.6675L52.3242 15.1968H50.4785L52.8164 11.4438L50.5606 7.80029H52.3926L53.7734 10.2339ZM62.2585 15.1968H60.6043V7.20557L58.1638 8.03955V6.63818L62.0466 5.20947H62.2585V15.1968Z" fill="#555555"/>
<rect x="30.3789" y="114.004" width="54.189" height="20" rx="3.67383" fill="#EFF4F6"/>
<path d="M53.7734 124.234L55.1816 121.8H57.0273L54.7647 125.444L57.1025 129.197H55.2705L53.7939 126.667L52.3242 129.197H50.4785L52.8164 125.444L50.5606 121.8H52.3926L53.7734 124.234ZM59.6814 123.461H60.6931C61.2035 123.457 61.6069 123.325 61.9031 123.065C62.2039 122.805 62.3543 122.429 62.3543 121.937C62.3543 121.463 62.2289 121.096 61.9783 120.836C61.7322 120.572 61.3539 120.44 60.8435 120.44C60.3969 120.44 60.03 120.57 59.7429 120.83C59.4558 121.085 59.3123 121.42 59.3123 121.834H57.6511C57.6511 121.324 57.7856 120.859 58.0544 120.44C58.3279 120.021 58.7061 119.695 59.1892 119.462C59.6768 119.225 60.2214 119.107 60.823 119.107C61.8165 119.107 62.5958 119.358 63.1609 119.859C63.7306 120.356 64.0154 121.048 64.0154 121.937C64.0154 122.384 63.8718 122.805 63.5847 123.202C63.3022 123.594 62.9353 123.89 62.4841 124.09C63.031 124.277 63.4457 124.571 63.7283 124.972C64.0154 125.373 64.1589 125.852 64.1589 126.408C64.1589 127.301 63.8513 128.012 63.2361 128.541C62.6254 129.069 61.821 129.333 60.823 129.333C59.866 129.333 59.0821 129.078 58.4714 128.568C57.8608 128.057 57.5554 127.378 57.5554 126.531H59.2166C59.2166 126.968 59.3624 127.324 59.6541 127.597C59.9503 127.871 60.3468 128.007 60.8435 128.007C61.3585 128.007 61.7641 127.871 62.0603 127.597C62.3565 127.324 62.5046 126.927 62.5046 126.408C62.5046 125.884 62.3497 125.48 62.0398 125.198C61.7299 124.915 61.2696 124.774 60.6589 124.774H59.6814V123.461Z" fill="#555555"/>
</svg>
