<svg width="164" height="32" viewBox="0 0 164 32" fill="none" xmlns="http://www.w3.org/2000/svg">
                      <path d="M1 14.582H0V15.582H1V14.582ZM156 14.582H157V13.582H156V14.582ZM155.293 30.8634C155.683 31.2539 156.317 31.2539 156.707 30.8634L163.071 24.4994C163.462 24.1089 163.462 23.4757 163.071 23.0852C162.681 22.6947 162.047 22.6947 161.657 23.0852L156 28.742L150.343 23.0852C149.953 22.6947 149.319 22.6947 148.929 23.0852C148.538 23.4757 148.538 24.1089 148.929 24.4994L155.293 30.8634ZM0 0.15625V14.582H2V0.15625H0ZM1 15.582H156V13.582H1V15.582ZM155 14.582V30.1562H157V14.582H155Z" fill="#B0C4D4"/>
                    </svg>  