<svg  width="489" height="137" viewBox="0 0 489 137" fill="none" xmlns="http://www.w3.org/2000/svg">
                  <path d="M84.2929 136.68C84.6834 137.07 85.3166 137.07 85.7071 136.68L92.0711 130.316C92.4616 129.925 92.4616 129.292 92.0711 128.902C91.6805 128.511 91.0474 128.511 90.6569 128.902L85 134.558L79.3432 128.902C78.9526 128.511 78.3195 128.511 77.9289 128.902C77.5384 129.292 77.5384 129.925 77.9289 130.316L84.2929 136.68ZM84 14.9727L84 135.973L86 135.973L86 14.9727L84 14.9727Z" fill="#B0C4D4"/>
                  <path d="M1 0.972656L0.999999 14.9727" stroke="#B0C4D4" stroke-width="2"/>
                  <path d="M169 0.972656L169 14.9727" stroke="#B0C4D4" stroke-width="2"/>
                  <path d="M316 0.972656L316 14.9727" stroke="#B0C4D4" stroke-width="2"/>
                  <path d="M488 0.972656L488 14.9727" stroke="#B0C4D4" stroke-width="2"/>
                  <path d="M0 14.9727H489" stroke="#B0C4D4" stroke-width="2"/>
                </svg>