<svg width="43" height="333" viewBox="0 0 43 333" fill="none" xmlns="http://www.w3.org/2000/svg">
                    <path d="M0 67.9727L34 67.9727" stroke="#B0C4D4" stroke-width="2"/>
                    <path d="M0 155.973L34 155.973" stroke="#B0C4D4" stroke-width="2"/>
                    <path d="M0 243.973L34 243.973" stroke="#B0C4D4" stroke-width="2"/>
                    <path d="M0 331.973L34 331.973" stroke="#B0C4D4" stroke-width="2"/>
                    <path d="M35.7071 1.26555C35.3166 0.875025 34.6834 0.875025 34.2929 1.26555L27.9289 7.62951C27.5384 8.02003 27.5384 8.6532 27.9289 9.04372C28.3195 9.43425 28.9526 9.43425 29.3431 9.04372L35 3.38687L40.6569 9.04372C41.0474 9.43425 41.6805 9.43425 42.0711 9.04372C42.4616 8.6532 42.4616 8.02003 42.0711 7.62951L35.7071 1.26555ZM36 332.973V1.97266H34V332.973H36Z" fill="#B0C4D4"/>
                  </svg> 