<svg width="57" height="397" viewBox="0 0 57 397" fill="none" xmlns="http://www.w3.org/2000/svg">
<path fill-rule="evenodd" clip-rule="evenodd" d="M28 0L28 198.5L26 198.5L26 2L0 2.00001L0 8.58307e-06L28 0Z" fill="#B0C4D4"/>
<path fill-rule="evenodd" clip-rule="evenodd" d="M50.3431 189.929L56.7071 196.293C57.0976 196.683 57.0976 197.317 56.7071 197.707L50.3431 204.071C49.9526 204.462 49.3195 204.462 48.9289 204.071C48.5384 203.681 48.5384 203.047 48.9289 202.657L53.5858 198L0 198L0 196L53.5858 196L48.9289 191.343C48.5384 190.953 48.5384 190.319 48.9289 189.929C49.3195 189.538 49.9526 189.538 50.3431 189.929Z" fill="#B0C4D4"/>
<path fill-rule="evenodd" clip-rule="evenodd" d="M28 397L28 198.5L26 198.5L26 395L-1.6378e-07 395L0 397L28 397Z" fill="#B0C4D4"/>
</svg>
