<svg width="538" height="126" viewBox="0 0 538 126" fill="none" xmlns="http://www.w3.org/2000/svg">
<g clip-path="url(#clip0)">
<path d="M506.434 18.0845H269.364V103.602H506.434V18.0845Z" fill="white"/>
<path d="M427.644 70.0205V96.368H441.65V69.8139L463.658 29.5407H448.205L434.785 55.8078L421.467 29.5637H405.636L427.644 70.0205ZM379.484 69.6417H364.72L372.148 47.829L379.484 69.6417ZM365.707 29.1734L341.484 96.368H355.547L360.484 81.8683H383.743L388.76 96.368H403.237L379.001 29.1734H365.707ZM312.036 63.6145H304.23V42.0658H311.841C315.584 42.0658 318.435 42.9881 320.394 44.8326C322.357 46.6809 323.333 49.3444 323.333 52.8689V52.9722C323.377 54.3779 323.142 55.7784 322.642 57.0928C322.141 58.4071 321.385 59.6092 320.417 60.6296C318.488 62.6272 315.71 63.6375 312.013 63.6375L312.036 63.6145ZM290.224 29.5407V96.368H304.23V76.0363H312.14C315.509 75.9929 318.853 75.4434 322.059 74.4061C325.006 73.473 327.738 71.9627 330.095 69.9631C332.395 67.969 334.225 65.4914 335.456 62.7075C336.85 59.4736 337.523 55.9756 337.431 52.4556C337.484 49.174 336.895 45.9136 335.697 42.858C334.608 40.124 332.926 37.6656 330.772 35.6598C328.538 33.5991 325.893 32.0342 323.012 31.0676C319.678 29.9748 316.187 29.4433 312.679 29.4948L290.224 29.5407ZM494.46 74.1076C496.801 74.0804 499.083 73.3611 501.017 72.0404C502.951 70.7196 504.451 68.8563 505.328 66.6849C506.205 64.5136 506.421 62.1312 505.947 59.8377C505.474 57.5442 504.333 55.4419 502.667 53.7955C501.002 52.1491 498.886 51.0321 496.587 50.5852C494.289 50.1382 491.909 50.3812 489.748 51.2835C487.587 52.1859 485.741 53.7074 484.443 55.6564C483.144 57.6054 482.451 59.8949 482.451 62.2369C482.457 63.8048 482.772 65.3562 483.378 66.8025C483.983 68.2487 484.868 69.5616 485.981 70.666C487.094 71.7704 488.413 72.6448 489.864 73.2393C491.315 73.8337 492.869 74.1366 494.437 74.1305L494.46 74.1076ZM258.033 12.6301C258.031 11.0954 258.332 9.57535 258.918 8.15684C259.504 6.73833 260.363 5.44911 261.448 4.36281C262.532 3.2765 263.819 2.41437 265.237 1.82565C266.654 1.23693 268.173 0.933148 269.708 0.931641L485.872 0.931641C488.716 1.08436 491.497 1.83019 494.035 3.12124C496.574 4.4123 498.815 6.22002 500.613 8.42833L533.114 53.2018C538.625 60.6755 538.625 65.8302 533.768 72.1674L500.613 117.813C498.817 120.024 496.577 121.834 494.038 123.125C491.499 124.417 488.717 125.161 485.872 125.31H269.708C266.611 125.301 263.643 124.065 261.454 121.872C259.266 119.68 258.036 116.709 258.033 113.612V12.6301Z" fill="#F44429"/>
<path d="M201.102 47.4263H207.99V55.4625C209.414 52.9992 211.324 50.851 213.604 49.1483C216.295 47.2894 219.521 46.3657 222.788 46.5193C227.893 46.5193 231.888 48.1151 234.774 51.3067C237.659 54.4982 239.094 58.8493 239.079 64.3598V96.3327H232.191V66.1967C232.191 61.8189 231.184 58.4589 229.171 56.1169C228.11 54.9208 226.79 53.9819 225.313 53.3713C223.835 52.7607 222.237 52.4943 220.641 52.5925C218.896 52.5717 217.166 52.9239 215.567 53.6257C214.061 54.2967 212.709 55.2696 211.595 56.4843C210.427 57.7676 209.526 59.27 208.943 60.9043C208.279 62.7203 207.952 64.6422 207.979 66.5756V96.3327H201.09L201.102 47.4263ZM179.45 47.4263H186.338V96.3327H179.45V47.4263ZM179.094 29.4136H186.751V37.4498H179.094V29.4136ZM148.246 76.4831C148.281 75.4172 148.059 74.3585 147.597 73.3971C147.135 72.4357 146.448 71.6 145.594 70.9611C143.841 69.6217 141.239 68.9482 137.787 68.9405H125.618V84.3127H138.074C140.681 84.4706 143.272 83.8169 145.491 82.4414C146.395 81.7942 147.12 80.928 147.598 79.924C148.076 78.92 148.291 77.8111 148.223 76.7012V76.6094L148.246 76.4831ZM145.376 49.929C145.424 48.9014 145.224 47.8774 144.795 46.9426C144.365 46.0078 143.718 45.1895 142.908 44.5562C140.877 43.1974 138.458 42.5402 136.02 42.6849H125.687V57.4716H135.365C137.933 57.6005 140.482 56.9653 142.69 55.6462C143.592 55.0328 144.319 54.1944 144.799 53.2138C145.278 52.2332 145.493 51.1444 145.422 50.0553L145.376 49.929ZM112.083 30.5961H136.995C140.434 30.5457 143.859 31.0378 147.144 32.0541C149.907 32.8764 152.436 34.3397 154.526 36.3248C156.002 37.7782 157.164 39.52 157.938 41.4418C158.712 43.3635 159.083 45.4241 159.026 47.4952V47.7707C159.056 49.5187 158.8 51.2598 158.268 52.9254C157.796 54.3497 157.115 55.696 156.248 56.9206C155.443 58.058 154.476 59.0714 153.378 59.9284C152.299 60.7658 151.146 61.5035 149.934 62.1327C153.247 63.2896 156.238 65.2177 158.659 67.758C160.825 70.1306 161.912 73.4791 161.919 77.8034V78.2741C161.969 80.9683 161.379 83.6359 160.197 86.0578C159.042 88.3154 157.346 90.252 155.261 91.6946C152.924 93.2806 150.329 94.4462 147.592 95.1387C144.347 95.9386 141.014 96.3243 137.673 96.2868H112.106V30.6305L112.083 30.5961ZM57.4019 85.346L77.1367 65.4505C78.9123 63.7055 80.4124 62.125 81.637 60.7091C82.7134 59.4792 83.7067 58.1791 84.6104 56.8172C85.3134 55.7469 85.8731 54.589 86.275 53.3731C86.6342 52.2604 86.8163 51.0982 86.8146 49.929C86.8783 48.8622 86.7055 47.7944 86.3086 46.8021C85.9116 45.8098 85.3004 44.9175 84.5185 44.1888C82.9253 42.8209 80.8772 42.0999 78.7783 42.1683C76.5374 42.1313 74.3426 42.8067 72.5101 44.097C70.2666 45.7844 68.2521 47.7564 66.5173 49.9634L57.5167 41.6057C60.0957 37.9856 63.4091 34.95 67.2406 32.697C71.1132 30.6036 75.4685 29.5663 79.869 29.6891C82.7501 29.6634 85.6159 30.1093 88.353 31.0093C90.8203 31.8129 93.1005 33.1053 95.0575 34.8094C96.9392 36.4622 98.4294 38.5133 99.4201 40.8136C100.48 43.3577 101 46.0943 100.947 48.8499V49.0335C100.977 51.1588 100.702 53.2773 100.132 55.3248C99.5436 57.3027 98.6736 59.1857 97.5488 60.9157C96.2042 62.9224 94.6786 64.8015 92.9911 66.5296C90.9131 68.7224 88.7663 70.8692 86.5735 72.9586L75.3572 84.1176H101.027V96.3327H57.4019V85.346ZM36.1173 76.5176C36.1607 75.4479 35.9442 74.3836 35.4863 73.4159C35.0285 72.4482 34.3429 71.6059 33.4883 70.9611C31.7279 69.6217 29.1257 68.9482 25.6816 68.9405H13.5124V84.3127H25.9686C28.5781 84.4685 31.1722 83.815 33.3964 82.4414C34.2977 81.7922 35.0199 80.9253 35.4956 79.9215C35.9714 78.9178 36.1853 77.8099 36.1173 76.7012V76.6094V76.5176ZM33.2931 49.9634C33.3436 48.9282 33.1435 47.8961 32.7098 46.9547C32.2761 46.0133 31.6216 45.1905 30.8019 44.5562C28.7722 43.1959 26.3526 42.5385 23.9136 42.6849H13.5813V57.4716H23.1904C25.7588 57.6019 28.308 56.9666 30.5148 55.6462C31.4252 55.0375 32.1606 54.2012 32.648 53.2205C33.1353 52.2397 33.3577 51.1486 33.2931 50.0553V49.9634ZM0 30.6305H24.9124C28.3546 30.581 31.7832 31.0731 35.0726 32.0885C37.8423 32.9099 40.3793 34.3731 42.4774 36.3592C43.9539 37.8127 45.1154 39.5545 45.8896 41.4762C46.6638 43.398 47.0342 45.4585 46.9777 47.5296V47.8051C47.0072 49.5531 46.7512 51.2942 46.22 52.9598C45.7488 54.3824 45.0719 55.7284 44.2109 56.955C43.3989 58.0901 42.4286 59.103 41.3294 59.9629C40.247 60.7956 39.0947 61.5331 37.8852 62.1671C41.1937 63.3268 44.18 65.2547 46.5988 67.7925C48.7495 70.1727 49.8248 73.525 49.8248 77.8493V78.32C49.8798 81.0148 49.2893 83.6836 48.1028 86.1037C46.9478 88.3613 45.2518 90.2979 43.1662 91.7405C40.8301 93.3266 38.2347 94.4921 35.4973 95.1847C32.2528 95.9852 28.9199 96.371 25.5783 96.3327H0V30.6305Z" fill="white"/>
</g>
<defs>
<clipPath id="clip0">
<rect width="537.328" height="124.355" fill="white" transform="translate(0 0.931641)"/>
</clipPath>
</defs>
</svg>
