<svg width="105" height="348" viewBox="0 0 105 348" fill="none" xmlns="http://www.w3.org/2000/svg">
<path d="M1 112V1H61" stroke="#AABDCC" stroke-width="2"/>
<path d="M1 112H0L0 111H1L1 112ZM1 225L1 226H0L0 225H1ZM1 111H105V113H1L1 111ZM105 226H1L1 224H105V226ZM0 225L0 112H2L2 225H0Z" fill="#AABDCC"/>
<path d="M1 225H0L0 224H1L1 225ZM1 338L1 339H0L0 338H1ZM1 224H105V226H1L1 224ZM105 339H1L1 337H105V339ZM0 338L0 225H2L2 338H0Z" fill="#AABDCC"/>
<rect x="21" y="100" width="54.189" height="20" rx="3.67383" fill="#EFF4F6"/>
<path d="M40.8801 110.294L41.9866 108.382H43.4368L41.6589 111.245L43.4959 114.193H42.0564L40.8962 112.206L39.7415 114.193H38.2913L40.1282 111.245L38.3557 108.382H39.7952L40.8801 110.294ZM49.0474 110.901C49.0474 112.025 48.8361 112.874 48.4136 113.447C47.9946 114.016 47.3555 114.301 46.4961 114.301C45.651 114.301 45.0137 114.023 44.584 113.468C44.1579 112.91 43.9395 112.084 43.9287 110.992V109.639C43.9287 108.514 44.1382 107.671 44.5571 107.109C44.9797 106.547 45.6224 106.266 46.4854 106.266C47.3411 106.266 47.9785 106.54 48.3975 107.087C48.82 107.635 49.0366 108.455 49.0474 109.547V110.901ZM47.7422 109.44C47.7422 108.706 47.6419 108.169 47.4414 107.829C47.2409 107.485 46.9222 107.313 46.4854 107.313C46.0592 107.313 45.7459 107.476 45.5454 107.802C45.3449 108.124 45.2393 108.629 45.2285 109.316V111.089C45.2285 111.819 45.3306 112.364 45.5347 112.722C45.7388 113.08 46.0592 113.259 46.4961 113.259C46.915 113.259 47.2248 113.094 47.4253 112.765C47.6258 112.432 47.7314 111.912 47.7422 111.207V109.44ZM50.8069 112.818C51.0504 112.818 51.2384 112.888 51.3709 113.028C51.5033 113.164 51.5696 113.336 51.5696 113.543C51.5696 113.748 51.5033 113.918 51.3709 114.054C51.2384 114.186 51.0504 114.252 50.8069 114.252C50.5741 114.252 50.3897 114.186 50.2537 114.054C50.1176 113.921 50.0496 113.751 50.0496 113.543C50.0496 113.336 50.1158 113.164 50.2483 113.028C50.3808 112.888 50.567 112.818 50.8069 112.818ZM57.9482 114.193H52.6899V113.296L55.2949 110.455C55.6709 110.036 55.9377 109.687 56.0952 109.408C56.2564 109.125 56.3369 108.842 56.3369 108.559C56.3369 108.187 56.2313 107.886 56.02 107.657C55.8123 107.428 55.5313 107.313 55.1768 107.313C54.7542 107.313 54.4266 107.442 54.1939 107.7C53.9611 107.958 53.8447 108.31 53.8447 108.758H52.5396C52.5396 108.282 52.647 107.854 52.8618 107.474C53.0802 107.091 53.39 106.794 53.791 106.583C54.1956 106.371 54.6611 106.266 55.1875 106.266C55.9466 106.266 56.5446 106.457 56.9814 106.84C57.4219 107.22 57.6421 107.746 57.6421 108.419C57.6421 108.81 57.5311 109.22 57.3091 109.649C57.0907 110.076 56.7308 110.561 56.2295 111.105L54.3174 113.151H57.9482V114.193Z" fill="#555555"/>
<rect x="21" y="214" width="54.189" height="20" rx="3.67383" fill="#EFF4F6"/>
<path d="M40.8801 224.294L41.9866 222.382H43.4368L41.6589 225.245L43.4959 228.193H42.0564L40.8962 226.206L39.7415 228.193H38.2913L40.1282 225.245L38.3557 222.382H39.7952L40.8801 224.294ZM47.4844 228.193H46.1846V221.915L44.2671 222.57V221.469L47.3179 220.346H47.4844V228.193ZM50.8069 226.818C51.0504 226.818 51.2384 226.888 51.3709 227.028C51.5033 227.164 51.5696 227.336 51.5696 227.543C51.5696 227.748 51.5033 227.918 51.3709 228.054C51.2384 228.186 51.0504 228.252 50.8069 228.252C50.5741 228.252 50.3897 228.186 50.2537 228.054C50.1176 227.921 50.0496 227.751 50.0496 227.543C50.0496 227.336 50.1158 227.164 50.2483 227.028C50.3808 226.888 50.567 226.818 50.8069 226.818ZM57.9482 228.193H52.6899V227.296L55.2949 224.455C55.6709 224.036 55.9377 223.687 56.0952 223.408C56.2564 223.125 56.3369 222.842 56.3369 222.559C56.3369 222.187 56.2313 221.886 56.02 221.657C55.8123 221.428 55.5313 221.313 55.1768 221.313C54.7542 221.313 54.4266 221.442 54.1939 221.7C53.9611 221.958 53.8447 222.31 53.8447 222.758H52.5396C52.5396 222.282 52.647 221.854 52.8618 221.474C53.0802 221.091 53.39 220.794 53.791 220.583C54.1956 220.371 54.6611 220.266 55.1875 220.266C55.9466 220.266 56.5446 220.457 56.9814 220.84C57.4219 221.22 57.6421 221.746 57.6421 222.419C57.6421 222.81 57.5311 223.22 57.3091 223.649C57.0907 224.076 56.7308 224.561 56.2295 225.105L54.3174 227.151H57.9482V228.193Z" fill="#555555"/>
<rect x="21" y="328" width="54.189" height="20" rx="3.67383" fill="#EFF4F6"/>
<path d="M40.8801 338.294L41.9866 336.382H43.4368L41.6589 339.245L43.4959 342.193H42.0564L40.8962 340.206L39.7415 342.193H38.2913L40.1282 339.245L38.3557 336.382H39.7952L40.8801 338.294ZM49.2085 342.193H43.9502V341.296L46.5552 338.455C46.9312 338.036 47.1979 337.687 47.3555 337.408C47.5166 337.125 47.5972 336.842 47.5972 336.559C47.5972 336.187 47.4915 335.886 47.2803 335.657C47.0726 335.428 46.7915 335.313 46.437 335.313C46.0145 335.313 45.6869 335.442 45.4541 335.7C45.2214 335.958 45.105 336.31 45.105 336.758H43.7998C43.7998 336.282 43.9072 335.854 44.1221 335.474C44.3405 335.091 44.6502 334.794 45.0513 334.583C45.4559 334.371 45.9214 334.266 46.4478 334.266C47.2069 334.266 47.8049 334.457 48.2417 334.84C48.6821 335.22 48.9023 335.746 48.9023 336.419C48.9023 336.81 48.7913 337.22 48.5693 337.649C48.3509 338.076 47.9911 338.561 47.4897 339.105L45.5776 341.151H49.2085V342.193ZM50.8069 340.818C51.0504 340.818 51.2384 340.888 51.3709 341.028C51.5033 341.164 51.5696 341.336 51.5696 341.543C51.5696 341.748 51.5033 341.918 51.3709 342.054C51.2384 342.186 51.0504 342.252 50.8069 342.252C50.5741 342.252 50.3897 342.186 50.2537 342.054C50.1176 341.921 50.0496 341.751 50.0496 341.543C50.0496 341.336 50.1158 341.164 50.2483 341.028C50.3808 340.888 50.567 340.818 50.8069 340.818ZM57.7871 338.901C57.7871 340.025 57.5759 340.874 57.1533 341.447C56.7344 342.016 56.0952 342.301 55.2358 342.301C54.3908 342.301 53.7534 342.023 53.3237 341.468C52.8976 340.91 52.6792 340.084 52.6685 338.992V337.639C52.6685 336.514 52.8779 335.671 53.2969 335.109C53.7194 334.547 54.3621 334.266 55.2251 334.266C56.0809 334.266 56.7183 334.54 57.1372 335.087C57.5597 335.635 57.7764 336.455 57.7871 337.547V338.901ZM56.4819 337.44C56.4819 336.706 56.3817 336.169 56.1812 335.829C55.9806 335.485 55.662 335.313 55.2251 335.313C54.799 335.313 54.4857 335.476 54.2852 335.802C54.0846 336.124 53.979 336.629 53.9683 337.316V339.089C53.9683 339.819 54.0703 340.364 54.2744 340.722C54.4785 341.08 54.799 341.259 55.2358 341.259C55.6548 341.259 55.9645 341.094 56.165 340.765C56.3656 340.432 56.4712 339.912 56.4819 339.207V337.44Z" fill="#555555"/>
</svg>
