<svg width="88" height="19" viewBox="0 0 88 19" fill="none" xmlns="http://www.w3.org/2000/svg">
<circle cx="2.74468" cy="3.23882" r="2.74468" fill="#EB3A45"/>
<circle cx="2.74468" cy="8.7271" r="2.74468" fill="#2BEB78"/>
<circle cx="2.74468" cy="14.2154" r="2.74468" fill="#2BEB78"/>
<circle cx="8.23491" cy="8.7271" r="2.74468" fill="#EB3A45"/>
<circle cx="8.23491" cy="14.2154" r="2.74468" fill="#2BEB78"/>
<circle cx="13.7232" cy="3.23687" r="2.74468" fill="#EB3A45"/>
<circle cx="13.7232" cy="8.7271" r="2.74468" fill="#2BEB78"/>
<circle cx="13.7232" cy="14.2154" r="2.74468" fill="#2BEB78"/>
<path d="M20.5534 14.8652V3.54629H24.6192C26.0755 3.54629 27.182 3.8132 27.9387 4.34701C28.7005 4.88083 29.0815 5.65563 29.0815 6.67144C29.0815 7.25708 28.9467 7.75721 28.6772 8.17182C28.4077 8.58643 28.0112 8.89221 27.4878 9.08915C28.0786 9.24463 28.5321 9.53486 28.8482 9.95984C29.1644 10.3848 29.3225 10.9031 29.3225 11.5146C29.3225 12.6237 28.97 13.4581 28.2652 14.0179C27.5655 14.5724 26.5264 14.8549 25.1478 14.8652H20.5534ZM23.2821 10.0531V12.7663H25.0701C25.5624 12.7663 25.9408 12.6548 26.2051 12.432C26.4694 12.2039 26.6016 11.8852 26.6016 11.4758C26.6016 10.5325 26.1325 10.0583 25.1945 10.0531H23.2821ZM23.2821 8.26511H24.7047C25.3007 8.25992 25.7257 8.15109 25.9796 7.9386C26.2336 7.72611 26.3606 7.41256 26.3606 6.99794C26.3606 6.52114 26.2232 6.17908 25.9485 5.97178C25.6739 5.75929 25.2307 5.65304 24.6192 5.65304H23.2821V8.26511ZM38.5657 14.8652H30.6674V13.155L34.3056 9.33015C35.2022 8.30916 35.6505 7.49807 35.6505 6.89688C35.6505 6.40971 35.5442 6.03915 35.3318 5.7852C35.1193 5.53125 34.8109 5.40427 34.4067 5.40427C34.0076 5.40427 33.6837 5.5753 33.4349 5.91736C33.1861 6.25423 33.0618 6.67662 33.0618 7.18452H30.4341C30.4341 6.49004 30.6078 5.84998 30.955 5.26434C31.3022 4.67352 31.7842 4.21226 32.401 3.88057C33.0177 3.54888 33.707 3.38303 34.4688 3.38303C35.692 3.38303 36.6326 3.66549 37.2908 4.2304C37.9542 4.79531 38.2859 5.6064 38.2859 6.66366C38.2859 7.10937 38.203 7.54472 38.0371 7.9697C37.8713 8.38949 37.6121 8.83261 37.2597 9.29905C36.9125 9.76031 36.3502 10.3796 35.5728 11.157L34.1112 12.844H38.5657V14.8652ZM41.893 3.54629L46.0677 13.5359L50.2578 3.54629H51.5328V14.8652H50.5766V9.93652L50.6543 4.88342L46.4408 14.8652H45.7023L41.5043 4.92229L41.5821 9.90542V14.8652H40.6259V3.54629H41.893ZM59.4934 14.8652C59.4001 14.6009 59.3405 14.2096 59.3146 13.6914C58.988 14.1163 58.5708 14.4454 58.0629 14.6787C57.5602 14.9067 57.0264 15.0207 56.4615 15.0207C55.653 15.0207 54.9974 14.7953 54.4947 14.3444C53.9971 13.8935 53.7484 13.3234 53.7484 12.6341C53.7484 11.8152 54.0878 11.1674 54.7668 10.6906C55.4509 10.2138 56.4019 9.97539 57.6198 9.97539H59.3068V9.01919C59.3068 8.418 59.1202 7.94637 58.7471 7.60432C58.3791 7.25708 57.8401 7.08346 57.1301 7.08346C56.4822 7.08346 55.9458 7.2493 55.5208 7.581C55.0959 7.91269 54.8834 8.31175 54.8834 8.77819L53.9505 8.77042C53.9505 8.10185 54.2615 7.52399 54.8834 7.03681C55.5053 6.54446 56.2697 6.29828 57.1767 6.29828C58.1148 6.29828 58.8533 6.5341 59.3923 7.00572C59.9365 7.47216 60.2163 8.12518 60.2319 8.96477V12.9451C60.2319 13.7587 60.3174 14.3677 60.4884 14.7719V14.8652H59.4934ZM56.5703 14.1967C57.1923 14.1967 57.7468 14.0464 58.234 13.7458C58.7263 13.4452 59.0839 13.0435 59.3068 12.5408V10.6906H57.6431C56.7154 10.701 55.9899 10.872 55.4664 11.2037C54.943 11.5302 54.6813 11.9811 54.6813 12.5564C54.6813 13.028 54.8549 13.4193 55.2021 13.7302C55.5545 14.0412 56.0106 14.1967 56.5703 14.1967ZM66.6066 7.24671C66.4096 7.21043 66.1997 7.19229 65.9769 7.19229C65.3964 7.19229 64.9041 7.35555 64.4998 7.68206C64.1007 8.00338 63.8157 8.47241 63.6447 9.08915V14.8652H62.7196V6.45376H63.6291L63.6447 7.79089C64.137 6.79582 64.9274 6.29828 66.0157 6.29828C66.2749 6.29828 66.4796 6.33197 66.6299 6.39935L66.6066 7.24671ZM67.555 10.5818C67.555 9.26536 67.8452 8.22365 68.4257 7.45661C69.0113 6.68439 69.8043 6.29828 70.8045 6.29828C71.9499 6.29828 72.8206 6.75436 73.4166 7.66651L73.4632 6.45376H74.3339V14.6942C74.3339 15.7774 74.0307 16.6351 73.4244 17.2674C72.818 17.8997 71.9965 18.2158 70.96 18.2158C70.3744 18.2158 69.8146 18.0837 69.2808 17.8194C68.7522 17.5602 68.335 17.213 68.0292 16.7776L68.5501 16.2179C69.2083 17.0264 69.9909 17.4307 70.8978 17.4307C71.6752 17.4307 72.2816 17.2 72.7169 16.7388C73.1523 16.2827 73.3777 15.6478 73.3933 14.8341V13.7769C72.7973 14.6061 71.9292 15.0207 70.789 15.0207C69.8146 15.0207 69.0321 14.632 68.4412 13.8546C67.8504 13.0772 67.555 12.0277 67.555 10.7061V10.5818ZM68.4957 10.745C68.4957 11.8178 68.7107 12.6652 69.1409 13.2871C69.5711 13.9038 70.1774 14.2122 70.96 14.2122C72.1054 14.2122 72.9165 13.6991 73.3933 12.673V8.76264C73.1756 8.22365 72.862 7.81422 72.4526 7.53435C72.0432 7.2493 71.5508 7.10678 70.9756 7.10678C70.193 7.10678 69.584 7.41515 69.1487 8.03189C68.7133 8.64344 68.4957 9.54782 68.4957 10.745ZM77.8011 14.8652H76.8682V6.45376H77.8011V14.8652ZM76.705 4.0205C76.705 3.84429 76.762 3.69659 76.876 3.57738C76.99 3.453 77.1455 3.39081 77.3425 3.39081C77.5394 3.39081 77.6949 3.453 77.8089 3.57738C77.9281 3.69659 77.9877 3.84429 77.9877 4.0205C77.9877 4.19671 77.9281 4.34442 77.8089 4.46362C77.6949 4.58282 77.5394 4.64242 77.3425 4.64242C77.1455 4.64242 76.99 4.58282 76.876 4.46362C76.762 4.34442 76.705 4.19671 76.705 4.0205ZM81.2217 6.45376L81.2528 7.89196C81.5689 7.37369 81.9628 6.97981 82.4344 6.71031C82.9061 6.43563 83.4269 6.29828 83.997 6.29828C84.8988 6.29828 85.5699 6.55224 86.0105 7.06014C86.451 7.56804 86.6739 8.32989 86.679 9.34569V14.8652H85.7539V9.33792C85.7488 8.58643 85.5881 8.0267 85.2719 7.65874C84.961 7.29077 84.4609 7.10678 83.7716 7.10678C83.1963 7.10678 82.6858 7.28817 82.2401 7.65096C81.7996 8.00857 81.4731 8.49314 81.2606 9.1047V14.8652H80.3355V6.45376H81.2217Z" fill="white"/>
</svg>
