<svg width="102" height="19" viewBox="0 0 102 19" fill="none" xmlns="http://www.w3.org/2000/svg">
<path d="M20.0222 16V2.7276H24.7897C26.4973 2.7276 27.7948 3.04057 28.6821 3.66652C29.5754 4.29246 30.0221 5.20098 30.0221 6.3921C30.0221 7.07881 29.8641 7.66525 29.5481 8.15142C29.232 8.63759 28.7671 8.99614 28.1534 9.22707C28.8461 9.40938 29.3779 9.7497 29.7486 10.248C30.1193 10.7463 30.3047 11.3541 30.3047 12.0712C30.3047 13.3717 29.8914 14.3501 29.0649 15.0064C28.2445 15.6566 27.0261 15.9878 25.4095 16H20.0222ZM23.2218 10.3574V13.5388H25.3184C25.8957 13.5388 26.3393 13.4081 26.6493 13.1468C26.9592 12.8794 27.1142 12.5057 27.1142 12.0256C27.1142 10.9195 26.5642 10.3635 25.4642 10.3574H23.2218ZM23.2218 8.26081H24.89C25.5888 8.25473 26.0871 8.12711 26.3849 7.87795C26.6827 7.62879 26.8316 7.26112 26.8316 6.77495C26.8316 6.21586 26.6705 5.81477 26.3485 5.57169C26.0264 5.32253 25.5068 5.19795 24.7897 5.19795H23.2218V8.26081ZM41.1432 16H31.8817V13.9946L36.1478 9.50965C37.1991 8.31246 37.7248 7.36139 37.7248 6.65645C37.7248 6.0852 37.6002 5.65069 37.3511 5.35291C37.1019 5.05513 36.7403 4.90624 36.2663 4.90624C35.7984 4.90624 35.4185 5.10679 35.1268 5.50788C34.8351 5.90289 34.6893 6.39817 34.6893 6.99373H31.6082C31.6082 6.1794 31.8118 5.42888 32.2189 4.74216C32.6261 4.04937 33.1913 3.50851 33.9145 3.11958C34.6376 2.73064 35.4459 2.53617 36.3392 2.53617C37.7734 2.53617 38.8764 2.86738 39.6482 3.52978C40.4261 4.19218 40.815 5.14325 40.815 6.38298C40.815 6.90561 40.7178 7.41609 40.5233 7.91441C40.3288 8.40666 40.025 8.92625 39.6117 9.47319C39.2046 10.0141 38.5452 10.7403 37.6336 11.6518L35.9199 13.6299H41.1432V16ZM52.5924 4.16788H48.3263V16H46.5852V4.16788H42.3282V2.7276H52.5924V4.16788ZM58.3718 7.65006C58.1165 7.60752 57.84 7.58625 57.5422 7.58625C56.4362 7.58625 55.6857 8.05722 55.2907 8.99917V16H53.6043V6.13686H55.2451L55.2724 7.27632C55.8255 6.39514 56.6094 5.95455 57.6243 5.95455C57.9524 5.95455 58.2016 5.99708 58.3718 6.08216V7.65006ZM65.6552 16C65.5579 15.8055 65.4789 15.4591 65.4182 14.9608C64.6342 15.7751 63.6983 16.1823 62.6105 16.1823C61.6382 16.1823 60.8391 15.9088 60.2131 15.3619C59.5933 14.8089 59.2833 14.11 59.2833 13.2653C59.2833 12.2383 59.6723 11.4422 60.4501 10.877C61.2341 10.3058 62.334 10.0201 63.75 10.0201H65.3908V9.2453C65.3908 8.65582 65.2146 8.18788 64.8621 7.84149C64.5096 7.48901 63.9901 7.31278 63.3033 7.31278C62.7017 7.31278 62.1973 7.46471 61.7901 7.76856C61.383 8.07242 61.1794 8.44008 61.1794 8.87156H59.4839C59.4839 8.37931 59.6571 7.9053 60.0035 7.44951C60.3559 6.98765 60.83 6.62303 61.4255 6.35563C62.0271 6.08824 62.6865 5.95455 63.4036 5.95455C64.54 5.95455 65.4303 6.24017 66.0745 6.81142C66.7187 7.37659 67.0529 8.1575 67.0772 9.15414V13.6937C67.0772 14.5992 67.1927 15.3194 67.4236 15.8541V16H65.6552ZM62.8567 14.7147C63.3854 14.7147 63.8867 14.578 64.3608 14.3045C64.8348 14.031 65.1781 13.6755 65.3908 13.238V11.2143H64.0691C62.0028 11.2143 60.9697 11.819 60.9697 13.0283C60.9697 13.557 61.146 13.9702 61.4984 14.268C61.8509 14.5658 62.3037 14.7147 62.8567 14.7147ZM69.3106 10.9864C69.3106 9.47319 69.6691 8.25777 70.3862 7.34013C71.1033 6.41641 72.0422 5.95455 73.2029 5.95455C74.3576 5.95455 75.2722 6.34956 75.9468 7.13958V1.99835H77.6331V16H76.0835L76.0014 14.9426C75.3269 15.7691 74.388 16.1823 73.1847 16.1823C72.0422 16.1823 71.1094 15.7144 70.3862 14.7785C69.6691 13.8426 69.3106 12.6211 69.3106 11.114V10.9864ZM70.9969 11.1778C70.9969 12.296 71.2279 13.1711 71.6897 13.8031C72.1516 14.4351 72.7897 14.7512 73.604 14.7512C74.6736 14.7512 75.4545 14.2711 75.9468 13.3109V8.7804C75.4424 7.8506 74.6675 7.3857 73.6223 7.3857C72.7958 7.3857 72.1516 7.70475 71.6897 8.34285C71.2279 8.98094 70.9969 9.92593 70.9969 11.1778ZM84.3514 16.1823C83.0144 16.1823 81.9266 15.7448 81.088 14.8697C80.2493 13.9885 79.83 12.8126 79.83 11.3419V11.032C79.83 10.0536 80.0154 9.18149 80.3861 8.41577C80.7629 7.64398 81.2855 7.04235 81.954 6.61087C82.6285 6.17332 83.3578 5.95455 84.1417 5.95455C85.424 5.95455 86.4206 6.3769 87.1317 7.22162C87.8427 8.06634 88.1982 9.27568 88.1982 10.8497V11.5516H81.5164C81.5407 12.5239 81.8233 13.3109 82.3642 13.9125C82.9111 14.5081 83.6039 14.8058 84.4425 14.8058C85.0381 14.8058 85.5425 14.6843 85.9557 14.4412C86.369 14.1981 86.7306 13.8761 87.0405 13.475L88.0706 14.2771C87.2441 15.5473 86.0044 16.1823 84.3514 16.1823ZM84.1417 7.34013C83.4611 7.34013 82.8898 7.58929 82.428 8.08761C81.9661 8.57985 81.6805 9.27264 81.5711 10.166H86.5118V10.0384C86.4632 9.18149 86.2323 8.51908 85.819 8.05115C85.4058 7.57713 84.8467 7.34013 84.1417 7.34013ZM94.9256 7.65006C94.6703 7.60752 94.3938 7.58625 94.096 7.58625C92.99 7.58625 92.2395 8.05722 91.8445 8.99917V16H90.1581V6.13686H91.7989L91.8262 7.27632C92.3792 6.39514 93.1632 5.95455 94.1781 5.95455C94.5062 5.95455 94.7554 5.99708 94.9256 6.08216V7.65006Z" fill="white"/>
<circle r="2.49989" transform="matrix(1 0 0 -1 10.2698 2.50011)" fill="#59C59E"/>
<circle r="2.49989" transform="matrix(1 0 0 -1 10.2698 2.50011)" fill="#07D6A5"/>
<circle r="2.49989" transform="matrix(1 0 0 -1 10.2698 8.74913)" fill="#59C59E"/>
<circle r="2.49989" transform="matrix(1 0 0 -1 10.2698 8.74913)" fill="#07D6A5"/>
<circle r="2.49989" transform="matrix(1 0 0 -1 10.2698 14.9991)" fill="#59C59E"/>
<circle r="2.49989" transform="matrix(1 0 0 -1 10.2698 14.9991)" fill="#FF5252"/>
<circle r="2.49989" transform="matrix(1 0 0 -1 2.77018 2.50011)" fill="#59C59E"/>
<circle r="2.49989" transform="matrix(1 0 0 -1 2.77018 2.50011)" fill="#07D6A5"/>
<circle r="2.49989" transform="matrix(1 0 0 -1 2.77018 8.74913)" fill="#59C59E"/>
<circle r="2.49989" transform="matrix(1 0 0 -1 2.77018 8.74913)" fill="#FF5252"/>
<circle r="2.49989" transform="matrix(1 0 0 -1 2.77018 14.9991)" fill="#59C59E"/>
<circle r="2.49989" transform="matrix(1 0 0 -1 2.77018 14.9991)" fill="#FF5252"/>
</svg>
