<svg width="58" height="513" viewBox="0 0 58 513" fill="none" xmlns="http://www.w3.org/2000/svg">
                    <path d="M25.7194 327.844L24.7194 327.844L24.7195 328.844L25.7195 328.844L25.7194 327.844ZM57.7071 328.551C58.0976 328.16 58.0976 327.527 57.7071 327.137L51.3432 320.773C50.9526 320.382 50.3195 320.382 49.9289 320.773C49.5384 321.163 49.5384 321.796 49.9289 322.187L55.5858 327.844L49.9289 333.501C49.5384 333.891 49.5384 334.524 49.9289 334.915C50.3195 335.305 50.9526 335.305 51.3432 334.915L57.7071 328.551ZM25.7194 184.844L25.7194 183.844L24.7194 183.844L24.7194 184.844L25.7194 184.844ZM57.7071 185.551C58.0976 185.16 58.0976 184.527 57.7071 184.137L51.3431 177.773C50.9526 177.382 50.3195 177.382 49.9289 177.773C49.5384 178.163 49.5384 178.796 49.9289 179.187L55.5858 184.844L49.9289 190.501C49.5384 190.891 49.5384 191.524 49.9289 191.915C50.3195 192.305 50.9526 192.305 51.3431 191.915L57.7071 185.551ZM25.7195 328.844L57 328.844L57 326.844L25.7194 326.844L25.7195 328.844ZM25.7194 185.844L57 185.844L57 183.844L25.7194 183.844L25.7194 185.844ZM26.7194 327.844L26.7194 258.088L24.7194 258.088L24.7194 327.844L26.7194 327.844ZM26.7194 258.088L26.7194 184.844L24.7194 184.844L24.7194 258.088L26.7194 258.088ZM25.7194 257.088L-2.79621e-06 257.088L-3.30207e-06 259.088L25.7194 259.088L25.7194 257.088Z" fill="#B0C4D4"/>
                    <path d="M25.7194 511.088L25.7195 512.088L26.7195 512.088L26.7194 511.088L25.7194 511.088ZM26.7194 511.088L26.7194 328.344L24.7194 328.344L24.7194 511.088L26.7194 511.088ZM25.7194 510.088L2.52927e-07 510.088L-2.52928e-07 512.088L25.7195 512.088L25.7194 510.088Z" fill="#B0C4D4"/>
                    <path d="M25.7194 1.84375L25.7195 0.843751L26.7195 0.843751L26.7194 1.84375L25.7194 1.84375ZM26.7194 1.84375L26.7194 184.588L24.7194 184.588L24.7194 1.84375L26.7194 1.84375ZM25.7194 2.84375L2.52927e-07 2.84376L-2.52928e-07 0.843758L25.7195 0.843751L25.7194 2.84375Z" fill="#B0C4D4"/>
                  </svg>   