<svg  width="58" height="525" viewBox="0 0 58 525" fill="none" xmlns="http://www.w3.org/2000/svg">
                          <path d="M57.7071 264.551C58.0976 264.16 58.0976 263.527 57.7071 263.137L51.3432 256.773C50.9526 256.382 50.3195 256.382 49.9289 256.773C49.5384 257.163 49.5384 257.796 49.9289 258.187L55.5858 263.844L49.9289 269.501C49.5384 269.891 49.5384 270.524 49.9289 270.915C50.3195 271.305 50.9526 271.305 51.3431 270.915L57.7071 264.551ZM25.7194 7.84375L25.7194 6.84375L24.7194 6.84375L24.7194 7.84375L25.7194 7.84375ZM57.7071 8.55084C58.0976 8.16034 58.0976 7.52716 57.7071 7.13666L51.3431 0.772703C50.9526 0.382139 50.3195 0.382139 49.9289 0.772703C49.5384 1.16321 49.5384 1.79638 49.9289 2.18689L55.5858 7.84375L49.9289 13.5006C49.5384 13.8911 49.5384 14.5243 49.9289 14.9148C50.3195 15.3053 50.9526 15.3053 51.3431 14.9148L57.7071 8.55084ZM25.7194 517.344L24.7194 517.344L24.7194 518.344L25.7194 518.344L25.7194 517.344ZM57.7071 518.051C58.0976 517.66 58.0976 517.027 57.7071 516.637L51.3431 510.273C50.9526 509.882 50.3195 509.882 49.9289 510.273C49.5384 510.663 49.5384 511.296 49.9289 511.687L55.5858 517.344L49.9289 523.001C49.5384 523.391 49.5384 524.024 49.9289 524.415C50.3195 524.805 50.9526 524.805 51.3431 524.415L57.7071 518.051ZM25.7194 264.844L57 264.844L57 262.844L25.7194 262.844L25.7194 264.844ZM25.7194 8.84375L57 8.84375L57 6.84375L25.7194 6.84375L25.7194 8.84375ZM26.7194 263.844L26.7194 138.966L24.7194 138.966L24.7194 263.844L26.7194 263.844ZM26.7194 138.966L26.7194 7.84375L24.7194 7.84375L24.7194 138.966L26.7194 138.966ZM25.7194 137.966L-1.65831e-05 137.966L-1.64957e-05 139.966L25.7194 139.966L25.7194 137.966ZM25.7194 518.344L57 518.344L57 516.344L25.7194 516.344L25.7194 518.344ZM24.7194 263.844L24.7194 390.594L26.7194 390.594L26.7194 263.844L24.7194 263.844ZM24.7194 390.594L24.7194 517.344L26.7194 517.344L26.7194 390.594L24.7194 390.594ZM25.7194 389.594L-1.65831e-05 389.594L-1.64957e-05 391.594L25.7194 391.594L25.7194 389.594Z" fill="#B0C4D4"/>
                        </svg> 