<svg  width="16" height="477" viewBox="0 0 16 477" fill="none" xmlns="http://www.w3.org/2000/svg">
                          <path d="M7.2929 476.551C7.68343 476.941 8.31659 476.941 8.70712 476.551L15.0711 470.187C15.4616 469.796 15.4616 469.163 15.0711 468.773C14.6806 468.382 14.0474 468.382 13.6569 468.773L8.00001 474.43L2.34315 468.773C1.95263 468.382 1.31947 468.382 0.928941 468.773C0.538417 469.163 0.538417 469.796 0.928941 470.187L7.2929 476.551ZM7 264.844L7.00001 475.844L9.00001 475.844L9 264.844L7 264.844Z" fill="url(#paint0_linear)" fill-opacity="0.8"/>
                          <path d="M7.00005 0.84375L7 165.844L9 165.844L9.00005 0.84375L7.00005 0.84375Z" fill="url(#paint1_linear)" fill-opacity="0.8"/>
                          <circle cx="8" cy="264" r="2" fill="#30CBF3"/>
                          <circle cx="8" cy="164" r="2" fill="#30B3FD"/>
                          <defs>
                          <linearGradient id="paint0_linear" x1="8.01495" y1="115.268" x2="8.00128" y2="460.839" gradientUnits="userSpaceOnUse">
                          <stop stop-color="#00DAE8"/>
                          <stop offset="0.953125" stop-color="#00A3FF"/>
                          </linearGradient>
                          <linearGradient id="paint1_linear" x1="8.01495" y1="-119.667" x2="8.00608" y2="158.755" gradientUnits="userSpaceOnUse">
                          <stop stop-color="#00DAE8"/>
                          <stop offset="0.953125" stop-color="#00A3FF"/>
                          </linearGradient>
                          </defs>
                          </svg>