<svg width="54" height="768" viewBox="0 0 54 768" fill="none" xmlns="http://www.w3.org/2000/svg">
<path fill-rule="evenodd" clip-rule="evenodd" d="M3.35703e-05 0L31 1.35505e-06L31.0001 768L0.000111762 768L0.00011185 766L29.0001 766L29 2L3.34829e-05 2L3.35703e-05 0Z" fill="#B0C4D4"/>
<path fill-rule="evenodd" clip-rule="evenodd" d="M47.3431 260.43L53.7071 266.794C54.0976 267.184 54.0976 267.817 53.7071 268.208L47.3431 274.572C46.9526 274.962 46.3195 274.962 45.9289 274.572C45.5384 274.181 45.5384 273.548 45.9289 273.158L50.5858 268.501H0V266.501H50.5858L45.9289 261.844C45.5384 261.453 45.5384 260.82 45.9289 260.43C46.3195 260.039 46.9526 260.039 47.3431 260.43Z" fill="#B0C4D4"/>
</svg>
