<svg   width="791" height="351" viewBox="0 0 791 351" fill="none" xmlns="http://www.w3.org/2000/svg">
                <path d="M7.54413 1.07468L7.54657 0.0746829L6.54413 0.0722349V1.07468H7.54413ZM6.83702 349.782C7.22755 350.172 7.86071 350.172 8.25124 349.782L14.6152 343.418C15.0057 343.027 15.0057 342.394 14.6152 342.004C14.2247 341.613 13.5915 341.613 13.201 342.004L7.54413 347.66L1.88727 342.004C1.49675 341.613 0.863585 341.613 0.473061 342.004C0.0825363 342.394 0.0825363 343.027 0.473061 343.418L6.83702 349.782ZM789.544 1.07468L790.544 1.08976L790.544 1.0896L789.544 1.07468ZM400.544 1.84395L400.545 0.843953L400.544 1.84395ZM6.54413 1.07468V349.075H8.54413V1.07468H6.54413ZM788.544 1.0596C788.5 3.99481 788.544 18.0138 788.544 20H790.544C790.544 17.9862 790.5 4.00519 790.544 1.08976L788.544 1.0596ZM591.544 2.95755C651.738 2.95108 701.241 2.68945 735.695 2.44989C752.922 2.33011 766.387 2.21585 775.544 2.14176C780.123 2.10471 783.624 2.07772 785.98 2.0651C787.158 2.05879 788.047 2.05609 788.641 2.05749C788.939 2.0582 789.157 2.05993 789.299 2.0626C789.372 2.06398 789.415 2.06544 789.435 2.06651C789.449 2.06723 789.436 2.06694 789.411 2.06394C789.405 2.06322 789.356 2.05774 789.293 2.04166C789.254 2.03083 789.144 1.99061 789.076 1.95782C788.934 1.86692 788.61 1.43204 788.544 1.05976L790.544 1.0896C790.478 0.716679 790.153 0.281172 790.011 0.189652C789.941 0.156242 789.83 0.115406 789.788 0.103975C789.721 0.0866903 789.665 0.0800366 789.649 0.0781894C789.605 0.0729198 789.564 0.0705088 789.54 0.069254C789.485 0.0663613 789.415 0.0644281 789.337 0.0629611C789.178 0.0599567 788.946 0.0582061 788.646 0.0574968C788.044 0.0560737 787.148 0.0588144 785.969 0.065131C783.61 0.0777691 780.107 0.104784 775.528 0.141826C766.37 0.215919 752.907 0.33017 735.681 0.449939C701.23 0.689476 651.732 0.951079 591.544 0.957554L591.544 2.95755ZM590.544 1.95755V20.0747H592.544V1.95755H590.544ZM400.543 2.84395C468.861 2.91965 534.493 2.96369 591.544 2.95755L591.544 0.957554C534.493 0.963691 468.863 0.919653 400.545 0.843953L400.543 2.84395ZM399.544 1.84395V20.0747H401.544V1.84395H399.544ZM7.54169 2.07468C71.2548 2.23026 124.034 2.40038 208.542 2.54943L208.546 0.549428C124.038 0.400384 71.2612 0.230274 7.54657 0.0746829L7.54169 2.07468ZM208.542 2.54943C274.789 2.66626 333.943 2.77015 400.543 2.84395L400.545 0.843953C333.946 0.770155 274.793 0.666265 208.546 0.549428L208.542 2.54943ZM207.544 1.54943V20.0747H209.544V1.54943H207.544Z" fill="#B0C4D4"/>
                </svg>