<svg width="236" height="16" viewBox="0 0 236 16" fill="none" xmlns="http://www.w3.org/2000/svg">
<path d="M235.207 8.70711C235.598 8.31658 235.598 7.68342 235.207 7.29289L228.843 0.928932C228.453 0.538408 227.819 0.538408 227.429 0.928932C227.038 1.31946 227.038 1.95262 227.429 2.34315L233.086 8L227.429 13.6569C227.038 14.0474 227.038 14.6805 227.429 15.0711C227.819 15.4616 228.453 15.4616 228.843 15.0711L235.207 8.70711ZM0.292893 7.29289C-0.0976311 7.68342 -0.0976311 8.31658 0.292893 8.70711L6.65685 15.0711C7.04738 15.4616 7.68054 15.4616 8.07107 15.0711C8.46159 14.6805 8.46159 14.0474 8.07107 13.6569L2.41421 8L8.07107 2.34315C8.46159 1.95262 8.46159 1.31946 8.07107 0.928932C7.68054 0.538408 7.04738 0.538408 6.65685 0.928932L0.292893 7.29289ZM234.5 7H1V9H234.5V7Z" fill="#B0C4D4"/>
</svg>
