<svg width="125" height="253" viewBox="0 0 125 253" fill="none" xmlns="http://www.w3.org/2000/svg">
<path d="M124.207 141.293C124.598 141.683 124.598 142.317 124.207 142.707L117.843 149.071C117.453 149.462 116.819 149.462 116.429 149.071C116.038 148.681 116.038 148.047 116.429 147.657L122.086 142L116.429 136.343C116.038 135.953 116.038 135.319 116.429 134.929C116.819 134.538 117.453 134.538 117.843 134.929L124.207 141.293ZM1.5 1H0.5V0H1.5V1ZM1.5 245V246H0.5V245H1.5ZM124.207 244.293C124.598 244.683 124.598 245.317 124.207 245.707L117.843 252.071C117.453 252.462 116.819 252.462 116.429 252.071C116.038 251.681 116.038 251.047 116.429 250.657L122.086 245L116.429 239.343C116.038 238.953 116.038 238.319 116.429 237.929C116.819 237.538 117.453 237.538 117.843 237.929L124.207 244.293ZM123.5 143H1.5V141H123.5V143ZM0.5 142V1H2.5V142H0.5ZM1.5 0H18.4324V2H1.5V0ZM2.5 142V245H0.5V142H2.5ZM1.5 244H123.5V246H1.5V244Z" fill="#B0C4D4"/>
</svg>
