<svg width="16" height="37" viewBox="0 0 16 37" fill="none" xmlns="http://www.w3.org/2000/svg">
                  <path d="M8.52742 0.804612C8.1369 0.414088 7.50373 0.414088 7.11321 0.804612L0.749245 7.16857C0.35872 7.5591 0.35872 8.19226 0.749245 8.58279C1.13977 8.97331 1.77293 8.97331 2.16346 8.58279L7.82031 2.92593L13.4772 8.58279C13.8677 8.97331 14.5009 8.97331 14.8914 8.58279C15.2819 8.19226 15.2819 7.5591 14.8914 7.16857L8.52742 0.804612ZM7.11321 36.2188C7.50373 36.6093 8.1369 36.6093 8.52742 36.2188L14.8914 29.8549C15.2819 29.4643 15.2819 28.8312 14.8914 28.4407C14.5009 28.0501 13.8677 28.0501 13.4772 28.4407L7.82031 34.0975L2.16346 28.4407C1.77293 28.0501 1.13977 28.0501 0.749245 28.4407C0.35872 28.8312 0.35872 29.4643 0.749245 29.8549L7.11321 36.2188ZM6.82031 1.51172L6.82031 35.5117H8.82031L8.82031 1.51172H6.82031Z" fill="#B0C4D4"/>
                </svg> 