<svg  width="16" height="243" viewBox="0 0 16 243" fill="none" xmlns="http://www.w3.org/2000/svg">
                    <path d="M8.52742 0.804612C8.1369 0.414088 7.50373 0.414088 7.11321 0.804612L0.749245 7.16857C0.35872 7.5591 0.35872 8.19226 0.749245 8.58279C1.13977 8.97331 1.77293 8.97331 2.16346 8.58279L7.82031 2.92593L13.4772 8.58279C13.8677 8.97331 14.5009 8.97331 14.8914 8.58279C15.2819 8.19226 15.2819 7.5591 14.8914 7.16857L8.52742 0.804612ZM7.11321 242.219C7.50373 242.609 8.1369 242.609 8.52742 242.219L14.8914 235.855C15.2819 235.464 15.2819 234.831 14.8914 234.441C14.5009 234.05 13.8677 234.05 13.4772 234.441L7.82031 240.098L2.16346 234.441C1.77293 234.05 1.13977 234.05 0.749245 234.441C0.35872 234.831 0.35872 235.464 0.749245 235.855L7.11321 242.219ZM6.82031 1.51172L6.82031 241.512H8.82031L8.82031 1.51172L6.82031 1.51172Z" fill="#3A4550"/>
                  </svg>