 <svg width="70" height="346" viewBox="0 0 70 346" fill="none" xmlns="http://www.w3.org/2000/svg">
                  <path d="M1 112.633V1.63281H69.5148" stroke="#B0C4D4" stroke-width="2"/>
                  <path d="M1 112.633H0L0 111.633H1L1 112.633ZM1 225.633L1 226.633H0L0 225.633H1ZM55.2219 111.926C55.6124 112.316 55.6124 112.949 55.2219 113.34L48.858 119.704C48.4674 120.094 47.8343 120.094 47.4437 119.704C47.0532 119.313 47.0532 118.68 47.4437 118.29L53.1006 112.633L47.4437 106.976C47.0532 106.585 47.0532 105.952 47.4437 105.562C47.8343 105.171 48.4674 105.171 48.858 105.562L55.2219 111.926ZM55.2219 224.926C55.6124 225.316 55.6124 225.949 55.2219 226.34L48.858 232.704C48.4674 233.094 47.8343 233.094 47.4437 232.704C47.0532 232.313 47.0532 231.68 47.4437 231.29L53.1006 225.633L47.4437 219.976C47.0532 219.585 47.0532 218.952 47.4437 218.562C47.8343 218.171 48.4674 218.171 48.858 218.562L55.2219 224.926ZM1 111.633H29.264V113.633H1L1 111.633ZM39.3857 226.633H1L1 224.633H39.3857V226.633ZM0 225.633L0 112.633H2L2 225.633H0ZM29.264 111.633H54.5148V113.633H29.264V111.633ZM39.3857 224.633H54.5148V226.633H39.3857V224.633Z" fill="#B0C4D4"/>
                  <path d="M1 225.633H0L0 224.633H1L1 225.633ZM1 338.633L1 339.633H0L0 338.633H1ZM56.5274 337.926C56.9179 338.316 56.9179 338.949 56.5274 339.34L50.1635 345.704C49.7729 346.094 49.1398 346.094 48.7492 345.704C48.3587 345.313 48.3587 344.68 48.7492 344.29L54.4061 338.633L48.7492 332.976C48.3587 332.585 48.3587 331.952 48.7492 331.562C49.1398 331.171 49.7729 331.171 50.1635 331.562L56.5274 337.926ZM1 224.633H47.3203V226.633H1L1 224.633ZM50.8203 339.633H1L1 337.633H50.8203V339.633ZM0 338.633L0 225.633H2L2 338.633H0ZM50.8203 337.633H55.8203V339.633H50.8203V337.633Z" fill="#B0C4D4"/>
                </svg> 