<svg width="21" height="419" viewBox="0 0 21 419" fill="none" xmlns="http://www.w3.org/2000/svg">
<path d="M20.7071 329.693C21.0976 330.084 21.0976 330.717 20.7071 331.107L14.3431 337.471C13.9526 337.862 13.3195 337.862 12.9289 337.471C12.5384 337.081 12.5384 336.448 12.9289 336.057L18.5858 330.4L12.9289 324.744C12.5384 324.353 12.5384 323.72 12.9289 323.329C13.3195 322.939 13.9526 322.939 14.3431 323.329L20.7071 329.693ZM1 330.4H0V329.4H1V330.4ZM1 411V412H0V411H1ZM20.7071 410.293C21.0976 410.684 21.0976 411.317 20.7071 411.707L14.3431 418.071C13.9526 418.462 13.3195 418.462 12.9289 418.071C12.5384 417.681 12.5384 417.048 12.9289 416.657L18.5858 411L12.9289 405.344C12.5384 404.953 12.5384 404.32 12.9289 403.929C13.3195 403.539 13.9526 403.539 14.3431 403.929L20.7071 410.293ZM20 331.4H1V329.4H20V331.4ZM2 330.4V411H0V330.4H2ZM1 410H20V412H1V410Z" fill="#B0C4D4"/>
<path d="M20.7071 87.8925C21.0976 88.283 21.0976 88.9162 20.7071 89.3067L14.3431 95.6707C13.9526 96.0612 13.3195 96.0612 12.9289 95.6707C12.5384 95.2802 12.5384 94.647 12.9289 94.2565L18.5858 88.5996L12.9289 82.9428C12.5384 82.5522 12.5384 81.9191 12.9289 81.5285C13.3195 81.138 13.9526 81.138 14.3431 81.5285L20.7071 87.8925ZM1 88.5996H0V87.5996H1V88.5996ZM1 169.2V170.2H0V169.2H1ZM20.7071 168.493C21.0976 168.883 21.0976 169.516 20.7071 169.907L14.3431 176.271C13.9526 176.661 13.3195 176.661 12.9289 176.271C12.5384 175.88 12.5384 175.247 12.9289 174.856L18.5858 169.2L12.9289 163.543C12.5384 163.152 12.5384 162.519 12.9289 162.129C13.3195 161.738 13.9526 161.738 14.3431 162.129L20.7071 168.493ZM20 89.5996H1V87.5996H20V89.5996ZM2 88.5996V169.2H0V88.5996H2ZM1 168.2H20V170.2H1V168.2Z" fill="#B0C4D4"/>
<path d="M20.7071 249.094C21.0976 249.484 21.0976 250.117 20.7071 250.508L14.3431 256.872C13.9526 257.262 13.3195 257.262 12.9289 256.872C12.5384 256.481 12.5384 255.848 12.9289 255.458L18.5858 249.801L12.9289 244.144C12.5384 243.753 12.5384 243.12 12.9289 242.73C13.3195 242.339 13.9526 242.339 14.3431 242.73L20.7071 249.094ZM1 249.801H0V248.801H1V249.801ZM1 330.401V331.401H0V330.401H1ZM20.7071 329.694C21.0976 330.084 21.0976 330.717 20.7071 331.108L14.3431 337.472C13.9526 337.862 13.3195 337.862 12.9289 337.472C12.5384 337.081 12.5384 336.448 12.9289 336.058L18.5858 330.401L12.9289 324.744C12.5384 324.353 12.5384 323.72 12.9289 323.33C13.3195 322.939 13.9526 322.939 14.3431 323.33L20.7071 329.694ZM20 250.801H1V248.801H20V250.801ZM2 249.801V330.401H0V249.801H2ZM1 329.401H20V331.401H1V329.401Z" fill="#B0C4D4"/>
<path d="M20.7071 7.29289C21.0976 7.68342 21.0976 8.31658 20.7071 8.70711L14.3431 15.0711C13.9526 15.4616 13.3195 15.4616 12.9289 15.0711C12.5384 14.6805 12.5384 14.0474 12.9289 13.6569L18.5858 8L12.9289 2.34315C12.5384 1.95262 12.5384 1.31946 12.9289 0.928932C13.3195 0.538408 13.9526 0.538408 14.3431 0.928932L20.7071 7.29289ZM1 8H0V7H1V8ZM1 88.6V89.6H0V88.6H1ZM20.7071 87.8929C21.0976 88.2834 21.0976 88.9166 20.7071 89.3071L14.3431 95.6711C13.9526 96.0616 13.3195 96.0616 12.9289 95.6711C12.5384 95.2805 12.5384 94.6474 12.9289 94.2569L18.5858 88.6L12.9289 82.9431C12.5384 82.5526 12.5384 81.9195 12.9289 81.5289C13.3195 81.1384 13.9526 81.1384 14.3431 81.5289L20.7071 87.8929ZM20 9H1V7H20V9ZM2 8V88.6H0V8H2ZM1 87.6H20V89.6H1V87.6Z" fill="#B0C4D4"/>
<path d="M20.7071 168.492C21.0976 168.883 21.0976 169.516 20.7071 169.906L14.3431 176.27C13.9526 176.661 13.3195 176.661 12.9289 176.27C12.5384 175.88 12.5384 175.247 12.9289 174.856L18.5858 169.199L12.9289 163.542C12.5384 163.152 12.5384 162.519 12.9289 162.128C13.3195 161.738 13.9526 161.738 14.3431 162.128L20.7071 168.492ZM1 169.199H0V168.199H1V169.199ZM1 249.799V250.799H0V249.799H1ZM20.7071 249.092C21.0976 249.483 21.0976 250.116 20.7071 250.506L14.3431 256.87C13.9526 257.261 13.3195 257.261 12.9289 256.87C12.5384 256.48 12.5384 255.847 12.9289 255.456L18.5858 249.799L12.9289 244.142C12.5384 243.752 12.5384 243.119 12.9289 242.728C13.3195 242.338 13.9526 242.338 14.3431 242.728L20.7071 249.092ZM20 170.199H1V168.199H20V170.199ZM2 169.199V249.799H0V169.199H2ZM1 248.799H20V250.799H1V248.799Z" fill="#B0C4D4"/>
</svg>
