<svg width="21" height="177" viewBox="0 0 21 177" fill="none" xmlns="http://www.w3.org/2000/svg">
<path fill-rule="evenodd" clip-rule="evenodd" d="M20.7071 89.3076C21.0976 88.9171 21.0976 88.2839 20.7071 87.8934L14.3431 81.5294C13.9526 81.1389 13.3195 81.1389 12.9289 81.5294C12.5384 81.9199 12.5384 82.5531 12.9289 82.9436L17.5858 87.6005H0V170.2H17.5858L12.9289 174.857C12.5384 175.248 12.5384 175.881 12.9289 176.272C13.3195 176.662 13.9526 176.662 14.3431 176.272L20.7071 169.908C21.0976 169.517 21.0976 168.884 20.7071 168.493L14.3431 162.129C13.9526 161.739 13.3195 161.739 12.9289 162.129C12.5384 162.52 12.5384 163.153 12.9289 163.544L17.5858 168.2H2V89.6005H17.5858L12.9289 94.2573C12.5384 94.6479 12.5384 95.281 12.9289 95.6715C13.3195 96.0621 13.9526 96.0621 14.3431 95.6715L20.7071 89.3076Z" fill="#B0C4D4"/>
<path fill-rule="evenodd" clip-rule="evenodd" d="M20.7071 8.70712C21.0976 8.31659 21.0976 7.68343 20.7071 7.2929L14.3431 0.928941C13.9526 0.538416 13.3195 0.538416 12.9289 0.928941C12.5384 1.31947 12.5384 1.95263 12.9289 2.34315L17.5858 7.00001H0V89.6H17.5858L12.9289 94.2569C12.5384 94.6474 12.5384 95.2805 12.9289 95.6711C13.3195 96.0616 13.9526 96.0616 14.3431 95.6711L20.7071 89.3071C21.0976 88.9166 21.0976 88.2834 20.7071 87.8929L14.3431 81.5289C13.9526 81.1384 13.3195 81.1384 12.9289 81.5289C12.5384 81.9195 12.5384 82.5526 12.9289 82.9432L17.5858 87.6H2V9.00001H17.5858L12.9289 13.6569C12.5384 14.0474 12.5384 14.6806 12.9289 15.0711C13.3195 15.4616 13.9526 15.4616 14.3431 15.0711L20.7071 8.70712Z" fill="#B0C4D4"/>
</svg>
