<svg width="53" height="96" viewBox="0 0 53 96" fill="none" xmlns="http://www.w3.org/2000/svg">
<path d="M19 8H18V7H19V8ZM47.2071 7.29289C47.5976 7.68342 47.5976 8.31658 47.2071 8.70711L40.8431 15.0711C40.4526 15.4616 39.8195 15.4616 39.4289 15.0711C39.0384 14.6805 39.0384 14.0474 39.4289 13.6569L45.0858 8L39.4289 2.34315C39.0384 1.95262 39.0384 1.31946 39.4289 0.928932C39.8195 0.538406 40.4526 0.538406 40.8431 0.928932L47.2071 7.29289ZM18 88V8H20V88H18ZM19 7H46.5V9H19V7Z" fill="#B0C4D4"/>
<path d="M52.7071 87.2929C53.0976 87.6834 53.0976 88.3166 52.7071 88.7071L46.3431 95.0711C45.9526 95.4616 45.3195 95.4616 44.9289 95.0711C44.5384 94.6805 44.5384 94.0474 44.9289 93.6569L50.5858 88L44.9289 82.3431C44.5384 81.9526 44.5384 81.3195 44.9289 80.9289C45.3195 80.5384 45.9526 80.5384 46.3431 80.9289L52.7071 87.2929ZM0 87H52V89H0V87Z" fill="#B0C4D4"/>
</svg>
