<svg width="53" height="96" viewBox="0 0 53 96" fill="none" xmlns="http://www.w3.org/2000/svg">
<path d="M19 88H18V89H19V88ZM47.2071 88.7071C47.5976 88.3166 47.5976 87.6834 47.2071 87.2929L40.8431 80.9289C40.4526 80.5384 39.8195 80.5384 39.4289 80.9289C39.0384 81.3195 39.0384 81.9526 39.4289 82.3431L45.0858 88L39.4289 93.6569C39.0384 94.0474 39.0384 94.6805 39.4289 95.0711C39.8195 95.4616 40.4526 95.4616 40.8431 95.0711L47.2071 88.7071ZM18 8V88H20V8H18ZM19 89H46.5V87H19V89Z" fill="#B0C4D4"/>
<path d="M52.7071 8.70711C53.0976 8.31658 53.0976 7.68342 52.7071 7.29289L46.3431 0.928932C45.9526 0.538408 45.3195 0.538408 44.9289 0.928932C44.5384 1.31946 44.5384 1.95262 44.9289 2.34315L50.5858 8L44.9289 13.6569C44.5384 14.0474 44.5384 14.6805 44.9289 15.0711C45.3195 15.4616 45.9526 15.4616 46.3431 15.0711L52.7071 8.70711ZM0 9H52V7H0V9Z" fill="#B0C4D4"/>
</svg>
