<svg width="53" height="173" viewBox="0 0 53 173" fill="none" xmlns="http://www.w3.org/2000/svg">
<path fill-rule="evenodd" clip-rule="evenodd" d="M46.3431 1.25707L52.7071 7.62103C53.0976 8.01155 53.0976 8.64472 52.7071 9.03524L46.3431 15.3992C45.9526 15.7897 45.3195 15.7897 44.9289 15.3992C44.5384 15.0087 44.5384 14.3755 44.9289 13.985L49.5858 9.32813H19V7.32813H49.5858L44.9289 2.67128C44.5384 2.28075 44.5384 1.64759 44.9289 1.25707C45.3195 0.866541 45.9526 0.866541 46.3431 1.25707Z" fill="#B0C4D4"/>
<path fill-rule="evenodd" clip-rule="evenodd" d="M46.3431 82.2571L52.7071 88.621C53.0976 89.0116 53.0976 89.6447 52.7071 90.0352L46.3431 96.3992C45.9526 96.7897 45.3195 96.7897 44.9289 96.3992C44.5384 96.0087 44.5384 95.3755 44.9289 94.985L49.5858 90.3281H19V88.3281H49.5858L44.9289 83.6713C44.5384 83.2808 44.5384 82.6476 44.9289 82.2571C45.3195 81.8665 45.9526 81.8665 46.3431 82.2571Z" fill="#B0C4D4"/>
<path fill-rule="evenodd" clip-rule="evenodd" d="M19 90L1.74846e-07 90L0 88L19 88L19 90Z" fill="#B0C4D4"/>
<path fill-rule="evenodd" clip-rule="evenodd" d="M19 8H21V164H48.5858L43.9289 159.343C43.5384 158.953 43.5384 158.319 43.9289 157.929C44.3195 157.538 44.9526 157.538 45.3431 157.929L51.7071 164.293C52.0976 164.683 52.0976 165.317 51.7071 165.707L45.3431 172.071C44.9526 172.462 44.3195 172.462 43.9289 172.071C43.5384 171.681 43.5384 171.047 43.9289 170.657L48.5858 166H19V8Z" fill="#B0C4D4"/>
</svg>
