<svg width="33" height="32" viewBox="0 0 33 32" fill="none" xmlns="http://www.w3.org/2000/svg">
<path d="M32.1649 16.6429C32.1677 15.3581 31.7731 14.1038 31.0352 13.052C30.2972 12.0001 29.252 11.2023 28.0429 10.7677C28.2908 9.47313 28.2502 8.13979 27.924 6.86265C27.5979 5.58551 26.9941 4.39599 26.1558 3.37878C25.3175 2.36157 24.2653 1.5417 23.074 0.977527C21.8827 0.413359 20.5816 0.118776 19.2635 0.114752C17.8471 0.113059 16.4506 0.448355 15.1893 1.09295C13.928 1.73754 12.8382 2.67294 12.0099 3.82189C11.307 3.27903 10.4661 2.94403 9.58245 2.85492C8.69885 2.7658 7.80796 2.92613 7.01086 3.31771C6.21376 3.70929 5.54238 4.31645 5.07288 5.07028C4.60338 5.82412 4.35458 6.69446 4.35469 7.58255C4.35667 8.14854 4.45627 8.70994 4.64912 9.24206C3.43578 9.67613 2.38607 10.4743 1.64344 11.5274C0.900803 12.5805 0.501468 13.8373 0.500004 15.1259C0.49854 16.4146 0.895017 17.6722 1.63526 18.7271C2.3755 19.7819 3.42339 20.5824 4.63573 21.0192C4.24624 23.0174 4.55183 25.0886 5.50177 26.8891C6.45172 28.6896 7.98888 30.1111 9.85807 30.9175C11.7273 31.7239 13.816 31.8668 15.7776 31.3225C17.7392 30.7781 19.4557 29.5793 20.642 27.9249C21.4679 28.5813 22.4912 28.9397 23.5461 28.9421C24.8061 28.9417 26.0143 28.441 26.9052 27.5501C27.7961 26.6592 28.2968 25.451 28.2971 24.191C28.2952 23.6251 28.1956 23.0637 28.0027 22.5315C29.2157 22.0939 30.2652 21.2946 31.0095 20.2415C31.7538 19.1885 32.1571 17.9324 32.1649 16.6429Z" fill="white"/>
<path d="M12.9464 13.6987L19.8789 16.8571L26.8649 10.7276C26.9682 10.2212 27.0175 9.70535 27.0121 9.18858C27.0133 7.52027 26.4801 5.89543 25.4908 4.55213C24.5015 3.20883 23.1079 2.21769 21.5143 1.72391C19.9208 1.23013 18.211 1.25967 16.6354 1.80821C15.0599 2.35675 13.7014 3.39546 12.7591 4.77213L11.5947 10.8079L12.9464 13.6987Z" fill="#FED10A"/>
<path d="M5.77261 21.0325C5.66936 21.5479 5.62002 22.0727 5.6254 22.5983C5.62744 24.2735 6.16604 25.904 7.16225 27.2509C8.15845 28.5977 9.55988 29.59 11.1611 30.0824C12.7624 30.5747 14.4792 30.5412 16.06 29.9867C17.6408 29.4323 19.0025 28.386 19.9454 27.0014L21.0963 20.9923L19.5573 18.048L12.598 14.8762L5.77261 21.0325Z" fill="#24BBB1"/>
<path d="M5.73244 9.04122L10.4835 10.1654L11.5273 4.77199C10.8829 4.27853 10.0956 4.00767 9.28392 4.00016C8.47225 3.99265 7.68009 4.24889 7.02659 4.73034C6.37309 5.21178 5.89358 5.89241 5.66019 6.66983C5.42681 7.44726 5.45216 8.27944 5.73244 9.04122Z" fill="#EF5098"/>
<path d="M5.31804 10.179C4.29013 10.5163 3.39203 11.1639 2.74736 12.0327C2.10269 12.9014 1.74314 13.9487 1.71819 15.0302C1.69324 16.1118 2.00413 17.1745 2.60805 18.0721C3.21198 18.9697 4.07926 19.658 5.09052 20.0423L11.7553 14.0199L10.5375 11.4102L5.31804 10.179Z" fill="#17A8E0"/>
<path d="M21.1504 27.0014C21.7953 27.4888 22.5806 27.7547 23.389 27.7592C24.1974 27.7637 24.9856 27.5067 25.6359 27.0265C26.2863 26.5462 26.7639 25.8686 26.9974 25.0946C27.231 24.3207 27.208 23.492 26.9319 22.7321L22.1943 21.6213L21.1504 27.0014Z" fill="#93C83E"/>
<path d="M22.1138 20.377L27.3332 21.5948C28.3612 21.2575 29.2593 20.6099 29.9039 19.7411C30.5486 18.8723 30.9081 17.8251 30.9331 16.7435C30.958 15.662 30.6472 14.5993 30.0432 13.7017C29.4393 12.8041 28.572 12.1158 27.5608 11.7314L20.7354 17.7137L22.1138 20.377Z" fill="#0779A1"/>
</svg>
