<svg  width="42" height="31" viewBox="0 0 42 31" fill="none" xmlns="http://www.w3.org/2000/svg">
                      <path d="M41.252 7.12102C41.6426 7.51154 41.6426 8.14471 41.252 8.53523L34.8881 14.8992C34.4975 15.2897 33.8644 15.2897 33.4739 14.8992C33.0833 14.5087 33.0833 13.8755 33.4739 13.485L39.1307 7.82813L33.4739 2.17127C33.0833 1.78075 33.0833 1.14758 33.4739 0.757057C33.8644 0.366533 34.4975 0.366533 34.8881 0.757057L41.252 7.12102ZM0.544922 6.82812L40.5449 6.82813V8.82813L0.544922 8.82812L0.544922 6.82812Z" fill="#B0C4D4"/>
                      <path d="M8.7666 21.3271C9.32715 20.639 10.0563 20.2949 10.9541 20.2949C12.5173 20.2949 13.3057 21.1768 13.3193 22.9404V27.8281H12.0547V22.9336C12.0501 22.4004 11.9271 22.0062 11.6855 21.751C11.4486 21.4958 11.0771 21.3682 10.5713 21.3682C10.1611 21.3682 9.80111 21.4775 9.49121 21.6963C9.18132 21.915 8.93978 22.2021 8.7666 22.5576V27.8281H7.50195V17.3281H8.7666V21.3271ZM16.9287 18.6406V20.4316H18.3096V21.4092H16.9287V25.9961C16.9287 26.2923 16.9902 26.5156 17.1133 26.666C17.2363 26.8118 17.446 26.8848 17.7422 26.8848C17.888 26.8848 18.0885 26.8574 18.3438 26.8027V27.8281C18.0111 27.9193 17.6875 27.9648 17.373 27.9648C16.8079 27.9648 16.3818 27.7939 16.0947 27.4521C15.8076 27.1104 15.6641 26.625 15.6641 25.9961V21.4092H14.3174V20.4316H15.6641V18.6406H16.9287ZM21.5088 18.6406V20.4316H22.8896V21.4092H21.5088V25.9961C21.5088 26.2923 21.5703 26.5156 21.6934 26.666C21.8164 26.8118 22.026 26.8848 22.3223 26.8848C22.4681 26.8848 22.6686 26.8574 22.9238 26.8027V27.8281C22.5911 27.9193 22.2676 27.9648 21.9531 27.9648C21.388 27.9648 20.9619 27.7939 20.6748 27.4521C20.3877 27.1104 20.2441 26.625 20.2441 25.9961V21.4092H18.8975V20.4316H20.2441V18.6406H21.5088ZM30.6211 24.2119C30.6211 25.3376 30.3636 26.2445 29.8486 26.9326C29.3337 27.6208 28.6364 27.9648 27.7568 27.9648C26.859 27.9648 26.1527 27.68 25.6377 27.1104V30.6719H24.373V20.4316H25.5283L25.5898 21.252C26.1048 20.6139 26.8203 20.2949 27.7363 20.2949C28.625 20.2949 29.3268 20.6299 29.8418 21.2998C30.3613 21.9697 30.6211 22.9017 30.6211 24.0957V24.2119ZM29.3564 24.0684C29.3564 23.2344 29.1787 22.5758 28.8232 22.0928C28.4678 21.6097 27.9801 21.3682 27.3604 21.3682C26.5947 21.3682 26.0205 21.7077 25.6377 22.3867V25.9209C26.016 26.5954 26.5947 26.9326 27.374 26.9326C27.9801 26.9326 28.4609 26.6934 28.8164 26.2148C29.1764 25.7318 29.3564 25.0163 29.3564 24.0684Z" fill="#718697"/>
                    </svg> 