<svg width="31" height="36" viewBox="0 0 31 36" fill="none" xmlns="http://www.w3.org/2000/svg">
                    <path d="M0.0761719 6.40601C0.439277 5.36678 1.16549 4.62804 2.04195 4.01452C3.94512 2.67479 6.12375 1.98614 8.36499 1.51035C11.0069 0.934388 13.6864 0.746575 16.3909 0.859263C19.8216 1.00951 23.1772 1.52287 26.3199 3.00033C27.3466 3.48865 28.2982 4.0646 29.0995 4.89098C30.3892 6.25576 30.4017 7.67062 29.0995 9.03539C28.0854 10.0997 26.8082 10.7633 25.4685 11.3142C23.2147 12.2157 20.8859 12.704 18.4818 12.9294C14.663 13.2925 10.8942 13.1172 7.1755 12.1531C5.27233 11.6648 3.44429 10.9761 1.85414 9.78664C1.06532 9.18564 0.414235 8.48447 0.0761719 7.53289C0.0761719 7.15726 0.0761719 6.78163 0.0761719 6.40601Z" fill="#EFF4F6"/>
                    <path d="M0.0761719 12.416C2.78068 14.3067 5.84829 15.2207 9.04111 15.7716C11.5453 16.2098 14.0745 16.3225 16.6162 16.2224C20.3725 16.0721 24.0411 15.4461 27.4969 13.8559C28.3483 13.4678 29.1371 12.9669 30.0261 12.4911C30.0386 12.6414 30.0637 12.7791 30.0637 12.9294C30.0637 14.6197 30.0637 16.31 30.0762 18.0003C30.0762 18.8017 29.7131 19.4402 29.1997 20.0162C28.2732 21.0554 27.0837 21.7315 25.8316 22.2699C23.5528 23.234 21.1613 23.7474 18.7072 24.0103C16.5286 24.2482 14.3374 24.2608 12.1463 24.0855C9.00355 23.8225 5.94846 23.209 3.14378 21.7065C2.59287 21.4185 2.07951 21.0429 1.5912 20.6673C0.890028 20.1414 0.376673 19.4527 0.0886927 18.6138C0.0761719 16.5479 0.0761719 14.482 0.0761719 12.416Z" fill="#EFF4F6"/>
                    <path d="M0.0761719 23.5215C2.78068 25.4121 5.84829 26.3262 9.04111 26.8771C11.5453 27.3153 14.0745 27.428 16.6162 27.3278C20.3725 27.1776 24.0411 26.5515 27.4969 24.9614C28.3483 24.5732 29.1371 24.0724 30.0261 23.5966C30.0386 23.7469 30.0637 23.8846 30.0637 24.0348C30.0637 25.7252 30.0637 27.4155 30.0762 29.1058C30.0762 29.9071 29.7131 30.5457 29.1997 31.1217C28.2732 32.1609 27.0837 32.837 25.8316 33.3754C23.5528 34.3395 21.1613 34.8529 18.7072 35.1158C16.5286 35.3537 14.3374 35.3662 12.1463 35.1909C9.00355 34.928 5.94846 34.3145 3.14378 32.812C2.59287 32.524 2.07951 32.1484 1.5912 31.7727C0.890028 31.2469 0.376673 30.5582 0.0886927 29.7193C0.0761719 27.6534 0.0761719 25.5874 0.0761719 23.5215Z" fill="#EFF4F6"/>
                  </svg> 