<svg  width="42" height="31" viewBox="0 0 42 31" fill="none" xmlns="http://www.w3.org/2000/svg">
                      <path d="M0.837814 7.12102C0.447292 7.51154 0.447292 8.14471 0.837814 8.53523L7.20177 14.8992C7.5923 15.2897 8.22546 15.2897 8.61599 14.8992C9.00652 14.5087 9.00652 13.8755 8.61599 13.485L2.95914 7.82813L8.61599 2.17127C9.00652 1.78075 9.00652 1.14758 8.61599 0.757057C8.22546 0.366533 7.5923 0.366533 7.20177 0.757057L0.837814 7.12102ZM41.5449 6.82812L1.54492 6.82813V8.82813L41.5449 8.82812V6.82812Z" fill="#B0C4D4"/>
                      <path d="M13.7666 21.3271C14.3271 20.639 15.0563 20.2949 15.9541 20.2949C17.5173 20.2949 18.3057 21.1768 18.3193 22.9404V27.8281H17.0547V22.9336C17.0501 22.4004 16.9271 22.0062 16.6855 21.751C16.4486 21.4958 16.0771 21.3682 15.5713 21.3682C15.1611 21.3682 14.8011 21.4775 14.4912 21.6963C14.1813 21.915 13.9398 22.2021 13.7666 22.5576V27.8281H12.502V17.3281H13.7666V21.3271ZM21.9287 18.6406V20.4316H23.3096V21.4092H21.9287V25.9961C21.9287 26.2923 21.9902 26.5156 22.1133 26.666C22.2363 26.8118 22.446 26.8848 22.7422 26.8848C22.888 26.8848 23.0885 26.8574 23.3438 26.8027V27.8281C23.0111 27.9193 22.6875 27.9648 22.373 27.9648C21.8079 27.9648 21.3818 27.7939 21.0947 27.4521C20.8076 27.1104 20.6641 26.625 20.6641 25.9961V21.4092H19.3174V20.4316H20.6641V18.6406H21.9287ZM26.5088 18.6406V20.4316H27.8896V21.4092H26.5088V25.9961C26.5088 26.2923 26.5703 26.5156 26.6934 26.666C26.8164 26.8118 27.026 26.8848 27.3223 26.8848C27.4681 26.8848 27.6686 26.8574 27.9238 26.8027V27.8281C27.5911 27.9193 27.2676 27.9648 26.9531 27.9648C26.388 27.9648 25.9619 27.7939 25.6748 27.4521C25.3877 27.1104 25.2441 26.625 25.2441 25.9961V21.4092H23.8975V20.4316H25.2441V18.6406H26.5088ZM35.6211 24.2119C35.6211 25.3376 35.3636 26.2445 34.8486 26.9326C34.3337 27.6208 33.6364 27.9648 32.7568 27.9648C31.859 27.9648 31.1527 27.68 30.6377 27.1104V30.6719H29.373V20.4316H30.5283L30.5898 21.252C31.1048 20.6139 31.8203 20.2949 32.7363 20.2949C33.625 20.2949 34.3268 20.6299 34.8418 21.2998C35.3613 21.9697 35.6211 22.9017 35.6211 24.0957V24.2119ZM34.3564 24.0684C34.3564 23.2344 34.1787 22.5758 33.8232 22.0928C33.4678 21.6097 32.9801 21.3682 32.3604 21.3682C31.5947 21.3682 31.0205 21.7077 30.6377 22.3867V25.9209C31.016 26.5954 31.5947 26.9326 32.374 26.9326C32.9801 26.9326 33.4609 26.6934 33.8164 26.2148C34.1764 25.7318 34.3564 25.0163 34.3564 24.0684Z" fill="#718697"/>
                    </svg>