<svg  width="21" height="21" viewBox="0 0 21 21" fill="none" xmlns="http://www.w3.org/2000/svg">
                    <mask id="path-1-inside-1" fill="white">
                    <path d="M20.5449 10.8281C20.5449 16.351 16.0678 20.8281 10.5449 20.8281C5.02207 20.8281 0.544922 16.351 0.544922 10.8281C0.544922 5.30528 5.02207 0.828125 10.5449 0.828125C16.0678 0.828125 20.5449 5.30528 20.5449 10.8281Z"/>
                    </mask>
                    <path d="M20.5449 10.8281C20.5449 16.351 16.0678 20.8281 10.5449 20.8281C5.02207 20.8281 0.544922 16.351 0.544922 10.8281C0.544922 5.30528 5.02207 0.828125 10.5449 0.828125C16.0678 0.828125 20.5449 5.30528 20.5449 10.8281Z" fill="white"/>
                    <path d="M16.5449 10.8281C16.5449 14.1418 13.8586 16.8281 10.5449 16.8281V24.8281C18.2769 24.8281 24.5449 18.5601 24.5449 10.8281H16.5449ZM10.5449 16.8281C7.23121 16.8281 4.54492 14.1418 4.54492 10.8281H-3.45508C-3.45508 18.5601 2.81294 24.8281 10.5449 24.8281V16.8281ZM4.54492 10.8281C4.54492 7.51442 7.23121 4.82812 10.5449 4.82812V-3.17188C2.81294 -3.17188 -3.45508 3.09614 -3.45508 10.8281H4.54492ZM10.5449 4.82812C13.8586 4.82812 16.5449 7.51442 16.5449 10.8281H24.5449C24.5449 3.09614 18.2769 -3.17188 10.5449 -3.17188V4.82812Z" fill="#03E2B2" mask="url(#path-1-inside-1)"/>
                  </svg> 