 <svg  width="35" height="81" viewBox="0 0 35 81" fill="none" xmlns="http://www.w3.org/2000/svg">
                  <path d="M8.25203 1.12102C7.86151 0.730492 7.22834 0.730492 6.83782 1.12102L0.473857 7.48498C0.0833328 7.8755 0.0833328 8.50867 0.473857 8.89919C0.864381 9.28972 1.49755 9.28972 1.88807 8.89919L7.54493 3.24234L13.2018 8.89919C13.5923 9.28972 14.2255 9.28972 14.616 8.89919C15.0065 8.50867 15.0065 7.8755 14.616 7.48498L8.25203 1.12102ZM8.54492 79.8281L8.54493 1.82813L6.54493 1.82812L6.54492 79.8281L8.54492 79.8281Z" fill="#B0C4D4"/>
                  <path d="M26.8378 80.5352C27.2283 80.9258 27.8615 80.9258 28.252 80.5352L34.616 74.1713C35.0065 73.7807 35.0065 73.1476 34.616 72.7571C34.2255 72.3665 33.5923 72.3665 33.2018 72.7571L27.5449 78.4139L21.8881 72.7571C21.4975 72.3665 20.8644 72.3665 20.4739 72.7571C20.0833 73.1476 20.0833 73.7807 20.4739 74.1713L26.8378 80.5352ZM26.5449 1.82813L26.5449 79.8281L28.5449 79.8281L28.5449 1.82812L26.5449 1.82813Z" fill="#B0C4D4"/>
                  <circle r="5" transform="matrix(-1 0 0 1 27.5449 38.8281)" fill="white" stroke="#B0C4D4" stroke-width="4"/>
                </svg> 