<svg width="39" height="16" viewBox="0 0 39 16" fill="none" xmlns="http://www.w3.org/2000/svg">
                      <path d="M38.252 8.53523C38.6426 8.14471 38.6426 7.51154 38.252 7.12102L31.8881 0.757057C31.4975 0.366533 30.8644 0.366533 30.4739 0.757057C30.0833 1.14758 30.0833 1.78075 30.4739 2.17127L36.1307 7.82812L30.4739 13.485C30.0833 13.8755 30.0833 14.5087 30.4739 14.8992C30.8644 15.2897 31.4975 15.2897 31.8881 14.8992L38.252 8.53523ZM0.837814 7.12102C0.447292 7.51154 0.447292 8.14471 0.837814 8.53523L7.20178 14.8992C7.5923 15.2897 8.22547 15.2897 8.61599 14.8992C9.00651 14.5087 9.00651 13.8755 8.61599 13.485L2.95914 7.82813L8.61599 2.17127C9.00651 1.78075 9.00651 1.14758 8.61599 0.757057C8.22547 0.366533 7.5923 0.366533 7.20178 0.757057L0.837814 7.12102ZM37.5449 6.82812L1.54492 6.82813V8.82813L37.5449 8.82812V6.82812Z" fill="#03E2B2"/>
                      <circle cx="19.5449" cy="7.82812" r="5" fill="#EFF4F6" stroke="#03E2B2" stroke-width="4"/>
                    </svg>