<svg   width="46" height="42" viewBox="0 0 46 42" fill="none" xmlns="http://www.w3.org/2000/svg">
                      <path d="M24.252 41.5352C23.8615 41.9258 23.2283 41.9258 22.8378 41.5352L16.4739 35.1713C16.0833 34.7807 16.0833 34.1476 16.4739 33.7571C16.8644 33.3665 17.4975 33.3665 17.8881 33.7571L23.5449 39.4139L29.2018 33.7571C29.5923 33.3665 30.2255 33.3665 30.616 33.7571C31.0065 34.1476 31.0065 34.7807 30.616 35.1713L24.252 41.5352ZM24.5449 0.828125L24.5449 40.8281L22.5449 40.8281L22.5449 0.828125L24.5449 0.828125Z" fill="#B0C4D4"/>
                      <rect width="45" height="20" transform="translate(0.544922 7.82812)" fill="#EFF4F6"/>
                      <path d="M12.7666 15.3271C13.3271 14.639 14.0563 14.2949 14.9541 14.2949C16.5173 14.2949 17.3057 15.1768 17.3193 16.9404V21.8281H16.0547V16.9336C16.0501 16.4004 15.9271 16.0062 15.6855 15.751C15.4486 15.4958 15.0771 15.3682 14.5713 15.3682C14.1611 15.3682 13.8011 15.4775 13.4912 15.6963C13.1813 15.915 12.9398 16.2021 12.7666 16.5576V21.8281H11.502V11.3281H12.7666V15.3271ZM20.9287 12.6406V14.4316H22.3096V15.4092H20.9287V19.9961C20.9287 20.2923 20.9902 20.5156 21.1133 20.666C21.2363 20.8118 21.446 20.8848 21.7422 20.8848C21.888 20.8848 22.0885 20.8574 22.3438 20.8027V21.8281C22.0111 21.9193 21.6875 21.9648 21.373 21.9648C20.8079 21.9648 20.3818 21.7939 20.0947 21.4521C19.8076 21.1104 19.6641 20.625 19.6641 19.9961V15.4092H18.3174V14.4316H19.6641V12.6406H20.9287ZM25.5088 12.6406V14.4316H26.8896V15.4092H25.5088V19.9961C25.5088 20.2923 25.5703 20.5156 25.6934 20.666C25.8164 20.8118 26.026 20.8848 26.3223 20.8848C26.4681 20.8848 26.6686 20.8574 26.9238 20.8027V21.8281C26.5911 21.9193 26.2676 21.9648 25.9531 21.9648C25.388 21.9648 24.9619 21.7939 24.6748 21.4521C24.3877 21.1104 24.2441 20.625 24.2441 19.9961V15.4092H22.8975V14.4316H24.2441V12.6406H25.5088ZM34.6211 18.2119C34.6211 19.3376 34.3636 20.2445 33.8486 20.9326C33.3337 21.6208 32.6364 21.9648 31.7568 21.9648C30.859 21.9648 30.1527 21.68 29.6377 21.1104V24.6719H28.373V14.4316H29.5283L29.5898 15.252C30.1048 14.6139 30.8203 14.2949 31.7363 14.2949C32.625 14.2949 33.3268 14.6299 33.8418 15.2998C34.3613 15.9697 34.6211 16.9017 34.6211 18.0957V18.2119ZM33.3564 18.0684C33.3564 17.2344 33.1787 16.5758 32.8232 16.0928C32.4678 15.6097 31.9801 15.3682 31.3604 15.3682C30.5947 15.3682 30.0205 15.7077 29.6377 16.3867V19.9209C30.016 20.5954 30.5947 20.9326 31.374 20.9326C31.9801 20.9326 32.4609 20.6934 32.8164 20.2148C33.1764 19.7318 33.3564 19.0163 33.3564 18.0684Z" fill="#718697"/>
                    </svg>