<svg width="16" height="54" viewBox="0 0 16 54" fill="none" xmlns="http://www.w3.org/2000/svg">
<path d="M7.11321 53.5938C7.50373 53.9844 8.13689 53.9844 8.52742 53.5938L14.8914 47.2299C15.2819 46.8393 15.2819 46.2062 14.8914 45.8157C14.5009 45.4251 13.8677 45.4251 13.4772 45.8157L7.82031 51.4725L2.16346 45.8157C1.77293 45.4251 1.13977 45.4251 0.749245 45.8157C0.358721 46.2062 0.358721 46.8393 0.749245 47.2299L7.11321 53.5938ZM7.82031 30.8867L8.82031 30.8867L7.82031 30.8867ZM8.82031 52.8867L8.82031 30.8867L6.82031 30.8867L6.82031 52.8867L8.82031 52.8867ZM6.82031 0.886719L6.82031 30.8867L8.82031 30.8867L8.82031 0.886719L6.82031 0.886719Z" fill="#B0C4D4"/>
</svg>
