<svg width="1" height="50" viewBox="0 0 1 50" fill="none" xmlns="http://www.w3.org/2000/svg">
<path opacity="0.33" fill-rule="evenodd" clip-rule="evenodd" d="M1 48.3782V49.2578H0L0 48.3782H1ZM1 44.8598V46.619H0L0 44.8598H1ZM1 41.3414V43.1006H0L0 41.3414H1ZM1 37.823V39.5822H0L0 37.823H1ZM1 34.3045V36.0637H0L0 34.3045H1ZM1 30.7861V32.5453H0L0 30.7861H1ZM1 27.2677V29.0269H0L0 27.2677H1ZM1 23.7493V25.5085H0L0 23.7493H1ZM1 20.2309V21.9901H0L0 20.2309H1ZM1 16.7124V18.4717H0L0 16.7124H1ZM1 13.194V14.9532H0L0 13.194H1ZM1 9.67561V11.4348H0L0 9.67561H1ZM1 6.15719L1 7.9164H0L0 6.15719H1ZM1 2.63877L1 4.39798H0L0 2.63877H1ZM1 -4.95911e-05L1 0.879566H0L0 -4.95911e-05H1Z" fill="black"/>
</svg>
