<svg width="2" height="51" viewBox="0 0 2 51" fill="none" xmlns="http://www.w3.org/2000/svg">
<path opacity="0.33" fill-rule="evenodd" clip-rule="evenodd" d="M1.62655 49.3504V50.23H0.746948V49.3504H1.62655ZM1.62655 45.832L1.62655 47.5912H0.746948L0.746948 45.832H1.62655ZM1.62655 42.3135V44.0727H0.746948L0.746948 42.3135H1.62655ZM1.62655 38.7951L1.62655 40.5543H0.746948L0.746948 38.7951H1.62655ZM1.62655 35.2767V37.0359H0.746948L0.746948 35.2767H1.62655ZM1.62655 31.7583L1.62655 33.5175H0.746948L0.746948 31.7583H1.62655ZM1.62655 28.2399V29.9991H0.746948L0.746948 28.2399H1.62655ZM1.62655 24.7214L1.62655 26.4807H0.746948L0.746948 24.7214H1.62655ZM1.62655 21.203V22.9622H0.746948L0.746948 21.203H1.62655ZM1.62655 17.6846L1.62655 19.4438H0.746948L0.746948 17.6846H1.62655ZM1.62655 14.1662V15.9254H0.746948L0.746948 14.1662H1.62655ZM1.62655 10.6478L1.62655 12.407H0.746948L0.746948 10.6478H1.62655ZM1.62655 7.12936V8.88857H0.746948L0.746948 7.12936H1.62655ZM1.62655 3.61094L1.62655 5.37015H0.746948L0.746948 3.61094H1.62655ZM1.62655 0.972118V1.85173H0.746948V0.972118H1.62655Z" fill="black"/>
</svg>
