<svg width="1" height="95" viewBox="0 0 1 95" fill="none" xmlns="http://www.w3.org/2000/svg">
<path opacity="0.33" fill-rule="evenodd" clip-rule="evenodd" d="M1 93.2462L1 94.1177L0 94.1177L-3.84051e-08 93.2462L1 93.2462ZM1 89.7604L1 91.5033L-1.15215e-07 91.5033L-1.92026e-07 89.7604L1 89.7604ZM1 86.2745L1 88.0175L-2.68836e-07 88.0175L-3.45646e-07 86.2745L1 86.2745ZM1 82.7887L1 84.5316L-4.22456e-07 84.5316L-4.99267e-07 82.7887L1 82.7887ZM0.999999 79.3029L0.999999 81.0458L-5.76077e-07 81.0458L-6.52887e-07 79.3029L0.999999 79.3029ZM0.999999 75.817L0.999999 77.5599L-7.29697e-07 77.5599L-8.06508e-07 75.817L0.999999 75.817ZM0.999999 72.3312L0.999999 74.0741L-8.83318e-07 74.0741L-9.60128e-07 72.3312L0.999999 72.3312ZM0.999999 68.8453L0.999999 70.5883L-1.03694e-06 70.5883L-1.11375e-06 68.8453L0.999999 68.8453ZM0.999999 65.3595L0.999999 67.1024L-1.19056e-06 67.1024L-1.26737e-06 65.3595L0.999999 65.3595ZM0.999999 61.8737L0.999999 63.6166L-1.34418e-06 63.6166L-1.42099e-06 61.8737L0.999999 61.8737ZM0.999998 58.3878L0.999999 60.1307L-1.4978e-06 60.1307L-1.57461e-06 58.3878L0.999998 58.3878ZM0.999998 54.902L0.999998 56.6449L-1.65142e-06 56.6449L-1.72823e-06 54.902L0.999998 54.902ZM0.999998 51.4161L0.999998 53.1591L-1.80504e-06 53.1591L-1.88185e-06 51.4161L0.999998 51.4161ZM0.999998 47.9303L0.999998 49.6732L-1.95866e-06 49.6732L-2.03547e-06 47.9303L0.999998 47.9303ZM0.999998 44.4445L0.999998 46.1874L-2.11228e-06 46.1874L-2.18909e-06 44.4445L0.999998 44.4445ZM0.999998 40.9586L0.999998 42.7015L-2.2659e-06 42.7015L-2.34271e-06 40.9586L0.999998 40.9586ZM0.999998 37.4728L0.999998 39.2157L-2.41952e-06 39.2157L-2.49633e-06 37.4728L0.999998 37.4728ZM0.999997 33.9869L0.999997 35.7299L-2.57314e-06 35.7299L-2.64995e-06 33.9869L0.999997 33.9869ZM0.999997 30.5011L0.999997 32.244L-2.72676e-06 32.244L-2.80357e-06 30.5011L0.999997 30.5011ZM0.999997 27.0153L0.999997 28.7582L-2.88038e-06 28.7582L-2.95719e-06 27.0153L0.999997 27.0153ZM0.999997 23.5294L0.999997 25.2723L-3.034e-06 25.2723L-3.11081e-06 23.5294L0.999997 23.5294ZM0.999997 20.0436L0.999997 21.7865L-3.18763e-06 21.7865L-3.26444e-06 20.0436L0.999997 20.0436ZM0.999997 16.5577L0.999997 18.3007L-3.34125e-06 18.3007L-3.41806e-06 16.5577L0.999997 16.5577ZM0.999996 13.0719L0.999997 14.8148L-3.49487e-06 14.8148L-3.57168e-06 13.0719L0.999996 13.0719ZM0.999996 9.58605L0.999996 11.329L-3.64849e-06 11.329L-3.7253e-06 9.58605L0.999996 9.58605ZM0.999996 6.10021L0.999996 7.84313L-3.80211e-06 7.84313L-3.87892e-06 6.10021L0.999996 6.10021ZM0.999996 2.61437L0.999996 4.35729L-3.95573e-06 4.35729L-4.03254e-06 2.61437L0.999996 2.61437ZM0.999996 -2.29315e-05L0.999996 0.871452L-4.10935e-06 0.871452L-4.14775e-06 -2.28882e-05L0.999996 -2.29315e-05Z" fill="black"/>
</svg>
