<svg width="22" height="184" viewBox="0 0 22 184" fill="none" xmlns="http://www.w3.org/2000/svg">
<path fill-rule="evenodd" clip-rule="evenodd" d="M15.3431 0.929124L21.7071 7.29308C22.0976 7.68361 22.0976 8.31677 21.7071 8.7073L15.3431 15.0713C14.9526 15.4618 14.3195 15.4618 13.9289 15.0713C13.5384 14.6807 13.5384 14.0476 13.9289 13.657L18.5858 9.00019H1V7.00019H18.5858L13.9289 2.34334C13.5384 1.95281 13.5384 1.31965 13.9289 0.929124C14.3195 0.538599 14.9526 0.538599 15.3431 0.929124Z" fill="#B0C4D4"/>
<path fill-rule="evenodd" clip-rule="evenodd" d="M0 56H16.5556V58H2V105H18.5858L13.9289 100.343C13.5384 99.9526 13.5384 99.3195 13.9289 98.9289C14.3195 98.5384 14.9526 98.5384 15.3431 98.9289L21.7071 105.293C22.0976 105.683 22.0976 106.317 21.7071 106.707L15.3431 113.071C14.9526 113.462 14.3195 113.462 13.9289 113.071C13.5384 112.681 13.5384 112.047 13.9289 111.657L18.5858 107H0V56Z" fill="#B0C4D4"/>
<path fill-rule="evenodd" clip-rule="evenodd" d="M0 7H19.8889V9H2V56H18.5858L13.9289 51.3431C13.5384 50.9526 13.5384 50.3195 13.9289 49.9289C14.3195 49.5384 14.9526 49.5384 15.3431 49.9289L21.7071 56.2929C22.0976 56.6834 22.0976 57.3166 21.7071 57.7071L15.3431 64.0711C14.9526 64.4616 14.3195 64.4616 13.9289 64.0711C13.5384 63.6805 13.5384 63.0474 13.9289 62.6569L18.5858 58H0V7Z" fill="#B0C4D4"/>
<path fill-rule="evenodd" clip-rule="evenodd" d="M0 105H16.5556V107H2V175H18.5858L13.9289 170.343C13.5384 169.953 13.5384 169.319 13.9289 168.929C14.3195 168.538 14.9526 168.538 15.3431 168.929L21.7071 175.293C22.0976 175.683 22.0976 176.317 21.7071 176.707L15.3431 183.071C14.9526 183.462 14.3195 183.462 13.9289 183.071C13.5384 182.681 13.5384 182.047 13.9289 181.657L18.5858 177H0V105Z" fill="#B0C4D4"/>
</svg>
