<svg width="252" height="420" viewBox="0 0 252 420" fill="none" xmlns="http://www.w3.org/2000/svg">
                  <path d="M105.199 0.292893C104.809 -0.0976311 104.176 -0.0976311 103.785 0.292893L97.4211 6.65685C97.0306 7.04738 97.0306 7.68054 97.4211 8.07107C97.8116 8.46159 98.4448 8.46159 98.8353 8.07107L104.492 2.41421L110.149 8.07107C110.54 8.46159 111.173 8.46159 111.563 8.07107C111.954 7.68054 111.954 7.04738 111.563 6.65685L105.199 0.292893ZM103.492 1V24H105.492V1H103.492ZM5.49219 420H251.492V418H5.49219V420ZM100.492 27H5.49219V29H100.492V27ZM0.492188 32V415H2.49219V32H0.492188ZM5.49219 27C2.73076 27 0.492188 29.2386 0.492188 32H2.49219C2.49219 30.3431 3.83533 29 5.49219 29V27ZM5.49219 418C3.83533 418 2.49219 416.657 2.49219 415H0.492188C0.492188 417.761 2.73076 420 5.49219 420V418ZM103.492 24C103.492 25.6569 102.149 27 100.492 27V29C103.254 29 105.492 26.7614 105.492 24H103.492Z" fill="#03E2B2"/>
                </svg>  