<svg  width="60" height="281" viewBox="0 0 60 281" fill="none" xmlns="http://www.w3.org/2000/svg">
    <path d="M33.4918 8H32.4918V7H33.4918V8ZM59.2071 7.29289C59.5976 7.68342 59.5976 8.31658 59.2071 8.70711L52.8431 15.0711C52.4526 15.4616 51.8195 15.4616 51.4289 15.0711C51.0384 14.6805 51.0384 14.0474 51.4289 13.6569L57.0858 8L51.4289 2.34315C51.0384 1.95262 51.0384 1.31946 51.4289 0.928932C51.8195 0.538408 52.4526 0.538408 52.8431 0.928932L59.2071 7.29289ZM1.79289 133.707C1.40237 133.317 1.40237 132.683 1.79289 132.293L8.15685 125.929C8.54738 125.538 9.18054 125.538 9.57107 125.929C9.96159 126.319 9.96159 126.953 9.57107 127.343L3.91421 133L9.57107 138.657C9.96159 139.047 9.96159 139.681 9.57107 140.071C9.18054 140.462 8.54738 140.462 8.15685 140.071L1.79289 133.707ZM33.4918 280H34.4918V281H33.4918V280ZM33.4918 7H58.5V9H33.4918V7ZM33.4918 134H2.5V132H33.4918V134ZM32.4918 133V99H34.4918V133H32.4918ZM32.4918 99V8H34.4918V99H32.4918ZM34.4918 133V280H32.4918V133H34.4918ZM33.4918 281H0V279H33.4918V281Z" fill="#B0C4D4"/>
</svg> 