<svg width="635" height="161" viewBox="0 0 635 161" fill="none" xmlns="http://www.w3.org/2000/svg">
    <path d="M425.829 57.8623L426.021 59.1748L426.301 57.9922L428.27 51.0469H429.377L431.298 57.9922L431.571 59.1953L431.783 57.8555L433.328 51.0469H434.647L432.234 61H431.038L428.987 53.7471L428.83 52.9883L428.673 53.7471L426.547 61H425.351L422.944 51.0469H424.257L425.829 57.8623ZM440.246 61C440.173 60.8542 440.114 60.5944 440.068 60.2207C439.48 60.8314 438.779 61.1367 437.963 61.1367C437.234 61.1367 436.634 60.9316 436.165 60.5215C435.7 60.1068 435.468 59.5827 435.468 58.9492C435.468 58.179 435.759 57.582 436.343 57.1582C436.931 56.7298 437.756 56.5156 438.817 56.5156H440.048V55.9346C440.048 55.4925 439.916 55.1416 439.651 54.8818C439.387 54.6175 438.997 54.4854 438.482 54.4854C438.031 54.4854 437.653 54.5993 437.348 54.8271C437.042 55.055 436.89 55.3307 436.89 55.6543H435.618C435.618 55.2852 435.748 54.9297 436.008 54.5879C436.272 54.2415 436.628 53.9681 437.074 53.7676C437.525 53.5671 438.02 53.4668 438.558 53.4668C439.41 53.4668 440.077 53.681 440.561 54.1094C441.044 54.5332 441.294 55.1188 441.312 55.8662V59.2705C441.312 59.9495 441.399 60.4896 441.572 60.8906V61H440.246ZM438.147 60.0361C438.544 60.0361 438.92 59.9336 439.275 59.7285C439.631 59.5234 439.888 59.2568 440.048 58.9287V57.4111H439.057C437.507 57.4111 436.732 57.8646 436.732 58.7715C436.732 59.168 436.865 59.4779 437.129 59.7012C437.393 59.9245 437.733 60.0361 438.147 60.0361ZM444.669 61H443.404V50.5H444.669V61ZM448.073 61H446.809V50.5H448.073V61ZM453.173 61.1367C452.17 61.1367 451.354 60.8086 450.726 60.1523C450.097 59.4915 449.782 58.6097 449.782 57.5068V57.2744C449.782 56.5407 449.921 55.8867 450.199 55.3125C450.482 54.7337 450.874 54.2826 451.375 53.959C451.881 53.6309 452.428 53.4668 453.016 53.4668C453.977 53.4668 454.725 53.7835 455.258 54.417C455.791 55.0505 456.058 55.9574 456.058 57.1377V57.6641H451.047C451.065 58.3932 451.277 58.9834 451.683 59.4346C452.093 59.8812 452.612 60.1045 453.241 60.1045C453.688 60.1045 454.066 60.0133 454.376 59.8311C454.686 59.6488 454.957 59.4072 455.189 59.1064L455.962 59.708C455.342 60.6605 454.412 61.1367 453.173 61.1367ZM453.016 54.5059C452.505 54.5059 452.077 54.6927 451.73 55.0664C451.384 55.4355 451.17 55.9551 451.088 56.625H454.793V56.5293C454.757 55.8867 454.583 55.39 454.273 55.0391C453.964 54.6836 453.544 54.5059 453.016 54.5059ZM459.243 51.8125V53.6035H460.624V54.5811H459.243V59.168C459.243 59.4642 459.305 59.6875 459.428 59.8379C459.551 59.9837 459.76 60.0566 460.057 60.0566C460.202 60.0566 460.403 60.0293 460.658 59.9746V61C460.326 61.0911 460.002 61.1367 459.688 61.1367C459.122 61.1367 458.696 60.9658 458.409 60.624C458.122 60.2822 457.979 59.7969 457.979 59.168V54.5811H456.632V53.6035H457.979V51.8125H459.243ZM468.547 60.1045C468.998 60.1045 469.392 59.9678 469.729 59.6943C470.067 59.4209 470.254 59.0791 470.29 58.6689H471.486C471.464 59.0928 471.318 59.4961 471.049 59.8789C470.78 60.2617 470.42 60.5671 469.969 60.7949C469.522 61.0228 469.048 61.1367 468.547 61.1367C467.54 61.1367 466.738 60.8018 466.141 60.1318C465.548 59.4574 465.252 58.5368 465.252 57.3701V57.1582C465.252 56.4382 465.384 55.7979 465.648 55.2373C465.913 54.6768 466.291 54.2415 466.783 53.9316C467.28 53.6217 467.866 53.4668 468.54 53.4668C469.369 53.4668 470.058 53.7152 470.604 54.2119C471.156 54.7087 471.45 55.3535 471.486 56.1465H470.29C470.254 55.668 470.071 55.276 469.743 54.9707C469.42 54.6608 469.019 54.5059 468.54 54.5059C467.897 54.5059 467.398 54.7383 467.043 55.2031C466.692 55.6634 466.517 56.3311 466.517 57.2061V57.4453C466.517 58.2975 466.692 58.9538 467.043 59.4141C467.394 59.8743 467.895 60.1045 468.547 60.1045ZM474.282 61H473.018V50.5H474.282V61ZM475.978 57.2334C475.978 56.5088 476.119 55.8571 476.401 55.2783C476.688 54.6995 477.085 54.2529 477.591 53.9385C478.101 53.624 478.682 53.4668 479.334 53.4668C480.341 53.4668 481.155 53.8154 481.774 54.5127C482.399 55.21 482.711 56.1374 482.711 57.2949V57.3838C482.711 58.1038 482.572 58.751 482.294 59.3252C482.021 59.8949 481.626 60.3392 481.111 60.6582C480.601 60.9772 480.013 61.1367 479.348 61.1367C478.345 61.1367 477.532 60.7881 476.907 60.0908C476.287 59.3936 475.978 58.4707 475.978 57.3223V57.2334ZM477.249 57.3838C477.249 58.2041 477.438 58.8626 477.816 59.3594C478.199 59.8561 478.71 60.1045 479.348 60.1045C479.99 60.1045 480.501 59.8538 480.879 59.3525C481.257 58.8467 481.446 58.1403 481.446 57.2334C481.446 56.4222 481.253 55.766 480.865 55.2646C480.482 54.7588 479.972 54.5059 479.334 54.5059C478.71 54.5059 478.206 54.7542 477.823 55.251C477.44 55.7477 477.249 56.4587 477.249 57.3838ZM488.863 60.2686C488.371 60.8473 487.649 61.1367 486.696 61.1367C485.908 61.1367 485.306 60.9089 484.892 60.4531C484.481 59.9928 484.274 59.3138 484.27 58.416V53.6035H485.534V58.3818C485.534 59.5029 485.99 60.0635 486.901 60.0635C487.868 60.0635 488.51 59.7035 488.829 58.9834V53.6035H490.094V61H488.891L488.863 60.2686ZM491.714 57.2402C491.714 56.1055 491.983 55.194 492.521 54.5059C493.058 53.8132 493.762 53.4668 494.633 53.4668C495.499 53.4668 496.185 53.763 496.69 54.3555V50.5H497.955V61H496.793L496.731 60.207C496.226 60.8268 495.521 61.1367 494.619 61.1367C493.762 61.1367 493.063 60.7858 492.521 60.084C491.983 59.3822 491.714 58.4661 491.714 57.3359V57.2402ZM492.979 57.3838C492.979 58.2223 493.152 58.8786 493.498 59.3525C493.844 59.8265 494.323 60.0635 494.934 60.0635C495.736 60.0635 496.321 59.7035 496.69 58.9834V55.5859C496.312 54.8887 495.731 54.54 494.947 54.54C494.327 54.54 493.844 54.7793 493.498 55.2578C493.152 55.7363 492.979 56.445 492.979 57.3838ZM507.703 59.0381C507.703 58.6963 507.573 58.432 507.313 58.2451C507.058 58.0537 506.609 57.8896 505.967 57.7529C505.329 57.6162 504.821 57.4521 504.442 57.2607C504.069 57.0693 503.791 56.8415 503.608 56.5771C503.431 56.3128 503.342 55.9984 503.342 55.6338C503.342 55.0277 503.597 54.515 504.107 54.0957C504.622 53.6764 505.279 53.4668 506.076 53.4668C506.915 53.4668 507.594 53.6833 508.113 54.1162C508.637 54.5492 508.899 55.1029 508.899 55.7773H507.628C507.628 55.431 507.48 55.1325 507.184 54.8818C506.892 54.6312 506.523 54.5059 506.076 54.5059C505.616 54.5059 505.256 54.6061 504.996 54.8066C504.736 55.0072 504.606 55.2692 504.606 55.5928C504.606 55.8981 504.727 56.1283 504.969 56.2832C505.21 56.4382 505.646 56.5863 506.274 56.7275C506.908 56.8688 507.421 57.0374 507.812 57.2334C508.204 57.4294 508.494 57.6663 508.681 57.9443C508.872 58.2178 508.968 58.5527 508.968 58.9492C508.968 59.61 508.703 60.141 508.175 60.542C507.646 60.9385 506.96 61.1367 506.117 61.1367C505.525 61.1367 505.001 61.0319 504.545 60.8223C504.089 60.6126 503.731 60.321 503.472 59.9473C503.216 59.569 503.089 59.1611 503.089 58.7236H504.354C504.376 59.1475 504.545 59.4847 504.859 59.7354C505.178 59.9814 505.598 60.1045 506.117 60.1045C506.596 60.1045 506.979 60.0088 507.266 59.8174C507.557 59.6214 507.703 59.3617 507.703 59.0381ZM512.331 51.8125V53.6035H513.712V54.5811H512.331V59.168C512.331 59.4642 512.393 59.6875 512.516 59.8379C512.639 59.9837 512.848 60.0566 513.145 60.0566C513.29 60.0566 513.491 60.0293 513.746 59.9746V61C513.413 61.0911 513.09 61.1367 512.775 61.1367C512.21 61.1367 511.784 60.9658 511.497 60.624C511.21 60.2822 511.066 59.7969 511.066 59.168V54.5811H509.72V53.6035H511.066V51.8125H512.331ZM514.724 57.2334C514.724 56.5088 514.865 55.8571 515.147 55.2783C515.435 54.6995 515.831 54.2529 516.337 53.9385C516.847 53.624 517.428 53.4668 518.08 53.4668C519.087 53.4668 519.901 53.8154 520.521 54.5127C521.145 55.21 521.457 56.1374 521.457 57.2949V57.3838C521.457 58.1038 521.318 58.751 521.04 59.3252C520.767 59.8949 520.372 60.3392 519.857 60.6582C519.347 60.9772 518.759 61.1367 518.094 61.1367C517.091 61.1367 516.278 60.7881 515.653 60.0908C515.034 59.3936 514.724 58.4707 514.724 57.3223V57.2334ZM515.995 57.3838C515.995 58.2041 516.184 58.8626 516.562 59.3594C516.945 59.8561 517.456 60.1045 518.094 60.1045C518.736 60.1045 519.247 59.8538 519.625 59.3525C520.003 58.8467 520.192 58.1403 520.192 57.2334C520.192 56.4222 519.999 55.766 519.611 55.2646C519.229 54.7588 518.718 54.5059 518.08 54.5059C517.456 54.5059 516.952 54.7542 516.569 55.251C516.187 55.7477 515.995 56.4587 515.995 57.3838ZM526.618 54.7383C526.427 54.7064 526.219 54.6904 525.996 54.6904C525.167 54.6904 524.604 55.0436 524.308 55.75V61H523.043V53.6035H524.273L524.294 54.458C524.709 53.7972 525.297 53.4668 526.058 53.4668C526.304 53.4668 526.491 53.4987 526.618 53.5625V54.7383ZM532.08 61C532.007 60.8542 531.948 60.5944 531.902 60.2207C531.314 60.8314 530.613 61.1367 529.797 61.1367C529.068 61.1367 528.468 60.9316 527.999 60.5215C527.534 60.1068 527.302 59.5827 527.302 58.9492C527.302 58.179 527.593 57.582 528.177 57.1582C528.765 56.7298 529.59 56.5156 530.651 56.5156H531.882V55.9346C531.882 55.4925 531.75 55.1416 531.485 54.8818C531.221 54.6175 530.831 54.4854 530.316 54.4854C529.865 54.4854 529.487 54.5993 529.182 54.8271C528.876 55.055 528.724 55.3307 528.724 55.6543H527.452C527.452 55.2852 527.582 54.9297 527.842 54.5879C528.106 54.2415 528.462 53.9681 528.908 53.7676C529.359 53.5671 529.854 53.4668 530.392 53.4668C531.244 53.4668 531.911 53.681 532.395 54.1094C532.878 54.5332 533.128 55.1188 533.146 55.8662V59.2705C533.146 59.9495 533.233 60.4896 533.406 60.8906V61H532.08ZM529.981 60.0361C530.378 60.0361 530.754 59.9336 531.109 59.7285C531.465 59.5234 531.722 59.2568 531.882 58.9287V57.4111H530.891C529.341 57.4111 528.566 57.8646 528.566 58.7715C528.566 59.168 528.699 59.4779 528.963 59.7012C529.227 59.9245 529.567 60.0361 529.981 60.0361ZM534.828 57.2402C534.828 56.0872 535.095 55.1712 535.628 54.4922C536.161 53.8086 536.868 53.4668 537.747 53.4668C538.649 53.4668 539.354 53.7858 539.859 54.4238L539.921 53.6035H541.076V60.8223C541.076 61.7793 540.791 62.5335 540.222 63.085C539.657 63.6364 538.896 63.9121 537.938 63.9121C537.405 63.9121 536.883 63.7982 536.373 63.5703C535.863 63.3424 535.473 63.0303 535.204 62.6338L535.86 61.875C536.403 62.5449 537.066 62.8799 537.85 62.8799C538.465 62.8799 538.943 62.7067 539.285 62.3604C539.632 62.014 539.805 61.5264 539.805 60.8975V60.2617C539.299 60.8451 538.608 61.1367 537.733 61.1367C536.868 61.1367 536.166 60.7881 535.628 60.0908C535.095 59.3936 534.828 58.4434 534.828 57.2402ZM536.1 57.3838C536.1 58.2178 536.271 58.874 536.612 59.3525C536.954 59.8265 537.433 60.0635 538.048 60.0635C538.845 60.0635 539.431 59.7012 539.805 58.9766V55.5996C539.417 54.8932 538.836 54.54 538.062 54.54C537.446 54.54 536.965 54.7793 536.619 55.2578C536.273 55.7363 536.1 56.445 536.1 57.3838ZM546.06 61.1367C545.057 61.1367 544.241 60.8086 543.612 60.1523C542.983 59.4915 542.669 58.6097 542.669 57.5068V57.2744C542.669 56.5407 542.808 55.8867 543.086 55.3125C543.368 54.7337 543.76 54.2826 544.262 53.959C544.768 53.6309 545.314 53.4668 545.902 53.4668C546.864 53.4668 547.611 53.7835 548.145 54.417C548.678 55.0505 548.944 55.9574 548.944 57.1377V57.6641H543.934C543.952 58.3932 544.164 58.9834 544.569 59.4346C544.979 59.8812 545.499 60.1045 546.128 60.1045C546.575 60.1045 546.953 60.0133 547.263 59.8311C547.573 59.6488 547.844 59.4072 548.076 59.1064L548.849 59.708C548.229 60.6605 547.299 61.1367 546.06 61.1367ZM545.902 54.5059C545.392 54.5059 544.964 54.6927 544.617 55.0664C544.271 55.4355 544.057 55.9551 543.975 56.625H547.68V56.5293C547.643 55.8867 547.47 55.39 547.16 55.0391C546.85 54.6836 546.431 54.5059 545.902 54.5059Z" fill="#637786"/>
    <path d="M1.49219 78.3459H0.492188V79.3459H1.49219V78.3459ZM244.199 47.8643C243.809 47.4738 243.176 47.4738 242.785 47.8643L236.421 54.2283C236.031 54.6188 236.031 55.252 236.421 55.6425C236.812 56.033 237.445 56.033 237.835 55.6425L243.492 49.9856L249.149 55.6425C249.54 56.033 250.173 56.033 250.563 55.6425C250.954 55.252 250.954 54.6188 250.563 54.2283L244.199 47.8643ZM607.492 8V7H606.492V8H607.492ZM634.199 8.70711C634.59 8.31658 634.59 7.68342 634.199 7.29289L627.835 0.928932C627.445 0.538408 626.812 0.538408 626.421 0.928932C626.031 1.31946 626.031 1.95262 626.421 2.34315L632.078 8L626.421 13.6569C626.031 14.0474 626.031 14.6805 626.421 15.0711C626.812 15.4616 627.445 15.4616 627.835 15.0711L634.199 8.70711ZM607.492 153H606.492V154H607.492V153ZM634.199 153.707C634.59 153.317 634.59 152.683 634.199 152.293L627.835 145.929C627.445 145.538 626.812 145.538 626.421 145.929C626.031 146.319 626.031 146.953 626.421 147.343L632.078 153L626.421 158.657C626.031 159.047 626.031 159.681 626.421 160.071C626.812 160.462 627.445 160.462 627.835 160.071L634.199 153.707ZM0.492188 44V78.3459H2.49219V44H0.492188ZM1.49219 79.3459H243.492V77.3459H1.49219V79.3459ZM243.492 79.3459H607.492V77.3459H243.492V79.3459ZM244.492 78.3459V48.5714H242.492V78.3459H244.492ZM608.492 78.3459V8H606.492V78.3459H608.492ZM607.492 9H633.492V7H607.492V9ZM606.492 78.3459V153H608.492V78.3459H606.492ZM607.492 154H633.492V152H607.492V154Z" fill="#B0C4D4"/>
</svg>  