<svg width="339" height="415" viewBox="0 0 339 415" fill="none" xmlns="http://www.w3.org/2000/svg">
<path fill-rule="evenodd" clip-rule="evenodd" d="M31 194.586L31 51L33 51L33 194.586L37.6569 189.929C38.0474 189.538 38.6806 189.538 39.0711 189.929C39.4616 190.319 39.4616 190.953 39.0711 191.343L32.7071 197.707C32.3166 198.098 31.6834 198.098 31.2929 197.707L24.9289 191.343C24.5384 190.953 24.5384 190.319 24.9289 189.929C25.3195 189.538 25.9526 189.538 26.3432 189.929L31 194.586Z" fill="#03E2B2"/>
<path d="M0 3H65V68H0V3Z" fill="#9DAFBD"/>
<path fill-rule="evenodd" clip-rule="evenodd" d="M63 5H2V66H63V5ZM0 3V68H65V3H0Z" fill="#9DAFBD" fill-opacity="0.2"/>
<path d="M0 210H65V275H0V210Z" fill="#9DAFBD"/>
<path fill-rule="evenodd" clip-rule="evenodd" d="M63 212H2V273H63V212ZM0 210V275H65V210H0Z" fill="#9DAFBD" fill-opacity="0.2"/>
<path d="M0 280H65V345H0V280Z" fill="#9DAFBD"/>
<path fill-rule="evenodd" clip-rule="evenodd" d="M63 282H2V343H63V282ZM0 280V345H65V280H0Z" fill="#9DAFBD" fill-opacity="0.2"/>
<path d="M0 350H65V415H0V350Z" fill="#9DAFBD"/>
<path fill-rule="evenodd" clip-rule="evenodd" d="M63 352H2V413H63V352ZM0 350V415H65V350H0Z" fill="#9DAFBD" fill-opacity="0.2"/>
<path d="M70 280H135V415H70V280Z" fill="#9DAFBD"/>
<path fill-rule="evenodd" clip-rule="evenodd" d="M133 282H72V413H133V282ZM70 280V415H135V280H70Z" fill="#9DAFBD" fill-opacity="0.2"/>
<path d="M204 280H269V415H204V280Z" fill="#9DAFBD"/>
<path fill-rule="evenodd" clip-rule="evenodd" d="M267 282H206V413H267V282ZM204 280V415H269V280H204Z" fill="#9DAFBD" fill-opacity="0.2"/>
<path d="M274 0H339V205H274V0Z" fill="#9DAFBD"/>
<path fill-rule="evenodd" clip-rule="evenodd" d="M337 2H276V203H337V2ZM274 0V205H339V0H274Z" fill="#9DAFBD" fill-opacity="0.2"/>
<path d="M274 210H339V415H274V210Z" fill="#9DAFBD"/>
<path fill-rule="evenodd" clip-rule="evenodd" d="M337 212H276V413H337V212ZM274 210V415H339V210H274Z" fill="#9DAFBD" fill-opacity="0.2"/>
<path fill-rule="evenodd" clip-rule="evenodd" d="M27.7054 40.8107V42.4032H37.0412V40.5533H30.5948L33.9897 36.92C34.4401 36.431 34.8263 35.9688 35.1481 35.5334C35.4621 35.1086 35.7149 34.7094 35.9064 34.3357C36.3006 33.5729 36.4977 32.8449 36.4977 32.152C36.4977 30.9568 36.1067 30.0223 35.3247 29.3484C35.0129 29.0749 34.6547 28.8563 34.2504 28.6928C33.6491 28.4496 32.9455 28.328 32.1397 28.328C32.1333 28.328 32.127 28.328 32.1206 28.3281C31.1939 28.3306 30.3738 28.5181 29.6603 28.8907C29.4734 28.9891 29.2977 29.0981 29.1332 29.2175C28.6708 29.5532 28.2966 29.9719 28.0106 30.4736C27.9682 30.5485 27.9282 30.6244 27.8906 30.7013C27.5891 31.3173 27.4384 32.0011 27.4384 32.7528H29.7557C29.7557 31.9581 29.9623 31.3319 30.3755 30.8742C30.3946 30.853 30.4141 30.8323 30.4339 30.8122C30.4834 30.7617 30.5353 30.7143 30.5893 30.67C30.5913 30.6684 30.5932 30.6668 30.5951 30.6652C30.9864 30.3468 31.4949 30.1876 32.1206 30.1876C32.127 30.1876 32.1333 30.1876 32.1397 30.1876C32.6091 30.1907 33.0055 30.3079 33.3287 30.5393C33.4326 30.6137 33.529 30.6999 33.6178 30.7979C33.9929 31.2047 34.1804 31.7388 34.1804 32.3999C34.1804 32.9022 34.0374 33.4044 33.7513 33.9066C33.6751 34.0417 33.5846 34.1859 33.4796 34.3393C33.2373 34.6936 32.9183 35.0969 32.5227 35.5492C32.5195 35.5529 32.5163 35.5565 32.5132 35.5601C32.454 35.6277 32.393 35.6964 32.3304 35.7662L27.7054 40.8107Z" fill="#EFF4F6"/>
<path fill-rule="evenodd" clip-rule="evenodd" d="M32.5 50.9485C41.032 50.9485 47.9485 44.032 47.9485 35.5C47.9485 26.968 41.032 20.0515 32.5 20.0515C23.968 20.0515 17.0515 26.968 17.0515 35.5C17.0515 44.032 23.968 50.9485 32.5 50.9485ZM32.5 53C42.165 53 50 45.165 50 35.5C50 25.835 42.165 18 32.5 18C22.835 18 15 25.835 15 35.5C15 45.165 22.835 53 32.5 53Z" fill="#EFF4F6"/>
</svg>
