<svg width="932" height="697" viewBox="0 0 932 697" fill="none" xmlns="http://www.w3.org/2000/svg">
<path d="M8.70711 0.292893C8.31658 -0.0976311 7.68342 -0.0976311 7.29289 0.292893L0.928932 6.65685C0.538408 7.04738 0.538408 7.68054 0.928932 8.07107C1.31946 8.46159 1.95262 8.46159 2.34315 8.07107L8 2.41421L13.6569 8.07107C14.0474 8.46159 14.6805 8.46159 15.0711 8.07107C15.4616 7.68054 15.4616 7.04738 15.0711 6.65685L8.70711 0.292893ZM8 689H7V690H8V689ZM931.707 689.707C932.098 689.317 932.098 688.683 931.707 688.293L925.343 681.929C924.953 681.538 924.319 681.538 923.929 681.929C923.538 682.319 923.538 682.953 923.929 683.343L929.586 689L923.929 694.657C923.538 695.047 923.538 695.68 923.929 696.071C924.319 696.462 924.953 696.462 925.343 696.071L931.707 689.707ZM7 1V689H9V1H7ZM8 690H931V688H8V690Z" fill="#B0C4D4"/>
</svg>
