<svg width="82" height="16" viewBox="0 0 82 16" fill="none" xmlns="http://www.w3.org/2000/svg">
<path d="M0.933762 7.34758C0.543238 7.73811 0.543238 8.37127 0.933762 8.76179L7.29772 15.1258C7.68825 15.5163 8.32141 15.5163 8.71194 15.1258C9.10246 14.7352 9.10246 14.1021 8.71194 13.7115L3.05508 8.05469L8.71194 2.39783C9.10246 2.00731 9.10246 1.37414 8.71194 0.983619C8.32141 0.593095 7.68825 0.593095 7.29772 0.983619L0.933762 7.34758ZM81.348 8.76179C81.7385 8.37126 81.7385 7.7381 81.348 7.34757L74.984 0.983613C74.5935 0.593089 73.9603 0.593089 73.5698 0.983613C73.1793 1.37414 73.1793 2.0073 73.5698 2.39783L79.2267 8.05468L73.5698 13.7115C73.1793 14.1021 73.1793 14.7352 73.5698 15.1257C73.9603 15.5163 74.5935 15.5163 74.984 15.1257L81.348 8.76179ZM1.64087 9.05469L80.6409 9.05468L80.6409 7.05468L1.64087 7.05469L1.64087 9.05469Z" fill="#B0C4D4"/>
</svg>
