<svg width="38" height="35" viewBox="0 0 38 35" fill="none" xmlns="http://www.w3.org/2000/svg">
<path d="M20.479 22.6213L16.161 18.3543L16.212 18.3033C19.17 15.0053 21.278 11.2143 22.519 7.20234H27.5V3.80234H15.6V0.402344H12.2V3.80234H0.300049V7.18534H19.289C18.15 10.4663 16.348 13.5773 13.9 16.2973C12.319 14.5463 11.01 12.6253 9.97305 10.6023H6.57305C7.81405 13.3733 9.51405 15.9913 11.639 18.3543L2.98605 26.8883L5.40005 29.3023L13.9 20.8023L19.187 26.0893L20.479 22.6213ZM30.05 14.0023H26.65L19 34.4023H22.4L24.304 29.3023H32.3791L34.3 34.4023H37.7001L30.05 14.0023ZM25.5961 25.9023L28.35 18.5413L31.1041 25.9023H25.5961Z" fill="#E4ECEF"/>
</svg>
