<svg width="20" height="973" viewBox="0 0 20 973" fill="none" xmlns="http://www.w3.org/2000/svg">
<path opacity="0.3" fill-rule="evenodd" clip-rule="evenodd" d="M18 750V627H20V750H18Z" fill="#B0C4D4"/>
<path opacity="0.3" fill-rule="evenodd" clip-rule="evenodd" d="M18 2H0V0H20V46.7692H0V44.7692H18V2Z" fill="#B0C4D4"/>
<path opacity="0.3" fill-rule="evenodd" clip-rule="evenodd" d="M18 838.5H0V836.5H20V883.25H0V881.25H18V838.5Z" fill="#B0C4D4"/>
<path opacity="0.3" fill-rule="evenodd" clip-rule="evenodd" d="M18 360.154H0V358.154H20V404.924H0V402.924H18V360.154Z" fill="#B0C4D4"/>
<path opacity="0.3" fill-rule="evenodd" clip-rule="evenodd" d="M18 449.693H0V447.693H20V494.463H0V492.463H18V449.693Z" fill="#B0C4D4"/>
<path opacity="0.3" fill-rule="evenodd" clip-rule="evenodd" d="M18 749H0V747H20V793.75H0V791.75H18V749Z" fill="#B0C4D4"/>
<path opacity="0.3" fill-rule="evenodd" clip-rule="evenodd" d="M18 181.076H0V179.076H20V225.845H0V223.845H18V181.076Z" fill="#B0C4D4"/>
<path opacity="0.3" fill-rule="evenodd" clip-rule="evenodd" d="M18 494.461H0V492.461H20V539.23H0V537.23H18V494.461Z" fill="#B0C4D4"/>
<path opacity="0.3" fill-rule="evenodd" clip-rule="evenodd" d="M18 270.615H0V268.615H20V315.384H0V313.384H18V270.615Z" fill="#B0C4D4"/>
<path opacity="0.3" fill-rule="evenodd" clip-rule="evenodd" d="M18 539.23H0V537.23H20V584H0V582H18V539.23Z" fill="#B0C4D4"/>
<path opacity="0.3" fill-rule="evenodd" clip-rule="evenodd" d="M18 883.25H0V881.25H20V928H0V926H18V883.25Z" fill="#B0C4D4"/>
<path opacity="0.3" fill-rule="evenodd" clip-rule="evenodd" d="M18 225.846H0V223.846H20V270.615H0V268.615H18V225.846Z" fill="#B0C4D4"/>
<path opacity="0.3" fill-rule="evenodd" clip-rule="evenodd" d="M18 928.25H0V926.25H20V973H0V971H18V928.25Z" fill="#B0C4D4"/>
<path opacity="0.3" fill-rule="evenodd" clip-rule="evenodd" d="M18 793.75H0V791.75H20V838.5H0V836.5H18V793.75Z" fill="#B0C4D4"/>
<path opacity="0.3" fill-rule="evenodd" clip-rule="evenodd" d="M18 315.385H0V313.385H20V360.154H0V358.154H18V315.385Z" fill="#B0C4D4"/>
<path opacity="0.3" fill-rule="evenodd" clip-rule="evenodd" d="M18 46.7695H0V44.7695H20V91.5388H0V89.5388H18V46.7695Z" fill="#B0C4D4"/>
<path opacity="0.3" fill-rule="evenodd" clip-rule="evenodd" d="M18 584.23H0V582.23H20V629H0V627H18V584.23Z" fill="#B0C4D4"/>
<path opacity="0.3" fill-rule="evenodd" clip-rule="evenodd" d="M18 136.309H0V134.309H20V181.078H0V179.078H18V136.309Z" fill="#B0C4D4"/>
<path opacity="0.3" fill-rule="evenodd" clip-rule="evenodd" d="M18 404.924H0V402.924H20V449.693H0V447.693H18V404.924Z" fill="#B0C4D4"/>
<path opacity="0.3" fill-rule="evenodd" clip-rule="evenodd" d="M18 91.5391H0V89.5391H20V136.308H0V134.308H18V91.5391Z" fill="#B0C4D4"/>
</svg>
