<svg width="109" height="27" viewBox="0 0 109 27" fill="none" xmlns="http://www.w3.org/2000/svg">
<mask id="mask0" mask-type="alpha" maskUnits="userSpaceOnUse" x="0" y="0" width="109" height="27">
<rect x="0.5" y="0.0546875" width="108" height="26" fill="#C4C4C4"/>
</mask>
<g mask="url(#mask0)">
<path d="M58.9785 6.2138H54.2605V19.2993H52.3349V6.2138H47.627V4.62096H58.9785V6.2138Z" fill="white"/>
<path d="M65.37 10.0649C65.0878 10.0178 64.782 9.99429 64.4527 9.99429C63.2295 9.99429 62.3994 10.5152 61.9626 11.5569V19.2993H60.0975V8.39136H61.9122L61.9424 9.65153C62.554 8.677 63.421 8.18974 64.5434 8.18974C64.9063 8.18974 65.1819 8.23678 65.37 8.33088V10.0649Z" fill="white"/>
<path d="M73.425 19.2993C73.3175 19.0843 73.2301 18.7012 73.1629 18.1501C72.2959 19.0507 71.2609 19.501 70.0579 19.501C68.9825 19.501 68.0987 19.1985 67.4065 18.5936C66.7209 17.982 66.3782 17.2091 66.3782 16.2749C66.3782 15.1391 66.8083 14.2587 67.6686 13.6336C68.5356 13.0019 69.7521 12.686 71.318 12.686H73.1326V11.8291C73.1326 11.1772 72.9377 10.6597 72.5479 10.2766C72.1581 9.88676 71.5835 9.69185 70.824 9.69185C70.1587 9.69185 69.6008 9.85987 69.1505 10.1959C68.7002 10.532 68.4751 10.9386 68.4751 11.4158H66.6C66.6 10.8714 66.7915 10.3471 67.1746 9.84307C67.5644 9.33229 68.0886 8.92903 68.7473 8.63332C69.4126 8.3376 70.1419 8.18974 70.9349 8.18974C72.1917 8.18974 73.1763 8.50562 73.8887 9.13738C74.6012 9.76242 74.9708 10.6261 74.9977 11.7283V16.7488C74.9977 17.7502 75.1254 18.5466 75.3808 19.138V19.2993H73.425ZM70.33 17.8779C70.9148 17.8779 71.4692 17.7267 71.9935 17.4242C72.5177 17.1218 72.8974 16.7286 73.1326 16.2447V14.0067H71.6709C69.3858 14.0067 68.2432 14.6754 68.2432 16.0128C68.2432 16.5975 68.4381 17.0546 68.8279 17.3839C69.2177 17.7132 69.7184 17.8779 70.33 17.8779Z" fill="white"/>
<path d="M77.4676 13.7546C77.4676 12.0811 77.8641 10.7369 78.6572 9.7221C79.4503 8.70052 80.4886 8.18974 81.7723 8.18974C83.0493 8.18974 84.0608 8.6266 84.8068 9.50031V3.81445H86.6718V19.2993H84.958L84.8673 18.1299C84.1213 19.0439 83.0829 19.501 81.7522 19.501C80.4886 19.501 79.457 18.9835 78.6572 17.9484C77.8641 16.9134 77.4676 15.5625 77.4676 13.8958V13.7546ZM79.3327 13.9663C79.3327 15.203 79.588 16.1708 80.0988 16.8697C80.6096 17.5687 81.3153 17.9182 82.2159 17.9182C83.3988 17.9182 84.2624 17.3872 84.8068 16.3254V11.3149C84.249 10.2866 83.3921 9.7725 82.2361 9.7725C81.322 9.7725 80.6096 10.1253 80.0988 10.831C79.588 11.5367 79.3327 12.5818 79.3327 13.9663Z" fill="white"/>
<path d="M94.1018 19.501C92.6232 19.501 91.4201 19.0171 90.4927 18.0493C89.5652 17.0747 89.1014 15.7742 89.1014 14.1478V13.805C89.1014 12.723 89.3064 11.7585 89.7164 10.9117C90.1331 10.0581 90.7111 9.39277 91.4504 8.91559C92.1964 8.43169 93.0029 8.18974 93.8699 8.18974C95.288 8.18974 96.3902 8.65684 97.1766 9.59104C97.9629 10.5252 98.3561 11.8627 98.3561 13.6034V14.3797H90.9665C90.9934 15.455 91.3059 16.3254 91.904 16.9907C92.5089 17.6494 93.2751 17.9787 94.2026 17.9787C94.8612 17.9787 95.4191 17.8443 95.8761 17.5754C96.3331 17.3066 96.733 16.9504 97.0757 16.5068L98.2149 17.394C97.3009 18.7986 95.9298 19.501 94.1018 19.501ZM93.8699 9.7221C93.1172 9.7221 92.4854 9.99765 91.9746 10.5488C91.4638 11.0932 91.1479 11.8593 91.027 12.8473H96.491V12.7062C96.4373 11.7585 96.1819 11.0259 95.7249 10.5084C95.2678 9.98421 94.6495 9.7221 93.8699 9.7221Z" fill="white"/>
<path d="M105.796 10.0649C105.514 10.0178 105.208 9.99429 104.879 9.99429C103.655 9.99429 102.825 10.5152 102.389 11.5569V19.2993H100.524V8.39136H102.338L102.368 9.65153C102.98 8.677 103.847 8.18974 104.969 8.18974C105.332 8.18974 105.608 8.23678 105.796 8.33088V10.0649Z" fill="white"/>
<path d="M27.7863 19.272C31.1143 19.272 33.4107 17.6791 33.4107 15.0855C33.4107 13.1658 31.6978 11.7363 29.6016 11.5525V11.3687C31.1684 11.1338 32.6436 9.76557 32.6436 8.21349C32.6436 5.94664 30.5957 4.53752 27.635 4.53752H21.252V19.272H27.7863ZM24.1722 6.58994H26.9543C28.6399 6.58994 29.7557 7.35576 29.7557 8.67299C29.7557 10.0208 28.5751 10.7458 26.5977 10.7458H24.1722V6.58994ZM24.1722 17.2196V12.6144H27.0407C29.1694 12.6144 30.4256 13.4007 30.4256 14.9017C30.4256 16.413 29.2018 17.2196 27.1488 17.2196H24.1722Z" fill="white"/>
<path d="M34.8538 9.02285H37.6012C37.6012 7.47078 38.5492 6.28361 40.2457 6.28361C41.8773 6.28361 42.8497 7.31492 42.8497 8.65257C42.8497 9.77578 42.3743 10.4803 40.4077 12.3592L35.0051 17.4953V19.272H45.9645V17.0869H38.787V16.9133L42.2691 13.7989C44.9488 11.3176 45.7376 10.123 45.7376 8.4075C45.7376 5.95685 43.4981 4.16992 40.3969 4.16992C37.1446 4.16992 34.8538 6.23524 34.8538 9.02285Z" fill="white"/>
<circle r="3.34684" transform="matrix(1 -2.01952e-08 -2.01952e-08 -1 14.0402 5.31917)" fill="#59C59E"/>
<circle r="3.34684" transform="matrix(1 -2.01952e-08 -2.01952e-08 -1 14.0402 5.31917)" fill="#E54D57"/>
<circle r="3.34684" transform="matrix(1 -2.01952e-08 -2.01952e-08 -1 7.34684 12.0125)" fill="#A4FCDE"/>
<circle r="3.34684" transform="matrix(1 -2.01952e-08 -2.01952e-08 -1 7.34684 12.0125)" fill="#E54D57"/>
<circle r="3.34684" transform="matrix(1 -2.01952e-08 -2.01952e-08 -1 14.0402 12.0125)" fill="#59C59E"/>
<circle r="3.34684" transform="matrix(1 -2.01952e-08 -2.01952e-08 -1 14.0402 12.0125)" fill="#07D6A5"/>
<circle r="3.34684" transform="matrix(1 -2.01952e-08 -2.01952e-08 -1 7.34684 18.7059)" fill="#84F8CF"/>
<circle r="3.34684" transform="matrix(1 -2.01952e-08 -2.01952e-08 -1 7.34684 18.7059)" fill="#07D6A5"/>
<circle r="3.34684" transform="matrix(1 -2.01952e-08 -2.01952e-08 -1 14.0402 18.7059)" fill="#59C59E"/>
<circle r="3.34684" transform="matrix(1 -2.01952e-08 -2.01952e-08 -1 14.0402 18.7059)" fill="#07D6A5"/>
</g>
</svg>
