<svg width="97" height="81" viewBox="0 0 97 81" fill="none" xmlns="http://www.w3.org/2000/svg">
                  <path fill-rule="evenodd" clip-rule="evenodd" d="M88.2929 0.292893C88.6834 -0.0976311 89.3166 -0.0976311 89.7071 0.292893L96.0711 6.65685C96.4616 7.04738 96.4616 7.68054 96.0711 8.07107C95.6805 8.46159 95.0474 8.46159 94.6569 8.07107L90 3.41421V81H0V79H88V3.41421L83.3432 8.07107C82.9526 8.46159 82.3195 8.46159 81.9289 8.07107C81.5384 7.68054 81.5384 7.04738 81.9289 6.65685L88.2929 0.292893Z" fill="#AABDCC"/>
                  <path fill-rule="evenodd" clip-rule="evenodd" d="M13 75.8868L8 73L13 70.1133V72.5H76V70.1133L81 73L76 75.8868V73.5H13V75.8868Z" fill="#EE0064"/>
                </svg>