<svg width="163" height="16" viewBox="0 0 163 16" fill="none" xmlns="http://www.w3.org/2000/svg">
<path fill-rule="evenodd" clip-rule="evenodd" d="M155.837 0.902038L162.201 7.266C162.592 7.65652 162.592 8.28969 162.201 8.68021L155.837 15.0442C155.447 15.4347 154.814 15.4347 154.423 15.0442C154.033 14.6536 154.033 14.0205 154.423 13.63L159.08 8.97311L0.49414 8.97308L0.49414 6.97308L159.08 6.97311L154.423 2.31625C154.033 1.92573 154.033 1.29256 154.423 0.902038C154.814 0.511513 155.447 0.511513 155.837 0.902038Z" fill="#B0C4D4"/>
<path d="M108.5 7.47266C108.5 9.40565 106.933 10.9727 105 10.9727C103.067 10.9727 101.5 9.40565 101.5 7.47266C101.5 5.53966 103.067 3.97266 105 3.97266C106.933 3.97266 108.5 5.53966 108.5 7.47266Z" fill="#9DAFBD"/>
</svg>
