<svg width="24" height="328" viewBox="0 0 24 328" fill="none" xmlns="http://www.w3.org/2000/svg">
<path fill-rule="evenodd" clip-rule="evenodd" d="M24 270.5H4.11111V272.5H22V319.5H5.41421L10.0711 314.843C10.4616 314.453 10.4616 313.819 10.0711 313.429C9.68054 313.038 9.04738 313.038 8.65685 313.429L2.29289 319.793C1.90237 320.183 1.90237 320.817 2.29289 321.207L8.65685 327.571C9.04738 327.962 9.68054 327.962 10.0711 327.571C10.4616 327.181 10.4616 326.547 10.0711 326.157L5.41421 321.5H24V270.5Z" fill="#B0C4D4"/>
<path fill-rule="evenodd" clip-rule="evenodd" d="M24 74.5H4.11111V76.5H22V123.5H5.41421L10.0711 118.843C10.4616 118.453 10.4616 117.819 10.0711 117.429C9.68054 117.038 9.04738 117.038 8.65685 117.429L2.29289 123.793C1.90237 124.183 1.90237 124.817 2.29289 125.207L8.65685 131.571C9.04738 131.962 9.68054 131.962 10.0711 131.571C10.4616 131.181 10.4616 130.547 10.0711 130.157L5.41421 125.5H24V74.5Z" fill="#B0C4D4"/>
<path fill-rule="evenodd" clip-rule="evenodd" d="M24 172.5H4.11111V174.5H22V221.5H5.41421L10.0711 216.843C10.4616 216.453 10.4616 215.819 10.0711 215.429C9.68054 215.038 9.04738 215.038 8.65685 215.429L2.29289 221.793C1.90237 222.183 1.90237 222.817 2.29289 223.207L8.65685 229.571C9.04738 229.962 9.68054 229.962 10.0711 229.571C10.4616 229.181 10.4616 228.547 10.0711 228.157L5.41421 223.5H24V172.5Z" fill="#B0C4D4"/>
<path fill-rule="evenodd" clip-rule="evenodd" d="M24 221.5H4.11111V223.5H22V270.5H5.41421L10.0711 265.843C10.4616 265.453 10.4616 264.819 10.0711 264.429C9.68054 264.038 9.04738 264.038 8.65685 264.429L2.29289 270.793C1.90237 271.183 1.90237 271.817 2.29289 272.207L8.65685 278.571C9.04738 278.962 9.68054 278.962 10.0711 278.571C10.4616 278.181 10.4616 277.547 10.0711 277.157L5.41421 272.5H24V221.5Z" fill="#B0C4D4"/>
<path fill-rule="evenodd" clip-rule="evenodd" d="M24 0H0V2H22V74.5H5.41421L10.0711 69.8431C10.4616 69.4526 10.4616 68.8195 10.0711 68.4289C9.68054 68.0384 9.04738 68.0384 8.65685 68.4289L2.29289 74.7929C1.90237 75.1834 1.90237 75.8166 2.29289 76.2071L8.65685 82.5711C9.04738 82.9616 9.68054 82.9616 10.0711 82.5711C10.4616 82.1805 10.4616 81.5474 10.0711 81.1569L5.41421 76.5H24V0Z" fill="#B0C4D4"/>
<path fill-rule="evenodd" clip-rule="evenodd" d="M24 123.5H4.11111V125.5H22V172.5H5.41421L10.0711 167.843C10.4616 167.453 10.4616 166.819 10.0711 166.429C9.68054 166.038 9.04738 166.038 8.65685 166.429L2.29289 172.793C1.90237 173.183 1.90237 173.817 2.29289 174.207L8.65685 180.571C9.04738 180.962 9.68054 180.962 10.0711 180.571C10.4616 180.181 10.4616 179.547 10.0711 179.157L5.41421 174.5H24V123.5Z" fill="#B0C4D4"/>
</svg>
