<svg width="140" height="16" viewBox="0 0 140 16" fill="none" xmlns="http://www.w3.org/2000/svg">
<path fill-rule="evenodd" clip-rule="evenodd" d="M7.65497 15.072L1.29226 8.70677C0.901823 8.31617 0.901949 7.68301 1.29254 7.29256L7.65778 0.929865C8.04837 0.539419 8.68154 0.539545 9.07199 0.930147C9.46243 1.32075 9.46231 1.95391 9.07171 2.34436L4.41393 7.00029L139.5 7.02715L139.499 9.02715L4.41353 9.00029L9.06946 13.6581C9.4599 14.0487 9.45978 14.6818 9.06918 15.0723C8.67857 15.4627 8.04541 15.4626 7.65497 15.072Z" fill="#03E2B2"/>
<path d="M70 7.5C70 9.433 68.433 11 66.5 11C64.567 11 63 9.433 63 7.5C63 5.567 64.567 4 66.5 4C68.433 4 70 5.567 70 7.5Z" fill="#03E2B2"/>
</svg>
