<svg width="48" height="139" viewBox="0 0 48 139" fill="none" xmlns="http://www.w3.org/2000/svg">
<path fill-rule="evenodd" clip-rule="evenodd" d="M20.4854 134.587L20.4854 0.999925L22.4854 0.999925L22.4854 134.587L27.1423 129.93C27.5328 129.539 28.166 129.539 28.5565 129.93C28.947 130.32 28.947 130.954 28.5565 131.344L22.1925 137.708C21.802 138.099 21.1688 138.099 20.7783 137.708L14.4143 131.344C14.0238 130.954 14.0238 130.32 14.4143 129.93C14.8049 129.539 15.438 129.539 15.8286 129.93L20.4854 134.587Z" fill="#B0C4D4"/>
<path d="M24.6104 47.501C24.6104 49.434 23.0433 51.001 21.1104 51.001C19.1774 51.001 17.6104 49.434 17.6104 47.501C17.6104 45.568 19.1774 44.001 21.1104 44.001C23.0433 44.001 24.6104 45.568 24.6104 47.501Z" fill="#9DAFBD"/>
</svg>
