<svg width="226" height="53" viewBox="0 0 226 53" fill="none" xmlns="http://www.w3.org/2000/svg">
<path fill-rule="evenodd" clip-rule="evenodd" d="M225.071 46.3431L218.707 52.7071C218.317 53.0976 217.683 53.0976 217.293 52.7071L210.929 46.3431C210.538 45.9526 210.538 45.3195 210.929 44.9289C211.319 44.5384 211.953 44.5384 212.343 44.9289L217 49.5858L217 31L8.99998 31L8.99998 49.5858L13.6568 44.9289C14.0474 44.5384 14.6805 44.5384 15.0711 44.9289C15.4616 45.3195 15.4616 45.9526 15.0711 46.3432L8.70709 52.7071C8.31657 53.0976 7.68339 53.0976 7.29287 52.7071L0.928907 46.3432C0.538389 45.9526 0.538389 45.3195 0.928907 44.9289C1.31944 44.5384 1.9526 44.5384 2.34312 44.9289L6.99998 49.5858L6.99998 29L112 29L112 1.03035e-05L114 1.03909e-05L114 29L219 29L219 49.5858L223.657 44.9289C224.047 44.5384 224.681 44.5384 225.071 44.9289C225.462 45.3195 225.462 45.9526 225.071 46.3431Z" fill="#B0C4D4"/>
</svg>
