<svg width="503" height="70" viewBox="0 0 503 70" fill="none" xmlns="http://www.w3.org/2000/svg">
<path fill-rule="evenodd" clip-rule="evenodd" d="M502.5 66.9727L6.5 66.9723L6.5 13.3877L1.84314 18.0446C1.45261 18.4351 0.819462 18.4351 0.428929 18.0446C0.0384259 17.654 0.038426 17.0209 0.428929 16.6304L6.79291 10.2664C7.18342 9.87587 7.81659 9.87587 8.2071 10.2664L14.5711 16.6304C14.9616 17.0209 14.9616 17.654 14.5711 18.0446C14.1805 18.4351 13.5474 18.4351 13.1569 18.0446L8.5 13.3877L8.5 64.9723L500.5 64.9727L500.5 0.972702L502.5 0.972702L502.5 66.9727Z" fill="#30B3FD"/>
<path d="M388.5 66.4727C388.5 68.4057 386.933 69.9727 385 69.9727C383.067 69.9727 381.5 68.4057 381.5 66.4727C381.5 64.5397 383.067 62.9727 385 62.9727C386.933 62.9727 388.5 64.5397 388.5 66.4727Z" fill="#30B3FD"/>
</svg>
