<svg width="113" height="16" viewBox="0 0 113 16" fill="none" xmlns="http://www.w3.org/2000/svg">
<path fill-rule="evenodd" clip-rule="evenodd" d="M7.15686 0.901527L0.7929 7.26549C0.402374 7.65601 0.402374 8.28918 0.792899 8.6797L7.15686 15.0437C7.54738 15.4342 8.18055 15.4342 8.57107 15.0437C8.9616 14.6531 8.9616 14.02 8.57107 13.6294L3.91422 8.97259L112.5 8.97261L112.5 6.97261L3.91422 6.97259L8.57108 2.31574C8.9616 1.92522 8.9616 1.29205 8.57108 0.901527C8.18055 0.511002 7.54739 0.511002 7.15686 0.901527Z" fill="#03E2B2"/>
<path d="M48.5 7.47266C48.5 9.40565 46.933 10.9727 45 10.9727C43.067 10.9727 41.5 9.40565 41.5 7.47266C41.5 5.53966 43.067 3.97266 45 3.97266C46.933 3.97266 48.5 5.53966 48.5 7.47266Z" fill="#03E2B2"/>
</svg>
