<svg width="7" height="12" viewBox="0 0 7 12" fill="none" xmlns="http://www.w3.org/2000/svg">
                  <path d="M5.06752 8.06006C5.06752 7.72366 4.96066 7.44662 4.74695 7.22895C4.53324 7.00732 4.17705 6.80944 3.67838 6.63531C3.17972 6.45721 2.79187 6.29297 2.51483 6.14258C1.5927 5.64787 1.13164 4.91571 1.13164 3.94608C1.13164 3.28911 1.3315 2.7489 1.73122 2.32543C2.13094 1.90196 2.67314 1.65065 3.35781 1.5715V0.277344H4.30765V1.58337C4.99628 1.68231 5.52858 1.97518 5.90456 2.46197C6.28054 2.9448 6.46853 3.57406 6.46853 4.34976H5.0319C5.0319 3.8511 4.91911 3.45929 4.69352 3.17434C4.47189 2.88543 4.16913 2.74098 3.78524 2.74098C3.40531 2.74098 3.10848 2.84388 2.89477 3.04968C2.68106 3.25547 2.5742 3.55032 2.5742 3.93421C2.5742 4.27853 2.67908 4.55556 2.88883 4.76532C3.10255 4.97111 3.46269 5.16702 3.96927 5.35303C4.47585 5.53904 4.87359 5.71119 5.1625 5.8695C5.45141 6.02781 5.6948 6.20986 5.89269 6.41566C6.09057 6.6175 6.24294 6.851 6.3498 7.11616C6.45665 7.38132 6.51008 7.692 6.51008 8.04819C6.51008 8.71703 6.30428 9.25923 5.89269 9.67478C5.48505 10.0903 4.91515 10.3357 4.18298 10.4109V11.5685H3.23908V10.4168C2.45547 10.3298 1.85193 10.0488 1.42846 9.57386C1.00895 9.09894 0.799195 8.46968 0.799195 7.68606H2.24176C2.24176 8.18472 2.36642 8.5706 2.61575 8.84367C2.86904 9.11675 3.22523 9.25329 3.68432 9.25329C4.13549 9.25329 4.47783 9.14445 4.71133 8.92678C4.94879 8.70911 5.06752 8.4202 5.06752 8.06006Z" fill="#FFA25C"/>
                  </svg>