<svg width="133" height="25" viewBox="0 0 133 25" fill="none" xmlns="http://www.w3.org/2000/svg">
<path d="M0.00444129 0.375567H11.9314C15.1265 0.375567 20.299 1.82866 20.299 6.69009C20.299 10.8894 16.7573 11.9914 16.7573 11.9914C16.7573 11.9914 21.1433 12.6847 21.1655 17.6794C21.1833 21.421 18.4548 24.5672 12.8824 24.5672H0.00888936V21.6788L2.64847 21.1811V3.74391L0 3.23732V0.375567H0.00444129ZM22.9163 7.86323C22.9163 7.86323 22.7874 0.015625 31.3283 0.015625C38.9582 0.015625 39.487 5.83245 39.4781 7.00115C39.4736 8.43203 38.8115 10.6494 37.9939 11.6315C36.683 13.2135 29.6797 20.8922 29.6797 20.8922L36.2608 20.8744L36.4519 18.4526H40.1491V24.545H23.3074V21.381L31.1194 13.2579C31.1194 13.2579 34.6789 9.64961 34.5411 7.09447C34.4833 6.06353 34.0034 3.73946 31.2972 3.73946C28.5865 3.73946 27.7555 5.97466 27.7555 7.8899L22.9163 7.86323ZM13.0468 20.8744C13.0468 20.8744 16.3307 20.67 16.3307 17.6083C16.3307 14.5466 14.1177 13.8178 13.2823 13.8178H7.581V20.8789H13.0468V20.8744ZM11.8025 4.05497H7.56767L7.57656 10.5206C7.57656 10.5206 11.9758 10.5161 12.1758 10.5161C12.3758 10.5161 15.3353 10.2806 15.3353 7.35665C15.3397 4.17495 11.8025 4.05497 11.8025 4.05497Z" fill="#01BD95"/>
<path d="M66.4007 7.94965H64.9165L64.6454 4.42134C64.0278 3.68813 63.2234 3.09267 62.2325 2.63941C61.2415 2.18615 60.0995 1.95952 58.7975 1.95952C56.1979 1.95952 54.1316 2.90603 52.5985 4.79461C51.0654 6.68319 50.2966 9.12724 50.2966 12.1179V12.4511C50.2966 15.4418 51.0565 17.8903 52.5718 19.7922C54.0871 21.6941 56.0824 22.645 58.5531 22.645C59.864 22.645 61.0505 22.414 62.1214 21.9563C63.1923 21.4986 64.0278 20.9075 64.6366 20.1832L64.9076 16.6549H66.3918V20.7431C65.6675 21.743 64.6099 22.5784 63.2234 23.2494C61.8325 23.9204 60.2773 24.2537 58.5531 24.2537C55.5713 24.2537 53.1317 23.1472 51.2387 20.9386C49.3412 18.7301 48.3947 15.8995 48.3947 12.4511V12.149C48.3947 8.68731 49.3412 5.85222 51.2298 3.64369C53.1184 1.43516 55.5936 0.328674 58.6508 0.328674C60.375 0.328674 61.917 0.666397 63.2768 1.34184C64.6321 2.01729 65.6764 2.85715 66.4007 3.85699V7.94965V7.94965Z" fill="black"/>
<path d="M58.5584 24.5916C55.4878 24.5916 52.9416 23.4362 50.9908 21.161C49.0533 18.8991 48.0668 15.9707 48.0668 12.4557V12.1536C48.0668 8.6297 49.0489 5.69241 50.9819 3.43055C52.9282 1.15537 55.51 0 58.6562 0C60.4248 0 62.029 0.351054 63.4288 1.04872C64.8286 1.74638 65.9217 2.62624 66.6727 3.66607L66.7349 3.75494V8.28309H64.6064L64.3175 4.55481C63.7443 3.89714 62.9933 3.35501 62.0912 2.94174C61.1491 2.5107 60.0382 2.29296 58.794 2.29296C56.3144 2.29296 54.3147 3.20392 52.8571 5.00363C51.3818 6.82556 50.6308 9.21627 50.6308 12.118V12.4513C50.6308 15.3531 51.3729 17.7527 52.8349 19.5835C54.2969 21.4187 56.1722 22.3075 58.554 22.3075C59.8116 22.3075 60.9669 22.0853 61.9934 21.6454C62.9711 21.2277 63.7532 20.69 64.3175 20.0456L64.6064 16.3173H66.7349V20.8455L66.6727 20.9344C65.9217 21.9742 64.8108 22.8541 63.3755 23.5473C61.949 24.2405 60.327 24.5916 58.5584 24.5916ZM58.6562 0.666558C55.7145 0.666558 53.306 1.74194 51.4885 3.86604C49.6621 6.00347 48.7334 8.78968 48.7334 12.1536V12.4557C48.7334 15.8063 49.6621 18.5925 51.4974 20.7255C53.3193 22.8496 55.6922 23.925 58.5584 23.925C60.2248 23.925 61.749 23.5962 63.0866 22.9518C64.3797 22.3297 65.384 21.5476 66.0684 20.6366V16.9883H65.224L64.9663 20.3167L64.8997 20.3967C64.2642 21.1566 63.3755 21.7831 62.2601 22.263C61.1536 22.7385 59.9093 22.9785 58.5584 22.9785C55.9944 22.9785 53.8925 21.9786 52.315 20.0012C50.7553 18.0504 49.9643 15.5086 49.9643 12.4557V12.1225C49.9643 9.06519 50.7641 6.53227 52.3372 4.59036C53.9281 2.62624 56.1011 1.63085 58.794 1.63085C60.136 1.63085 61.3358 1.87081 62.3667 2.34184C63.3977 2.81288 64.2464 3.44388 64.8952 4.21265L64.9663 4.29263L65.224 7.62098H66.0684V3.97713C65.3796 3.06172 64.3931 2.27963 63.131 1.64862C61.8246 0.995393 60.3226 0.666558 58.6562 0.666558Z" fill="black"/>
<path d="M89.9732 12.4561C89.9732 15.9489 89.04 18.7884 87.1781 20.9792C85.3161 23.1655 82.8898 24.2631 79.9125 24.2631C76.9752 24.2631 74.5845 23.1655 72.7493 20.9747C70.914 18.7795 69.9942 15.9444 69.9942 12.4606V12.1584C69.9942 8.6745 70.9096 5.83497 72.7404 3.63977C74.5712 1.44013 76.9575 0.342529 79.8948 0.342529C82.8765 0.342529 85.3028 1.44013 87.1692 3.63977C89.04 5.83941 89.9732 8.67895 89.9732 12.1584V12.4561ZM88.0579 12.1184C88.0579 9.10554 87.3247 6.66594 85.8538 4.80402C84.383 2.94211 82.3966 2.00892 79.8948 2.00892C77.433 2.00892 75.491 2.94211 74.0557 4.80402C72.6248 6.66594 71.9094 9.10554 71.9094 12.1184V12.4517C71.9094 15.4867 72.6293 17.9352 74.0646 19.7971C75.4999 21.6591 77.4507 22.5922 79.9081 22.5922C82.4322 22.5922 84.4185 21.6635 85.8716 19.806C87.3247 17.9485 88.0535 15.4956 88.0535 12.4517V12.1184H88.0579Z" fill="black"/>
<path d="M79.9153 24.5931C76.8847 24.5931 74.3917 23.4466 72.4943 21.1848C70.6146 18.9407 69.6636 16.0034 69.6636 12.4573V12.1551C69.6636 8.60902 70.6146 5.67172 72.4898 3.4232C74.3784 1.1569 76.8713 0.00598145 79.9019 0.00598145C82.9726 0.00598145 85.5055 1.1569 87.4296 3.4232C89.3404 5.67172 90.3136 8.61347 90.3136 12.1596V12.4617C90.3136 16.0167 89.3449 18.9584 87.4385 21.1981C85.5144 23.4466 82.9859 24.5931 79.9153 24.5931ZM79.8975 0.668095C77.0757 0.668095 74.7561 1.73903 72.9964 3.84536C71.2234 5.9739 70.3257 8.769 70.3257 12.1507V12.4528C70.3257 15.839 71.2278 18.6296 73.0008 20.7537C74.7606 22.86 77.0846 23.9265 79.9064 23.9265C82.7726 23.9265 85.1322 22.86 86.9186 20.7626C88.7183 18.6474 89.6337 15.8523 89.6337 12.4573V12.1551C89.6337 8.769 88.7183 5.97834 86.9097 3.8498C85.1278 1.73459 82.7637 0.668095 79.8975 0.668095ZM79.9153 22.9311C77.3601 22.9311 75.3027 21.9491 73.8051 20.0072C72.3298 18.0919 71.5789 15.5546 71.5789 12.4573V12.124C71.5789 9.04895 72.3254 6.52047 73.7963 4.60523C75.2894 2.66333 77.3424 1.68126 79.8975 1.68126C82.4971 1.68126 84.5856 2.66333 86.1187 4.60523C87.6296 6.52047 88.3939 9.04895 88.3939 12.1284V12.4617C88.3939 15.5679 87.6385 18.1141 86.1409 20.0205C84.6301 21.9491 82.5326 22.9311 79.9153 22.9311ZM79.8975 2.34338C77.5246 2.34338 75.7026 3.21435 74.3251 5.00961C72.9475 6.80487 72.2454 9.19559 72.2454 12.1196V12.4528C72.2454 15.399 72.9475 17.8031 74.334 19.5939C75.716 21.3892 77.5423 22.2601 79.9153 22.2601C82.3549 22.2601 84.2168 21.3892 85.6166 19.6028C87.0164 17.812 87.7274 15.4079 87.7274 12.4528V12.1196C87.7274 9.19559 87.0119 6.80487 85.5944 5.00961C84.1768 3.21435 82.3149 2.34338 79.8975 2.34338Z" fill="black"/>
<path d="M102.544 0.681519C105.037 0.681519 106.948 1.22365 108.285 2.31236C109.623 3.39663 110.29 4.96971 110.29 7.02271C110.29 8.23584 109.934 9.329 109.219 10.2977C108.503 11.2665 107.499 11.9686 106.201 12.404C107.641 12.764 108.676 13.4128 109.307 14.346C109.938 15.2791 110.258 16.4523 110.258 17.8654V19.9895C110.258 20.8116 110.387 21.4159 110.641 21.8114C110.898 22.2069 111.285 22.4202 111.805 22.4513L112.587 22.5002V23.9222H111.374C110.245 23.9222 109.459 23.54 109.01 22.7712C108.561 22.0025 108.339 21.0693 108.339 19.9584V17.8965C108.339 16.4923 107.89 15.3769 106.988 14.5504C106.086 13.7238 104.833 13.2972 103.228 13.2661H97.3849V22.3047L99.9889 22.5268V23.9177H92.8834V22.5268L95.4874 22.3047V2.30792L92.8834 2.08573V0.681519H102.544ZM97.3849 11.6353H102.322C104.419 11.6353 105.952 11.2131 106.921 10.3733C107.89 9.53341 108.374 8.40915 108.374 7.00493C108.374 5.51629 107.89 4.36092 106.921 3.53883C105.952 2.72119 104.495 2.30792 102.544 2.30792H97.3849V11.6353Z" fill="black"/>
<path d="M112.922 24.252H111.376C110.123 24.252 109.234 23.8076 108.723 22.9366C108.247 22.1234 108.008 21.1191 108.008 19.9593V17.8974C108.008 16.5776 107.603 15.5645 106.768 14.7957C105.932 14.0314 104.741 13.627 103.226 13.5959H97.7203V21.999L100.324 22.2212V24.252H92.5522V22.2212L95.1563 21.999V2.61548L92.5522 2.39329V0.349182H102.546C105.106 0.349182 107.105 0.922421 108.496 2.05113C109.909 3.19761 110.625 4.87289 110.625 7.02365C110.625 8.30344 110.243 9.47214 109.492 10.4942C108.91 11.2852 108.141 11.9117 107.19 12.365C108.247 12.7694 109.052 13.3693 109.585 14.1558C110.252 15.1379 110.594 16.3866 110.594 17.8663V19.9904C110.594 20.7414 110.705 21.2924 110.923 21.6302C111.123 21.9368 111.411 22.0923 111.829 22.119L112.922 22.1856V24.252ZM97.0493 12.9338H103.226C104.915 12.9693 106.257 13.427 107.212 14.3069C108.181 15.1956 108.67 16.4043 108.67 17.8974V19.9593C108.67 20.9991 108.878 21.8923 109.296 22.6033C109.683 23.2654 110.363 23.5898 111.371 23.5898H112.251V22.8166L111.78 22.79C111.149 22.75 110.669 22.4834 110.354 21.999C110.061 21.5457 109.918 20.8881 109.918 19.9949V17.8708C109.918 16.5288 109.616 15.4089 109.025 14.538C108.443 13.6803 107.461 13.0716 106.11 12.7338L105.008 12.4583L106.083 12.0984C107.31 11.6851 108.27 11.0186 108.941 10.1076C109.607 9.20107 109.945 8.16569 109.945 7.03254C109.945 5.06397 109.332 3.60643 108.065 2.57993C106.794 1.54899 104.937 1.02463 102.533 1.02463H93.2055V1.78895L95.8095 2.01113V22.6211L93.2055 22.8433V23.5943H99.6444V22.8433L97.0404 22.6211V12.9338H97.0493ZM102.32 11.9695H97.0493V1.97558H102.542C104.564 1.97558 106.106 2.41551 107.132 3.28648C108.176 4.16634 108.705 5.41947 108.705 7.00587C108.705 8.50785 108.176 9.72543 107.137 10.6275C106.11 11.5207 104.488 11.9695 102.32 11.9695ZM97.7158 11.303H102.32C104.324 11.303 105.799 10.9075 106.701 10.1209C107.603 9.33883 108.039 8.32122 108.039 7.00143C108.039 5.60166 107.603 4.5485 106.701 3.78862C105.799 3.0243 104.399 2.6377 102.542 2.6377H97.7158V11.303Z" fill="black"/>
<path d="M128.868 12.6585H119.332V22.3058H130.321L130.463 18.822H132.156V23.9189H114.826V22.5147L117.43 22.3058V2.29576L114.826 2.08691V0.664917H117.43H132.076V5.77519H130.383L130.241 2.29132H119.332V11.0321H128.868V12.6585Z" fill="black"/>
<path d="M132.489 24.2531H114.492V22.2046L117.096 21.9957V2.60332L114.492 2.39447V0.332581H132.409V6.10942H130.063L129.921 2.62554H119.664V10.6953H129.201V12.9927H119.664V21.9735H130.001L130.143 18.4896H132.489V24.2531ZM115.163 23.5866H131.827V19.1562H130.787L130.645 22.6401H119.002V12.3262H128.539V11.3619H119.002V1.96343H130.565L130.707 5.4473H131.747V1.00358H115.163V1.78568L117.767 1.99453V22.6223L115.163 22.8311V23.5866Z" fill="black"/>
</svg>
