<svg width="47" height="16" viewBox="0 0 47 16" fill="none" xmlns="http://www.w3.org/2000/svg">
<path d="M0.292893 7.29282C-0.0976311 7.68335 -0.0976311 8.31651 0.292893 8.70704L6.65685 15.071C7.04738 15.4615 7.68054 15.4615 8.07107 15.071C8.46159 14.6805 8.46159 14.0473 8.07107 13.6568L2.41421 7.99993L8.07107 2.34308C8.46159 1.95255 8.46159 1.31939 8.07107 0.928864C7.68054 0.538339 7.04738 0.538339 6.65685 0.928864L0.292893 7.29282ZM46.7071 8.70704C47.0976 8.31651 47.0976 7.68335 46.7071 7.29282L40.3431 0.928864C39.9526 0.538339 39.3195 0.538339 38.9289 0.928864C38.5384 1.31939 38.5384 1.95255 38.9289 2.34308L44.5858 7.99993L38.9289 13.6568C38.5384 14.0473 38.5384 14.6805 38.9289 15.071C39.3195 15.4615 39.9526 15.4615 40.3431 15.071L46.7071 8.70704ZM1 8.99993H46V6.99993H1V8.99993Z" fill="#B0C4D4"/>
</svg>
