<svg width="14" height="12" viewBox="0 0 14 12" fill="none" xmlns="http://www.w3.org/2000/svg">
                  <path d="M7.39588 7.50203C7.30881 8.42416 6.96845 9.14445 6.37481 9.66291C5.78116 10.1774 4.99161 10.4346 4.00616 10.4346C3.31752 10.4346 2.71003 10.2724 2.18366 9.94786C1.66125 9.61937 1.25757 9.15435 0.972618 8.55279C0.687667 7.95122 0.539256 7.2527 0.527383 6.45721V5.64985C0.527383 4.83458 0.671837 4.11626 0.960745 3.49491C1.24965 2.87356 1.66323 2.39469 2.20147 2.05829C2.74367 1.72189 3.36897 1.55369 4.07739 1.55369C5.03119 1.55369 5.79897 1.81291 6.38074 2.33136C6.96252 2.84982 7.3009 3.58198 7.39588 4.52786H5.89989C5.82865 3.90651 5.6466 3.45929 5.35373 3.18622C5.06483 2.90918 4.63938 2.77066 4.07739 2.77066C3.42438 2.77066 2.92176 3.0101 2.56953 3.48898C2.22126 3.96389 2.04316 4.66242 2.03525 5.58455V6.35035C2.03525 7.28436 2.20147 7.99674 2.53391 8.48748C2.87031 8.97823 3.36106 9.22361 4.00616 9.22361C4.59584 9.22361 5.0391 9.09103 5.33592 8.82586C5.63275 8.5607 5.82074 8.11942 5.89989 7.50203H7.39588ZM12.4038 8.06006C12.4038 7.72366 12.297 7.44662 12.0833 7.22895C11.8696 7.00732 11.5134 6.80944 11.0147 6.63531C10.516 6.45721 10.1282 6.29297 9.85115 6.14258C8.92902 5.64787 8.46795 4.91571 8.46795 3.94608C8.46795 3.28911 8.66782 2.7489 9.06754 2.32543C9.46726 1.90196 10.0095 1.65065 10.6941 1.5715V0.277344H11.644V1.58337C12.3326 1.68231 12.8649 1.97518 13.2409 2.46197C13.6169 2.9448 13.8048 3.57406 13.8048 4.34976H12.3682C12.3682 3.8511 12.2554 3.45929 12.0298 3.17434C11.8082 2.88543 11.5054 2.74098 11.1216 2.74098C10.7416 2.74098 10.4448 2.84388 10.2311 3.04968C10.0174 3.25547 9.91052 3.55032 9.91052 3.93421C9.91052 4.27853 10.0154 4.55556 10.2251 4.76532C10.4389 4.97111 10.799 5.16702 11.3056 5.35303C11.8122 5.53904 12.2099 5.71119 12.4988 5.8695C12.7877 6.02781 13.0311 6.20986 13.229 6.41566C13.4269 6.6175 13.5793 6.851 13.6861 7.11616C13.793 7.38132 13.8464 7.692 13.8464 8.04819C13.8464 8.71703 13.6406 9.25923 13.229 9.67478C12.8214 10.0903 12.2515 10.3357 11.5193 10.4109V11.5685H10.5754V10.4168C9.79179 10.3298 9.18825 10.0488 8.76478 9.57386C8.34527 9.09894 8.13551 8.46968 8.13551 7.68606H9.57807C9.57807 8.18472 9.70274 8.5706 9.95207 8.84367C10.2054 9.11675 10.5615 9.25329 11.0206 9.25329C11.4718 9.25329 11.8141 9.14445 12.0476 8.92678C12.2851 8.70911 12.4038 8.4202 12.4038 8.06006Z" fill="#AB48F1"/>
                  </svg>