<svg width="79" height="375" viewBox="0 0 79 375" fill="none" xmlns="http://www.w3.org/2000/svg">
<path fill-rule="evenodd" clip-rule="evenodd" d="M61 -8.74232e-08L61 185L59 185L59 0L61 -8.74232e-08Z" fill="#03E2B2"/>
<path fill-rule="evenodd" clip-rule="evenodd" d="M72.3431 359.93L78.7071 366.294C79.0976 366.684 79.0976 367.317 78.7071 367.708L72.3431 374.072C71.9526 374.462 71.3195 374.462 70.9289 374.072C70.5384 373.681 70.5384 373.048 70.9289 372.658L75.5858 368.001L59 368.001L59 366.001L75.5858 366.001L70.9289 361.344C70.5384 360.953 70.5384 360.32 70.9289 359.93C71.3195 359.539 71.9526 359.539 72.3431 359.93Z" fill="#03E2B2"/>
<path fill-rule="evenodd" clip-rule="evenodd" d="M61 184.5L61 368L59 368L59 184.5L61 184.5Z" fill="#03E2B2"/>
<path fill-rule="evenodd" clip-rule="evenodd" d="M0 0L60 -6.64373e-06L60 1.99999L-1.03123e-07 2L0 0Z" fill="#03E2B2"/>
</svg>
