<svg width="95" height="626" viewBox="0 0 95 626" fill="none" xmlns="http://www.w3.org/2000/svg">
<path fill-rule="evenodd" clip-rule="evenodd" d="M88.2453 0.278422L94.7028 6.32784C95.0991 6.69907 95.0991 7.30094 94.7028 7.67216L88.2453 13.7216C87.849 14.0928 87.2065 14.0928 86.8102 13.7216C86.414 13.3504 86.414 12.7485 86.8102 12.3773L91.5356 7.95058L26 7.95058L26 6.04942L91.5356 6.04943L86.8102 1.62274C86.414 1.25152 86.414 0.649645 86.8102 0.278422C87.2065 -0.0928003 87.849 -0.0928003 88.2453 0.278422Z" fill="#03E2B2"/>
<path fill-rule="evenodd" clip-rule="evenodd" d="M26 626L26 373L28 373L28 626L26 626Z" fill="#03E2B2"/>
<path fill-rule="evenodd" clip-rule="evenodd" d="M26 374V97H28V374H26Z" fill="#03E2B2"/>
<path fill-rule="evenodd" clip-rule="evenodd" d="M25.9259 98V7H28V98H25.9259ZM0 624H26.963V626H0V624Z" fill="#03E2B2"/>
</svg>
