<svg width="59" height="380" viewBox="0 0 59 380" fill="none" xmlns="http://www.w3.org/2000/svg">
<path d="M58.7071 8.70711C59.0976 8.31658 59.0976 7.68342 58.7071 7.29289L52.3431 0.928932C51.9526 0.538408 51.3195 0.538408 50.9289 0.928932C50.5384 1.31946 50.5384 1.95262 50.9289 2.34315L56.5858 8L50.9289 13.6569C50.5384 14.0474 50.5384 14.6805 50.9289 15.0711C51.3195 15.4616 51.9526 15.4616 52.3431 15.0711L58.7071 8.70711ZM38 9H58V7H38V9Z" fill="#B0C4D4"/>
<path d="M38 8V7H37V8H38ZM38 129.333H37V130.333H38V129.333ZM58.7071 130.04C59.0976 129.65 59.0976 129.017 58.7071 128.626L52.3431 122.262C51.9526 121.872 51.3195 121.872 50.9289 122.262C50.5384 122.653 50.5384 123.286 50.9289 123.676L56.5858 129.333L50.9289 134.99C50.5384 135.381 50.5384 136.014 50.9289 136.404C51.3195 136.795 51.9526 136.795 52.3431 136.404L58.7071 130.04ZM53.5556 7H38V9H53.5556V7ZM37 8V129.333H39V8H37ZM38 130.333H58V128.333H38V130.333Z" fill="#B0C4D4"/>
<path d="M38 129.333V128.333H37V129.333H38ZM38 250.667H37V251.667H38V250.667ZM58.7071 251.374C59.0976 250.983 59.0976 250.35 58.7071 249.96L52.3431 243.596C51.9526 243.205 51.3195 243.205 50.9289 243.596C50.5384 243.986 50.5384 244.619 50.9289 245.01L56.5858 250.667L50.9289 256.324C50.5384 256.714 50.5384 257.347 50.9289 257.738C51.3195 258.128 51.9526 258.128 52.3431 257.738L58.7071 251.374ZM53.5556 128.333H38V130.333H53.5556V128.333ZM38 251.667H58V249.667H38V251.667ZM37 129.333V190H39V129.333H37ZM37 190V250.667H39V190H37ZM38 189H0V191H38V189Z" fill="#B0C4D4"/>
<path d="M38 250.667V249.667H37V250.667H38ZM38 372H37V373H38V372ZM58.7071 372.707C59.0976 372.317 59.0976 371.683 58.7071 371.293L52.3431 364.929C51.9526 364.538 51.3195 364.538 50.9289 364.929C50.5384 365.319 50.5384 365.953 50.9289 366.343L56.5858 372L50.9289 377.657C50.5384 378.047 50.5384 378.681 50.9289 379.071C51.3195 379.462 51.9526 379.462 52.3431 379.071L58.7071 372.707ZM53.5556 249.667H38V251.667H53.5556V249.667ZM37 250.667V372H39V250.667H37ZM38 373H58V371H38V373Z" fill="#B0C4D4"/>
</svg>
