<svg width="53" height="245" viewBox="0 0 53 245" fill="none" xmlns="http://www.w3.org/2000/svg">
<path d="M22.9648 1H0.00188017" stroke="#B0C4D4" stroke-width="2"/>
<path d="M5.10476 1H22.9648V122.333H0.0018816" stroke="#B0C4D4" stroke-width="2"/>
<path d="M22.963 243.667H23.963V244.667H22.963V243.667ZM52.7071 121.626C53.0976 122.017 53.0976 122.65 52.7071 123.04L46.3431 129.404C45.9526 129.795 45.3195 129.795 44.9289 129.404C44.5384 129.014 44.5384 128.381 44.9289 127.99L50.5858 122.333L44.9289 116.676C44.5384 116.286 44.5384 115.653 44.9289 115.262C45.3195 114.872 45.9526 114.872 46.3431 115.262L52.7071 121.626ZM5.10288 121.333H22.963V123.333H5.10288V121.333ZM22.963 244.667H0V242.667H22.963V244.667ZM23.963 122.333V243.667H21.963V122.333H23.963ZM22.963 121.333H52V123.333H22.963V121.333Z" fill="#B0C4D4"/>
</svg>
