<svg width="59" height="259" viewBox="0 0 59 259" fill="none" xmlns="http://www.w3.org/2000/svg">
<path d="M58.7071 8.70711C59.0976 8.31658 59.0976 7.68342 58.7071 7.29289L52.3431 0.928932C51.9526 0.538408 51.3195 0.538408 50.9289 0.928932C50.5384 1.31946 50.5384 1.95262 50.9289 2.34315L56.5858 8L50.9289 13.6569C50.5384 14.0474 50.5384 14.6805 50.9289 15.0711C51.3195 15.4616 51.9526 15.4616 52.3431 15.0711L58.7071 8.70711ZM38 9H58V7H38V9Z" fill="#B0C4D4"/>
<path d="M38 8V7H37V8H38ZM38 129.333H37V130.333H38V129.333ZM58.7071 130.04C59.0976 129.65 59.0976 129.017 58.7071 128.626L52.3431 122.262C51.9526 121.872 51.3195 121.872 50.9289 122.262C50.5384 122.653 50.5384 123.286 50.9289 123.676L56.5858 129.333L50.9289 134.99C50.5384 135.381 50.5384 136.014 50.9289 136.404C51.3195 136.795 51.9526 136.795 52.3431 136.404L58.7071 130.04ZM53.5556 7H38V9H53.5556V7ZM37 8V129.333H39V8H37ZM38 130.333H58V128.333H38V130.333Z" fill="#B0C4D4"/>
<path d="M38 250.667H37V251.667H38V250.667ZM58.7071 251.374C59.0976 250.983 59.0976 250.35 58.7071 249.959L52.3431 243.596C51.9526 243.205 51.3195 243.205 50.9289 243.596C50.5384 243.986 50.5384 244.619 50.9289 245.01L56.5858 250.667L50.9289 256.323C50.5384 256.714 50.5384 257.347 50.9289 257.738C51.3195 258.128 51.9526 258.128 52.3431 257.738L58.7071 251.374ZM53.5556 128.333H38V130.333H53.5556V128.333ZM38 251.667H58V249.667H38V251.667ZM37 129.333V250.667H39V129.333H37ZM38 128.333H0V130.333H38V128.333Z" fill="#B0C4D4"/>
</svg>
