<svg width="1" height="186" viewBox="0 0 1 186" fill="none" xmlns="http://www.w3.org/2000/svg">
<path opacity="0.33" fill-rule="evenodd" clip-rule="evenodd" d="M1 185.123L1 186L0 186L-3.83506e-08 185.123L1 185.123ZM1 181.613L1 183.368L-1.15052e-07 183.368L-1.91753e-07 181.613L1 181.613ZM1 178.104L1 179.858L-2.68454e-07 179.858L-3.45155e-07 178.104L1 178.104ZM1 174.594L1 176.349L-4.21856e-07 176.349L-4.98557e-07 174.594L1 174.594ZM0.999999 171.085L0.999999 172.84L-5.75258e-07 172.84L-6.51959e-07 171.085L0.999999 171.085ZM0.999999 167.575L0.999999 169.33L-7.28661e-07 169.33L-8.05362e-07 167.575L0.999999 167.575ZM0.999999 164.066L0.999999 165.821L-8.82063e-07 165.821L-9.58764e-07 164.066L0.999999 164.066ZM0.999999 160.557L0.999999 162.311L-1.03547e-06 162.311L-1.11217e-06 160.557L0.999999 160.557ZM0.999999 157.047L0.999999 158.802L-1.18887e-06 158.802L-1.26557e-06 157.047L0.999999 157.047ZM0.999999 153.538L0.999999 155.292L-1.34227e-06 155.292L-1.41897e-06 153.538L0.999999 153.538ZM0.999998 150.028L0.999999 151.783L-1.49567e-06 151.783L-1.57237e-06 150.028L0.999998 150.028ZM0.999998 146.519L0.999998 148.274L-1.64907e-06 148.274L-1.72578e-06 146.519L0.999998 146.519ZM0.999998 143.009L0.999998 144.764L-1.80248e-06 144.764L-1.87918e-06 143.009L0.999998 143.009ZM0.999998 139.5L0.999998 141.255L-1.95588e-06 141.255L-2.03258e-06 139.5L0.999998 139.5ZM0.999998 135.991L0.999998 137.745L-2.10928e-06 137.745L-2.18598e-06 135.991L0.999998 135.991ZM0.999998 132.481L0.999998 134.236L-2.26268e-06 134.236L-2.33939e-06 132.481L0.999998 132.481ZM0.999998 128.972L0.999998 130.726L-2.41609e-06 130.726L-2.49279e-06 128.972L0.999998 128.972ZM0.999997 125.462L0.999997 127.217L-2.56949e-06 127.217L-2.64619e-06 125.462L0.999997 125.462ZM0.999997 121.953L0.999997 123.708L-2.72289e-06 123.708L-2.79959e-06 121.953L0.999997 121.953ZM0.999997 118.443L0.999997 120.198L-2.87629e-06 120.198L-2.95299e-06 118.443L0.999997 118.443ZM0.999997 114.934L0.999997 116.689L-3.0297e-06 116.689L-3.1064e-06 114.934L0.999997 114.934ZM0.999997 111.425L0.999997 113.179L-3.1831e-06 113.179L-3.2598e-06 111.425L0.999997 111.425ZM0.999997 107.915L0.999997 109.67L-3.3365e-06 109.67L-3.4132e-06 107.915L0.999997 107.915ZM0.999996 104.406L0.999997 106.16L-3.4899e-06 106.16L-3.5666e-06 104.406L0.999996 104.406ZM0.999996 100.896L0.999996 102.651L-3.6433e-06 102.651L-3.72e-06 100.896L0.999996 100.896ZM0.999996 97.3868L0.999996 99.1415L-3.79671e-06 99.1415L-3.87341e-06 97.3868L0.999996 97.3868ZM0.999996 93.8774L0.999996 95.6321L-3.95011e-06 95.6321L-4.02681e-06 93.8774L0.999996 93.8774ZM0.999996 90.3679L0.999996 92.1226L-4.10351e-06 92.1226L-4.18021e-06 90.3679L0.999996 90.3679ZM0.999996 86.8585L0.999996 88.6132L-4.25691e-06 88.6132L-4.33361e-06 86.8585L0.999996 86.8585ZM0.999996 83.3491L0.999996 85.1038L-4.41031e-06 85.1038L-4.48702e-06 83.3491L0.999996 83.3491ZM0.999995 79.8396L0.999995 81.5944L-4.56372e-06 81.5944L-4.64042e-06 79.8396L0.999995 79.8396ZM0.999995 76.3302L0.999995 78.0849L-4.71712e-06 78.0849L-4.79382e-06 76.3302L0.999995 76.3302ZM0.999995 72.8208L0.999995 74.5755L-4.87052e-06 74.5755L-4.94722e-06 72.8208L0.999995 72.8208ZM0.999995 69.3114L0.999995 71.0661L-5.02392e-06 71.0661L-5.10062e-06 69.3114L0.999995 69.3114ZM0.999995 65.8019L0.999995 67.5566L-5.17732e-06 67.5566L-5.25403e-06 65.8019L0.999995 65.8019ZM0.999995 62.2925L0.999995 64.0472L-5.33073e-06 64.0472L-5.40743e-06 62.2925L0.999995 62.2925ZM0.999994 58.7831L0.999995 60.5378L-5.48413e-06 60.5378L-5.56083e-06 58.7831L0.999994 58.7831ZM0.999994 55.2736L0.999994 57.0283L-5.63753e-06 57.0283L-5.71423e-06 55.2736L0.999994 55.2736ZM0.999994 51.7642L0.999994 53.5189L-5.79093e-06 53.5189L-5.86763e-06 51.7642L0.999994 51.7642ZM0.999994 48.2548L0.999994 50.0095L-5.94434e-06 50.0095L-6.02104e-06 48.2548L0.999994 48.2548ZM0.999994 44.7453L0.999994 46.5L-6.09774e-06 46.5L-6.17444e-06 44.7453L0.999994 44.7453ZM0.999994 41.2359L0.999994 42.9906L-6.25114e-06 42.9906L-6.32784e-06 41.2359L0.999994 41.2359ZM0.999994 37.7265L0.999994 39.4812L-6.40454e-06 39.4812L-6.48124e-06 37.7265L0.999994 37.7265ZM0.999993 34.217L0.999993 35.9718L-6.55794e-06 35.9718L-6.63464e-06 34.217L0.999993 34.217ZM0.999993 30.7076L0.999993 32.4623L-6.71135e-06 32.4623L-6.78805e-06 30.7076L0.999993 30.7076ZM0.999993 27.1982L0.999993 28.9529L-6.86475e-06 28.9529L-6.94145e-06 27.1982L0.999993 27.1982ZM0.999993 23.6888L0.999993 25.4435L-7.01815e-06 25.4435L-7.09485e-06 23.6888L0.999993 23.6888ZM0.999993 20.1793L0.999993 21.934L-7.17155e-06 21.934L-7.24825e-06 20.1793L0.999993 20.1793ZM0.999993 16.6699L0.999993 18.4246L-7.32495e-06 18.4246L-7.40165e-06 16.6699L0.999993 16.6699ZM0.999992 13.1605L0.999993 14.9152L-7.47836e-06 14.9152L-7.55506e-06 13.1605L0.999992 13.1605ZM0.999992 9.65103L0.999992 11.4057L-7.63176e-06 11.4057L-7.70846e-06 9.65103L0.999992 9.65103ZM0.999992 6.1416L0.999992 7.89632L-7.78516e-06 7.89632L-7.86186e-06 6.1416L0.999992 6.1416ZM0.999992 2.63217L0.999992 4.38689L-7.93856e-06 4.38689L-8.01526e-06 2.63217L0.999992 2.63217ZM0.999992 -4.37114e-08L0.999992 0.877457L-8.09196e-06 0.877457L-8.13032e-06 0L0.999992 -4.37114e-08Z" fill="black"/>
</svg>
