<svg width="1" height="72" viewBox="0 0 1 72" fill="none" xmlns="http://www.w3.org/2000/svg">
<path opacity="0.33" fill-rule="evenodd" clip-rule="evenodd" d="M1 71.1L1 72L0 72L-3.93402e-08 71.1L1 71.1ZM1 67.5L1 69.3L-1.18021e-07 69.3L-1.96701e-07 67.5L1 67.5ZM1 63.9L1 65.7L-2.75382e-07 65.7L-3.54062e-07 63.9L1 63.9ZM0.999999 60.3L1 62.1L-4.32743e-07 62.1L-5.11423e-07 60.3L0.999999 60.3ZM0.999999 56.7L0.999999 58.5L-5.90104e-07 58.5L-6.68784e-07 56.7L0.999999 56.7ZM0.999999 53.1L0.999999 54.9L-7.47465e-07 54.9L-8.26145e-07 53.1L0.999999 53.1ZM0.999999 49.5L0.999999 51.3L-9.04826e-07 51.3L-9.83506e-07 49.5L0.999999 49.5ZM0.999999 45.9L0.999999 47.7L-1.06219e-06 47.7L-1.14087e-06 45.9L0.999999 45.9ZM0.999999 42.3L0.999999 44.1L-1.21955e-06 44.1L-1.29823e-06 42.3L0.999999 42.3ZM0.999999 38.7L0.999999 40.5L-1.37691e-06 40.5L-1.45559e-06 38.7L0.999999 38.7ZM0.999998 35.1L0.999998 36.9L-1.53427e-06 36.9L-1.61295e-06 35.1L0.999998 35.1ZM0.999998 31.5L0.999998 33.3L-1.69163e-06 33.3L-1.77031e-06 31.5L0.999998 31.5ZM0.999998 27.9L0.999998 29.7L-1.84899e-06 29.7L-1.92767e-06 27.9L0.999998 27.9ZM0.999998 24.3L0.999998 26.1L-2.00635e-06 26.1L-2.08503e-06 24.3L0.999998 24.3ZM0.999998 20.7L0.999998 22.5L-2.16371e-06 22.5L-2.24239e-06 20.7L0.999998 20.7ZM0.999998 17.1L0.999998 18.9L-2.32107e-06 18.9L-2.39975e-06 17.1L0.999998 17.1ZM0.999997 13.5L0.999998 15.3L-2.47844e-06 15.3L-2.55712e-06 13.5L0.999997 13.5ZM0.999997 9.90002L0.999997 11.7L-2.6358e-06 11.7L-2.71448e-06 9.90002L0.999997 9.90002ZM0.999997 6.30002L0.999997 8.10002L-2.79316e-06 8.10002L-2.87184e-06 6.30002L0.999997 6.30002ZM0.999997 2.70001L0.999997 4.50002L-2.95052e-06 4.50002L-3.0292e-06 2.70001L0.999997 2.70001ZM0.999997 -4.37114e-08L0.999997 0.900009L-3.10788e-06 0.900009L-3.14722e-06 0L0.999997 -4.37114e-08Z" fill="black"/>
</svg>
