<svg width="102" height="147" viewBox="0 0 102 147" fill="none" xmlns="http://www.w3.org/2000/svg">
<path d="M57.7844 8.0625V7.0625H56.7844V8.0625H57.7844ZM100.992 8.76961C101.382 8.37908 101.382 7.74592 100.992 7.35539L94.6276 0.991432C94.237 0.600908 93.6039 0.600908 93.2134 0.991432C92.8228 1.38196 92.8228 2.01512 93.2134 2.40565L98.8702 8.0625L93.2134 13.7194C92.8228 14.1099 92.8228 14.743 93.2134 15.1336C93.6039 15.5241 94.237 15.5241 94.6276 15.1336L100.992 8.76961ZM57.7844 139.062H56.7844V140.062H57.7844V139.062ZM100.992 139.77C101.382 139.379 101.382 138.746 100.992 138.355L94.6276 131.991C94.237 131.601 93.6039 131.601 93.2134 131.991C92.8228 132.382 92.8228 133.015 93.2134 133.406L98.8702 139.062L93.2134 144.719C92.8228 145.11 92.8228 145.743 93.2134 146.134C93.6039 146.524 94.237 146.524 94.6276 146.134L100.992 139.77ZM0.284424 75.1657H57.7844V73.1657H0.284424V75.1657ZM58.7844 74.1657V8.0625H56.7844V74.1657H58.7844ZM57.7844 9.0625H100.284V7.0625H57.7844V9.0625ZM56.7844 74.1657V139.062H58.7844V74.1657H56.7844ZM57.7844 140.062H100.284V138.062H57.7844V140.062Z" fill="#20457C"/>
</svg>
