<svg width="790" height="283" viewBox="0 0 790 283" fill="none" xmlns="http://www.w3.org/2000/svg">
<rect x="27.5" y="149" width="100" height="87" rx="5" fill="#9DAFBD"/>
<path d="M0 251H155" stroke="#B0C4D4" stroke-width="2"/>
<path d="M68.499 275H61.6768V273.646L64.8965 270.215C65.3385 269.732 65.6644 269.31 65.874 268.95C66.0882 268.59 66.1953 268.248 66.1953 267.925C66.1953 267.483 66.0837 267.136 65.8604 266.886C65.637 266.631 65.318 266.503 64.9033 266.503C64.4567 266.503 64.1035 266.658 63.8438 266.968C63.5885 267.273 63.4609 267.676 63.4609 268.178H61.4785C61.4785 267.572 61.6221 267.018 61.9092 266.517C62.2008 266.015 62.611 265.623 63.1396 265.341C63.6683 265.054 64.2676 264.91 64.9375 264.91C65.9629 264.91 66.7581 265.156 67.3232 265.648C67.8929 266.141 68.1777 266.836 68.1777 267.733C68.1777 268.226 68.0501 268.727 67.7949 269.237C67.5397 269.748 67.1022 270.342 66.4824 271.021L64.2197 273.407H68.499V275ZM76.415 270.885C76.415 272.261 76.1302 273.314 75.5605 274.043C74.9909 274.772 74.1569 275.137 73.0586 275.137C71.974 275.137 71.1445 274.779 70.5703 274.063C69.9961 273.348 69.7021 272.323 69.6885 270.987V269.155C69.6885 267.765 69.9756 266.71 70.5498 265.99C71.1286 265.27 71.9603 264.91 73.0449 264.91C74.1296 264.91 74.959 265.268 75.5332 265.983C76.1074 266.694 76.4014 267.717 76.415 269.053V270.885ZM74.4395 268.875C74.4395 268.05 74.3255 267.451 74.0977 267.077C73.8743 266.699 73.5234 266.51 73.0449 266.51C72.5801 266.51 72.236 266.69 72.0127 267.05C71.7939 267.405 71.6777 267.964 71.6641 268.725V271.145C71.6641 271.956 71.7734 272.56 71.9922 272.956C72.2155 273.348 72.571 273.544 73.0586 273.544C73.5417 273.544 73.8903 273.355 74.1045 272.977C74.3187 272.598 74.4303 272.02 74.4395 271.24V268.875ZM84.4541 270.885C84.4541 272.261 84.1693 273.314 83.5996 274.043C83.0299 274.772 82.196 275.137 81.0977 275.137C80.013 275.137 79.1836 274.779 78.6094 274.063C78.0352 273.348 77.7412 272.323 77.7275 270.987V269.155C77.7275 267.765 78.0146 266.71 78.5889 265.99C79.1676 265.27 79.9993 264.91 81.084 264.91C82.1686 264.91 82.998 265.268 83.5723 265.983C84.1465 266.694 84.4404 267.717 84.4541 269.053V270.885ZM82.4785 268.875C82.4785 268.05 82.3646 267.451 82.1367 267.077C81.9134 266.699 81.5625 266.51 81.084 266.51C80.6191 266.51 80.2751 266.69 80.0518 267.05C79.833 267.405 79.7168 267.964 79.7031 268.725V271.145C79.7031 271.956 79.8125 272.56 80.0312 272.956C80.2546 273.348 80.61 273.544 81.0977 273.544C81.5807 273.544 81.9294 273.355 82.1436 272.977C82.3577 272.598 82.4694 272.02 82.4785 271.24V268.875ZM92.5615 266.154L88.7129 275H86.6279L90.4834 266.646H85.5342V265.047H92.5615V266.154Z" fill="#6E8198"/>
<rect x="182.5" y="113" width="100" height="123" rx="5" fill="#9DAFBD"/>
<path d="M155 251H310" stroke="#B0C4D4" stroke-width="2"/>
<path d="M223.499 275H216.677V273.646L219.896 270.215C220.339 269.732 220.664 269.31 220.874 268.95C221.088 268.59 221.195 268.248 221.195 267.925C221.195 267.483 221.084 267.136 220.86 266.886C220.637 266.631 220.318 266.503 219.903 266.503C219.457 266.503 219.104 266.658 218.844 266.968C218.589 267.273 218.461 267.676 218.461 268.178H216.479C216.479 267.572 216.622 267.018 216.909 266.517C217.201 266.015 217.611 265.623 218.14 265.341C218.668 265.054 219.268 264.91 219.938 264.91C220.963 264.91 221.758 265.156 222.323 265.648C222.893 266.141 223.178 266.836 223.178 267.733C223.178 268.226 223.05 268.727 222.795 269.237C222.54 269.748 222.102 270.342 221.482 271.021L219.22 273.407H223.499V275ZM231.415 270.885C231.415 272.261 231.13 273.314 230.561 274.043C229.991 274.772 229.157 275.137 228.059 275.137C226.974 275.137 226.145 274.779 225.57 274.063C224.996 273.348 224.702 272.323 224.688 270.987V269.155C224.688 267.765 224.976 266.71 225.55 265.99C226.129 265.27 226.96 264.91 228.045 264.91C229.13 264.91 229.959 265.268 230.533 265.983C231.107 266.694 231.401 267.717 231.415 269.053V270.885ZM229.439 268.875C229.439 268.05 229.326 267.451 229.098 267.077C228.874 266.699 228.523 266.51 228.045 266.51C227.58 266.51 227.236 266.69 227.013 267.05C226.794 267.405 226.678 267.964 226.664 268.725V271.145C226.664 271.956 226.773 272.56 226.992 272.956C227.215 273.348 227.571 273.544 228.059 273.544C228.542 273.544 228.89 273.355 229.104 272.977C229.319 272.598 229.43 272.02 229.439 271.24V268.875ZM237.554 275H235.578V267.385L233.22 268.116V266.51L237.342 265.033H237.554V275ZM247.493 270.885C247.493 272.261 247.208 273.314 246.639 274.043C246.069 274.772 245.235 275.137 244.137 275.137C243.052 275.137 242.223 274.779 241.648 274.063C241.074 273.348 240.78 272.323 240.767 270.987V269.155C240.767 267.765 241.054 266.71 241.628 265.99C242.207 265.27 243.038 264.91 244.123 264.91C245.208 264.91 246.037 265.268 246.611 265.983C247.186 266.694 247.479 267.717 247.493 269.053V270.885ZM245.518 268.875C245.518 268.05 245.404 267.451 245.176 267.077C244.952 266.699 244.602 266.51 244.123 266.51C243.658 266.51 243.314 266.69 243.091 267.05C242.872 267.405 242.756 267.964 242.742 268.725V271.145C242.742 271.956 242.852 272.56 243.07 272.956C243.294 273.348 243.649 273.544 244.137 273.544C244.62 273.544 244.968 273.355 245.183 272.977C245.397 272.598 245.508 272.02 245.518 271.24V268.875Z" fill="#6E8198"/>
<rect x="337.5" y="74" width="100" height="162" rx="5" fill="#9DAFBD"/>
<path d="M310 251H465" stroke="#B0C4D4" stroke-width="2"/>
<path d="M378.499 275H371.677V273.646L374.896 270.215C375.339 269.732 375.664 269.31 375.874 268.95C376.088 268.59 376.195 268.248 376.195 267.925C376.195 267.483 376.084 267.136 375.86 266.886C375.637 266.631 375.318 266.503 374.903 266.503C374.457 266.503 374.104 266.658 373.844 266.968C373.589 267.273 373.461 267.676 373.461 268.178H371.479C371.479 267.572 371.622 267.018 371.909 266.517C372.201 266.015 372.611 265.623 373.14 265.341C373.668 265.054 374.268 264.91 374.938 264.91C375.963 264.91 376.758 265.156 377.323 265.648C377.893 266.141 378.178 266.836 378.178 267.733C378.178 268.226 378.05 268.727 377.795 269.237C377.54 269.748 377.102 270.342 376.482 271.021L374.22 273.407H378.499V275ZM386.415 270.885C386.415 272.261 386.13 273.314 385.561 274.043C384.991 274.772 384.157 275.137 383.059 275.137C381.974 275.137 381.145 274.779 380.57 274.063C379.996 273.348 379.702 272.323 379.688 270.987V269.155C379.688 267.765 379.976 266.71 380.55 265.99C381.129 265.27 381.96 264.91 383.045 264.91C384.13 264.91 384.959 265.268 385.533 265.983C386.107 266.694 386.401 267.717 386.415 269.053V270.885ZM384.439 268.875C384.439 268.05 384.326 267.451 384.098 267.077C383.874 266.699 383.523 266.51 383.045 266.51C382.58 266.51 382.236 266.69 382.013 267.05C381.794 267.405 381.678 267.964 381.664 268.725V271.145C381.664 271.956 381.773 272.56 381.992 272.956C382.215 273.348 382.571 273.544 383.059 273.544C383.542 273.544 383.89 273.355 384.104 272.977C384.319 272.598 384.43 272.02 384.439 271.24V268.875ZM392.554 275H390.578V267.385L388.22 268.116V266.51L392.342 265.033H392.554V275ZM397.804 269.148H398.856C399.358 269.148 399.729 269.023 399.971 268.772C400.212 268.522 400.333 268.189 400.333 267.774C400.333 267.373 400.212 267.061 399.971 266.838C399.734 266.615 399.406 266.503 398.986 266.503C398.608 266.503 398.291 266.608 398.036 266.817C397.781 267.022 397.653 267.291 397.653 267.624H395.678C395.678 267.104 395.817 266.64 396.095 266.229C396.377 265.815 396.769 265.491 397.271 265.259C397.776 265.026 398.332 264.91 398.938 264.91C399.991 264.91 400.816 265.163 401.413 265.669C402.01 266.17 402.309 266.863 402.309 267.747C402.309 268.203 402.17 268.622 401.892 269.005C401.614 269.388 401.249 269.682 400.798 269.887C401.358 270.087 401.775 270.388 402.049 270.789C402.327 271.19 402.466 271.664 402.466 272.211C402.466 273.095 402.142 273.804 401.495 274.337C400.853 274.87 400 275.137 398.938 275.137C397.945 275.137 397.132 274.875 396.498 274.351C395.869 273.826 395.555 273.134 395.555 272.272H397.53C397.53 272.646 397.669 272.951 397.947 273.188C398.23 273.425 398.576 273.544 398.986 273.544C399.456 273.544 399.823 273.421 400.087 273.175C400.356 272.924 400.49 272.594 400.49 272.184C400.49 271.19 399.943 270.693 398.85 270.693H397.804V269.148Z" fill="#6E8198"/>
<rect x="492.5" y="90" width="100" height="146" rx="5" fill="#9DAFBD"/>
<path d="M465 251H620" stroke="#B0C4D4" stroke-width="2"/>
<path d="M533.499 275H526.677V273.646L529.896 270.215C530.339 269.732 530.664 269.31 530.874 268.95C531.088 268.59 531.195 268.248 531.195 267.925C531.195 267.483 531.084 267.136 530.86 266.886C530.637 266.631 530.318 266.503 529.903 266.503C529.457 266.503 529.104 266.658 528.844 266.968C528.589 267.273 528.461 267.676 528.461 268.178H526.479C526.479 267.572 526.622 267.018 526.909 266.517C527.201 266.015 527.611 265.623 528.14 265.341C528.668 265.054 529.268 264.91 529.938 264.91C530.963 264.91 531.758 265.156 532.323 265.648C532.893 266.141 533.178 266.836 533.178 267.733C533.178 268.226 533.05 268.727 532.795 269.237C532.54 269.748 532.102 270.342 531.482 271.021L529.22 273.407H533.499V275ZM541.415 270.885C541.415 272.261 541.13 273.314 540.561 274.043C539.991 274.772 539.157 275.137 538.059 275.137C536.974 275.137 536.145 274.779 535.57 274.063C534.996 273.348 534.702 272.323 534.688 270.987V269.155C534.688 267.765 534.976 266.71 535.55 265.99C536.129 265.27 536.96 264.91 538.045 264.91C539.13 264.91 539.959 265.268 540.533 265.983C541.107 266.694 541.401 267.717 541.415 269.053V270.885ZM539.439 268.875C539.439 268.05 539.326 267.451 539.098 267.077C538.874 266.699 538.523 266.51 538.045 266.51C537.58 266.51 537.236 266.69 537.013 267.05C536.794 267.405 536.678 267.964 536.664 268.725V271.145C536.664 271.956 536.773 272.56 536.992 272.956C537.215 273.348 537.571 273.544 538.059 273.544C538.542 273.544 538.89 273.355 539.104 272.977C539.319 272.598 539.43 272.02 539.439 271.24V268.875ZM547.554 275H545.578V267.385L543.22 268.116V266.51L547.342 265.033H547.554V275ZM556.153 264.944V266.571H555.962C555.069 266.585 554.349 266.817 553.802 267.269C553.259 267.72 552.934 268.346 552.824 269.148C553.353 268.611 554.021 268.342 554.827 268.342C555.693 268.342 556.381 268.652 556.892 269.271C557.402 269.891 557.657 270.707 557.657 271.719C557.657 272.366 557.516 272.951 557.233 273.476C556.955 274 556.559 274.408 556.044 274.699C555.534 274.991 554.955 275.137 554.308 275.137C553.259 275.137 552.412 274.772 551.765 274.043C551.122 273.314 550.801 272.341 550.801 271.124V270.413C550.801 269.333 551.004 268.381 551.409 267.556C551.819 266.726 552.405 266.086 553.166 265.635C553.932 265.179 554.818 264.949 555.825 264.944H556.153ZM554.226 269.928C553.907 269.928 553.617 270.012 553.357 270.181C553.098 270.345 552.906 270.563 552.783 270.837V271.438C552.783 272.099 552.913 272.617 553.173 272.99C553.433 273.359 553.797 273.544 554.267 273.544C554.69 273.544 555.032 273.378 555.292 273.045C555.556 272.708 555.688 272.272 555.688 271.739C555.688 271.197 555.556 270.759 555.292 270.427C555.028 270.094 554.672 269.928 554.226 269.928Z" fill="#6E8198"/>
<rect x="647.5" y="26" width="100" height="210" rx="5" fill="url(#paint0_linear)"/>
<path d="M620 251H775" stroke="#B0C4D4" stroke-width="2"/>
<path d="M688.499 275H681.677V273.646L684.896 270.215C685.339 269.732 685.664 269.31 685.874 268.95C686.088 268.59 686.195 268.248 686.195 267.925C686.195 267.483 686.084 267.136 685.86 266.886C685.637 266.631 685.318 266.503 684.903 266.503C684.457 266.503 684.104 266.658 683.844 266.968C683.589 267.273 683.461 267.676 683.461 268.178H681.479C681.479 267.572 681.622 267.018 681.909 266.517C682.201 266.015 682.611 265.623 683.14 265.341C683.668 265.054 684.268 264.91 684.938 264.91C685.963 264.91 686.758 265.156 687.323 265.648C687.893 266.141 688.178 266.836 688.178 267.733C688.178 268.226 688.05 268.727 687.795 269.237C687.54 269.748 687.102 270.342 686.482 271.021L684.22 273.407H688.499V275ZM696.415 270.885C696.415 272.261 696.13 273.314 695.561 274.043C694.991 274.772 694.157 275.137 693.059 275.137C691.974 275.137 691.145 274.779 690.57 274.063C689.996 273.348 689.702 272.323 689.688 270.987V269.155C689.688 267.765 689.976 266.71 690.55 265.99C691.129 265.27 691.96 264.91 693.045 264.91C694.13 264.91 694.959 265.268 695.533 265.983C696.107 266.694 696.401 267.717 696.415 269.053V270.885ZM694.439 268.875C694.439 268.05 694.326 267.451 694.098 267.077C693.874 266.699 693.523 266.51 693.045 266.51C692.58 266.51 692.236 266.69 692.013 267.05C691.794 267.405 691.678 267.964 691.664 268.725V271.145C691.664 271.956 691.773 272.56 691.992 272.956C692.215 273.348 692.571 273.544 693.059 273.544C693.542 273.544 693.89 273.355 694.104 272.977C694.319 272.598 694.43 272.02 694.439 271.24V268.875ZM702.554 275H700.578V267.385L698.22 268.116V266.51L702.342 265.033H702.554V275ZM710.415 271.021C709.9 271.527 709.299 271.78 708.61 271.78C707.731 271.78 707.027 271.479 706.498 270.878C705.969 270.272 705.705 269.456 705.705 268.431C705.705 267.779 705.846 267.182 706.129 266.64C706.416 266.093 706.815 265.669 707.325 265.368C707.836 265.063 708.41 264.91 709.048 264.91C709.704 264.91 710.287 265.074 710.798 265.402C711.308 265.73 711.705 266.202 711.987 266.817C712.27 267.433 712.413 268.137 712.418 268.93V269.661C712.418 271.32 712.006 272.623 711.181 273.571C710.356 274.519 709.187 275.025 707.674 275.089L707.188 275.096V273.448L707.626 273.441C709.344 273.364 710.274 272.557 710.415 271.021ZM709.096 270.27C709.415 270.27 709.688 270.188 709.916 270.023C710.148 269.859 710.324 269.661 710.442 269.429V268.615C710.442 267.945 710.315 267.426 710.06 267.057C709.804 266.688 709.463 266.503 709.034 266.503C708.638 266.503 708.312 266.685 708.057 267.05C707.801 267.41 707.674 267.863 707.674 268.41C707.674 268.952 707.797 269.399 708.043 269.75C708.294 270.096 708.645 270.27 709.096 270.27Z" fill="#6E8198"/>
<path d="M788.376 246.885C788.376 248.261 788.091 249.314 787.521 250.043C786.952 250.772 786.118 251.137 785.02 251.137C783.935 251.137 783.105 250.779 782.531 250.063C781.957 249.348 781.663 248.323 781.649 246.987V245.155C781.649 243.765 781.937 242.71 782.511 241.99C783.09 241.27 783.921 240.91 785.006 240.91C786.09 240.91 786.92 241.268 787.494 241.983C788.068 242.694 788.362 243.717 788.376 245.053V246.885ZM786.4 244.875C786.4 244.05 786.286 243.451 786.059 243.077C785.835 242.699 785.484 242.51 785.006 242.51C784.541 242.51 784.197 242.69 783.974 243.05C783.755 243.405 783.639 243.964 783.625 244.725V247.145C783.625 247.956 783.734 248.56 783.953 248.956C784.176 249.348 784.532 249.544 785.02 249.544C785.503 249.544 785.851 249.355 786.065 248.977C786.28 248.598 786.391 248.02 786.4 247.24V244.875Z" fill="#6E8198"/>
<path d="M788.499 197H781.677V195.646L784.896 192.215C785.339 191.732 785.664 191.31 785.874 190.95C786.088 190.59 786.195 190.248 786.195 189.925C786.195 189.483 786.084 189.136 785.86 188.886C785.637 188.631 785.318 188.503 784.903 188.503C784.457 188.503 784.104 188.658 783.844 188.968C783.589 189.273 783.461 189.676 783.461 190.178H781.479C781.479 189.572 781.622 189.018 781.909 188.517C782.201 188.015 782.611 187.623 783.14 187.341C783.668 187.054 784.268 186.91 784.938 186.91C785.963 186.91 786.758 187.156 787.323 187.648C787.893 188.141 788.178 188.836 788.178 189.733C788.178 190.226 788.05 190.727 787.795 191.237C787.54 191.748 787.102 192.342 786.482 193.021L784.22 195.407H788.499V197Z" fill="#6E8198"/>
<path d="M787.521 139.254H788.649V140.847H787.521V143H785.546V140.847H781.465L781.376 139.603L785.525 133.047H787.521V139.254ZM783.345 139.254H785.546V135.74L785.416 135.966L783.345 139.254Z" fill="#6E8198"/>
<path d="M787.036 78.9443V80.5713H786.845C785.951 80.585 785.231 80.8174 784.685 81.2686C784.142 81.7197 783.816 82.3464 783.707 83.1484C784.236 82.6107 784.903 82.3418 785.71 82.3418C786.576 82.3418 787.264 82.6517 787.774 83.2715C788.285 83.8913 788.54 84.707 788.54 85.7188C788.54 86.3659 788.399 86.9515 788.116 87.4756C787.838 87.9997 787.442 88.4076 786.927 88.6992C786.416 88.9909 785.838 89.1367 785.19 89.1367C784.142 89.1367 783.295 88.7721 782.647 88.043C782.005 87.3138 781.684 86.3408 781.684 85.124V84.4131C781.684 83.333 781.886 82.3805 782.292 81.5557C782.702 80.7262 783.288 80.0859 784.049 79.6348C784.814 79.179 785.701 78.9489 786.708 78.9443H787.036ZM785.108 83.9277C784.789 83.9277 784.5 84.012 784.24 84.1807C783.98 84.3447 783.789 84.5635 783.666 84.8369V85.4385C783.666 86.0993 783.796 86.6165 784.056 86.9902C784.315 87.3594 784.68 87.5439 785.149 87.5439C785.573 87.5439 785.915 87.3776 786.175 87.0449C786.439 86.7077 786.571 86.2725 786.571 85.7393C786.571 85.1969 786.439 84.7594 786.175 84.4268C785.91 84.0941 785.555 83.9277 785.108 83.9277Z" fill="#6E8198"/>
<path d="M774.707 0.292893C774.317 -0.0976311 773.683 -0.0976311 773.293 0.292893L766.929 6.65685C766.538 7.04738 766.538 7.68054 766.929 8.07107C767.319 8.46159 767.953 8.46159 768.343 8.07107L774 2.41421L779.657 8.07107C780.047 8.46159 780.681 8.46159 781.071 8.07107C781.462 7.68054 781.462 7.04738 781.071 6.65685L774.707 0.292893ZM775 252L775 1L773 1L773 252L775 252Z" fill="#B0C4D4"/>
<defs>
<linearGradient id="paint0_linear" x1="697.5" y1="236" x2="797.346" y2="204.479" gradientUnits="userSpaceOnUse">
<stop stop-color="#229AB8"/>
<stop offset="0.994118" stop-color="#1CB1AC"/>
</linearGradient>
</defs>
</svg>
