<svg width="868" height="305" viewBox="0 0 868 305" fill="none" xmlns="http://www.w3.org/2000/svg">
<rect y="54" width="796" height="54" fill="white" fill-opacity="0.5"/>
<rect y="162" width="796" height="54" fill="white" fill-opacity="0.5"/>
<rect x="35" y="162" width="100" height="96" rx="5" fill="#9DAFBD"/>
<path d="M0 273H170" stroke="#B0C4D4" stroke-width="2"/>
<path d="M75.999 297H69.1768V295.646L72.3965 292.215C72.8385 291.732 73.1644 291.31 73.374 290.95C73.5882 290.59 73.6953 290.248 73.6953 289.925C73.6953 289.483 73.5837 289.136 73.3604 288.886C73.137 288.631 72.818 288.503 72.4033 288.503C71.9567 288.503 71.6035 288.658 71.3438 288.968C71.0885 289.273 70.9609 289.676 70.9609 290.178H68.9785C68.9785 289.572 69.1221 289.018 69.4092 288.517C69.7008 288.015 70.111 287.623 70.6396 287.341C71.1683 287.054 71.7676 286.91 72.4375 286.91C73.4629 286.91 74.2581 287.156 74.8232 287.648C75.3929 288.141 75.6777 288.836 75.6777 289.733C75.6777 290.226 75.5501 290.727 75.2949 291.237C75.0397 291.748 74.6022 292.342 73.9824 293.021L71.7197 295.407H75.999V297ZM83.915 292.885C83.915 294.261 83.6302 295.314 83.0605 296.043C82.4909 296.772 81.6569 297.137 80.5586 297.137C79.474 297.137 78.6445 296.779 78.0703 296.063C77.4961 295.348 77.2021 294.323 77.1885 292.987V291.155C77.1885 289.765 77.4756 288.71 78.0498 287.99C78.6286 287.27 79.4603 286.91 80.5449 286.91C81.6296 286.91 82.459 287.268 83.0332 287.983C83.6074 288.694 83.9014 289.717 83.915 291.053V292.885ZM81.9395 290.875C81.9395 290.05 81.8255 289.451 81.5977 289.077C81.3743 288.699 81.0234 288.51 80.5449 288.51C80.0801 288.51 79.736 288.69 79.5127 289.05C79.2939 289.405 79.1777 289.964 79.1641 290.725V293.145C79.1641 293.956 79.2734 294.56 79.4922 294.956C79.7155 295.348 80.071 295.544 80.5586 295.544C81.0417 295.544 81.3903 295.355 81.6045 294.977C81.8187 294.598 81.9303 294.02 81.9395 293.24V290.875ZM91.9541 292.885C91.9541 294.261 91.6693 295.314 91.0996 296.043C90.5299 296.772 89.696 297.137 88.5977 297.137C87.513 297.137 86.6836 296.779 86.1094 296.063C85.5352 295.348 85.2412 294.323 85.2275 292.987V291.155C85.2275 289.765 85.5146 288.71 86.0889 287.99C86.6676 287.27 87.4993 286.91 88.584 286.91C89.6686 286.91 90.498 287.268 91.0723 287.983C91.6465 288.694 91.9404 289.717 91.9541 291.053V292.885ZM89.9785 290.875C89.9785 290.05 89.8646 289.451 89.6367 289.077C89.4134 288.699 89.0625 288.51 88.584 288.51C88.1191 288.51 87.7751 288.69 87.5518 289.05C87.333 289.405 87.2168 289.964 87.2031 290.725V293.145C87.2031 293.956 87.3125 294.56 87.5312 294.956C87.7546 295.348 88.11 295.544 88.5977 295.544C89.0807 295.544 89.4294 295.355 89.6436 294.977C89.8577 294.598 89.9694 294.02 89.9785 293.24V290.875ZM100.062 288.154L96.2129 297H94.1279L97.9834 288.646H93.0342V287.047H100.062V288.154Z" fill="#6E8198"/>
<rect x="190" y="135" width="100" height="123" rx="5" fill="#9DAFBD"/>
<path d="M155 273H325" stroke="#B0C4D4" stroke-width="2"/>
<path d="M230.999 297H224.177V295.646L227.396 292.215C227.839 291.732 228.164 291.31 228.374 290.95C228.588 290.59 228.695 290.248 228.695 289.925C228.695 289.483 228.584 289.136 228.36 288.886C228.137 288.631 227.818 288.503 227.403 288.503C226.957 288.503 226.604 288.658 226.344 288.968C226.089 289.273 225.961 289.676 225.961 290.178H223.979C223.979 289.572 224.122 289.018 224.409 288.517C224.701 288.015 225.111 287.623 225.64 287.341C226.168 287.054 226.768 286.91 227.438 286.91C228.463 286.91 229.258 287.156 229.823 287.648C230.393 288.141 230.678 288.836 230.678 289.733C230.678 290.226 230.55 290.727 230.295 291.237C230.04 291.748 229.602 292.342 228.982 293.021L226.72 295.407H230.999V297ZM238.915 292.885C238.915 294.261 238.63 295.314 238.061 296.043C237.491 296.772 236.657 297.137 235.559 297.137C234.474 297.137 233.645 296.779 233.07 296.063C232.496 295.348 232.202 294.323 232.188 292.987V291.155C232.188 289.765 232.476 288.71 233.05 287.99C233.629 287.27 234.46 286.91 235.545 286.91C236.63 286.91 237.459 287.268 238.033 287.983C238.607 288.694 238.901 289.717 238.915 291.053V292.885ZM236.939 290.875C236.939 290.05 236.826 289.451 236.598 289.077C236.374 288.699 236.023 288.51 235.545 288.51C235.08 288.51 234.736 288.69 234.513 289.05C234.294 289.405 234.178 289.964 234.164 290.725V293.145C234.164 293.956 234.273 294.56 234.492 294.956C234.715 295.348 235.071 295.544 235.559 295.544C236.042 295.544 236.39 295.355 236.604 294.977C236.819 294.598 236.93 294.02 236.939 293.24V290.875ZM245.054 297H243.078V289.385L240.72 290.116V288.51L244.842 287.033H245.054V297ZM254.993 292.885C254.993 294.261 254.708 295.314 254.139 296.043C253.569 296.772 252.735 297.137 251.637 297.137C250.552 297.137 249.723 296.779 249.148 296.063C248.574 295.348 248.28 294.323 248.267 292.987V291.155C248.267 289.765 248.554 288.71 249.128 287.99C249.707 287.27 250.538 286.91 251.623 286.91C252.708 286.91 253.537 287.268 254.111 287.983C254.686 288.694 254.979 289.717 254.993 291.053V292.885ZM253.018 290.875C253.018 290.05 252.904 289.451 252.676 289.077C252.452 288.699 252.102 288.51 251.623 288.51C251.158 288.51 250.814 288.69 250.591 289.05C250.372 289.405 250.256 289.964 250.242 290.725V293.145C250.242 293.956 250.352 294.56 250.57 294.956C250.794 295.348 251.149 295.544 251.637 295.544C252.12 295.544 252.468 295.355 252.683 294.977C252.897 294.598 253.008 294.02 253.018 293.24V290.875Z" fill="#6E8198"/>
<rect x="345" y="96" width="100" height="162" rx="5" fill="#9DAFBD"/>
<path d="M310 273H480" stroke="#B0C4D4" stroke-width="2"/>
<path d="M385.999 297H379.177V295.646L382.396 292.215C382.839 291.732 383.164 291.31 383.374 290.95C383.588 290.59 383.695 290.248 383.695 289.925C383.695 289.483 383.584 289.136 383.36 288.886C383.137 288.631 382.818 288.503 382.403 288.503C381.957 288.503 381.604 288.658 381.344 288.968C381.089 289.273 380.961 289.676 380.961 290.178H378.979C378.979 289.572 379.122 289.018 379.409 288.517C379.701 288.015 380.111 287.623 380.64 287.341C381.168 287.054 381.768 286.91 382.438 286.91C383.463 286.91 384.258 287.156 384.823 287.648C385.393 288.141 385.678 288.836 385.678 289.733C385.678 290.226 385.55 290.727 385.295 291.237C385.04 291.748 384.602 292.342 383.982 293.021L381.72 295.407H385.999V297ZM393.915 292.885C393.915 294.261 393.63 295.314 393.061 296.043C392.491 296.772 391.657 297.137 390.559 297.137C389.474 297.137 388.645 296.779 388.07 296.063C387.496 295.348 387.202 294.323 387.188 292.987V291.155C387.188 289.765 387.476 288.71 388.05 287.99C388.629 287.27 389.46 286.91 390.545 286.91C391.63 286.91 392.459 287.268 393.033 287.983C393.607 288.694 393.901 289.717 393.915 291.053V292.885ZM391.939 290.875C391.939 290.05 391.826 289.451 391.598 289.077C391.374 288.699 391.023 288.51 390.545 288.51C390.08 288.51 389.736 288.69 389.513 289.05C389.294 289.405 389.178 289.964 389.164 290.725V293.145C389.164 293.956 389.273 294.56 389.492 294.956C389.715 295.348 390.071 295.544 390.559 295.544C391.042 295.544 391.39 295.355 391.604 294.977C391.819 294.598 391.93 294.02 391.939 293.24V290.875ZM400.054 297H398.078V289.385L395.72 290.116V288.51L399.842 287.033H400.054V297ZM405.304 291.148H406.356C406.858 291.148 407.229 291.023 407.471 290.772C407.712 290.522 407.833 290.189 407.833 289.774C407.833 289.373 407.712 289.061 407.471 288.838C407.234 288.615 406.906 288.503 406.486 288.503C406.108 288.503 405.791 288.608 405.536 288.817C405.281 289.022 405.153 289.291 405.153 289.624H403.178C403.178 289.104 403.317 288.64 403.595 288.229C403.877 287.815 404.269 287.491 404.771 287.259C405.276 287.026 405.832 286.91 406.438 286.91C407.491 286.91 408.316 287.163 408.913 287.669C409.51 288.17 409.809 288.863 409.809 289.747C409.809 290.203 409.67 290.622 409.392 291.005C409.114 291.388 408.749 291.682 408.298 291.887C408.858 292.087 409.275 292.388 409.549 292.789C409.827 293.19 409.966 293.664 409.966 294.211C409.966 295.095 409.642 295.804 408.995 296.337C408.353 296.87 407.5 297.137 406.438 297.137C405.445 297.137 404.632 296.875 403.998 296.351C403.369 295.826 403.055 295.134 403.055 294.272H405.03C405.03 294.646 405.169 294.951 405.447 295.188C405.73 295.425 406.076 295.544 406.486 295.544C406.956 295.544 407.323 295.421 407.587 295.175C407.856 294.924 407.99 294.594 407.99 294.184C407.99 293.19 407.443 292.693 406.35 292.693H405.304V291.148Z" fill="#6E8198"/>
<rect x="500" y="108" width="100" height="150" rx="5" fill="#9DAFBD"/>
<path d="M465 273H635" stroke="#B0C4D4" stroke-width="2"/>
<path d="M540.999 297H534.177V295.646L537.396 292.215C537.839 291.732 538.164 291.31 538.374 290.95C538.588 290.59 538.695 290.248 538.695 289.925C538.695 289.483 538.584 289.136 538.36 288.886C538.137 288.631 537.818 288.503 537.403 288.503C536.957 288.503 536.604 288.658 536.344 288.968C536.089 289.273 535.961 289.676 535.961 290.178H533.979C533.979 289.572 534.122 289.018 534.409 288.517C534.701 288.015 535.111 287.623 535.64 287.341C536.168 287.054 536.768 286.91 537.438 286.91C538.463 286.91 539.258 287.156 539.823 287.648C540.393 288.141 540.678 288.836 540.678 289.733C540.678 290.226 540.55 290.727 540.295 291.237C540.04 291.748 539.602 292.342 538.982 293.021L536.72 295.407H540.999V297ZM548.915 292.885C548.915 294.261 548.63 295.314 548.061 296.043C547.491 296.772 546.657 297.137 545.559 297.137C544.474 297.137 543.645 296.779 543.07 296.063C542.496 295.348 542.202 294.323 542.188 292.987V291.155C542.188 289.765 542.476 288.71 543.05 287.99C543.629 287.27 544.46 286.91 545.545 286.91C546.63 286.91 547.459 287.268 548.033 287.983C548.607 288.694 548.901 289.717 548.915 291.053V292.885ZM546.939 290.875C546.939 290.05 546.826 289.451 546.598 289.077C546.374 288.699 546.023 288.51 545.545 288.51C545.08 288.51 544.736 288.69 544.513 289.05C544.294 289.405 544.178 289.964 544.164 290.725V293.145C544.164 293.956 544.273 294.56 544.492 294.956C544.715 295.348 545.071 295.544 545.559 295.544C546.042 295.544 546.39 295.355 546.604 294.977C546.819 294.598 546.93 294.02 546.939 293.24V290.875ZM555.054 297H553.078V289.385L550.72 290.116V288.51L554.842 287.033H555.054V297ZM563.653 286.944V288.571H563.462C562.569 288.585 561.849 288.817 561.302 289.269C560.759 289.72 560.434 290.346 560.324 291.148C560.853 290.611 561.521 290.342 562.327 290.342C563.193 290.342 563.881 290.652 564.392 291.271C564.902 291.891 565.157 292.707 565.157 293.719C565.157 294.366 565.016 294.951 564.733 295.476C564.455 296 564.059 296.408 563.544 296.699C563.034 296.991 562.455 297.137 561.808 297.137C560.759 297.137 559.912 296.772 559.265 296.043C558.622 295.314 558.301 294.341 558.301 293.124V292.413C558.301 291.333 558.504 290.381 558.909 289.556C559.319 288.726 559.905 288.086 560.666 287.635C561.432 287.179 562.318 286.949 563.325 286.944H563.653ZM561.726 291.928C561.407 291.928 561.117 292.012 560.857 292.181C560.598 292.345 560.406 292.563 560.283 292.837V293.438C560.283 294.099 560.413 294.617 560.673 294.99C560.933 295.359 561.297 295.544 561.767 295.544C562.19 295.544 562.532 295.378 562.792 295.045C563.056 294.708 563.188 294.272 563.188 293.739C563.188 293.197 563.056 292.759 562.792 292.427C562.528 292.094 562.172 291.928 561.726 291.928Z" fill="#6E8198"/>
<rect x="655" y="54" width="100" height="204" rx="5" fill="url(#paint0_linear)"/>
<path d="M620 273H790" stroke="#B0C4D4" stroke-width="2"/>
<path d="M695.999 297H689.177V295.646L692.396 292.215C692.839 291.732 693.164 291.31 693.374 290.95C693.588 290.59 693.695 290.248 693.695 289.925C693.695 289.483 693.584 289.136 693.36 288.886C693.137 288.631 692.818 288.503 692.403 288.503C691.957 288.503 691.604 288.658 691.344 288.968C691.089 289.273 690.961 289.676 690.961 290.178H688.979C688.979 289.572 689.122 289.018 689.409 288.517C689.701 288.015 690.111 287.623 690.64 287.341C691.168 287.054 691.768 286.91 692.438 286.91C693.463 286.91 694.258 287.156 694.823 287.648C695.393 288.141 695.678 288.836 695.678 289.733C695.678 290.226 695.55 290.727 695.295 291.237C695.04 291.748 694.602 292.342 693.982 293.021L691.72 295.407H695.999V297ZM703.915 292.885C703.915 294.261 703.63 295.314 703.061 296.043C702.491 296.772 701.657 297.137 700.559 297.137C699.474 297.137 698.645 296.779 698.07 296.063C697.496 295.348 697.202 294.323 697.188 292.987V291.155C697.188 289.765 697.476 288.71 698.05 287.99C698.629 287.27 699.46 286.91 700.545 286.91C701.63 286.91 702.459 287.268 703.033 287.983C703.607 288.694 703.901 289.717 703.915 291.053V292.885ZM701.939 290.875C701.939 290.05 701.826 289.451 701.598 289.077C701.374 288.699 701.023 288.51 700.545 288.51C700.08 288.51 699.736 288.69 699.513 289.05C699.294 289.405 699.178 289.964 699.164 290.725V293.145C699.164 293.956 699.273 294.56 699.492 294.956C699.715 295.348 700.071 295.544 700.559 295.544C701.042 295.544 701.39 295.355 701.604 294.977C701.819 294.598 701.93 294.02 701.939 293.24V290.875ZM710.054 297H708.078V289.385L705.72 290.116V288.51L709.842 287.033H710.054V297ZM717.915 293.021C717.4 293.527 716.799 293.78 716.11 293.78C715.231 293.78 714.527 293.479 713.998 292.878C713.469 292.272 713.205 291.456 713.205 290.431C713.205 289.779 713.346 289.182 713.629 288.64C713.916 288.093 714.315 287.669 714.825 287.368C715.336 287.063 715.91 286.91 716.548 286.91C717.204 286.91 717.787 287.074 718.298 287.402C718.808 287.73 719.205 288.202 719.487 288.817C719.77 289.433 719.913 290.137 719.918 290.93V291.661C719.918 293.32 719.506 294.623 718.681 295.571C717.856 296.519 716.687 297.025 715.174 297.089L714.688 297.096V295.448L715.126 295.441C716.844 295.364 717.774 294.557 717.915 293.021ZM716.596 292.27C716.915 292.27 717.188 292.188 717.416 292.023C717.648 291.859 717.824 291.661 717.942 291.429V290.615C717.942 289.945 717.815 289.426 717.56 289.057C717.304 288.688 716.963 288.503 716.534 288.503C716.138 288.503 715.812 288.685 715.557 289.05C715.301 289.41 715.174 289.863 715.174 290.41C715.174 290.952 715.297 291.399 715.543 291.75C715.794 292.096 716.145 292.27 716.596 292.27Z" fill="#6E8198"/>
<path d="M811.376 269.885C811.376 271.261 811.091 272.314 810.521 273.043C809.952 273.772 809.118 274.137 808.02 274.137C806.935 274.137 806.105 273.779 805.531 273.063C804.957 272.348 804.663 271.323 804.649 269.987V268.155C804.649 266.765 804.937 265.71 805.511 264.99C806.09 264.27 806.921 263.91 808.006 263.91C809.09 263.91 809.92 264.268 810.494 264.983C811.068 265.694 811.362 266.717 811.376 268.053V269.885ZM809.4 267.875C809.4 267.05 809.286 266.451 809.059 266.077C808.835 265.699 808.484 265.51 808.006 265.51C807.541 265.51 807.197 265.69 806.974 266.05C806.755 266.405 806.639 266.964 806.625 267.725V270.145C806.625 270.956 806.734 271.56 806.953 271.956C807.176 272.348 807.532 272.544 808.02 272.544C808.503 272.544 808.851 272.355 809.065 271.977C809.28 271.598 809.391 271.02 809.4 270.24V267.875Z" fill="#6E8198"/>
<path d="M811.499 220H804.677V218.646L807.896 215.215C808.339 214.732 808.664 214.31 808.874 213.95C809.088 213.59 809.195 213.248 809.195 212.925C809.195 212.483 809.084 212.136 808.86 211.886C808.637 211.631 808.318 211.503 807.903 211.503C807.457 211.503 807.104 211.658 806.844 211.968C806.589 212.273 806.461 212.676 806.461 213.178H804.479C804.479 212.572 804.622 212.018 804.909 211.517C805.201 211.015 805.611 210.623 806.14 210.341C806.668 210.054 807.268 209.91 807.938 209.91C808.963 209.91 809.758 210.156 810.323 210.648C810.893 211.141 811.178 211.836 811.178 212.733C811.178 213.226 811.05 213.727 810.795 214.237C810.54 214.748 810.102 215.342 809.482 216.021L807.22 218.407H811.499V220Z" fill="#6E8198"/>
<path d="M810.521 162.254H811.649V163.847H810.521V166H808.546V163.847H804.465L804.376 162.603L808.525 156.047H810.521V162.254ZM806.345 162.254H808.546V158.74L808.416 158.966L806.345 162.254Z" fill="#6E8198"/>
<path d="M810.036 101.944V103.571H809.845C808.951 103.585 808.231 103.817 807.685 104.269C807.142 104.72 806.816 105.346 806.707 106.148C807.236 105.611 807.903 105.342 808.71 105.342C809.576 105.342 810.264 105.652 810.774 106.271C811.285 106.891 811.54 107.707 811.54 108.719C811.54 109.366 811.399 109.951 811.116 110.476C810.838 111 810.442 111.408 809.927 111.699C809.416 111.991 808.838 112.137 808.19 112.137C807.142 112.137 806.295 111.772 805.647 111.043C805.005 110.314 804.684 109.341 804.684 108.124V107.413C804.684 106.333 804.886 105.381 805.292 104.556C805.702 103.726 806.288 103.086 807.049 102.635C807.814 102.179 808.701 101.949 809.708 101.944H810.036ZM808.108 106.928C807.789 106.928 807.5 107.012 807.24 107.181C806.98 107.345 806.789 107.563 806.666 107.837V108.438C806.666 109.099 806.796 109.617 807.056 109.99C807.315 110.359 807.68 110.544 808.149 110.544C808.573 110.544 808.915 110.378 809.175 110.045C809.439 109.708 809.571 109.272 809.571 108.739C809.571 108.197 809.439 107.759 809.175 107.427C808.91 107.094 808.555 106.928 808.108 106.928Z" fill="#6E8198"/>
<path d="M797 273L797 274L798 274L798 273L797 273ZM797.707 25.2929C797.317 24.9024 796.683 24.9024 796.293 25.2929L789.929 31.6569C789.538 32.0474 789.538 32.6805 789.929 33.0711C790.319 33.4616 790.953 33.4616 791.343 33.0711L797 27.4142L802.657 33.0711C803.047 33.4616 803.681 33.4616 804.071 33.0711C804.462 32.6805 804.462 32.0474 804.071 31.6569L797.707 25.2929ZM798 273L798 26L796 26L796 273L798 273ZM797 272L743 272L743 274L797 274L797 272Z" fill="#B0C4D4"/>
<path d="M161 273L161 26" stroke="#B0C4D4" stroke-opacity="0.2" stroke-width="2"/>
<path d="M316 273L316 26" stroke="#B0C4D4" stroke-opacity="0.2" stroke-width="2"/>
<path d="M471 273L471 26" stroke="#B0C4D4" stroke-opacity="0.2" stroke-width="2"/>
<path d="M626 273L626 26" stroke="#B0C4D4" stroke-opacity="0.2" stroke-width="2"/>
<defs>
<linearGradient id="paint0_linear" x1="705" y1="258" x2="804.309" y2="225.726" gradientUnits="userSpaceOnUse">
<stop stop-color="#229AB8"/>
<stop offset="0.994118" stop-color="#1CB1AC"/>
</linearGradient>
</defs>
</svg>
