<svg width="83" height="30" viewBox="0 0 83 30" fill="none" xmlns="http://www.w3.org/2000/svg">
<path d="M82.9985 0.999999L58.3477 1L58.3477 22" stroke="#03E2B2" stroke-dasharray="6 4"/>
<path d="M0.646447 21.4394C0.451184 21.6347 0.451184 21.9513 0.646447 22.1465L3.82843 25.3285C4.02369 25.5238 4.34027 25.5238 4.53553 25.3285C4.7308 25.1332 4.7308 24.8167 4.53553 24.6214L1.70711 21.793L4.53553 18.9645C4.7308 18.7693 4.7308 18.4527 4.53553 18.2574C4.34027 18.0622 4.02369 18.0622 3.82843 18.2574L0.646447 21.4394ZM1 22.293L3.86746 22.293L3.86746 21.293L1 21.293L1 22.293ZM7.69074 22.293L13.4257 22.293L13.4257 21.293L7.69074 21.293L7.69074 22.293ZM17.2489 22.293L22.9839 22.293L22.9839 21.293L17.2489 21.293L17.2489 22.293ZM26.8071 22.293L32.5421 22.293L32.5421 21.293L26.8071 21.293L26.8071 22.293ZM36.3653 22.293L42.1003 22.293L42.1003 21.293L36.3653 21.293L36.3653 22.293ZM45.9235 22.293L51.6585 22.293L51.6585 21.293L45.9235 21.293L45.9235 22.293ZM55.4817 22.293L58.3492 22.293L58.3492 21.293L55.4817 21.293L55.4817 22.293ZM0.292893 21.0859C-0.0976311 21.4764 -0.0976311 22.1096 0.292893 22.5001L6.65685 28.864C7.04738 29.2546 7.68054 29.2546 8.07107 28.864C8.46159 28.4735 8.46159 27.8403 8.07107 27.4498L2.41421 21.793L8.07107 16.1361C8.46159 15.7456 8.46159 15.1124 8.07107 14.7219C7.68054 14.3314 7.04738 14.3314 6.65686 14.7219L0.292893 21.0859ZM1 22.793L3.86746 22.793L3.86746 20.793L1 20.793L1 22.793ZM7.69074 22.793L13.4257 22.793L13.4257 20.793L7.69074 20.793L7.69074 22.793ZM17.2489 22.793L22.9839 22.793L22.9839 20.793L17.2489 20.793L17.2489 22.793ZM26.8071 22.793L32.5421 22.793L32.5421 20.793L26.8071 20.793L26.8071 22.793ZM36.3653 22.793L42.1003 22.793L42.1003 20.793L36.3653 20.793L36.3653 22.793ZM45.9235 22.793L51.6585 22.793L51.6585 20.793L45.9235 20.793L45.9235 22.793ZM55.4817 22.793L58.3492 22.793L58.3492 20.793L55.4817 20.793L55.4817 22.793Z" fill="#03E2B2"/>
</svg>
