<svg width="7" height="10" viewBox="0 0 7 10" fill="none" xmlns="http://www.w3.org/2000/svg">
                  <path d="M5.39402 6.1874H3.28064C3.30439 6.87603 3.47654 7.39052 3.79711 7.73088C4.12164 8.07124 4.58468 8.24142 5.18625 8.24142C5.62159 8.24142 6.02725 8.17612 6.40322 8.04551L6.56945 9.25655C6.09453 9.37133 5.60378 9.42871 5.0972 9.42871C4.08404 9.42871 3.28658 9.14376 2.7048 8.57386C2.12303 8.00396 1.81631 7.20847 1.78465 6.1874H0.763576V5.35035H1.78465V4.59049H0.763576V3.75344H1.79059C1.84203 2.74424 2.16458 1.96063 2.75823 1.4026C3.35188 0.840615 4.14934 0.559622 5.15063 0.559622C5.57014 0.559622 6.04308 0.620966 6.56945 0.743653L6.40322 1.96063C5.99954 1.82607 5.59784 1.75879 5.19812 1.75879C4.60052 1.75879 4.14143 1.92897 3.82086 2.26933C3.50029 2.60968 3.32219 3.10439 3.28658 3.75344H5.39402V4.59049H3.28064V5.35035H5.39402V6.1874Z" fill="#EE0064"/>
                  </svg>