<svg width="177" height="261" viewBox="0 0 177 261" fill="none" xmlns="http://www.w3.org/2000/svg">
                <path d="M7.29289 260.707C7.68342 261.098 8.31658 261.098 8.70711 260.707L15.0711 254.343C15.4616 253.953 15.4616 253.319 15.0711 252.929C14.6805 252.538 14.0474 252.538 13.6569 252.929L8 258.586L2.34315 252.929C1.95262 252.538 1.31946 252.538 0.928932 252.929C0.538408 253.319 0.538408 253.953 0.928932 254.343L7.29289 260.707ZM176.707 8.70711C177.098 8.31658 177.098 7.68342 176.707 7.29289L170.343 0.928932C169.953 0.538408 169.319 0.538408 168.929 0.928932C168.538 1.31946 168.538 1.95262 168.929 2.34315L174.586 8L168.929 13.6569C168.538 14.0474 168.538 14.6805 168.929 15.0711C169.319 15.4616 169.953 15.4616 170.343 15.0711L176.707 8.70711ZM9 260V13H7V260H9ZM13 9H176V7H13V9ZM9 13C9 10.7909 10.7909 9 13 9V7C9.68629 7 7 9.68629 7 13H9Z" fill="#798E9E"/>
              </svg> 