<svg width="161" height="261" viewBox="0 0 161 261" fill="none" xmlns="http://www.w3.org/2000/svg">
                <path d="M153.707 260.707C153.317 261.098 152.683 261.098 152.293 260.707L145.929 254.343C145.538 253.953 145.538 253.319 145.929 252.929C146.319 252.538 146.953 252.538 147.343 252.929L153 258.586L158.657 252.929C159.047 252.538 159.681 252.538 160.071 252.929C160.462 253.319 160.462 253.953 160.071 254.343L153.707 260.707ZM0.292892 8.70711C-0.0976257 8.31658 -0.0976257 7.68342 0.292892 7.29289L6.65686 0.928932C7.04738 0.538408 7.68054 0.538408 8.07108 0.928932C8.46159 1.31946 8.46159 1.95262 8.07108 2.34315L2.41422 8L8.07108 13.6569C8.46159 14.0474 8.46159 14.6805 8.07108 15.0711C7.68054 15.4616 7.04738 15.4616 6.65686 15.0711L0.292892 8.70711ZM152 260V13H154V260H152ZM148 9H1V7H148V9ZM152 13C152 10.7909 150.209 9 148 9V7C151.314 7 154 9.68629 154 13H152Z" fill="#798E9E"/>
              </svg> 