<svg width="7" height="10" viewBox="0 0 7 10" fill="none" xmlns="http://www.w3.org/2000/svg">
                  <path d="M4.93692 6.53765H3.13223L3.1441 6.81073C3.1441 7.34501 3.01746 7.78035 2.76417 8.11675H6.89595L6.89001 9.31592H0.662656V8.11675H1.14945C1.30379 8.08113 1.42252 7.95449 1.50563 7.73682C1.5927 7.51519 1.63624 7.2243 1.63624 6.86416L1.62436 6.53765H0.644846V5.67686H1.59468L1.57094 4.95855H0.644846V4.1037H1.54125L1.51157 3.14792C1.51157 2.34848 1.75892 1.71723 2.25363 1.25419C2.74834 0.791145 3.39739 0.559622 4.20079 0.559622C5.0042 0.559622 5.63544 0.775314 6.09453 1.2067C6.55361 1.63808 6.78316 2.21788 6.78316 2.94608H5.32872C5.32872 2.57011 5.22384 2.27922 5.01409 2.07342C4.80829 1.86367 4.5174 1.75879 4.14143 1.75879C3.79316 1.75879 3.51612 1.88741 3.31032 2.14466C3.10848 2.40191 3.00756 2.73633 3.00756 3.14792L3.04318 4.1037H4.93692V4.95855H3.07286L3.10255 5.67686H4.93692V6.53765Z" fill="#33B5FF"/>
                  </svg>