 <svg width="14" height="11" viewBox="0 0 14 11" fill="none" xmlns="http://www.w3.org/2000/svg">
    <path d="M13.9196 2.33928C13.9196 2.11607 13.8304 1.89286 13.6696 1.73214L12.4554 0.517857C12.2946 0.357142 12.0714 0.267857 11.8482 0.267857C11.625 0.267857 11.4018 0.357142 11.2411 0.517857L5.38393 6.38393L2.75893 3.75C2.59821 3.58929 2.375 3.5 2.15179 3.5C1.92857 3.5 1.70536 3.58929 1.54464 3.75L0.330357 4.96429C0.169643 5.125 0.0803572 5.34821 0.0803572 5.57143C0.0803572 5.79464 0.169643 6.01786 0.330357 6.17857L3.5625 9.41071L4.77679 10.625C4.9375 10.7857 5.16071 10.875 5.38393 10.875C5.60714 10.875 5.83036 10.7857 5.99107 10.625L7.20536 9.41071L13.6696 2.94643C13.8304 2.78571 13.9196 2.5625 13.9196 2.33928Z" fill="#21C5A2"/>
</svg>