<svg width="16" height="60" viewBox="0 0 16 60" fill="none" xmlns="http://www.w3.org/2000/svg">
<path d="M8.70711 0.695237C8.31658 0.304713 7.68342 0.304713 7.29289 0.695237L0.928931 7.0592C0.538408 7.44972 0.538408 8.08289 0.928931 8.47341C1.31946 8.86394 1.95262 8.86394 2.34315 8.47341L8 2.81656L13.6569 8.47341C14.0474 8.86394 14.6805 8.86394 15.0711 8.47341C15.4616 8.08289 15.4616 7.44972 15.0711 7.0592L8.70711 0.695237ZM7.29289 59.1095C7.68341 59.5 8.31658 59.5 8.7071 59.1095L15.0711 52.7455C15.4616 52.355 15.4616 51.7218 15.0711 51.3313C14.6805 50.9408 14.0474 50.9408 13.6569 51.3313L8 56.9881L2.34314 51.3313C1.95262 50.9407 1.31945 50.9407 0.928928 51.3313C0.538404 51.7218 0.538404 52.355 0.928928 52.7455L7.29289 59.1095ZM7 1.40234L7 58.4023L9 58.4023L9 1.40234L7 1.40234Z" fill="#B0C4D4"/>
</svg>
