<svg width="16" height="43" viewBox="0 0 16 43" fill="none" xmlns="http://www.w3.org/2000/svg">
<path d="M8.70711 1.16399C8.31658 0.773463 7.68342 0.773463 7.29289 1.16399L0.928932 7.52795C0.538408 7.91847 0.538408 8.55164 0.928932 8.94216C1.31946 9.33269 1.95262 9.33269 2.34315 8.94216L8 3.28531L13.6569 8.94216C14.0474 9.33269 14.6805 9.33269 15.0711 8.94216C15.4616 8.55164 15.4616 7.91847 15.0711 7.52795L8.70711 1.16399ZM7.29289 42.5782C7.68342 42.9687 8.31658 42.9687 8.70711 42.5782L15.0711 36.2142C15.4616 35.8237 15.4616 35.1906 15.0711 34.8C14.6805 34.4095 14.0474 34.4095 13.6569 34.8L8 40.4569L2.34314 34.8C1.95262 34.4095 1.31946 34.4095 0.928931 34.8C0.538406 35.1905 0.538406 35.8237 0.928931 36.2142L7.29289 42.5782ZM7 1.87109L7 41.8711L9 41.8711L9 1.87109L7 1.87109Z" fill="#B0C4D4"/>
</svg>
