<svg width="68" height="99" viewBox="0 0 68 99" fill="none" xmlns="http://www.w3.org/2000/svg">
<path d="M67.7073 7.63664C68.0979 8.02716 68.0979 8.66033 67.7073 9.05085L61.3434 15.4148C60.9529 15.8053 60.3197 15.8053 59.9292 15.4148C59.5386 15.0243 59.5386 14.3911 59.9292 14.0006L65.586 8.34375L59.9292 2.68689C59.5386 2.29637 59.5386 1.6632 59.9292 1.27268C60.3197 0.882155 60.9529 0.882155 61.3434 1.27268L67.7073 7.63664ZM36.0002 8.34375L35.0002 8.34375L35.0002 7.34375L36.0002 7.34375L36.0002 8.34375ZM36.0002 91.3437L37.0002 91.3437L37.0002 92.3437L36.0002 92.3437L36.0002 91.3437ZM0.292897 92.0509C-0.0976274 91.6603 -0.0976275 91.0272 0.292897 90.6366L6.65686 84.2727C7.04738 83.8822 7.68055 83.8822 8.07107 84.2727C8.4616 84.6632 8.4616 85.2964 8.07107 85.6869L2.41422 91.3437L8.07107 97.0006C8.4616 97.3911 8.4616 98.0243 8.07107 98.4148C7.68055 98.8053 7.04738 98.8053 6.65686 98.4148L0.292897 92.0509ZM67.0002 9.34375L36.0002 9.34375L36.0002 7.34375L67.0002 7.34375L67.0002 9.34375ZM37.0002 8.34375L37.0002 91.3437L35.0002 91.3437L35.0002 8.34375L37.0002 8.34375ZM36.0002 92.3437L1 92.3438L1 90.3438L36.0002 90.3437L36.0002 92.3437Z" fill="#B0C4D4"/>
</svg>
