<svg width="16" height="34" viewBox="0 0 16 34" fill="none" xmlns="http://www.w3.org/2000/svg">
<path d="M8.70711 1.16399C8.31659 0.773463 7.68342 0.773463 7.2929 1.16399L0.928935 7.52795C0.53841 7.91847 0.53841 8.55164 0.928934 8.94216C1.31946 9.33268 1.95262 9.33268 2.34315 8.94216L8 3.28531L13.6569 8.94216C14.0474 9.33269 14.6805 9.33269 15.0711 8.94216C15.4616 8.55164 15.4616 7.91847 15.0711 7.52795L8.70711 1.16399ZM7.29289 33.5782C7.68341 33.9687 8.31658 33.9687 8.7071 33.5782L15.0711 27.2142C15.4616 26.8237 15.4616 26.1906 15.0711 25.8C14.6805 25.4095 14.0474 25.4095 13.6569 25.8L8 31.4569L2.34314 25.8C1.95262 25.4095 1.31945 25.4095 0.92893 25.8C0.538406 26.1905 0.538406 26.8237 0.92893 27.2142L7.29289 33.5782ZM7 1.87109L7 32.8711L9 32.8711L9 1.87109L7 1.87109Z" fill="#03E2B2"/>
</svg>
