<svg width="126" height="29" viewBox="0 0 126 29" fill="none" xmlns="http://www.w3.org/2000/svg">
<path d="M9.89432 23.8316C8.9368 23.8316 7.12817 23.5656 7.12817 21.0654C7.18136 19.7887 7.39414 18.5653 7.76651 17.3418C8.77722 14.4692 10.6391 13.8841 11.8625 13.8841H17.5544L18.3524 9.36247H11.437C8.61763 9.30928 5.85148 10.32 3.67047 12.1286C1.32988 14.2564 0 18.0865 0 20.959C0 24.0976 1.32988 28.5128 7.60692 28.5128H14.5755L15.533 23.7252L9.89432 23.8316Z" fill="#ED2224"/>
<path d="M13.8837 0L12.7134 5.85148H22.4481L18.0329 28.6191H26.225L30.587 5.85148H40.1089L41.2792 0H13.8837Z" fill="#292929"/>
<path d="M123.519 10.32C122.349 9.62843 121.338 9.46884 118.998 9.46884H90.8576L89.9001 14.3628C89.6873 13.6713 89.4213 12.9797 88.9957 12.3946C88.517 11.703 87.8786 11.1179 87.1339 10.6923C86.4424 10.2668 85.6976 9.9476 84.8997 9.78802C84.155 9.62843 83.357 9.52204 82.6123 9.46884H72.1328L68.9943 25.321L66.4941 9.41565H56.8658L47.5566 26.3849L47.5034 22.8741C47.5034 22.0229 47.1843 21.1718 46.5991 20.5335C46.014 19.9483 45.2692 19.6291 44.4181 19.5227V19.4696C45.482 19.31 46.4927 18.9376 47.3438 18.3525C48.8865 17.3949 49.7908 15.7459 49.7908 13.9372C49.844 12.3946 48.9397 10.9583 47.5566 10.2668C46.6523 9.78802 45.5884 9.52204 44.5777 9.46884H32.2896L31.3853 13.9372H39.9497C40.4285 13.9372 42.3435 13.9372 42.3435 15.5331C42.3435 16.2246 42.0243 16.9162 41.386 17.2885C40.5881 17.6609 39.7369 17.8205 38.8326 17.7141H30.6937L28.5659 28.5659H35.4813L36.8112 21.8101H38.407C38.939 21.757 39.5241 21.9165 39.8965 22.2889C40.2157 22.7145 40.3221 23.2464 40.2689 23.7252L40.0561 28.5127H53.6209L55.3231 24.8955H61.547L61.813 28.5127H78.7291C81.5484 28.5659 84.3146 27.5552 86.4956 25.6934C87.0275 25.2146 87.4531 24.6827 87.8786 24.1507L87.0275 28.5127H102.241L103.199 23.5656H95.06L95.5919 20.959H102.401L103.252 16.5438H96.4431L96.975 13.7777H115.647C116.817 13.7777 118.094 14.0436 118.094 15.3203C118.094 16.7566 116.923 17.5545 115.54 17.5545H106.125L103.997 28.4064H111.178L112.508 21.6506H114.104C114.636 21.5974 115.221 21.757 115.647 22.1293C115.913 22.5549 116.072 23.0868 116.019 23.5656L115.806 28.3532H123.253L123.2 22.7677C123.253 21.8101 122.881 20.8526 122.19 20.1611C121.604 19.6823 120.913 19.3632 120.168 19.2568V19.2036C121.445 19.044 122.615 18.512 123.626 17.7141C124.849 16.7034 125.594 15.2139 125.594 13.6181C125.594 12.3946 124.796 11.0115 123.519 10.32ZM57.7169 20.0547L60.5895 13.8309H60.6959L61.1746 20.0547H57.7169ZM81.974 20.4803C80.9633 23.406 79.1014 23.672 77.9311 23.672H76.6012L78.5163 13.8841H79.8993C80.8569 13.8841 82.6655 14.0968 82.6655 16.597C82.6123 17.9801 82.3995 19.2568 81.974 20.4803Z" fill="#292929"/>
</svg>
