<svg width="22" height="139" viewBox="0 0 22 139" fill="none" xmlns="http://www.w3.org/2000/svg">
<path fill-rule="evenodd" clip-rule="evenodd" d="M0 81H16.5556V83H2V130H18.5858L13.9289 125.343C13.5384 124.953 13.5384 124.319 13.9289 123.929C14.3195 123.538 14.9526 123.538 15.3431 123.929L21.7071 130.293C22.0976 130.683 22.0976 131.317 21.7071 131.707L15.3431 138.071C14.9526 138.462 14.3195 138.462 13.9289 138.071C13.5384 137.681 13.5384 137.047 13.9289 136.657L18.5858 132H0V81Z" fill="#B0C4D4"/>
<path fill-rule="evenodd" clip-rule="evenodd" d="M0 0H2V32H18.5858L13.9289 27.3431C13.5384 26.9526 13.5384 26.3195 13.9289 25.9289C14.3195 25.5384 14.9526 25.5384 15.3431 25.9289L21.7071 32.2929C22.0976 32.6834 22.0976 33.3166 21.7071 33.7071L15.3431 40.0711C14.9526 40.4616 14.3195 40.4616 13.9289 40.0711C13.5384 39.6805 13.5384 39.0474 13.9289 38.6569L18.5858 34H0V0Z" fill="#B0C4D4"/>
<path fill-rule="evenodd" clip-rule="evenodd" d="M0 32H19.8889V34H2V81H18.5858L13.9289 76.3431C13.5384 75.9526 13.5384 75.3195 13.9289 74.9289C14.3195 74.5384 14.9526 74.5384 15.3431 74.9289L21.7071 81.2929C22.0976 81.6834 22.0976 82.3166 21.7071 82.7071L15.3431 89.0711C14.9526 89.4616 14.3195 89.4616 13.9289 89.0711C13.5384 88.6805 13.5384 88.0474 13.9289 87.6569L18.5858 83H0V32Z" fill="#B0C4D4"/>
</svg>
