<svg width="572" height="112" viewBox="0 0 572 112" fill="none" xmlns="http://www.w3.org/2000/svg">
<ellipse cx="17.3246" cy="16.9287" rx="16.928" ry="16.9285" fill="#EB3A45"/>
<ellipse cx="17.324" cy="50.7857" rx="16.928" ry="16.9285" fill="#2BEB78"/>
<ellipse cx="17.324" cy="84.6428" rx="16.928" ry="16.9285" fill="#2BEB78"/>
<ellipse cx="51.1804" cy="50.7857" rx="16.928" ry="16.9285" fill="#EB3A45"/>
<ellipse cx="51.1804" cy="84.6428" rx="16.928" ry="16.9285" fill="#2BEB78"/>
<ellipse cx="85.0364" cy="16.9285" rx="16.928" ry="16.9285" fill="#EB3A45"/>
<ellipse cx="85.0364" cy="50.7857" rx="16.928" ry="16.9285" fill="#2BEB78"/>
<ellipse cx="85.0364" cy="84.6428" rx="16.928" ry="16.9285" fill="#2BEB78"/>
<path d="M273.757 15.0305L298.242 76.2419L322.727 15.0305H335.535V90.0505H325.659V60.836L326.585 29.3028L301.997 90.0505H294.435L269.899 29.4574L270.876 60.836V90.0505H261V15.0305H273.757Z" fill="#292929"/>
<path d="M385.842 90.0505C385.294 88.9513 384.848 86.9933 384.505 84.1767C380.081 88.7795 374.8 91.081 368.662 91.081C363.175 91.081 358.665 89.5352 355.133 86.4437C351.635 83.3179 349.887 79.3677 349.887 74.5931C349.887 68.7879 352.081 64.2881 356.471 61.0936C360.894 57.8647 367.101 56.2503 375.092 56.2503H384.351V51.8707C384.351 48.5387 383.356 45.8938 381.367 43.9359C379.378 41.9436 376.446 40.9474 372.571 40.9474C369.176 40.9474 366.33 41.8062 364.032 43.5237C361.735 45.2411 360.586 47.3193 360.586 49.7581H351.018C351.018 46.9758 351.996 44.2965 353.95 41.7203C355.939 39.1097 358.614 37.0487 361.975 35.5373C365.37 34.0259 369.09 33.2702 373.137 33.2702C379.55 33.2702 384.574 34.8847 388.209 38.1136C391.844 41.3081 393.73 45.722 393.867 51.3554V77.0147C393.867 82.1328 394.518 86.2033 395.822 89.2261V90.0505H385.842ZM370.051 82.7855C373.034 82.7855 375.863 82.0126 378.538 80.4669C381.213 78.9211 383.15 76.9117 384.351 74.4385V63H376.892C365.233 63 359.403 66.4178 359.403 73.2534C359.403 76.2419 360.397 78.5776 362.386 80.2608C364.375 81.9439 366.93 82.7855 370.051 82.7855Z" fill="#292929"/>
<path d="M435.687 42.8538C434.246 42.6134 432.686 42.4932 431.006 42.4932C424.765 42.4932 420.529 45.1553 418.3 50.4795V90.0505H408.784V34.3007H418.043L418.197 40.7413C421.318 35.7606 425.742 33.2702 431.469 33.2702C433.321 33.2702 434.727 33.5107 435.687 33.9916V42.8538Z" fill="#292929"/>
<path d="M441.191 61.7119C441.191 53.0214 443.197 46.1171 447.209 40.9989C451.221 35.8465 456.537 33.2702 463.155 33.2702C469.945 33.2702 475.243 35.6747 479.05 40.4837L479.513 34.3007H488.206V88.7108C488.206 95.9243 486.063 101.609 481.776 105.766C477.524 109.922 471.797 112 464.595 112C460.583 112 456.657 111.141 452.816 109.424C448.975 107.706 446.043 105.353 444.02 102.365L448.958 96.6456C453.039 101.695 458.028 104.22 463.927 104.22C468.556 104.22 472.157 102.914 474.729 100.304C477.335 97.6933 478.638 94.0179 478.638 89.2776V84.4858C474.832 88.8826 469.636 91.081 463.052 91.081C456.537 91.081 451.256 88.4532 447.209 83.1977C443.197 77.9422 441.191 70.7802 441.191 61.7119ZM450.758 62.7939C450.758 69.0799 452.044 74.0263 454.616 77.633C457.188 81.2054 460.789 82.9916 465.418 82.9916C471.42 82.9916 475.826 80.2608 478.638 74.7992V49.346C475.723 44.0217 471.351 41.3596 465.521 41.3596C460.892 41.3596 457.274 43.163 454.668 46.7697C452.061 50.3764 450.758 55.7178 450.758 62.7939Z" fill="#292929"/>
<path d="M512.948 90.0505H503.432V34.3007H512.948V90.0505ZM502.66 19.5131C502.66 17.9674 503.123 16.6621 504.049 15.5973C505.009 14.5324 506.415 14 508.267 14C510.119 14 511.525 14.5324 512.485 15.5973C513.445 16.6621 513.925 17.9674 513.925 19.5131C513.925 21.0589 513.445 22.347 512.485 23.3775C511.525 24.408 510.119 24.9232 508.267 24.9232C506.415 24.9232 505.009 24.408 504.049 23.3775C503.123 22.347 502.66 21.0589 502.66 19.5131Z" fill="#292929"/>
<path d="M537.227 34.3007L537.536 41.3081C541.788 35.9495 547.344 33.2702 554.202 33.2702C565.964 33.2702 571.897 39.9169 572 53.2103V90.0505H562.484V53.1588C562.45 49.1399 561.524 46.1686 559.706 44.245C557.923 42.3214 555.128 41.3596 551.322 41.3596C548.235 41.3596 545.526 42.184 543.194 43.8328C540.862 45.4816 539.045 47.6456 537.742 50.3249V90.0505H528.225V34.3007H537.227Z" fill="#292929"/>
<path d="M155.316 90C172.285 90 183.993 81.8783 183.993 68.6545C183.993 58.8668 175.26 51.5781 164.572 50.641V49.7039C172.56 48.5064 180.082 41.5301 180.082 33.6166C180.082 22.0588 169.64 14.8742 154.545 14.8742H122V90H155.316ZM136.889 25.3387H151.074C159.668 25.3387 165.357 29.2434 165.357 35.9594C165.357 42.8316 159.338 46.5281 149.256 46.5281H136.889V25.3387ZM136.889 79.5355V56.0554H151.515C162.368 56.0554 168.773 60.0642 168.773 67.7174C168.773 75.4226 162.533 79.5355 152.066 79.5355H136.889Z" fill="#292929"/>
<path d="M191.351 37.7433H205.359C205.359 29.8298 210.192 23.7769 218.842 23.7769C227.161 23.7769 232.119 29.0352 232.119 35.8553C232.119 41.5821 229.695 45.1744 219.668 54.7539L192.122 80.9412V90H248V78.8587H211.404V77.9736L229.159 62.0947C242.821 49.4435 246.843 43.3523 246.843 34.6058C246.843 22.1109 235.424 13 219.613 13C203.03 13 191.351 23.5303 191.351 37.7433Z" fill="#292929"/>
</svg>
