<svg width="130" height="25" viewBox="0 0 130 25" fill="none" xmlns="http://www.w3.org/2000/svg">
<path d="M53.247 1.02698H68.8713C69.3712 1.02698 69.7462 1.02698 69.8712 1.15548C70.1212 1.41249 70.3712 1.6695 70.3712 2.05502C70.3712 2.44053 70.2462 2.69754 69.8712 2.95455C69.6212 3.08305 69.2463 3.08305 68.8713 3.08305H62.2466V21.8447C62.2466 22.3588 62.1216 22.7443 61.9966 23.0013C61.7466 23.3868 61.4966 23.5153 60.9966 23.5153C60.4967 23.5153 60.2467 23.3868 59.9967 23.0013C59.8717 22.7443 59.7467 22.3588 59.7467 21.8447V3.21156H53.122C52.622 3.21156 52.247 3.21156 52.122 3.08305C51.8721 2.82604 51.6221 2.56903 51.6221 2.18352C51.6221 1.79801 51.7471 1.541 52.122 1.28399C52.497 1.15548 52.872 1.02698 53.247 1.02698Z" fill="#292929"/>
<path d="M72.6229 9.3797V9.89372C73.1229 9.2512 73.6229 8.73718 74.4978 8.35167C75.2478 7.96615 76.1228 7.83765 76.9977 7.83765C78.1227 7.83765 78.9976 8.09466 79.8726 8.60868C80.4976 8.99419 80.7476 9.3797 80.7476 9.76522C80.7476 10.0222 80.6226 10.4077 80.3726 10.5362C80.1226 10.7933 79.8726 10.9218 79.6226 10.9218C79.3726 10.9218 78.9976 10.7933 78.4977 10.5362C77.8727 10.1507 77.2477 10.0222 76.4978 10.0222C75.3728 10.0222 74.3729 10.4077 73.7479 11.1788C73.1229 11.9498 72.7479 12.9778 72.7479 14.1344V22.1017C72.7479 22.6157 72.6229 22.8727 72.4979 23.1297C72.248 23.5152 71.998 23.6437 71.498 23.6437C70.998 23.6437 70.748 23.5152 70.498 23.1297C70.373 22.8727 70.248 22.6157 70.248 22.1017V9.3797C70.248 8.86569 70.373 8.60868 70.498 8.35167C70.748 7.96615 70.998 7.83765 71.498 7.83765C71.998 7.83765 72.248 7.96615 72.4979 8.35167C72.4979 8.48017 72.6229 8.86569 72.6229 9.3797Z" fill="#292929"/>
<path d="M82.123 19.0195C82.123 17.6059 82.623 16.5779 83.623 15.8069C84.6229 15.0358 85.8729 14.6503 87.6228 14.6503H92.3726V13.3653C92.3726 12.2087 92.1226 11.3092 91.4976 10.6667C90.8727 10.0241 89.8727 9.76714 88.4978 9.76714C87.7478 9.76714 87.1228 9.89564 86.4979 10.0241C85.9979 10.2812 85.3729 10.5382 84.8729 11.0522C84.6229 11.3092 84.248 11.4377 83.873 11.4377C83.623 11.4377 83.373 11.3092 83.123 11.1807C82.873 10.9237 82.873 10.6667 82.873 10.4097C82.873 9.89564 83.373 9.38162 84.3729 8.7391C85.4979 8.09657 86.8728 7.71106 88.4978 7.71106C90.4977 7.71106 92.1226 8.09657 93.1226 8.99611C94.1225 9.89564 94.7475 11.1807 94.7475 12.8513V21.8466C94.7475 22.3606 94.6225 22.6176 94.4975 22.8746C94.2475 23.2601 93.9975 23.3886 93.4975 23.3886C92.9976 23.3886 92.7476 23.2601 92.4976 22.8746C92.3726 22.6176 92.2476 22.3606 92.2476 21.8466C91.6226 22.4891 90.9976 22.8746 90.2477 23.1316C89.4977 23.3886 88.7477 23.5171 87.7478 23.5171C86.6228 23.5171 85.7479 23.3886 85.1229 23.1316C84.3729 22.8746 83.873 22.4891 83.373 22.1036C82.498 21.3326 82.123 20.3045 82.123 19.0195ZM84.4979 19.0195C84.4979 20.8185 85.7479 21.7181 88.1228 21.7181C88.8727 21.7181 89.4977 21.5896 90.1227 21.4611C90.6227 21.3326 91.1227 21.0756 91.6226 20.5615C92.1226 20.0475 92.4976 19.148 92.4976 17.8629V16.1924H87.9978C86.8728 16.1924 85.9979 16.4494 85.4979 16.8349C84.7479 17.3489 84.4979 18.1199 84.4979 19.0195Z" fill="#292929"/>
<path d="M99.4951 15.6794C99.4951 12.5953 100.12 10.4107 101.495 9.12567C102.37 8.22614 103.745 7.84062 105.37 7.84062C106.37 7.84062 107.12 7.96913 107.87 8.22614C108.62 8.48315 109.245 8.99717 109.87 9.7682V2.44342C109.87 1.92941 109.995 1.6724 110.12 1.41539C110.37 1.02987 110.62 0.901367 111.12 0.901367C111.62 0.901367 111.87 1.02987 112.12 1.41539C112.245 1.6724 112.37 1.92941 112.37 2.44342V21.9761C112.37 22.4902 112.245 22.7472 112.12 23.0042C111.87 23.3897 111.62 23.5182 111.12 23.5182C110.62 23.5182 110.37 23.3897 110.12 23.0042C109.995 22.7472 109.87 22.4902 109.87 21.9761V21.5906C109.245 22.3617 108.62 22.8757 107.87 23.1327C107.12 23.3897 106.37 23.5182 105.37 23.5182C103.745 23.5182 102.495 23.1327 101.495 22.2332C100.12 20.9481 99.4951 18.7635 99.4951 15.6794ZM101.87 13.8803C101.87 14.3944 101.745 15.0369 101.745 15.6794C101.745 16.3219 101.745 16.9645 101.87 17.4785C101.87 17.9925 101.995 18.5065 102.245 19.0205C102.37 19.5346 102.62 20.0486 102.87 20.3056C103.12 20.6911 103.495 20.9481 103.995 21.2051C104.495 21.4621 105.12 21.5906 105.745 21.5906C106.37 21.5906 106.995 21.4621 107.495 21.2051C107.995 20.9481 108.37 20.6911 108.62 20.3056C108.87 19.9201 109.12 19.5346 109.245 19.0205C109.37 18.5065 109.495 17.9925 109.62 17.4785C109.62 16.9645 109.745 16.3219 109.745 15.6794C109.745 15.0369 109.745 14.3944 109.62 13.8803C109.62 13.3663 109.495 12.8523 109.245 12.3383C109.12 11.8243 108.87 11.3103 108.62 11.0532C108.37 10.6677 107.995 10.2822 107.495 10.1537C106.995 9.8967 106.37 9.7682 105.745 9.7682C105.12 9.7682 104.495 9.8967 103.995 10.1537C103.495 10.4107 103.12 10.6677 102.87 11.0532C102.62 11.4388 102.37 11.8243 102.245 12.3383C102.12 12.8523 101.995 13.3663 101.87 13.8803Z" fill="#292929"/>
<path d="M128.75 16.1924H119.375C119.375 17.8629 119.75 19.148 120.625 20.176C121.375 21.0756 122.625 21.5896 124.125 21.5896C125.5 21.5896 126.625 21.2041 127.5 20.433C128 20.0475 128.25 19.919 128.625 19.919C128.875 19.919 129.125 20.0475 129.375 20.176C129.625 20.3045 129.625 20.5615 129.625 20.8185C129.625 21.3326 129.125 21.9751 128 22.6176C127 23.2601 125.625 23.5171 124.125 23.5171C122 23.5171 120.25 22.8746 119 21.5896C117.75 20.3045 117.125 18.2485 117.125 15.6784C117.125 13.1083 117.75 11.1807 118.875 9.89564C120 8.48209 121.5 7.71106 123.5 7.71106C125.5 7.71106 127 8.35358 128.25 9.63863C129.375 10.9237 130 12.7227 130 14.7788C130 15.2928 129.875 15.5499 129.625 15.8069C129.5 16.1924 129.125 16.1924 128.75 16.1924ZM119.375 14.5218H127.75C127.75 13.4938 127.5 12.7227 127.25 11.9517C127 11.1807 126.5 10.6667 125.875 10.2812C125.25 9.89564 124.5 9.63863 123.625 9.63863C122.75 9.63863 122 9.89564 121.25 10.2812C120.5 10.6667 120.125 11.3092 119.875 11.9517C119.625 12.7227 119.375 13.4938 119.375 14.5218Z" fill="#292929"/>
<path d="M13.7477 8.22518C13.4977 7.96817 13.1228 7.71116 12.6228 7.45415C12.2478 7.32565 11.6228 7.19714 10.8729 7.19714C10.1229 7.19714 9.62292 7.32565 9.12294 7.45415C8.62297 7.71116 8.24798 7.96817 7.99799 8.22518C7.74801 8.48219 7.49802 8.86771 7.37302 9.38173C7.12304 9.89574 7.12304 10.4098 6.99804 10.9238C6.99804 11.4378 6.87305 12.0803 6.87305 12.7228C6.87305 13.3654 6.87305 14.0079 6.99804 14.5219C6.99804 15.0359 7.12304 15.55 7.37302 16.064C7.49802 16.578 7.74801 16.9635 7.99799 17.2205C8.24798 17.4775 8.62297 17.7345 9.12294 17.9915C10.1229 18.3771 11.7478 18.3771 12.7478 17.9915C13.2478 17.863 13.6227 17.606 13.8727 17.2205C14.1227 16.9635 14.3727 16.578 14.4977 16.064C14.6227 15.55 14.7477 15.0359 14.8727 14.5219C14.8727 14.0079 14.9977 13.3654 14.9977 12.7228C14.9977 12.0803 14.9977 11.4378 14.8727 10.9238C14.8727 10.4098 14.7477 9.89574 14.4977 9.38173C14.2477 8.86771 14.1227 8.48219 13.7477 8.22518Z" fill="#D21D1D"/>
<path d="M47.7478 11.0514C45.4979 8.73832 40.2481 2.8271 37.1233 0.642524C36.3733 0 35.2484 0 34.9984 0C32.9985 0 25.7488 0 18.8741 0V19.2757C18.8741 19.9182 18.7491 20.4323 18.4991 20.8178C18.2492 21.2033 17.7492 21.5888 16.8742 21.5888C15.9993 21.5888 15.4993 21.2033 15.2493 20.8178C15.1243 20.6893 14.9993 20.4323 14.9993 20.3038C14.4993 20.6893 13.9994 21.0748 13.3744 21.2033C12.4994 21.5888 11.4995 21.7173 10.2495 21.7173C8.12462 21.7173 6.4997 21.2033 5.37475 20.1752C3.74983 18.7617 2.87487 16.1916 2.87487 12.8505C2.87487 9.38085 3.74983 6.93926 5.37475 5.52571C6.4997 4.49767 8.24962 3.98365 10.2495 3.98365C11.3745 3.98365 12.4994 4.11215 13.3744 4.49767C13.8744 4.62617 14.3743 5.01169 14.8743 5.2687V0C9.24957 0 4.49979 0 4.49979 0C1.99991 0 0 2.05608 0 4.62617V19.6612C0 22.2313 1.99991 24.2874 4.49979 24.2874H34.8734C35.2484 24.2874 36.1233 24.1589 37.1233 23.3879C40.7481 20.6893 46.8728 14.264 47.7478 13.236C48.3728 12.722 48.3728 11.6939 47.7478 11.0514ZM35.6233 21.3318C35.2484 21.4603 34.8734 21.5888 34.6234 21.5888C34.2484 21.5888 33.8734 21.4603 33.4984 21.2033C33.2485 21.0748 32.9985 20.6893 32.7485 20.3038L29.3736 15.5491L25.9988 20.4323C25.7488 20.8178 25.4988 21.0748 25.2488 21.3318C24.6239 21.7173 23.8739 21.7173 23.1239 21.3318C22.374 20.8178 22.124 20.3038 22.124 19.7897C22.124 19.4042 22.374 18.8902 22.7489 18.3762L26.8738 12.5935L22.7489 6.93926C22.374 6.29673 22.124 5.91122 22.124 5.52571C22.124 5.14019 22.249 4.49767 23.1239 3.98365C23.8739 3.59813 24.6239 3.59813 25.2488 4.11215C25.4988 4.24066 25.7488 4.62617 25.9988 5.01169L29.2486 9.76636L32.4985 5.01169C32.7485 4.62617 32.9985 4.36916 33.2485 4.11215C33.7484 3.72664 34.6234 3.59813 35.3734 4.11215C36.2483 4.62617 36.3733 5.2687 36.3733 5.65421C36.3733 6.03972 36.2483 6.42524 35.7483 7.06776L31.6235 12.722L35.7483 18.5047C36.1233 19.0187 36.3733 19.5327 36.3733 19.9182C36.4983 20.3038 36.3733 20.9463 35.6233 21.3318Z" fill="#D21D1D"/>
</svg>
