<svg width="76" height="10" viewBox="0 0 76 10" fill="none" xmlns="http://www.w3.org/2000/svg">
<path d="M0 0.154277H4.75862C6.03766 0.154277 8.10065 0.743338 8.10065 2.7209C8.10065 4.43198 6.68407 4.88079 6.68407 4.88079C6.68407 4.88079 8.43072 5.16129 8.44448 7.19495C8.44448 8.7237 7.35797 10 5.14371 10H0V8.82188L1.059 8.62553V1.52875L0 1.31837V0.154277ZM9.14589 3.19776C9.14589 3.19776 9.09088 0 12.5017 0C15.5411 0 15.7612 2.37027 15.7474 2.84713C15.7474 3.43619 15.4861 4.3338 15.156 4.72651C14.6334 5.37167 11.8415 8.4993 11.8415 8.4993H14.4684L14.5509 7.51753H16.0225V10H9.29718V8.70968L12.4192 5.39972C12.4192 5.39972 13.8357 3.92707 13.7807 2.8892C13.7532 2.46844 13.5607 1.52875 12.4879 1.52875C11.4014 1.52875 11.0713 2.44039 11.0713 3.21178L9.14589 3.19776ZM5.19872 8.4993C5.19872 8.4993 6.50527 8.41515 6.50527 7.1669C6.50527 5.91865 5.62507 5.62412 5.29499 5.62412H3.02571V8.4993H5.19872ZM4.7036 1.65498H3.01196V4.29172C3.01196 4.29172 4.77237 4.29172 4.84113 4.29172C4.92365 4.29172 6.10643 4.19355 6.10643 3.0014C6.12018 1.69705 4.7036 1.65498 4.7036 1.65498Z" fill="#509572"/>
<path d="M26.6265 3.08558H26.0214V0.925696H22.9957V9.18657H23.8897V9.83173H21.3866V9.18657H22.2805V0.925696H19.2548V3.09961H18.6359V0.26651H26.6265V3.08558Z" fill="#3E3E3E"/>
<path d="M24.0266 9.97311H21.2484V9.04745H22.1424V1.05306H19.3918V3.22697H18.4978V0.141418H26.7497V3.22697H25.8833V1.05306H23.1326V9.04745H24.0266V9.97311ZM21.5235 9.69261H23.7653V9.31393H22.8713V0.786579H26.1583V2.96049H26.5022V0.407898H18.7729V2.96049H19.1304V0.786579H22.4175V9.31393H21.5235V9.69261Z" fill="#3C3D3D"/>
<path d="M36.652 9.18682V9.83198H34.7815L34.479 9.21487C33.8601 7.9526 33.42 7.09706 33.1587 6.6763C32.8973 6.24152 32.6635 5.96102 32.4297 5.82076C32.1959 5.68051 31.8521 5.61038 31.3845 5.61038H29.6103V9.18682H30.7243V9.83198H28.015V9.18682H28.9089V0.925953H28.015V0.280792H32.6223C34.644 0.280792 35.538 1.08023 35.538 2.90351C35.538 4.57252 34.754 5.37195 33.0349 5.41403V5.48416C33.2412 5.55428 33.4062 5.66648 33.53 5.82076C33.6675 5.97504 33.8601 6.2836 34.0939 6.76045C34.3414 7.20926 34.7403 8.03675 35.3042 9.18682H36.652ZM32.6635 0.925953H29.6241V4.96522H32.6498C34.1626 4.96522 34.8228 4.34811 34.8228 2.94559C34.809 1.51501 34.1764 0.925953 32.6635 0.925953Z" fill="#3E3E3E"/>
<path d="M36.7899 9.97219H34.6994L34.3694 9.27092C33.7505 8.02268 33.3104 7.16714 33.0628 6.74638C32.8152 6.32562 32.5814 6.05914 32.3751 5.93292C32.1688 5.80669 31.8388 5.75059 31.3987 5.75059H29.762V9.04652H30.876V9.97219H27.9053V9.04652H28.7993V1.05213H27.9053V0.126465H32.6227C34.7269 0.126465 35.6622 0.982004 35.6622 2.88944C35.6622 4.50234 34.9195 5.35788 33.4066 5.51216C33.4891 5.56826 33.5579 5.63839 33.6267 5.70851C33.7642 5.86279 33.9568 6.17134 34.2181 6.67625C34.4794 7.15311 34.8782 7.96658 35.3871 9.03249H36.7899V9.97219ZM34.8645 9.69168H36.5149V9.313H35.2083L35.167 9.24287C34.6444 8.13488 34.2181 7.30739 33.9705 6.81651C33.723 6.35367 33.5442 6.04512 33.4204 5.90486C33.2966 5.76461 33.1453 5.66644 32.9803 5.61033L32.884 5.58228V5.28775H33.0078C34.6444 5.24568 35.3871 4.51637 35.3871 2.90346C35.3871 1.16433 34.5619 0.420995 32.6089 0.420995H28.1529V0.799676H29.0469V9.32702H28.1529V9.70571H30.601V9.32702H29.487V5.47008H31.3987C31.88 5.47008 32.2651 5.54021 32.5127 5.69449C32.7602 5.84876 33.0078 6.14329 33.2966 6.5921C33.5579 7.02688 33.998 7.88242 34.6169 9.1447L34.8645 9.69168ZM32.6502 5.0914H29.5007V0.785651H32.664C34.2456 0.785651 34.947 1.44484 34.947 2.93151C34.947 4.41819 34.2318 5.0914 32.6502 5.0914ZM29.762 4.82492H32.6502C34.0943 4.82492 34.6857 4.27794 34.6857 2.94554C34.6857 1.58509 34.1218 1.06616 32.664 1.06616H29.762V4.82492V4.82492Z" fill="#3C3D3D"/>
<path d="M46.9805 9.18633V9.83149H44.0786V9.18633H45.3576L44.2986 6.42336H40.2139L39.1549 9.18633H40.434V9.83149H37.6146V9.18633H38.4673L41.8368 0.280304H42.7445L46.1278 9.18633H46.9805ZM44.0648 5.80625L42.2769 1.10779H42.2219L40.434 5.80625H44.0648Z" fill="#3E3E3E"/>
<path d="M47.1047 9.97278H43.9415V9.04711H45.1518L44.2028 6.55062H40.2969L39.3479 9.04711H40.5582V9.97278H37.4775V9.04711H38.3714L41.741 0.141083H42.8275L46.2108 9.04711H47.1047V9.97278V9.97278ZM44.2028 9.69227H46.8297V9.31359H46.0182L42.6349 0.407563H41.906L38.5365 9.31359H37.725V9.69227H40.2694V9.31359H38.9491L40.1043 6.28414H44.3816L45.5369 9.31359H44.2028V9.69227ZM44.2578 5.94753H40.2419L42.1261 0.982597H42.3599L44.2578 5.94753ZM40.627 5.68105H43.8727L42.2498 1.41738L40.627 5.68105Z" fill="#3C3D3D"/>
<path d="M51.8501 9.83198H48.123V9.18682H49.0169V0.925953H48.123V0.280792H51.8501C54.6833 0.280792 56.2236 1.90772 56.2236 5.0634C56.2236 8.19103 54.6833 9.83198 51.8501 9.83198ZM51.8914 0.925953H49.7184V9.18682H51.8914C54.2294 9.18682 55.5085 7.77027 55.5085 5.0634C55.5085 2.3425 54.2294 0.925953 51.8914 0.925953Z" fill="#3E3E3E"/>
<path d="M51.8499 9.97219H47.999V9.04652H48.893V1.05213H47.999V0.126465H51.8499C54.7931 0.126465 56.361 1.82352 56.361 5.0353C56.361 8.21903 54.7519 9.97219 51.8499 9.97219ZM48.2603 9.69168H51.8499C54.6281 9.69168 56.0859 8.0928 56.0859 5.04933C56.0859 2.00585 54.6143 0.40697 51.8499 0.40697H48.2603V0.785651H49.1543V9.313H48.2603V9.69168ZM51.8912 9.313H49.5944V0.785651H51.8912C54.3118 0.785651 55.6458 2.30038 55.6458 5.04933C55.6458 7.79827 54.3118 9.313 51.8912 9.313ZM49.8557 9.04652H51.8912C54.1742 9.04652 55.3708 7.67205 55.3708 5.04933C55.3708 2.44063 54.1605 1.05213 51.8912 1.05213H49.8557V9.04652Z" fill="#3C3D3D"/>
<path d="M64.5984 2.62255V0.925495H59.3034V4.55803H63.5806V5.18917H59.3034V9.18636H64.5984V7.22283H65.2723V9.83152H57.708V9.18636H58.602V0.925495H57.708V0.280334H65.2723V2.62255H64.5984Z" fill="#3E3E3E"/>
<path d="M65.4103 9.97219H57.5709V9.04652H58.4649V1.05213H57.5709V0.126465H65.4103V2.74919H64.4613V1.05213H59.4276V4.41819H63.7049V5.32983H59.4276V9.04652H64.4613V7.08299H65.4103V9.97219ZM57.8322 9.69168H65.1352V7.34947H64.7226V9.313H59.1663V5.04933H63.4436V4.68467H59.1663V0.785651H64.7226V2.48271H65.1352V0.40697H57.8322V0.785651H58.7262V9.313H57.8322V9.69168V9.69168Z" fill="#3C3D3D"/>
<path d="M75.6014 9.18682V9.83198H73.731L73.4284 9.21487C72.8095 7.9526 72.3694 7.09706 72.1081 6.6763C71.8468 6.24152 71.6129 5.96102 71.3791 5.82076C71.1453 5.68051 70.8015 5.61038 70.3339 5.61038H68.5597V9.18682H69.6737V9.83198H66.9644V9.18682H67.8583V0.925953H66.9644V0.280792H71.5579C73.5797 0.280792 74.4736 1.08023 74.4736 2.90351C74.4736 4.57252 73.6897 5.37195 71.9705 5.41403V5.48416C72.1768 5.55428 72.3419 5.66648 72.4657 5.82076C72.6032 5.97504 72.7957 6.2836 73.0295 6.76045C73.2771 7.20926 73.6759 8.03675 74.2398 9.18682H75.6014ZM71.6129 0.925953H68.5735V4.96522H71.5992C73.1121 4.96522 73.7722 4.34811 73.7722 2.94559C73.7585 1.51501 73.1258 0.925953 71.6129 0.925953Z" fill="#3E3E3E"/>
<path d="M75.7389 9.97219H73.6484L73.3183 9.27092C72.6994 8.02268 72.2593 7.16714 72.0118 6.74638C71.7642 6.32562 71.5304 6.05914 71.3241 5.93292C71.1178 5.80669 70.7877 5.75059 70.3476 5.75059H68.711V9.04652H69.825V9.97219H66.8543V9.04652H67.7483V1.05213H66.8543V0.126465H71.5717C73.6759 0.126465 74.6111 0.982004 74.6111 2.88944C74.6111 4.50234 73.8685 5.35788 72.3556 5.51216C72.4381 5.56826 72.5069 5.63839 72.5756 5.70851C72.7132 5.86279 72.9057 6.17134 73.167 6.67625C73.4146 7.15311 73.8272 7.96658 74.3361 9.03249H75.7389V9.97219ZM73.8134 9.69168H75.4638V9.313H74.1573L74.116 9.24287C73.5934 8.13488 73.167 7.30739 72.9195 6.81651C72.6719 6.33965 72.4931 6.04512 72.3693 5.90486C72.2456 5.76461 72.0943 5.66644 71.9292 5.61033L71.833 5.58228V5.28775H71.9568C73.5934 5.24568 74.3361 4.51637 74.3361 2.90346C74.3361 1.16433 73.5109 0.420995 71.5579 0.420995H67.1019V0.799676H67.9958V9.32702H67.1019V9.70571H69.5499V9.32702H68.4359V5.47008H70.3476C70.829 5.47008 71.2141 5.54021 71.4616 5.69449C71.7092 5.84876 71.9567 6.14329 72.2456 6.5921C72.5069 7.02688 72.947 7.88242 73.5659 9.1447L73.8134 9.69168ZM71.5992 5.0914H68.4497V0.785651H71.6129C73.1945 0.785651 73.896 1.44484 73.896 2.93151C73.896 4.41819 73.1808 5.0914 71.5992 5.0914ZM68.711 4.82492H71.5992C73.0433 4.82492 73.6346 4.27794 73.6346 2.94554C73.6346 1.58509 73.0708 1.06616 71.6129 1.06616H68.711V4.82492V4.82492Z" fill="#3C3D3D"/>
</svg>
