<svg width="265" height="59" viewBox="0 0 265 59" fill="none" xmlns="http://www.w3.org/2000/svg">
<path d="M8 36.4797L7 36.4797L7 35.4797L8 35.4797L8 36.4797ZM8.70711 58.4309C8.31659 58.8214 7.68342 58.8214 7.2929 58.4309L0.928936 52.0669C0.538412 51.6764 0.538411 51.0432 0.928936 50.6527C1.31946 50.2622 1.95263 50.2622 2.34315 50.6527L8 56.3096L13.6569 50.6527C14.0474 50.2622 14.6805 50.2622 15.0711 50.6527C15.4616 51.0432 15.4616 51.6764 15.0711 52.0669L8.70711 58.4309ZM256.293 0.695226C256.683 0.304702 257.317 0.304702 257.707 0.695226L264.071 7.05919C264.462 7.44971 264.462 8.08288 264.071 8.4734C263.681 8.86392 263.047 8.86392 262.657 8.4734L257 2.81655L251.343 8.4734C250.953 8.86393 250.319 8.86393 249.929 8.4734C249.538 8.08288 249.538 7.44971 249.929 7.05919L256.293 0.695226ZM257 36.4797L258 36.4797L258 37.4797L257 37.4797L257 36.4797ZM9 36.4797L9 57.7238L7 57.7238L7 36.4797L9 36.4797ZM258 1.40233L258 36.4797L256 36.4797L256 1.40233L258 1.40233ZM257 37.4797L8 37.4797L8 35.4797L257 35.4797L257 37.4797Z" fill="#B0C4D4" fill-opacity="0.5"/>
</svg>
