<svg width="133" height="34" viewBox="0 0 133 34" fill="none" xmlns="http://www.w3.org/2000/svg">
<mask id="mask0" mask-type="alpha" maskUnits="userSpaceOnUse" x="0" y="0" width="34" height="34">
<path d="M0 0H33.462V33.3255H0V0Z" fill="#3E3E3E"/>
</mask>
<g mask="url(#mask0)">
<path fill-rule="evenodd" clip-rule="evenodd" d="M16.7157 0.0108907C7.47477 0.0196033 -0.00873348 7.48627 7.64979e-06 16.6889C0.00767051 24.9299 6.06184 31.9272 14.2441 33.1513V28.1089C6.70487 26.7377 1.70822 19.539 3.08615 12.031C4.46299 4.52182 11.6917 -0.453053 19.231 0.918086C26.7713 2.28922 31.7669 9.48797 30.39 16.9971C29.3522 22.6516 24.9089 27.0764 19.231 28.1089V9.69272H17.9514L12.3632 14.8331V16.1836H15.9502V33.3255H16.7266C25.9675 33.3277 33.4598 25.8676 33.462 16.6649C33.4631 7.46231 25.973 0.00108907 16.7321 0H16.7266L16.7157 0.0108907Z" fill="#4193CF"/>
</g>
<path fill-rule="evenodd" clip-rule="evenodd" d="M53.4668 28.1343H57.3785V28.9684H54.3939V30.3964H57.0356V31.1926H54.3939V33.3283H53.4668V28.1343Z" fill="#292929"/>
<path fill-rule="evenodd" clip-rule="evenodd" d="M61.4722 33.3283H62.411V28.1343H61.4722V33.3283Z" fill="#292929"/>
<path fill-rule="evenodd" clip-rule="evenodd" d="M67.8062 28.1343H68.5342L70.9464 31.7224V28.1343H71.7179V33.3283H71.0551L68.5776 29.6398V33.3283H67.8062V28.1343Z" fill="#292929"/>
<path fill-rule="evenodd" clip-rule="evenodd" d="M79.0683 31.2753L78.2056 29.2201L77.368 31.2753H79.0683ZM77.8718 28.1353H78.6734L80.8499 33.3293H79.9298L79.4272 32.0837H77.0342L76.5185 33.3293H75.6343L77.8718 28.1353Z" fill="#292929"/>
<path fill-rule="evenodd" clip-rule="evenodd" d="M86.106 28.1343H86.8258L89.2119 31.7224V28.1343H89.9747V33.3283H89.3183L86.8258 29.6398V33.3283H86.063L86.106 28.1343Z" fill="#292929"/>
<path fill-rule="evenodd" clip-rule="evenodd" d="M93.8858 30.7379C93.8568 29.3351 94.8014 28.1705 95.9953 28.1365C96.0263 28.1352 96.0584 28.1352 96.0894 28.1365C96.7184 28.1061 97.3278 28.3942 97.7654 28.9266L97.2792 29.5709C96.9678 29.1892 96.5395 28.9667 96.0894 28.9509C95.2949 28.9631 94.6597 29.7301 94.67 30.6625C94.671 30.6832 94.671 30.7051 94.6721 30.7257C94.6317 31.6654 95.2463 32.4641 96.046 32.5115C96.0605 32.5115 96.0749 32.5127 96.0894 32.5127C96.5571 32.5066 97.0009 32.2684 97.3102 31.8563L97.7965 32.4276C97.362 33.0208 96.7236 33.3503 96.0584 33.3272C94.8697 33.3418 93.8972 32.221 93.8848 30.823C93.8848 30.795 93.8848 30.7659 93.8858 30.7379Z" fill="#292929"/>
<path fill-rule="evenodd" clip-rule="evenodd" d="M103.195 33.3283H104.134V28.1343H103.195V33.3283Z" fill="#292929"/>
<path fill-rule="evenodd" clip-rule="evenodd" d="M111.656 31.2753L110.815 29.2201L109.973 31.2753H111.656ZM110.471 28.1353H111.288L113.446 33.3293H112.473L111.988 32.0837H109.618L109.119 33.3293H108.23L110.471 28.1353Z" fill="#292929"/>
<path fill-rule="evenodd" clip-rule="evenodd" d="M118.65 28.1343H119.617V32.4877H122.562V33.3283H118.716L118.65 28.1343Z" fill="#292929"/>
<path fill-rule="evenodd" clip-rule="evenodd" d="M46.5485 20.6284C47.0697 21.4322 47.9794 21.8609 48.9031 21.7417C49.8267 21.8586 50.7354 21.43 51.2576 20.6284C51.7361 19.5061 51.9426 18.2802 51.857 17.0555C51.9469 15.8442 51.7254 14.6295 51.2148 13.5361C50.6744 12.7902 49.7957 12.396 48.9031 12.5007C48.0073 12.3938 47.1243 12.7879 46.5806 13.5361C46.0701 14.6295 45.8485 15.8442 45.9384 17.0555C45.8624 18.2658 46.0722 19.4771 46.5485 20.5838V20.6284ZM44.4079 11.7213C45.307 10.5411 46.8053 9.95215 48.9031 9.95215C51.0008 9.95215 52.4992 10.5411 53.3982 11.7213C54.4053 13.2901 54.8805 15.1628 54.7467 17.0433C54.8751 18.9227 54.4128 20.7943 53.4303 22.3764C52.5677 23.6167 51.0575 24.2357 48.9031 24.2357C46.7625 24.2357 45.2428 23.6345 44.3651 22.432C43.3912 20.8466 42.9342 18.9772 43.0594 17.1001C42.9139 15.2006 43.3891 13.3057 44.4079 11.7213Z" fill="#292929"/>
<path fill-rule="evenodd" clip-rule="evenodd" d="M60.0864 22.9071H57.3784V10.2013H60.056V10.9902C61.0895 10.3404 62.2721 9.98225 63.4842 9.95215C65.1374 9.95215 66.2733 10.4286 66.8717 11.3836C67.5898 12.8514 67.9052 14.4916 67.7845 16.1286V22.9372H65.0968V16.1701C65.1627 15.1767 65.0136 14.1802 64.6607 13.2532C64.2905 12.6283 63.5927 12.2888 62.8857 12.3916C62.0419 12.3698 61.2021 12.5286 60.4211 12.8577L60.056 13.003L60.0864 22.9071Z" fill="#292929"/>
<path fill-rule="evenodd" clip-rule="evenodd" d="M79.1686 16.0433C79.2537 15.0538 79.014 14.0631 78.4853 13.2208C77.9286 12.6262 77.1243 12.3261 76.3122 12.4065C75.4743 12.3339 74.6499 12.6463 74.0719 13.2543C73.5353 14.0821 73.2799 15.0593 73.3438 16.0433H79.1686ZM80.8153 21.4539L81.577 21.3647V23.5959C79.7567 23.9819 77.904 24.1905 76.0434 24.2206C74.4348 24.3422 72.8599 23.7253 71.7644 22.5472C70.7506 20.9608 70.2869 19.0878 70.4426 17.2147C70.4426 12.373 72.4253 9.95215 76.3917 9.95215C80.2216 9.95215 82.1482 12.0383 82.1482 16.2106L81.9578 18.3414H73.411C73.3516 19.2283 73.6137 20.1074 74.1514 20.818C74.8862 21.4383 75.8473 21.725 76.8051 21.6101C78.1045 21.6101 79.4375 21.5543 80.8153 21.4539Z" fill="#292929"/>
<path fill-rule="evenodd" clip-rule="evenodd" d="M84.7539 7.33837V4.75854H96.4784V7.59852L88.1956 19.8581V20.3567H96.4891V22.9376H84.7646V20.1183L93.0357 7.86951V7.33837H84.7539Z" fill="#292929"/>
<path fill-rule="evenodd" clip-rule="evenodd" d="M106.653 16.0335C106.748 15.0472 106.521 14.0575 106.004 13.2106C105.447 12.6159 104.644 12.3158 103.832 12.3961C102.996 12.3236 102.172 12.636 101.593 13.2441C101.058 14.072 100.802 15.0494 100.867 16.0335H106.653ZM108.299 21.4449L109.059 21.3556V23.5871C107.241 23.9732 105.39 24.1818 103.531 24.212C101.891 24.3693 100.273 23.7545 99.1546 22.5484C98.1383 20.964 97.6694 19.0918 97.8216 17.2162C97.8216 12.3738 99.8071 9.95264 103.777 9.95264C107.605 9.95264 109.529 12.0391 109.529 16.212L109.328 18.3431H100.899C100.836 19.2312 101.098 20.1116 101.639 20.8201C102.373 21.4416 103.335 21.7294 104.292 21.6123C105.59 21.6011 106.922 21.5453 108.299 21.4449Z" fill="#292929"/>
<path fill-rule="evenodd" clip-rule="evenodd" d="M112.142 22.9377V10.2329H115.18V11.7577C116.627 10.8785 118.253 10.2651 119.966 9.95264V12.724C118.544 12.9628 117.155 13.3375 115.823 13.845L115.202 14.0724V22.9377H112.142Z" fill="#292929"/>
<path fill-rule="evenodd" clip-rule="evenodd" d="M124.78 20.6701C125.985 22.0315 128.017 22.1176 129.323 20.8613C129.387 20.7998 129.447 20.7372 129.506 20.6701C129.981 19.5423 130.186 18.3117 130.107 17.0833C130.197 15.8672 129.975 14.6478 129.463 13.5501C128.235 12.2144 126.199 12.1697 124.918 13.4518C124.886 13.4842 124.854 13.5177 124.823 13.5501C124.312 14.6478 124.09 15.8672 124.18 17.0833C124.088 18.2916 124.27 19.5055 124.716 20.6254L124.78 20.6701ZM122.637 11.7282C123.538 10.5434 125.037 9.95215 127.127 9.95215C129.218 9.95215 130.729 10.5434 131.629 11.7282C132.636 13.3031 133.111 15.1832 132.978 17.071C133.104 18.9566 132.646 20.8333 131.672 22.425C130.792 23.6321 129.281 24.2357 127.127 24.2357C124.974 24.2357 123.473 23.6321 122.594 22.425C121.614 20.8356 121.156 18.9566 121.287 17.071C121.154 15.1832 121.629 13.3031 122.637 11.7282Z" fill="#292929"/>
</svg>
