<svg width="81" height="14" viewBox="0 0 81 14" fill="none" xmlns="http://www.w3.org/2000/svg">
<path d="M32.454 0.556732H42.1762C42.4873 0.556732 42.7207 0.556732 42.7984 0.626089C42.954 0.764802 43.1096 0.903515 43.1096 1.11159C43.1096 1.31966 43.0318 1.45837 42.7984 1.59708C42.6429 1.66644 42.4096 1.66644 42.1762 1.66644H38.054V11.7925C38.054 12.0699 37.9762 12.278 37.8984 12.4167C37.7429 12.6248 37.5873 12.6941 37.2762 12.6941C36.9651 12.6941 36.8095 12.6248 36.654 12.4167C36.5762 12.278 36.4984 12.0699 36.4984 11.7925V1.73579H32.3762C32.0651 1.73579 31.8318 1.73579 31.754 1.66644C31.5984 1.52773 31.4429 1.38901 31.4429 1.18094C31.4429 0.972872 31.5207 0.834159 31.754 0.695445C31.9873 0.626089 32.2206 0.556732 32.454 0.556732Z" fill="#383838"/>
<path d="M44.5103 5.06423V5.34165C44.8214 4.99487 45.1325 4.71745 45.677 4.50938C46.1436 4.30131 46.6881 4.23195 47.2325 4.23195C47.9325 4.23195 48.477 4.37066 49.0214 4.64809C49.4103 4.85616 49.5659 5.06423 49.5659 5.2723C49.5659 5.41101 49.4881 5.61908 49.3325 5.68844C49.177 5.82715 49.0214 5.89651 48.8659 5.89651C48.7103 5.89651 48.477 5.82715 48.1659 5.68844C47.777 5.48037 47.3881 5.41101 46.9214 5.41101C46.2214 5.41101 45.5992 5.61908 45.2103 6.03522C44.8214 6.45136 44.5881 7.00621 44.5881 7.63042V11.9305C44.5881 12.208 44.5103 12.3467 44.4325 12.4854C44.277 12.6935 44.1214 12.7628 43.8103 12.7628C43.4992 12.7628 43.3436 12.6935 43.1881 12.4854C43.1103 12.3467 43.0325 12.208 43.0325 11.9305V5.06423C43.0325 4.7868 43.1103 4.64809 43.1881 4.50938C43.3436 4.30131 43.4992 4.23195 43.8103 4.23195C44.1214 4.23195 44.277 4.30131 44.4325 4.50938C44.4325 4.57873 44.5103 4.7868 44.5103 5.06423Z" fill="#383838"/>
<path d="M50.4214 10.2662C50.4214 9.50329 50.7325 8.94843 51.3547 8.53229C51.9769 8.11615 52.7547 7.90808 53.8436 7.90808H56.7992V7.21452C56.7992 6.59031 56.6436 6.10481 56.2547 5.75803C55.8658 5.41125 55.2436 5.27253 54.3881 5.27253C53.9214 5.27253 53.5325 5.34189 53.1436 5.41125C52.8325 5.54996 52.4436 5.68867 52.1325 5.9661C51.9769 6.10481 51.7436 6.17417 51.5103 6.17417C51.3547 6.17417 51.1992 6.10481 51.0436 6.03546C50.8881 5.89674 50.8881 5.75803 50.8881 5.61932C50.8881 5.34189 51.1992 5.06446 51.8214 4.71768C52.5214 4.3709 53.377 4.16283 54.3881 4.16283C55.6325 4.16283 56.6436 4.3709 57.2658 4.85639C57.8881 5.34189 58.277 6.03546 58.277 6.93709V11.7921C58.277 12.0695 58.1992 12.2082 58.1214 12.3469C57.9658 12.555 57.8103 12.6243 57.4992 12.6243C57.1881 12.6243 57.0325 12.555 56.877 12.3469C56.7992 12.2082 56.7214 12.0695 56.7214 11.7921C56.3325 12.1388 55.9436 12.3469 55.477 12.4856C55.0103 12.6243 54.5436 12.6937 53.9214 12.6937C53.2214 12.6937 52.6769 12.6243 52.2881 12.4856C51.8214 12.3469 51.5103 12.1388 51.1992 11.9308C50.6547 11.5146 50.4214 10.9598 50.4214 10.2662ZM51.8992 10.2662C51.8992 11.2372 52.6769 11.7227 54.1547 11.7227C54.6214 11.7227 55.0103 11.6533 55.3992 11.584C55.7103 11.5146 56.0214 11.3759 56.3325 11.0985C56.6436 10.8211 56.877 10.3356 56.877 9.642V8.74036H54.077C53.377 8.74036 52.8325 8.87908 52.5214 9.08715C52.0547 9.36457 51.8992 9.78071 51.8992 10.2662Z" fill="#383838"/>
<path d="M61.2317 8.46234C61.2317 6.79778 61.6206 5.61872 62.4761 4.92515C63.0206 4.43966 63.8761 4.23159 64.8873 4.23159C65.5095 4.23159 65.9761 4.30094 66.4428 4.43966C66.9095 4.57837 67.2984 4.8558 67.6873 5.27193V1.31861C67.6873 1.04118 67.765 0.902468 67.8428 0.763755C67.9984 0.555685 68.1539 0.486328 68.465 0.486328C68.7762 0.486328 68.9317 0.555685 69.0873 0.763755C69.165 0.902468 69.2428 1.04118 69.2428 1.31861V11.8608C69.2428 12.1382 69.165 12.277 69.0873 12.4157C68.9317 12.6237 68.7762 12.6931 68.465 12.6931C68.1539 12.6931 67.9984 12.6237 67.8428 12.4157C67.765 12.277 67.6873 12.1382 67.6873 11.8608V11.6527C67.2984 12.0689 66.9095 12.3463 66.4428 12.485C65.9761 12.6237 65.5095 12.6931 64.8873 12.6931C63.8761 12.6931 63.0984 12.485 62.4761 11.9995C61.6206 11.306 61.2317 10.1269 61.2317 8.46234ZM62.7095 7.49135C62.7095 7.76877 62.6317 8.11556 62.6317 8.46234C62.6317 8.80912 62.6317 9.15591 62.7095 9.43333C62.7095 9.71076 62.7873 9.98819 62.9428 10.2656C63.0206 10.543 63.1761 10.8205 63.3317 10.9592C63.4873 11.1672 63.7206 11.306 64.0317 11.4447C64.3428 11.5834 64.7317 11.6527 65.1206 11.6527C65.5095 11.6527 65.8984 11.5834 66.2095 11.4447C66.5206 11.306 66.7539 11.1672 66.9095 10.9592C67.065 10.7511 67.2206 10.543 67.2984 10.2656C67.3761 9.98819 67.4539 9.71076 67.5317 9.43333C67.5317 9.15591 67.6095 8.80912 67.6095 8.46234C67.6095 8.11556 67.6095 7.76877 67.5317 7.49135C67.5317 7.21392 67.4539 6.93649 67.2984 6.65907C67.2206 6.38164 67.065 6.10421 66.9095 5.9655C66.7539 5.75743 66.5206 5.54936 66.2095 5.48C65.8984 5.34129 65.5095 5.27193 65.1206 5.27193C64.7317 5.27193 64.3428 5.34129 64.0317 5.48C63.7206 5.61872 63.4873 5.75743 63.3317 5.9655C63.1761 6.17357 63.0206 6.38164 62.9428 6.65907C62.865 6.93649 62.7872 7.21392 62.7095 7.49135Z" fill="#383838"/>
<path d="M79.431 8.74036H73.5977C73.5977 9.642 73.831 10.3356 74.3755 10.8904C74.8421 11.3759 75.6199 11.6533 76.5533 11.6533C77.4088 11.6533 78.1088 11.4453 78.6533 11.0291C78.9644 10.8211 79.1199 10.7517 79.3533 10.7517C79.5088 10.7517 79.6644 10.8211 79.8199 10.8904C79.9755 10.9598 79.9755 11.0985 79.9755 11.2372C79.9755 11.5146 79.6644 11.8614 78.9644 12.2082C78.3422 12.555 77.4866 12.6937 76.5533 12.6937C75.231 12.6937 74.1421 12.3469 73.3644 11.6533C72.5866 10.9598 72.1977 9.85007 72.1977 8.46294C72.1977 7.0758 72.5866 6.03546 73.2866 5.34189C73.9866 4.57897 74.9199 4.16283 76.1644 4.16283C77.4088 4.16283 78.3422 4.50961 79.1199 5.20318C79.8199 5.89674 80.2088 6.86773 80.2088 7.97744C80.2088 8.25487 80.131 8.39358 79.9755 8.53229C79.8977 8.74036 79.6644 8.74036 79.431 8.74036ZM73.5977 7.83873H78.8088C78.8088 7.28387 78.6533 6.86773 78.4977 6.4516C78.3422 6.03546 78.031 5.75803 77.6421 5.54996C77.2533 5.34189 76.7866 5.20318 76.2421 5.20318C75.6977 5.20318 75.231 5.34189 74.7644 5.54996C74.2977 5.75803 74.0644 6.10481 73.9088 6.4516C73.7533 6.86773 73.5977 7.28387 73.5977 7.83873Z" fill="#383838"/>
<path d="M8.55586 4.43873C8.40031 4.30001 8.16697 4.1613 7.85586 4.02259C7.62253 3.95323 7.23364 3.88387 6.76697 3.88387C6.3003 3.88387 5.98919 3.95323 5.67808 4.02259C5.36697 4.1613 5.13363 4.30001 4.97808 4.43873C4.82252 4.57744 4.66697 4.78551 4.58919 5.06294C4.43363 5.34036 4.43363 5.61779 4.35585 5.89521C4.35585 6.17264 4.27808 6.51942 4.27808 6.86621C4.27808 7.21299 4.27808 7.55977 4.35585 7.8372C4.35585 8.11463 4.43363 8.39205 4.58919 8.66948C4.66697 8.94691 4.82252 9.15498 4.97808 9.29369C5.13363 9.4324 5.36697 9.57111 5.67808 9.70983C6.3003 9.9179 7.31141 9.9179 7.93364 9.70983C8.24475 9.64047 8.47808 9.50176 8.63364 9.29369C8.7892 9.15498 8.94475 8.94691 9.02253 8.66948C9.10031 8.39205 9.17808 8.11463 9.25586 7.8372C9.25586 7.55977 9.33364 7.21299 9.33364 6.86621C9.33364 6.51942 9.33364 6.17264 9.25586 5.89521C9.25586 5.61779 9.17809 5.34036 9.02253 5.06294C8.86697 4.78551 8.7892 4.57744 8.55586 4.43873Z" fill="#D9492C"/>
<path d="M29.7112 5.96467C28.3112 4.71625 25.0445 1.52585 23.1 0.346783C22.6334 0 21.9334 0 21.7778 0C20.5334 0 16.0223 0 11.7445 0V10.4035C11.7445 10.7503 11.6667 11.0277 11.5111 11.2358C11.3556 11.4438 11.0445 11.6519 10.5 11.6519C9.95557 11.6519 9.64446 11.4438 9.4889 11.2358C9.41113 11.1664 9.33335 11.0277 9.33335 10.9583C9.02224 11.1664 8.71113 11.3745 8.32224 11.4438C7.77779 11.6519 7.15557 11.7213 6.37779 11.7213C5.05556 11.7213 4.04445 11.4438 3.34445 10.889C2.33334 10.1261 1.78889 8.73893 1.78889 6.93566C1.78889 5.06303 2.33334 3.74526 3.34445 2.98233C4.04445 2.42748 5.13334 2.15005 6.37779 2.15005C7.07779 2.15005 7.77779 2.21941 8.32224 2.42748C8.63335 2.49684 8.94446 2.70491 9.25557 2.84362V0C5.75557 0 2.8 0 2.8 0C1.24445 0 0 1.10971 0 2.49684V10.6116C0 11.9987 1.24445 13.1084 2.8 13.1084H21.7C21.9334 13.1084 22.4778 13.039 23.1 12.6229C25.3556 11.1664 29.1667 7.69858 29.7112 7.14373C30.1001 6.8663 30.1001 6.31145 29.7112 5.96467ZM22.1667 11.5132C21.9334 11.5826 21.7 11.6519 21.5445 11.6519C21.3111 11.6519 21.0778 11.5826 20.8445 11.4438C20.6889 11.3745 20.5334 11.1664 20.3778 10.9583L18.2778 8.39215L16.1778 11.0277C16.0222 11.2358 15.8667 11.3745 15.7111 11.5132C15.3222 11.7213 14.8556 11.7213 14.3889 11.5132C13.9222 11.2358 13.7667 10.9583 13.7667 10.6809C13.7667 10.4728 13.9222 10.1954 14.1556 9.918L16.7222 6.79695L14.1556 3.74526C13.9222 3.39847 13.7667 3.1904 13.7667 2.98233C13.7667 2.77426 13.8445 2.42748 14.3889 2.15005C14.8556 1.94198 15.3222 1.94199 15.7111 2.21941C15.8667 2.28877 16.0222 2.49684 16.1778 2.70491L18.2 5.2711L20.2223 2.70491C20.3778 2.49684 20.5334 2.35812 20.6889 2.21941C21 2.01134 21.5445 1.94199 22.0111 2.21941C22.5556 2.49684 22.6334 2.84362 22.6334 3.05169C22.6334 3.25976 22.5556 3.46783 22.2445 3.81461L19.6778 6.8663L22.2445 9.98735C22.4778 10.2648 22.6334 10.5422 22.6334 10.7503C22.7111 10.9583 22.6334 11.3051 22.1667 11.5132Z" fill="#D9492C"/>
</svg>
