<svg width="258" height="59" viewBox="0 0 258 59" fill="none" xmlns="http://www.w3.org/2000/svg">
<path d="M257 36.9024L258 36.9024L258 35.9024L257 35.9024L257 36.9024ZM8.70709 0.695226C8.31657 0.304702 7.6834 0.304702 7.29288 0.695226L0.928924 7.05919C0.538391 7.44971 0.538391 8.08288 0.928924 8.4734C1.31944 8.86392 1.95261 8.86392 2.34312 8.4734L7.99998 2.81655L13.6568 8.4734C14.0474 8.86393 14.6805 8.86393 15.0711 8.4734C15.4616 8.08288 15.4616 7.44971 15.0711 7.05919L8.70709 0.695226ZM7.99998 36.9023L6.99998 36.9023L6.99998 37.9023L7.99998 37.9023L7.99998 36.9023ZM256 36.9024L256 58.4024L258 58.4024L258 36.9024L256 36.9024ZM6.99998 1.40233L6.99998 36.9023L8.99998 36.9023L8.99998 1.40233L6.99998 1.40233ZM7.99998 37.9023L257 37.9024L257 35.9024L7.99998 35.9023L7.99998 37.9023Z" fill="#B0C4D4" fill-opacity="0.5"/>
</svg>
