<svg width="16" height="40" viewBox="0 0 16 40" fill="none" xmlns="http://www.w3.org/2000/svg">
<path d="M8.70708 0.663987C8.31656 0.273463 7.6834 0.273463 7.29287 0.663987L0.928913 7.02795C0.538389 7.41848 0.53839 8.05164 0.928914 8.44217C1.31944 8.83269 1.9526 8.83269 2.34313 8.44216L7.99998 2.78531L13.6568 8.44216C14.0474 8.83268 14.6805 8.83268 15.071 8.44216C15.4616 8.05163 15.4616 7.41847 15.071 7.02794L8.70708 0.663987ZM7.29289 39.0782C7.68342 39.4687 8.31658 39.4687 8.70711 39.0782L15.0711 32.7142C15.4616 32.3237 15.4616 31.6905 15.0711 31.3C14.6805 30.9095 14.0474 30.9095 13.6568 31.3L8 36.9569L2.34314 31.3C1.95262 30.9095 1.31945 30.9095 0.928927 31.3C0.538403 31.6906 0.538403 32.3237 0.928927 32.7142L7.29289 39.0782ZM6.99998 1.37109L7 38.3711L9 38.3711L8.99998 1.37109L6.99998 1.37109Z" fill="#03E2B2"/>
</svg>
