<svg width="22" height="337" viewBox="0 0 22 337" fill="none" xmlns="http://www.w3.org/2000/svg">
<path fill-rule="evenodd" clip-rule="evenodd" d="M0 278.414H2V328.414H18.5858L13.9289 323.757C13.5384 323.367 13.5384 322.734 13.9289 322.343C14.3195 321.952 14.9526 321.952 15.3431 322.343L21.7071 328.707C22.0976 329.097 22.0976 329.731 21.7071 330.121L15.3431 336.485C14.9526 336.876 14.3195 336.876 13.9289 336.485C13.5384 336.095 13.5384 335.461 13.9289 335.071L18.5858 330.414H0V278.414Z" fill="#B0C4D4"/>
<path fill-rule="evenodd" clip-rule="evenodd" d="M0 81H16.5556V83H2V130H18.5858L13.9289 125.343C13.5384 124.953 13.5384 124.319 13.9289 123.929C14.3195 123.538 14.9526 123.538 15.3431 123.929L21.7071 130.293C22.0976 130.683 22.0976 131.317 21.7071 131.707L15.3431 138.071C14.9526 138.462 14.3195 138.462 13.9289 138.071C13.5384 137.681 13.5384 137.047 13.9289 136.657L18.5858 132H0V81Z" fill="#B0C4D4"/>
<path fill-rule="evenodd" clip-rule="evenodd" d="M0 32H19.8889V34H2V81H18.5858L13.9289 76.3431C13.5384 75.9526 13.5384 75.3195 13.9289 74.9289C14.3195 74.5384 14.9526 74.5384 15.3431 74.9289L21.7071 81.2929C22.0976 81.6834 22.0976 82.3166 21.7071 82.7071L15.3431 89.0711C14.9526 89.4616 14.3195 89.4616 13.9289 89.0711C13.5384 88.6805 13.5384 88.0474 13.9289 87.6569L18.5858 83H0V32Z" fill="#B0C4D4"/>
<path fill-rule="evenodd" clip-rule="evenodd" d="M0 0H2V32H18.5858L13.9289 27.3431C13.5384 26.9526 13.5384 26.3195 13.9289 25.9289C14.3195 25.5384 14.9526 25.5384 15.3431 25.9289L21.7071 32.2929C22.0976 32.6834 22.0976 33.3166 21.7071 33.7071L15.3431 40.0711C14.9526 40.4616 14.3195 40.4616 13.9289 40.0711C13.5384 39.6805 13.5384 39.0474 13.9289 38.6569L18.5858 34H0V0Z" fill="#B0C4D4"/>
<path fill-rule="evenodd" clip-rule="evenodd" d="M0 130H16.5556V132H2V179H18.5858L13.9289 174.343C13.5384 173.953 13.5384 173.319 13.9289 172.929C14.3195 172.538 14.9526 172.538 15.3431 172.929L21.7071 179.293C22.0976 179.683 22.0976 180.317 21.7071 180.707L15.3431 187.071C14.9526 187.462 14.3195 187.462 13.9289 187.071C13.5384 186.681 13.5384 186.047 13.9289 185.657L18.5858 181H0V130Z" fill="#B0C4D4"/>
<path fill-rule="evenodd" clip-rule="evenodd" d="M0 179H16.5556V181H2V228H18.5858L13.9289 223.343C13.5384 222.953 13.5384 222.319 13.9289 221.929C14.3195 221.538 14.9526 221.538 15.3431 221.929L21.7071 228.293C22.0976 228.683 22.0976 229.317 21.7071 229.707L15.3431 236.071C14.9526 236.462 14.3195 236.462 13.9289 236.071C13.5384 235.681 13.5384 235.047 13.9289 234.657L18.5858 230H0V179Z" fill="#B0C4D4"/>
<path fill-rule="evenodd" clip-rule="evenodd" d="M0 228H16.5556V230H2V277H18.5858L13.9289 272.343C13.5384 271.953 13.5384 271.319 13.9289 270.929C14.3195 270.538 14.9526 270.538 15.3431 270.929L21.7071 277.293C22.0976 277.683 22.0976 278.317 21.7071 278.707L15.3431 285.071C14.9526 285.462 14.3195 285.462 13.9289 285.071C13.5384 284.681 13.5384 284.047 13.9289 283.657L18.5858 279H0V228Z" fill="#B0C4D4"/>
</svg>
