<svg width="59" height="16" viewBox="0 0 59 16" fill="none" xmlns="http://www.w3.org/2000/svg">
<path d="M58.7071 7.08586C59.0976 7.47639 59.0976 8.10955 58.7071 8.50008L52.3431 14.864C51.9526 15.2546 51.3195 15.2546 50.9289 14.864C50.5384 14.4735 50.5384 13.8403 50.9289 13.4498L56.5858 7.79297L50.9289 2.13611C50.5384 1.74559 50.5384 1.11243 50.9289 0.721901C51.3195 0.331377 51.9526 0.331377 52.3431 0.721901L58.7071 7.08586ZM0.292893 8.50008C-0.0976311 8.10955 -0.0976311 7.47639 0.292893 7.08586L6.65685 0.721901C7.04738 0.331377 7.68054 0.331377 8.07107 0.721901C8.46159 1.11243 8.46159 1.74559 8.07107 2.13611L2.41421 7.79297L8.07107 13.4498C8.46159 13.8403 8.46159 14.4735 8.07107 14.864C7.68054 15.2546 7.04738 15.2546 6.65685 14.864L0.292893 8.50008ZM58 8.79297L1 8.79297L1 6.79297L58 6.79297L58 8.79297Z" fill="#B0C4D4"/>
</svg>
