<svg width="31" height="722" viewBox="0 0 31 722" fill="none" xmlns="http://www.w3.org/2000/svg">
<path fill-rule="evenodd" clip-rule="evenodd" d="M0 206H20.4444V208H2V293H26V295H0V206Z" fill="#B0C4D4"/>
<path fill-rule="evenodd" clip-rule="evenodd" d="M0 293H20.4444V295H2V378H26V380H0V293Z" fill="#B0C4D4"/>
<path fill-rule="evenodd" clip-rule="evenodd" d="M0 378H20.4444V380H2V463H26V465H0V378Z" fill="#B0C4D4"/>
<path fill-rule="evenodd" clip-rule="evenodd" d="M0 463H20.4444V465H2V550H26V552H0V463Z" fill="#B0C4D4"/>
<path fill-rule="evenodd" clip-rule="evenodd" d="M0 635H20.4444V637H2V720H26V722H0V635Z" fill="#B0C4D4"/>
<path fill-rule="evenodd" clip-rule="evenodd" d="M0 550H20.4444V552H2V635H26V637H0V550Z" fill="#B0C4D4"/>
<path fill-rule="evenodd" clip-rule="evenodd" d="M0 121H20.4444V123H2V206H26V208H0V121Z" fill="#B0C4D4"/>
<path fill-rule="evenodd" clip-rule="evenodd" d="M0 0H31V2H2V121H25.5455V123H0V0Z" fill="#B0C4D4"/>
</svg>
