 <svg width="148" height="57" viewBox="0 0 148 57" fill="none" xmlns="http://www.w3.org/2000/svg">
                <path d="M140.707 1.01555C140.317 0.625027 139.683 0.625027 139.293 1.01555L132.929 7.37951C132.538 7.77003 132.538 8.4032 132.929 8.79372C133.319 9.18425 133.953 9.18425 134.343 8.79372L140 3.13687L145.657 8.79372C146.047 9.18425 146.681 9.18425 147.071 8.79372C147.462 8.4032 147.462 7.77003 147.071 7.37951L140.707 1.01555ZM140 48.7227V49.7227H141V48.7227H140ZM0.292892 48.0155C-0.0976257 48.4061 -0.0976257 49.0392 0.292892 49.4298L6.65686 55.7937C7.04738 56.1842 7.68054 56.1842 8.07108 55.7937C8.46159 55.4032 8.46159 54.77 8.07108 54.3795L2.41422 48.7227L8.07108 43.0658C8.46159 42.6753 8.46159 42.0421 8.07108 41.6516C7.68054 41.2611 7.04738 41.2611 6.65686 41.6516L0.292892 48.0155ZM139 1.72266V48.7227H141V1.72266H139ZM140 47.7227H1V49.7227H140V47.7227Z" fill="#AABDCC"/>
              </svg> 