<svg width="16" height="95" viewBox="0 0 16 95" fill="none" xmlns="http://www.w3.org/2000/svg">
                <path d="M8.70808 0.292892C8.31756 -0.0976334 7.68439 -0.0976334 7.29387 0.292892L0.929909 6.65685C0.539384 7.04738 0.539384 7.68054 0.929909 8.07107C1.32043 8.46159 1.9536 8.46159 2.34412 8.07107L8.00098 2.41422L13.6578 8.07107C14.0484 8.46159 14.6815 8.46159 15.072 8.07107C15.4626 7.68054 15.4626 7.04738 15.072 6.65685L8.70808 0.292892ZM7.29387 94.7071C7.68439 95.0976 8.31756 95.0976 8.70808 94.7071L15.072 88.3431C15.4626 87.9526 15.4626 87.3195 15.072 86.9289C14.6815 86.5384 14.0484 86.5384 13.6578 86.9289L8.00098 92.5858L2.34412 86.9289C1.9536 86.5384 1.32043 86.5384 0.929909 86.9289C0.539384 87.3195 0.539384 87.9526 0.929909 88.3431L7.29387 94.7071ZM7.00098 1V94H9.00098V1H7.00098Z" fill="#AABDCC"/>
              </svg> 