<svg width="105" height="235" viewBox="0 0 105 235" fill="none" xmlns="http://www.w3.org/2000/svg">
<path d="M1 112.004V1.00391H21" stroke="#AABDCC" stroke-width="2"/>
<path d="M1 112.004H0L0 111.004H1L1 112.004ZM1 225.004L1 226.004H0L0 225.004H1ZM1 111.004H105V113.004H1L1 111.004ZM105 226.004H1L1 224.004H105V226.004ZM0 225.004L0 112.004H2L2 225.004H0Z" fill="#AABDCC"/>
<rect x="21" y="100.004" width="54.189" height="20" rx="3.67383" fill="#EFF4F6"/>
<path d="M44.3945 110.234L45.8027 107.8H47.6484L45.3857 111.444L47.7236 115.197H45.8916L44.415 112.667L42.9453 115.197H41.0996L43.4375 111.444L41.1816 107.8H43.0137L44.3945 110.234ZM55.074 115.197H48.3816V114.055L51.697 110.439C52.1755 109.906 52.5151 109.461 52.7156 109.106C52.9207 108.746 53.0232 108.386 53.0232 108.026C53.0232 107.552 52.8888 107.169 52.6199 106.877C52.3556 106.586 51.9978 106.44 51.5466 106.44C51.0089 106.44 50.5919 106.604 50.2957 106.932C49.9994 107.26 49.8513 107.709 49.8513 108.279H48.1902C48.1902 107.673 48.3269 107.128 48.6003 106.645C48.8783 106.157 49.2725 105.779 49.783 105.51C50.2979 105.241 50.8904 105.107 51.5603 105.107C52.5265 105.107 53.2875 105.351 53.8435 105.838C54.4041 106.321 54.6843 106.991 54.6843 107.848C54.6843 108.345 54.5431 108.867 54.2605 109.414C53.9825 109.956 53.5245 110.573 52.8865 111.266L50.4529 113.871H55.074V115.197Z" fill="#555555"/>
<rect x="21" y="214.004" width="54.189" height="20" rx="3.67383" fill="#EFF4F6"/>
<path d="M44.3945 224.234L45.8027 221.8H47.6484L45.3857 225.444L47.7236 229.197H45.8916L44.415 226.667L42.9453 229.197H41.0996L43.4375 225.444L41.1816 221.8H43.0137L44.3945 224.234ZM52.8796 229.197H51.2253V221.206L48.7849 222.04V220.638L52.6677 219.209H52.8796V229.197Z" fill="#555555"/>
</svg>
