<svg width="105" height="235" viewBox="0 0 105 235" fill="none" xmlns="http://www.w3.org/2000/svg">
<path fill-rule="evenodd" clip-rule="evenodd" d="M0 0.00390625H21V2.00391H2V112.004H0V0.00390625Z" fill="#AABDCC"/>
<path fill-rule="evenodd" clip-rule="evenodd" d="M0 226.004H105V224.004H2L2 113.004H105V111.004H0L0 226.004Z" fill="#AABDCC"/>
<rect x="21" y="100.004" width="36.0173" height="20" rx="3.67383" fill="#EFF4F6"/>
<path d="M35.3164 110.086L36.7246 107.652H38.5703L36.3076 111.296L38.6455 115.049H36.8135L35.3369 112.52L33.8672 115.049H32.0215L34.3594 111.296L32.1035 107.652H33.9355L35.3164 110.086Z" fill="#555555"/>
<path d="M45.9958 115.049H39.3035V113.907L42.6189 110.291C43.0974 109.758 43.4369 109.313 43.6375 108.958C43.8425 108.598 43.9451 108.238 43.9451 107.878C43.9451 107.404 43.8106 107.021 43.5417 106.729C43.2774 106.438 42.9197 106.292 42.4685 106.292C41.9307 106.292 41.5138 106.456 41.2175 106.784C40.9213 107.112 40.7732 107.561 40.7732 108.131H39.1121C39.1121 107.525 39.2488 106.98 39.5222 106.497C39.8002 106.009 40.1944 105.631 40.7048 105.362C41.2198 105.093 41.8123 104.959 42.4822 104.959C43.4483 104.959 44.2094 105.203 44.7654 105.69C45.3259 106.174 45.6062 106.843 45.6062 107.7C45.6062 108.197 45.4649 108.719 45.1824 109.266C44.9044 109.808 44.4464 110.425 43.8083 111.118L41.3748 113.723H45.9958V115.049Z" fill="#555555"/>
<rect x="21" y="214.004" width="33.823" height="20" rx="3.67383" fill="#EFF4F6"/>
<path d="M35.3164 224.035L36.7246 221.601H38.5703L36.3076 225.245L38.6455 228.998H36.8135L35.3369 226.468L33.8672 228.998H32.0215L34.3594 225.245L32.1035 221.601H33.9355L35.3164 224.035Z" fill="#555555"/>
<path d="M43.8015 228.998H42.1472V221.006L39.7068 221.84V220.439L43.5896 219.01H43.8015V228.998Z" fill="#555555"/>
</svg>
