<svg width="106" height="238" viewBox="0 0 106 238" fill="none" xmlns="http://www.w3.org/2000/svg">
<path fill-rule="evenodd" clip-rule="evenodd" d="M105.189 237.004H84.1895V235.004H103.189V125.004H105.189V237.004Z" fill="#AABDCC"/>
<path fill-rule="evenodd" clip-rule="evenodd" d="M105.189 11.0039L0.189461 11.0039V13.0039L103.189 13.0039L103.189 124.004H0.189461V126.004H105.189L105.189 11.0039Z" fill="#AABDCC"/>
<rect x="30.3789" y="0.00390625" width="33.823" height="20" rx="3.67383" fill="#EFF4F6"/>
<path d="M44.6953 10.0347L46.1035 7.60107H47.9492L45.6865 11.2446L48.0244 14.9976H46.1924L44.7158 12.4683L43.2461 14.9976H41.4004L43.7383 11.2446L41.4824 7.60107H43.3145L44.6953 10.0347Z" fill="#555555"/>
<path d="M53.1804 14.9976H51.5261V7.00635L49.0857 7.84033V6.43896L52.9685 5.01025H53.1804V14.9976Z" fill="#555555"/>
<rect x="30.3789" y="114.004" width="35.7234" height="20" rx="3.67383" fill="#EFF4F6"/>
<path d="M44.6953 124.018L46.1035 121.584H47.9492L45.6865 125.228L48.0244 128.98H46.1924L44.7158 126.451L43.2461 128.98H41.4004L43.7383 125.228L41.4824 121.584H43.3145L44.6953 124.018Z" fill="#555555"/>
<path d="M50.6033 123.245H51.615C52.1254 123.241 52.5287 123.108 52.825 122.849C53.1257 122.589 53.2761 122.213 53.2761 121.721C53.2761 121.247 53.1508 120.88 52.9001 120.62C52.6541 120.356 52.2758 120.224 51.7654 120.224C51.3188 120.224 50.9519 120.354 50.6648 120.613C50.3777 120.868 50.2341 121.203 50.2341 121.618H48.573C48.573 121.108 48.7074 120.643 48.9763 120.224C49.2498 119.804 49.628 119.479 50.1111 119.246C50.5987 119.009 51.1433 118.891 51.7449 118.891C52.7384 118.891 53.5177 119.141 54.0828 119.643C54.6524 120.139 54.9373 120.832 54.9373 121.721C54.9373 122.167 54.7937 122.589 54.5066 122.985C54.224 123.377 53.8572 123.674 53.406 123.874C53.9529 124.061 54.3676 124.355 54.6501 124.756C54.9373 125.157 55.0808 125.635 55.0808 126.191C55.0808 127.085 54.7732 127.796 54.158 128.324C53.5473 128.853 52.7429 129.117 51.7449 129.117C50.7878 129.117 50.004 128.862 49.3933 128.352C48.7826 127.841 48.4773 127.162 48.4773 126.314H50.1384C50.1384 126.752 50.2843 127.107 50.5759 127.381C50.8722 127.654 51.2686 127.791 51.7654 127.791C52.2804 127.791 52.686 127.654 52.9822 127.381C53.2784 127.107 53.4265 126.711 53.4265 126.191C53.4265 125.667 53.2716 125.264 52.9617 124.981C52.6518 124.699 52.1915 124.558 51.5808 124.558H50.6033V123.245Z" fill="#555555"/>
</svg>
