<svg width="286" height="584" viewBox="0 0 286 584" fill="none" xmlns="http://www.w3.org/2000/svg">
<path fill-rule="evenodd" clip-rule="evenodd" d="M-1.29716e-07 212.968L0 210L2 210L2 212.968L-1.29716e-07 212.968ZM-5.62105e-07 222.859L-3.02672e-07 216.924L2 216.924L2 222.859L-5.62105e-07 222.859ZM-9.94493e-07 232.751L-7.3506e-07 226.816L2 226.816L2 232.751L-9.94493e-07 232.751ZM-1.42688e-06 242.643L-1.16745e-06 236.708L2 236.708L2 242.643L-1.42688e-06 242.643ZM-1.85927e-06 252.535L-1.59984e-06 246.6L2 246.6L2 252.535L-1.85927e-06 252.535ZM-2.29166e-06 262.427L-2.03223e-06 256.492L2 256.492L2 262.427L-2.29166e-06 262.427ZM-2.72405e-06 272.319L-2.46461e-06 266.384L2 266.384L2 272.319L-2.72405e-06 272.319ZM-3.15643e-06 282.211L-2.897e-06 276.276L2 276.276L2 282.211L-3.15643e-06 282.211ZM-3.58882e-06 292.103L-3.32939e-06 286.168L2 286.168L2 292.103L-3.58882e-06 292.103ZM-4.02121e-06 301.995L-3.76178e-06 296.059L2 296.059L2 301.995L-4.02121e-06 301.995ZM-4.4536e-06 311.886L-4.19417e-06 305.951L2 305.951L2 311.886L-4.4536e-06 311.886ZM-4.88599e-06 321.778L-4.62655e-06 315.843L2 315.843L2 321.778L-4.88599e-06 321.778ZM-5.31838e-06 331.67L-5.05894e-06 325.735L1.99999 325.735L1.99999 331.67L-5.31838e-06 331.67ZM-5.75076e-06 341.562L-5.49133e-06 335.627L1.99999 335.627L1.99999 341.562L-5.75076e-06 341.562ZM-6.18315e-06 351.454L-5.92372e-06 345.519L1.99999 345.519L1.99999 351.454L-6.18315e-06 351.454ZM-6.61554e-06 361.346L-6.35611e-06 355.411L1.99999 355.411L1.99999 361.346L-6.61554e-06 361.346ZM-7.04793e-06 371.238L-6.7885e-06 365.303L1.99999 365.303L1.99999 371.238L-7.04793e-06 371.238ZM-7.48032e-06 381.13L-7.22088e-06 375.195L1.99999 375.195L1.99999 381.13L-7.48032e-06 381.13ZM-7.91271e-06 391.022L-7.65327e-06 385.086L1.99999 385.086L1.99999 391.022L-7.91271e-06 391.022ZM-8.34509e-06 400.914L-8.08566e-06 394.978L1.99999 394.978L1.99999 400.914L-8.34509e-06 400.914ZM-8.77748e-06 410.805L-8.51805e-06 404.87L1.99999 404.87L1.99999 410.805L-8.77748e-06 410.805ZM-9.20987e-06 420.697L-8.95044e-06 414.762L1.99999 414.762L1.99999 420.697L-9.20987e-06 420.697ZM-9.64226e-06 430.589L-9.38283e-06 424.654L1.99999 424.654L1.99999 430.589L-9.64226e-06 430.589ZM-1.00746e-05 440.481L-9.81521e-06 434.546L1.99999 434.546L1.99999 440.481L-1.00746e-05 440.481ZM-1.0507e-05 450.373L-1.02476e-05 444.438L1.99999 444.438L1.99999 450.373L-1.0507e-05 450.373ZM-1.09394e-05 460.265L-1.068e-05 454.33L1.99999 454.33L1.99999 460.265L-1.09394e-05 460.265ZM-1.13718e-05 470.157L-1.11124e-05 464.222L1.99999 464.222L1.99999 470.157L-1.13718e-05 470.157ZM-1.18042e-05 480.049L-1.15448e-05 474.114L1.99999 474.114L1.99999 480.049L-1.18042e-05 480.049ZM-1.22366e-05 489.941L-1.19772e-05 484.005L1.99999 484.005L1.99999 489.941L-1.22366e-05 489.941ZM-1.2669e-05 499.832L-1.24095e-05 493.897L1.99999 493.897L1.99999 499.832L-1.2669e-05 499.832ZM-1.31014e-05 509.724L-1.28419e-05 503.789L1.99999 503.789L1.99999 509.724L-1.31014e-05 509.724ZM-1.35338e-05 519.616L-1.32743e-05 513.681L1.99999 513.681L1.99999 519.616L-1.35338e-05 519.616ZM-1.39661e-05 529.508L-1.37067e-05 523.573L1.99999 523.573L1.99999 529.508L-1.39661e-05 529.508ZM-1.43985e-05 539.4L-1.41391e-05 533.465L1.99999 533.465L1.99999 539.4L-1.43985e-05 539.4ZM-1.48309e-05 549.292L-1.45715e-05 543.357L1.99999 543.357L1.99999 549.292L-1.48309e-05 549.292ZM-1.52633e-05 559.184L-1.50039e-05 553.249L1.99998 553.249L1.99998 559.184L-1.52633e-05 559.184ZM-1.56957e-05 569.076L-1.54363e-05 563.141L1.99998 563.141L1.99998 569.076L-1.56957e-05 569.076ZM-1.59984e-05 576L-1.58687e-05 573.033L1.99998 573.033L1.99998 576L-1.59984e-05 576Z" fill="#03E2B2"/>
<path fill-rule="evenodd" clip-rule="evenodd" d="M0 0H3.94828V2H2V3.98565H0V0ZM13.7759 2H7.87931V0H13.7759V2ZM23.6034 2H17.7069V0H23.6034V2ZM33.431 2H27.5345V0H33.431V2ZM43.2586 2H37.3621V0H43.2586V2ZM53.0862 2H47.1897V0H53.0862V2ZM62.9138 2H57.0172V0H62.9138V2ZM72.7414 2H66.8448V0H72.7414V2ZM82.569 2H76.6724V0H82.569V2ZM92.3966 2H86.5V0H92.3966V2ZM102.224 2H96.3276V0H102.224V2ZM112.052 2H106.155V0H112.052V2ZM121.879 2H115.983V0H121.879V2ZM131.707 2H125.81V0H131.707V2ZM141.535 2H135.638V0H141.535V2ZM151.362 2H145.466V0H151.362V2ZM161.19 2H155.293V0H161.19V2ZM171.017 2H165.121V0H171.017V2ZM180.845 2H174.948V0H180.845V2ZM190.672 2H184.776V0H190.672V2ZM200.5 2H194.603V0H200.5V2ZM210.328 2H204.431V0H210.328V2ZM220.155 2H214.259V0H220.155V2ZM229.983 2H224.086V0H229.983V2ZM239.81 2H233.914V0H239.81V2ZM249.638 2H243.741V0H249.638V2ZM259.465 2H253.569V0H259.465V2ZM269.293 2H263.396V0H269.293V2ZM279.121 2H273.224V0H279.121V2ZM286 2H283.052V0H286V2ZM2 7.9666V13.938H0V7.9666H2ZM2 17.919V23.8904H0V17.919H2ZM2 27.8714V33.8428H0V27.8714H2ZM2 37.8238V43.7952H0V37.8238H2ZM2 47.7762V53.7476H0V47.7762H2ZM2 57.7286V63.7H0V57.7286H2ZM2 67.681V73.6524H0V67.681H2ZM2 77.6333V83.6048H0V77.6333H2ZM2 87.5857V93.5572H0V87.5857H2ZM2 97.5381V103.51H0V97.5381H2ZM2 107.49V113.462H0V107.49H2ZM2 117.443V123.414H0V117.443H2ZM2 127.395V133.367H0V127.395H2ZM2 137.348V143.319H0V137.348H2ZM2 147.3V153.271H0V147.3H2ZM2 157.252V163.224H0V157.252H2ZM2 167.205V173.176H0V167.205H2ZM2 177.157V183.129H0V177.157H2ZM2 187.11V193.081H0V187.11H2ZM2 197.062V203.033H0V197.062H2ZM2 207.014V210H0V207.014H2Z" fill="#03E2B2"/>
<path fill-rule="evenodd" clip-rule="evenodd" d="M20.3431 292.93L26.7071 299.294C27.0976 299.684 27.0976 300.317 26.7071 300.708L20.3431 307.072C19.9526 307.462 19.3195 307.462 18.9289 307.072C18.5384 306.681 18.5384 306.048 18.9289 305.658L23.5858 301.001H23.5V299.001H23.5858L18.9289 294.344C18.5384 293.953 18.5384 293.32 18.9289 292.93C19.3195 292.539 19.9526 292.539 20.3431 292.93ZM3.5 301.001H1V299.001H3.5V301.001ZM11.8333 301.001H6.83333V299.001H11.8333V301.001ZM20.1667 301.001H15.1667V299.001H20.1667V301.001Z" fill="#03E2B2"/>
<path fill-rule="evenodd" clip-rule="evenodd" d="M20.3431 568.93L26.7071 575.294C27.0976 575.684 27.0976 576.317 26.7071 576.708L20.3431 583.072C19.9526 583.462 19.3195 583.462 18.9289 583.072C18.5384 582.681 18.5384 582.048 18.9289 581.658L23.5858 577.001H23.5V575.001H23.5858L18.9289 570.344C18.5384 569.953 18.5384 569.32 18.9289 568.93C19.3195 568.539 19.9526 568.539 20.3431 568.93ZM3.5 577.001H1V575.001H3.5V577.001ZM11.8333 577.001H6.83333V575.001H11.8333V577.001ZM20.1667 577.001H15.1667V575.001H20.1667V577.001Z" fill="#03E2B2"/>
</svg>
