<svg width="94" height="107" viewBox="0 0 94 107" fill="none" xmlns="http://www.w3.org/2000/svg">
                    <path d="M0.292889 54.0192C-0.0976365 54.4097 -0.0976365 55.0429 0.292889 55.4334L6.65685 61.7973C7.04737 62.1879 7.68054 62.1879 8.07106 61.7973C8.46159 61.4068 8.46159 60.7737 8.07106 60.3831L2.41421 54.7263L8.07107 49.0694C8.46159 48.6789 8.46159 48.0457 8.07107 47.6552C7.68054 47.2647 7.04738 47.2647 6.65685 47.6552L0.292889 54.0192ZM55.0016 1.97266L55.0016 0.97266L54.0016 0.97266L54.0016 1.97266L55.0016 1.97266ZM55.0016 105.973L54.0016 105.973L54.0016 106.973L55.0016 106.973L55.0016 105.973ZM94 53.7263L55.0016 53.7263L55.0016 55.7263L94 55.7263L94 53.7263ZM55.0016 53.7263L0.999997 53.7263L0.999997 55.7263L55.0016 55.7263L55.0016 53.7263ZM56.0016 54.7263L56.0016 1.97266L54.0016 1.97266L54.0016 54.7263L56.0016 54.7263ZM55.0016 2.97266L94 2.97266L94 0.972656L55.0016 0.97266L55.0016 2.97266ZM54.0016 54.7263L54.0016 105.973L56.0016 105.973L56.0016 54.7263L54.0016 54.7263ZM55.0016 106.973L94 106.973L94 104.973L55.0016 104.973L55.0016 106.973Z" fill="#B0C4D4"/>
                  </svg> 