<svg class="infastructure-margin-swormArrow" width="864" height="82" viewBox="0 0 864 82" fill="none" xmlns="http://www.w3.org/2000/svg">
              <path d="M7 49.9727H432.5M857 49.9727H432.5M432.5 49.9727V0.472656" stroke="#B0C4D4" stroke-width="2"/>
              <path d="M7.29289 81.6798C7.68342 82.0703 8.31658 82.0703 8.70711 81.6798L15.0711 75.3158C15.4616 74.9253 15.4616 74.2921 15.0711 73.9016C14.6805 73.5111 14.0474 73.5111 13.6569 73.9016L8 79.5584L2.34315 73.9016C1.95262 73.5111 1.31946 73.5111 0.928932 73.9016C0.538408 74.2921 0.538408 74.9253 0.928932 75.3158L7.29289 81.6798ZM7 50.9727V80.9727H9V50.9727H7Z" fill="#B0C4D4"/>
              <path d="M113.293 81.6798C113.683 82.0703 114.317 82.0703 114.707 81.6798L121.071 75.3158C121.462 74.9253 121.462 74.2921 121.071 73.9016C120.681 73.5111 120.047 73.5111 119.657 73.9016L114 79.5584L108.343 73.9016C107.953 73.5111 107.319 73.5111 106.929 73.9016C106.538 74.2921 106.538 74.9253 106.929 75.3158L113.293 81.6798ZM113 50.9727V80.9727H115V50.9727H113Z" fill="#B0C4D4"/>
              <path d="M219.293 81.6798C219.683 82.0703 220.317 82.0703 220.707 81.6798L227.071 75.3158C227.462 74.9253 227.462 74.2921 227.071 73.9016C226.681 73.5111 226.047 73.5111 225.657 73.9016L220 79.5584L214.343 73.9016C213.953 73.5111 213.319 73.5111 212.929 73.9016C212.538 74.2921 212.538 74.9253 212.929 75.3158L219.293 81.6798ZM219 50.9727V80.9727H221V50.9727H219Z" fill="#B0C4D4"/>
              <path d="M325.293 81.6798C325.683 82.0703 326.317 82.0703 326.707 81.6798L333.071 75.3158C333.462 74.9253 333.462 74.2921 333.071 73.9016C332.681 73.5111 332.047 73.5111 331.657 73.9016L326 79.5584L320.343 73.9016C319.953 73.5111 319.319 73.5111 318.929 73.9016C318.538 74.2921 318.538 74.9253 318.929 75.3158L325.293 81.6798ZM325 50.9727V80.9727H327V50.9727H325Z" fill="#B0C4D4"/>
              <path d="M431.293 81.6798C431.683 82.0703 432.317 82.0703 432.707 81.6798L439.071 75.3158C439.462 74.9253 439.462 74.2921 439.071 73.9016C438.681 73.5111 438.047 73.5111 437.657 73.9016L432 79.5584L426.343 73.9016C425.953 73.5111 425.319 73.5111 424.929 73.9016C424.538 74.2921 424.538 74.9253 424.929 75.3158L431.293 81.6798ZM431 50.9727V80.9727H433V50.9727H431Z" fill="#B0C4D4"/>
              <path d="M537.293 81.6798C537.683 82.0703 538.317 82.0703 538.707 81.6798L545.071 75.3158C545.462 74.9253 545.462 74.2921 545.071 73.9016C544.681 73.5111 544.047 73.5111 543.657 73.9016L538 79.5584L532.343 73.9016C531.953 73.5111 531.319 73.5111 530.929 73.9016C530.538 74.2921 530.538 74.9253 530.929 75.3158L537.293 81.6798ZM537 50.9727V80.9727H539V50.9727H537Z" fill="#B0C4D4"/>
              <path d="M643.293 81.6798C643.683 82.0703 644.317 82.0703 644.707 81.6798L651.071 75.3158C651.462 74.9253 651.462 74.2921 651.071 73.9016C650.681 73.5111 650.047 73.5111 649.657 73.9016L644 79.5584L638.343 73.9016C637.953 73.5111 637.319 73.5111 636.929 73.9016C636.538 74.2921 636.538 74.9253 636.929 75.3158L643.293 81.6798ZM643 50.9727V80.9727H645V50.9727H643Z" fill="#B0C4D4"/>
              <path d="M749.293 81.6798C749.683 82.0703 750.317 82.0703 750.707 81.6798L757.071 75.3158C757.462 74.9253 757.462 74.2921 757.071 73.9016C756.681 73.5111 756.047 73.5111 755.657 73.9016L750 79.5584L744.343 73.9016C743.953 73.5111 743.319 73.5111 742.929 73.9016C742.538 74.2921 742.538 74.9253 742.929 75.3158L749.293 81.6798ZM749 50.9727V80.9727H751V50.9727H749Z" fill="#B0C4D4"/>
              <path d="M855.293 81.6798C855.683 82.0703 856.317 82.0703 856.707 81.6798L863.071 75.3158C863.462 74.9253 863.462 74.2921 863.071 73.9016C862.681 73.5111 862.047 73.5111 861.657 73.9016L856 79.5584L850.343 73.9016C849.953 73.5111 849.319 73.5111 848.929 73.9016C848.538 74.2921 848.538 74.9253 848.929 75.3158L855.293 81.6798ZM855 50.9727V80.9727H857V50.9727H855Z" fill="#B0C4D4"/>
            </svg>