<svg width="147" height="333" viewBox="0 0 147 333" fill="none" xmlns="http://www.w3.org/2000/svg">
                    <path d="M113 67.9727L147 67.9727" stroke="#B0C4D4" stroke-width="2"/>
                    <path d="M113 155.973L147 155.973" stroke="#B0C4D4" stroke-width="2"/>
                    <path d="M113 243.973L147 243.973" stroke="#B0C4D4" stroke-width="2"/>
                    <path d="M113 331.973L147 331.973" stroke="#B0C4D4" stroke-width="2"/>
                    <path d="M113.707 1.26555C113.317 0.875025 112.683 0.875025 112.293 1.26555L105.929 7.62951C105.538 8.02003 105.538 8.6532 105.929 9.04372C106.319 9.43425 106.953 9.43425 107.343 9.04372L113 3.38687L118.657 9.04372C119.047 9.43425 119.681 9.43425 120.071 9.04372C120.462 8.6532 120.462 8.02003 120.071 7.62951L113.707 1.26555ZM114 332.973V1.97266H112V332.973H114Z" fill="#B0C4D4"/>
                    <path d="M8 331.973H7.5V332.473H8V331.973ZM8.35355 1.6191C8.15829 1.42384 7.84171 1.42384 7.64645 1.6191L4.46447 4.80108C4.2692 4.99635 4.2692 5.31293 4.46447 5.50819C4.65973 5.70345 4.97631 5.70345 5.17157 5.50819L8 2.67976L10.8284 5.50819C11.0237 5.70345 11.3403 5.70345 11.5355 5.50819C11.7308 5.31293 11.7308 4.99635 11.5355 4.80108L8.35355 1.6191ZM7.5 1.97266V6.88337H8.5V1.97266H7.5ZM7.5 12.7762V22.5977H8.5V12.7762H7.5ZM7.5 28.4905V38.3119H8.5V28.4905H7.5ZM7.5 44.2048V54.0262H8.5V44.2048H7.5ZM7.5 59.9191V69.7405H8.5V59.9191H7.5ZM7.5 75.6334V85.4548H8.5V75.6334H7.5ZM7.5 91.3477V101.169H8.5V91.3477H7.5ZM7.5 107.062V116.883H8.5V107.062H7.5ZM7.5 122.776V132.598H8.5V122.776H7.5ZM7.5 138.491V148.312H8.5V138.491H7.5ZM7.5 154.205V164.026H8.5V154.205H7.5ZM7.5 169.919V179.741H8.5V169.919H7.5ZM7.5 185.633V195.455H8.5V185.633H7.5ZM7.5 201.348V211.169H8.5V201.348H7.5ZM7.5 217.062V226.883H8.5V217.062H7.5ZM7.5 232.776V242.598H8.5V232.776H7.5ZM7.5 248.49V258.312H8.5V248.49H7.5ZM7.5 264.205V274.026H8.5V264.205H7.5ZM7.5 279.919V289.741H8.5V279.919H7.5ZM7.5 295.633V305.455H8.5V295.633H7.5ZM7.5 311.348V321.169H8.5V311.348H7.5ZM7.5 327.062V331.973H8.5V327.062H7.5ZM8 332.473H12.6875V331.473H8V332.473ZM18.3125 332.473H27.6875V331.473H18.3125V332.473ZM33.3125 332.473H42.6875V331.473H33.3125V332.473ZM48.3125 332.473H57.6875V331.473H48.3125V332.473ZM63.3125 332.473H72.6875V331.473H63.3125V332.473ZM78.3125 332.473H87.6875V331.473H78.3125V332.473ZM93.3125 332.473H102.688V331.473H93.3125V332.473ZM108.312 332.473H113V331.473H108.312V332.473ZM8 331.973H7V332.973H8V331.973ZM8.70711 1.26555C8.31658 0.875025 7.68342 0.875025 7.29289 1.26555L0.928932 7.62951C0.538408 8.02003 0.538408 8.6532 0.928932 9.04372C1.31946 9.43425 1.95262 9.43425 2.34315 9.04372L8 3.38687L13.6569 9.04372C14.0474 9.43425 14.6805 9.43425 15.0711 9.04372C15.4616 8.6532 15.4616 8.02003 15.0711 7.62951L8.70711 1.26555ZM7 1.97266V6.88337H9V1.97266H7ZM7 12.7762V22.5977H9V12.7762H7ZM7 28.4905V38.3119H9V28.4905H7ZM7 44.2048V54.0262H9V44.2048H7ZM7 59.9191V69.7405H9V59.9191H7ZM7 75.6334V85.4548H9V75.6334H7ZM7 91.3477V101.169H9V91.3477H7ZM7 107.062V116.883H9V107.062H7ZM7 122.776V132.598H9V122.776H7ZM7 138.491V148.312H9V138.491H7ZM7 154.205V164.026H9V154.205H7ZM7 169.919V179.741H9V169.919H7ZM7 185.633V195.455H9V185.633H7ZM7 201.348V211.169H9V201.348H7ZM7 217.062V226.883H9V217.062H7ZM7 232.776V242.598H9V232.776H7ZM7 248.49V258.312H9V248.49H7ZM7 264.205V274.026H9V264.205H7ZM7 279.919V289.741H9V279.919H7ZM7 295.633V305.455H9V295.633H7ZM7 311.348V321.169H9V311.348H7ZM7 327.062V331.973H9V327.062H7ZM8 332.973H12.6875V330.973H8V332.973ZM18.3125 332.973H27.6875V330.973H18.3125V332.973ZM33.3125 332.973H42.6875V330.973H33.3125V332.973ZM48.3125 332.973H57.6875V330.973H48.3125V332.973ZM63.3125 332.973H72.6875V330.973H63.3125V332.973ZM78.3125 332.973H87.6875V330.973H78.3125V332.973ZM93.3125 332.973H102.688V330.973H93.3125V332.973ZM108.312 332.973H113V330.973H108.312V332.973Z" fill="#B0C4D4"/>
                  </svg>