<svg width="36" height="160" viewBox="0 0 36 160" fill="none" xmlns="http://www.w3.org/2000/svg">
                      <path d="M34.5 1.88281L35.5 1.88281L35.5 0.882813L34.5 0.882812L34.5 1.88281ZM34.5 151.883L34.5 152.883L35.5 152.883L35.5 151.883L34.5 151.883ZM6.7929 151.176C6.40238 151.566 6.40238 152.199 6.7929 152.59L13.1569 158.954C13.5474 159.344 14.1806 159.344 14.5711 158.954C14.9616 158.563 14.9616 157.93 14.5711 157.54L8.91422 151.883L14.5711 146.226C14.9616 145.835 14.9616 145.202 14.5711 144.812C14.1806 144.421 13.5474 144.421 13.1569 144.812L6.7929 151.176ZM6.79291 52.8373C6.40238 53.2279 6.40238 53.861 6.79291 54.2516L13.1569 60.6155C13.5474 61.006 14.1806 61.006 14.5711 60.6155C14.9616 60.225 14.9616 59.5918 14.5711 59.2013L8.91423 53.5444L14.5711 47.8876C14.9616 47.4971 14.9616 46.8639 14.5711 46.4734C14.1806 46.0829 13.5474 46.0829 13.1569 46.4734L6.79291 52.8373ZM6.79291 102.007C6.40238 102.397 6.40238 103.03 6.79291 103.421L13.1569 109.785C13.5474 110.175 14.1806 110.175 14.5711 109.785C14.9616 109.394 14.9616 108.761 14.5711 108.37L8.91423 102.714L14.5711 97.0568C14.9616 96.6663 14.9616 96.0331 14.5711 95.6426C14.1806 95.252 13.5474 95.252 13.1569 95.6426L6.79291 102.007ZM0.500008 2.88281L34.5 2.88281L34.5 0.882812L0.500008 0.882811L0.500008 2.88281ZM34.5 150.883L7.50001 150.883L7.50001 152.883L34.5 152.883L34.5 150.883ZM33.5 1.88281L33.5 53.5444L35.5 53.5444L35.5 1.88281L33.5 1.88281ZM34.5 52.5444L7.50001 52.5444L7.50001 54.5444L34.5 54.5444L34.5 52.5444ZM33.5 102.714L33.5 151.883L35.5 151.883L35.5 102.714L33.5 102.714ZM34.5 101.714L7.50001 101.714L7.50001 103.714L34.5 103.714L34.5 101.714ZM33.5 53.5444L33.5 78.129L35.5 78.129L35.5 53.5444L33.5 53.5444ZM33.5 78.129L33.5 102.714L35.5 102.714L35.5 78.129L33.5 78.129Z" fill="#B0C4D4"/>
                    </svg> 