<svg width="347" height="69" viewBox="0 0 347 69" fill="none" xmlns="http://www.w3.org/2000/svg">
                  <path d="M7.29289 68.7032C7.68342 69.0937 8.31658 69.0937 8.70711 68.7032L15.0711 62.3392C15.4616 61.9487 15.4616 61.3156 15.0711 60.925C14.6805 60.5345 14.0474 60.5345 13.6569 60.925L8 66.5819L2.34315 60.925C1.95262 60.5345 1.31946 60.5345 0.928932 60.925C0.538408 61.3156 0.538408 61.9487 0.928932 62.3392L7.29289 68.7032ZM8 33.9961V32.9961H7V33.9961H8ZM339 33.9961H340V32.9961H339V33.9961ZM338.293 68.7032C338.683 69.0937 339.317 69.0937 339.707 68.7032L346.071 62.3392C346.462 61.9487 346.462 61.3156 346.071 60.925C345.681 60.5345 345.047 60.5345 344.657 60.925L339 66.5819L333.343 60.925C332.953 60.5345 332.319 60.5345 331.929 60.925C331.538 61.3156 331.538 61.9487 331.929 62.3392L338.293 68.7032ZM121.293 68.7032C121.683 69.0937 122.317 69.0937 122.707 68.7032L129.071 62.3392C129.462 61.9487 129.462 61.3156 129.071 60.925C128.681 60.5345 128.047 60.5345 127.657 60.925L122 66.5819L116.343 60.925C115.953 60.5345 115.319 60.5345 114.929 60.925C114.538 61.3156 114.538 61.9487 114.929 62.3392L121.293 68.7032ZM229.793 68.7032C230.183 69.0937 230.817 69.0937 231.207 68.7032L237.571 62.3392C237.962 61.9487 237.962 61.3156 237.571 60.925C237.181 60.5345 236.547 60.5345 236.157 60.925L230.5 66.5819L224.843 60.925C224.453 60.5345 223.819 60.5345 223.429 60.925C223.038 61.3156 223.038 61.9487 223.429 62.3392L229.793 68.7032ZM9 67.9961V33.9961H7V67.9961H9ZM338 33.9961V67.9961H340V33.9961H338ZM8 34.9961H122V32.9961H8V34.9961ZM121 33.9961V67.9961H123V33.9961H121ZM230.5 34.9961H339V32.9961H230.5V34.9961ZM229.5 33.9961V67.9961H231.5V33.9961H229.5ZM122 34.9961H176.25V32.9961H122V34.9961ZM176.25 34.9961H230.5V32.9961H176.25V34.9961ZM177.25 33.9961V0.996094H175.25V33.9961H177.25Z" fill="#B0C4D4"/>
                </svg> 