<svg width="670" height="107" viewBox="0 0 670 107" fill="none" xmlns="http://www.w3.org/2000/svg">
              <path d="M662.5 65.4727H663.5V64.4727H662.5V65.4727ZM661.793 106.18C662.183 106.57 662.817 106.57 663.207 106.18L669.571 99.8158C669.962 99.4253 669.962 98.7921 669.571 98.4016C669.181 98.0111 668.547 98.0111 668.157 98.4016L662.5 104.058L656.843 98.4016C656.453 98.0111 655.819 98.0111 655.429 98.4016C655.038 98.7921 655.038 99.4253 655.429 99.8158L661.793 106.18ZM8 65.4727V64.4727H7V65.4727H8ZM7.29289 106.18C7.68342 106.57 8.31658 106.57 8.70711 106.18L15.0711 99.8158C15.4616 99.4253 15.4616 98.7921 15.0711 98.4016C14.6805 98.0111 14.0474 98.0111 13.6569 98.4016L8 104.058L2.34315 98.4016C1.95262 98.0111 1.31946 98.0111 0.928932 98.4016C0.538408 98.7921 0.538408 99.4253 0.928932 99.8158L7.29289 106.18ZM334.543 106.18C334.933 106.57 335.567 106.57 335.957 106.18L342.321 99.8158C342.712 99.4253 342.712 98.7921 342.321 98.4016C341.931 98.0111 341.297 98.0111 340.907 98.4016L335.25 104.058L329.593 98.4016C329.203 98.0111 328.569 98.0111 328.179 98.4016C327.788 98.7921 327.788 99.4253 328.179 99.8158L334.543 106.18ZM661.5 65.4727V105.473H663.5V65.4727H661.5ZM7 65.4727V105.473H9V65.4727H7ZM8 66.4727H335.25V64.4727H8V66.4727ZM335.25 66.4727H662.5V64.4727H335.25V66.4727ZM334.25 65.4727V105.473H336.25V65.4727H334.25ZM336.25 65.4727V0.972656H334.25V65.4727H336.25Z" fill="#B0C4D4"/>
            </svg>