<svg  width="42" height="54" viewBox="0 0 42 54" fill="none" xmlns="http://www.w3.org/2000/svg">
                    <path d="M8 52.1523L8 53.1523L7 53.1523L7 52.1523L8 52.1523ZM7.29289 0.445235C7.68342 0.0547127 8.31658 0.0547127 8.70711 0.445235L15.0711 6.8092C15.4616 7.19972 15.4616 7.83288 15.0711 8.22341C14.6805 8.61393 14.0474 8.61393 13.6569 8.22341L8 2.56656L2.34315 8.22341C1.95262 8.61394 1.31946 8.61394 0.92893 8.22341C0.538408 7.83289 0.538408 7.19972 0.92893 6.8092L7.29289 0.445235ZM42 53.1523L8 53.1523L8 51.1523L42 51.1523L42 53.1523ZM7 52.1523L7 1.15234L9 1.15234L9 52.1523L7 52.1523Z" fill="#B0C4D4"/>
                  </svg> 