<svg width="42" height="54" viewBox="0 0 42 54" fill="none" xmlns="http://www.w3.org/2000/svg">
                    <path d="M34 52.1523L34 53.1523L35 53.1523L35 52.1523L34 52.1523ZM34.7071 0.445235C34.3166 0.0547127 33.6834 0.0547127 33.2929 0.445235L26.9289 6.8092C26.5384 7.19972 26.5384 7.83288 26.9289 8.22341C27.3195 8.61393 27.9526 8.61393 28.3431 8.22341L34 2.56656L39.6569 8.22341C40.0474 8.61394 40.6805 8.61394 41.0711 8.22341C41.4616 7.83289 41.4616 7.19972 41.0711 6.8092L34.7071 0.445235ZM4.37114e-08 53.1523L34 53.1523L34 51.1523L-4.37114e-08 51.1523L4.37114e-08 53.1523ZM35 52.1523L35 1.15234L33 1.15234L33 52.1523L35 52.1523Z" fill="#B0C4D4"/>
                  </svg>