<svg  width="76" height="32" viewBox="0 0 76 32" fill="none" xmlns="http://www.w3.org/2000/svg">
                      <path d="M1 14.582H0V15.582H1V14.582ZM68 14.582H69V13.582H68V14.582ZM67.2929 30.8634C67.6834 31.2539 68.3166 31.2539 68.7071 30.8634L75.0711 24.4994C75.4616 24.1089 75.4616 23.4757 75.0711 23.0852C74.6805 22.6947 74.0474 22.6947 73.6569 23.0852L68 28.742L62.3431 23.0852C61.9526 22.6947 61.3195 22.6947 60.9289 23.0852C60.5384 23.4757 60.5384 24.1089 60.9289 24.4994L67.2929 30.8634ZM0 0.15625V14.582H2V0.15625H0ZM1 15.582H68V13.582H1V15.582ZM67 14.582V30.1562H69V14.582H67Z" fill="#B0C4D4"/>
                    </svg>   