<svg width="16" height="78" viewBox="0 0 16 78" fill="none" xmlns="http://www.w3.org/2000/svg">
<path d="M8.70711 77.5782C8.31658 77.9687 7.68342 77.9687 7.29289 77.5782L0.928932 71.2142C0.538408 70.8237 0.538408 70.1906 0.928932 69.8C1.31946 69.4095 1.95262 69.4095 2.34315 69.8L8 75.4569L13.6569 69.8C14.0474 69.4095 14.6805 69.4095 15.0711 69.8C15.4616 70.1906 15.4616 70.8237 15.0711 71.2142L8.70711 77.5782ZM7.2929 1.16399C7.68342 0.77346 8.31659 0.77346 8.70711 1.16399L15.0711 7.52795C15.4616 7.91847 15.4616 8.55164 15.0711 8.94216C14.6805 9.33269 14.0474 9.33269 13.6569 8.94216L8 3.28531L2.34315 8.94216C1.95262 9.33269 1.31946 9.33269 0.928935 8.94216C0.538411 8.55164 0.538411 7.91847 0.928935 7.52795L7.2929 1.16399ZM7 76.8711L7 1.87109L9 1.87109L9 76.8711L7 76.8711Z" fill="#B0C4D4"/>
</svg>
