<svg width="19" height="20" viewBox="0 0 19 20" fill="none" xmlns="http://www.w3.org/2000/svg">
<circle cx="9.5" cy="10.3711" r="9.5" transform="rotate(90 9.5 10.3711)" fill="#1C2437"/>
<path d="M9.5897 15.3457C9.70938 15.4654 9.90341 15.4654 10.0231 15.3457L11.9733 13.3955C12.093 13.2758 12.093 13.0818 11.9733 12.9621C11.8537 12.8424 11.6596 12.8424 11.5399 12.9621L9.8064 14.6956L8.07284 12.9621C7.95317 12.8424 7.75913 12.8424 7.63946 12.9621C7.51978 13.0818 7.51978 13.2758 7.63946 13.3955L9.5897 15.3457ZM9.49994 14.5161L9.49994 14.7L10.1128 14.7L10.1128 14.5161L9.49994 14.5161ZM9.49994 14.9451L9.49994 15.129L10.1128 15.129L10.1128 14.9451L9.49994 14.9451ZM9.37301 15.5624C9.61236 15.8018 10.0004 15.8018 10.2398 15.5624L14.1403 11.6619C14.3796 11.4226 14.3796 11.0345 14.1403 10.7951C13.9009 10.5558 13.5129 10.5558 13.2735 10.7951L9.8064 14.2622L6.33929 10.7951C6.09994 10.5558 5.71187 10.5558 5.47252 10.7951C5.23316 11.0345 5.23316 11.4226 5.47252 11.6619L9.37301 15.5624ZM9.19349 14.5161L9.19349 14.7L10.4193 14.7L10.4193 14.5161L9.19349 14.5161ZM9.19349 14.9451L9.19349 15.129L10.4193 15.129L10.4193 14.9451L9.19349 14.9451Z" fill="#02BC95"/>
<path d="M9.5897 10.7007C9.70938 10.8204 9.90341 10.8204 10.0231 10.7007L11.9733 8.75045C12.093 8.63077 12.093 8.43673 11.9733 8.31706C11.8537 8.19738 11.6596 8.19738 11.5399 8.31706L9.8064 10.0506L8.07284 8.31706C7.95317 8.19738 7.75913 8.19738 7.63946 8.31706C7.51978 8.43673 7.51978 8.63077 7.63946 8.75044L9.5897 10.7007ZM9.49994 9.87109L9.49994 10.055L10.1128 10.055L10.1128 9.87109L9.49994 9.87109ZM9.49994 10.3001L9.49994 10.484L10.1128 10.484L10.1128 10.3001L9.49994 10.3001ZM9.37301 10.9174C9.61236 11.1567 10.0004 11.1567 10.2398 10.9174L14.1403 7.01689C14.3796 6.77754 14.3796 6.38947 14.1403 6.15012C13.9009 5.91076 13.5129 5.91076 13.2735 6.15012L9.8064 9.61722L6.33929 6.15012C6.09994 5.91076 5.71187 5.91076 5.47252 6.15012C5.23316 6.38947 5.23316 6.77754 5.47252 7.01689L9.37301 10.9174ZM9.19349 9.87109L9.19349 10.055L10.4193 10.055L10.4193 9.87109L9.19349 9.87109ZM9.19349 10.3001L9.19349 10.484L10.4193 10.484L10.4193 10.3001L9.19349 10.3001Z" fill="#02BC95" fill-opacity="0.5"/>
</svg>
