<svg width="83" height="16" viewBox="0 0 83 16" fill="none" xmlns="http://www.w3.org/2000/svg">
<path d="M0.00278198 0.237412H7.47372C9.47507 0.237412 12.7151 1.14762 12.7151 4.19277C12.7151 6.82318 10.4966 7.51349 10.4966 7.51349C10.4966 7.51349 13.2439 7.94772 13.2579 11.0764C13.269 13.4201 11.5599 15.3908 8.06939 15.3908H0.00556821V13.5815L1.65897 13.2698V2.34731L0 2.02999V0.237412H0.00278198ZM14.3546 4.92761C14.3546 4.92761 14.2738 0.0119476 19.6237 0.0119476C24.403 0.0119476 24.7343 3.65555 24.7287 4.38762C24.7259 5.2839 24.3112 6.67287 23.799 7.28803C22.9779 8.27895 18.5911 13.0888 18.5911 13.0888L22.7134 13.0777L22.8331 11.5607H25.149V15.3769H14.5995V13.395L19.4929 8.30679C19.4929 8.30679 21.7225 6.04658 21.6362 4.44607C21.6 3.8003 21.2994 2.34452 19.6043 2.34452C17.9063 2.34452 17.3858 3.74463 17.3858 4.94432L14.3546 4.92761ZM8.17238 13.0777C8.17238 13.0777 10.2294 12.9497 10.2294 11.0318C10.2294 9.114 8.84321 8.65751 8.31991 8.65751H4.74867V13.0805H8.17238V13.0777ZM7.393 2.54215H4.74032L4.74588 6.59215C4.74588 6.59215 7.50156 6.58937 7.62681 6.58937C7.75207 6.58937 9.60589 6.44184 9.60589 4.6103C9.60867 2.61731 7.393 2.54215 7.393 2.54215Z" fill="#01BD95"/>
<path d="M41.5932 4.98033H40.6635L40.4937 2.77023C40.1068 2.31095 39.603 1.93796 38.9823 1.65404C38.3616 1.37012 37.6462 1.22816 36.8306 1.22816C35.2023 1.22816 33.908 1.82105 32.9477 3.00404C31.9873 4.18703 31.5058 5.71795 31.5058 7.59125V7.80002C31.5058 9.67331 31.9818 11.207 32.931 12.3984C33.8801 13.5897 35.1299 14.1854 36.6776 14.1854C37.4987 14.1854 38.2419 14.0406 38.9127 13.7539C39.5835 13.4672 40.1068 13.097 40.4882 12.6433L40.658 10.4332H41.5877V12.994C41.134 13.6203 40.4715 14.1436 39.603 14.5639C38.7318 14.9842 37.7576 15.193 36.6776 15.193C34.8098 15.193 33.2817 14.4999 32.0959 13.1165C30.9073 11.7331 30.3145 9.96001 30.3145 7.80002V7.61074C30.3145 5.44239 30.9073 3.66651 32.0903 2.28311C33.2733 0.899711 34.8237 0.206619 36.7388 0.206619C37.8188 0.206619 38.7847 0.418165 39.6364 0.841258C40.4854 1.26435 41.1395 1.79043 41.5932 2.41672V4.98033V4.98033Z" fill="black"/>
<path d="M36.6807 15.4039C34.7573 15.4039 33.1623 14.6802 31.9404 13.255C30.7268 11.8382 30.1088 10.0039 30.1088 7.80216V7.61288C30.1088 5.40556 30.724 3.56567 31.9348 2.14887C33.154 0.723711 34.7712 0 36.7419 0C37.8498 0 38.8546 0.219897 39.7314 0.656907C40.6082 1.09392 41.293 1.64505 41.7634 2.29639L41.8024 2.35206V5.18845H40.469L40.2881 2.85309C39.929 2.44113 39.4586 2.10155 38.8936 1.84268C38.3035 1.57268 37.6076 1.43629 36.8282 1.43629C35.275 1.43629 34.0224 2.00691 33.1094 3.13423C32.1853 4.27546 31.7149 5.77299 31.7149 7.59061V7.79938C31.7149 9.617 32.1798 11.1201 33.0955 12.2669C34.0113 13.4165 35.1859 13.9732 36.6779 13.9732C37.4656 13.9732 38.1894 13.834 38.8323 13.5584C39.4447 13.2968 39.9346 12.96 40.2881 12.5564L40.469 10.221H41.8024V13.0574L41.7634 13.1131C41.293 13.7644 40.5971 14.3156 39.698 14.7498C38.8045 15.184 37.7885 15.4039 36.6807 15.4039ZM36.7419 0.417526C34.8992 0.417526 33.3906 1.09113 32.2521 2.42165C31.1081 3.76051 30.5264 5.50577 30.5264 7.61288V7.80216C30.5264 9.90092 31.1081 11.6462 32.2577 12.9823C33.3989 14.3128 34.8853 14.9864 36.6807 14.9864C37.7245 14.9864 38.6792 14.7804 39.5171 14.3768C40.3271 13.9871 40.9562 13.4972 41.3848 12.9266V10.6413H40.856L40.6945 12.7262L40.6528 12.7763C40.2547 13.2523 39.698 13.6447 38.9994 13.9454C38.3063 14.2432 37.5269 14.3935 36.6807 14.3935C35.0746 14.3935 33.758 13.7672 32.7699 12.5286C31.7928 11.3066 31.2974 9.71443 31.2974 7.80216V7.5934C31.2974 5.67835 31.7984 4.09175 32.7838 2.87536C33.7803 1.64505 35.1414 1.02155 36.8282 1.02155C37.6688 1.02155 38.4204 1.17186 39.0662 1.46691C39.7119 1.76196 40.2436 2.15722 40.65 2.63876L40.6945 2.68886L40.856 4.77371H41.3848V2.49124C40.9534 1.91783 40.3354 1.42794 39.5449 1.03268C38.7266 0.623505 37.7857 0.417526 36.7419 0.417526Z" fill="black"/>
<path d="M56.358 7.80249C56.358 9.99032 55.7735 11.769 54.6072 13.1413C53.4409 14.5107 51.9211 15.1983 50.0562 15.1983C48.2163 15.1983 46.7187 14.5107 45.5692 13.1385C44.4196 11.7634 43.8434 9.98754 43.8434 7.80527V7.616C43.8434 5.43373 44.4168 3.65507 45.5636 2.28002C46.7104 0.902186 48.2051 0.214661 50.045 0.214661C51.9128 0.214661 53.4326 0.902186 54.6016 2.28002C55.7735 3.65785 56.358 5.43651 56.358 7.616V7.80249ZM55.1583 7.59094C55.1583 5.70373 54.6991 4.17559 53.7777 3.0093C52.8564 1.84301 51.6122 1.25847 50.045 1.25847C48.503 1.25847 47.2866 1.84301 46.3875 3.0093C45.4912 4.17559 45.0431 5.70373 45.0431 7.59094V7.79971C45.0431 9.70084 45.494 11.2346 46.3931 12.4008C47.2922 13.5671 48.5141 14.1517 50.0534 14.1517C51.6344 14.1517 52.8787 13.5699 53.7889 12.4064C54.6991 11.2429 55.1556 9.70641 55.1556 7.79971V7.59094H55.1583Z" fill="black"/>
<path d="M50.0574 15.4047C48.1591 15.4047 46.5975 14.6866 45.409 13.2698C44.2315 11.8641 43.6359 10.0242 43.6359 7.80296V7.61368C43.6359 5.39245 44.2315 3.55255 45.4062 2.1441C46.5892 0.724513 48.1507 0.00358582 50.0491 0.00358582C51.9725 0.00358582 53.5591 0.724513 54.7643 2.1441C55.9612 3.55255 56.5708 5.39523 56.5708 7.61647V7.80575C56.5708 10.0325 55.964 11.8752 54.7699 13.2781C53.5646 14.6866 51.9808 15.4047 50.0574 15.4047ZM50.0463 0.418327C48.2788 0.418327 46.8258 1.08915 45.7235 2.40853C44.6129 3.74183 44.0506 5.49266 44.0506 7.6109V7.80018C44.0506 9.92121 44.6157 11.6692 45.7263 12.9998C46.8285 14.3191 48.2843 14.9872 50.0518 14.9872C51.8472 14.9872 53.3253 14.3191 54.4442 13.0053C55.5715 11.6804 56.145 9.92956 56.145 7.80296V7.61368C56.145 5.49265 55.5716 3.74461 54.4387 2.41132C53.3225 1.08637 51.8416 0.418327 50.0463 0.418327ZM50.0574 14.3637C48.4569 14.3637 47.1681 13.7485 46.2301 12.5321C45.306 11.3324 44.8356 9.74306 44.8356 7.80296V7.5942C44.8356 5.66802 45.3032 4.0842 46.2245 2.88451C47.1598 1.66812 48.4458 1.05297 50.0463 1.05297C51.6746 1.05297 52.9829 1.66812 53.9432 2.88451C54.8896 4.0842 55.3684 5.66802 55.3684 7.59698V7.80575C55.3684 9.75142 54.8952 11.3464 53.9571 12.5405C53.0107 13.7485 51.6969 14.3637 50.0574 14.3637ZM50.0463 1.46771C48.5599 1.46771 47.4187 2.01328 46.5558 3.13781C45.6929 4.26235 45.2531 5.75987 45.2531 7.59142V7.80018C45.2531 9.64564 45.6929 11.1515 46.5613 12.2733C47.427 13.3978 48.571 13.9434 50.0574 13.9434C51.5856 13.9434 52.7519 13.3978 53.6287 12.2788C54.5055 11.1571 54.9508 9.65121 54.9508 7.80018V7.59142C54.9508 5.75987 54.5027 4.26235 53.6147 3.13781C52.7268 2.01328 51.5605 1.46771 50.0463 1.46771Z" fill="black"/>
<path d="M64.2325 0.428787C65.7941 0.428787 66.991 0.768374 67.8288 1.45033C68.6666 2.12951 69.0842 3.11487 69.0842 4.40085C69.0842 5.16074 68.8615 5.84548 68.4133 6.45229C67.9652 7.05909 67.3361 7.49889 66.5233 7.77167C67.4252 7.99713 68.0738 8.40352 68.469 8.98806C68.8643 9.5726 69.0647 10.3074 69.0647 11.1926V12.5231C69.0647 13.0381 69.1454 13.4166 69.3041 13.6643C69.4655 13.9121 69.7077 14.0457 70.0333 14.0652L70.5232 14.0958V14.9865H69.7633C69.0563 14.9865 68.5636 14.7471 68.2825 14.2656C68.0014 13.784 67.8622 13.1995 67.8622 12.5036V11.2121C67.8622 10.3325 67.5811 9.63383 67.016 9.1161C66.451 8.59837 65.666 8.33115 64.6612 8.31167H61.0008V13.9733L62.632 14.1125V14.9837H58.1812V14.1125L59.8123 13.9733V1.44755L58.1812 1.30837V0.428787H64.2325ZM61.0008 7.29012H64.0933C65.4071 7.29012 66.3675 7.02569 66.9743 6.49961C67.5811 5.97353 67.8845 5.2693 67.8845 4.38971C67.8845 3.45724 67.5811 2.73353 66.9743 2.21858C66.3675 1.70642 65.4545 1.44755 64.2325 1.44755H61.0008V7.29012Z" fill="black"/>
<path d="M70.7345 15.1922H69.7659C68.9809 15.1922 68.4242 14.9139 68.1041 14.3683C67.8063 13.8589 67.656 13.2299 67.656 12.5034V11.2118C67.656 10.3851 67.4027 9.75047 66.8794 9.26893C66.3561 8.79017 65.6101 8.53686 64.6609 8.51738H61.2121V13.781L62.8433 13.9202V15.1922H57.9749V13.9202L59.6061 13.781V1.63934L57.9749 1.50017V0.219757H64.235C65.8383 0.219757 67.0909 0.578828 67.9621 1.28584C68.8473 2.00398 69.2955 3.05336 69.2955 4.40058C69.2955 5.20223 69.0561 5.93429 68.5857 6.5745C68.221 7.06996 67.7395 7.46243 67.1438 7.74635C67.8063 7.99965 68.3101 8.37542 68.6441 8.8681C69.0616 9.48326 69.276 10.2654 69.276 11.1923V12.5228C69.276 12.9933 69.3456 13.3384 69.4819 13.55C69.6072 13.742 69.7881 13.8394 70.0498 13.8561L70.7345 13.8979V15.1922ZM60.7918 8.10264H64.6609C65.7186 8.12491 66.5593 8.41161 67.1577 8.96274C67.7645 9.51944 68.0707 10.2766 68.0707 11.2118V12.5034C68.0707 13.1547 68.2015 13.7142 68.4632 14.1595C68.7053 14.5743 69.1312 14.7775 69.7631 14.7775H70.3142V14.2932L70.0192 14.2764C69.6239 14.2514 69.3233 14.0844 69.1257 13.781C68.9419 13.4971 68.8529 13.0851 68.8529 12.5256V11.1951C68.8529 10.3545 68.6636 9.65305 68.2934 9.10748C67.9287 8.57027 67.3136 8.18893 66.4674 7.97738L65.7771 7.8048L66.4507 7.57934C67.219 7.32048 67.8202 6.90295 68.2405 6.33233C68.658 5.7645 68.8696 5.11594 68.8696 4.40615C68.8696 3.17305 68.4854 2.26007 67.6921 1.61708C66.8961 0.971303 65.7326 0.64285 64.2267 0.64285H58.3841V1.12161L60.0152 1.26079V14.1707L58.3841 14.3099V14.7803H62.4174V14.3099L60.7863 14.1707V8.10264H60.7918ZM64.0931 7.49862H60.7918V1.23852H64.2322C65.4987 1.23852 66.4646 1.51409 67.1076 2.05965C67.7617 2.61079 68.093 3.39573 68.093 4.38945C68.093 5.33027 67.7617 6.09295 67.1104 6.658C66.4674 7.21748 65.4514 7.49862 64.0931 7.49862ZM61.2094 7.08109H64.0931C65.3484 7.08109 66.2726 6.83336 66.8376 6.34068C67.4027 5.85078 67.6754 5.21336 67.6754 4.38666C67.6754 3.50986 67.4027 2.85017 66.8376 2.37419C66.2726 1.89543 65.3958 1.65326 64.2322 1.65326H61.2094V7.08109Z" fill="black"/>
<path d="M80.7209 7.9307H74.7475V13.9737H81.6311L81.7202 11.7914H82.7807V14.9841H71.925V14.1045L73.5562 13.9737V1.43958L71.925 1.30875V0.41803H73.5562H82.7306V3.61906H81.6701L81.581 1.43679H74.7475V6.91194H80.7209V7.9307Z" fill="black"/>
<path d="M82.9899 15.1926H71.7167V13.9094L73.3479 13.7786V1.63137L71.7167 1.50055V0.209H82.9398V3.82755H81.4701L81.3811 1.64529H74.9567V6.70013H80.9301V8.1392H74.9567V13.7647H81.4312L81.5203 11.5824H82.9899V15.1926ZM72.137 14.7751H82.5752V11.9999H81.9239L81.8348 14.1822H74.542V7.72168H80.5154V7.11766H74.542V1.23055H81.7847L81.8738 3.41281H82.5251V0.629309H72.137V1.11921L73.7682 1.25003V14.1711L72.137 14.3019V14.7751Z" fill="black"/>
</svg>
