<svg width="84" height="21" viewBox="0 0 84 21" fill="none" xmlns="http://www.w3.org/2000/svg">
<circle cx="4.28922" cy="3.47027" r="3.42787" transform="rotate(-0.723142 4.28922 3.47027)" fill="#5599FF"/>
<circle cx="11.1095" cy="3.47027" r="3.42787" transform="rotate(-0.723142 11.1095 3.47027)" fill="#87B7FF"/>
<circle cx="17.9298" cy="3.47027" r="3.42787" transform="rotate(-0.723142 17.9298 3.47027)" fill="#004DED"/>
<circle cx="4.28922" cy="10.2906" r="3.42787" transform="rotate(-0.723142 4.28922 10.2906)" fill="#87B7FF"/>
<circle cx="17.9298" cy="10.2906" r="3.42787" transform="rotate(-0.723142 17.9298 10.2906)" fill="#1073FF"/>
<circle cx="4.28922" cy="17.1128" r="3.42787" transform="rotate(-0.723142 4.28922 17.1128)" fill="#004DED"/>
<circle cx="11.1095" cy="17.1128" r="3.42787" transform="rotate(-0.723142 11.1095 17.1128)" fill="#1073FF"/>
<circle cx="17.9298" cy="17.1128" r="3.42787" transform="rotate(-0.723142 17.9298 17.1128)" fill="#5599FF"/>
<path d="M28.25 16.8044H33.387C35.8651 16.8044 37.4019 15.5251 37.4019 13.4895V13.4734C37.4019 11.9849 36.2835 10.8344 34.7467 10.7137V10.5688C35.9375 10.3918 36.8467 9.32173 36.8467 8.09875V8.08266C36.8467 6.29647 35.503 5.19418 33.2502 5.19418H28.25V16.8044ZM32.6306 6.99646C33.7892 6.99646 34.4571 7.55967 34.4571 8.50104V8.51714C34.4571 9.4746 33.741 10.0217 32.4295 10.0217H30.6031V6.99646H32.6306ZM32.7111 11.6229C34.1433 11.6229 34.9237 12.2022 34.9237 13.2803V13.2964C34.9237 14.3987 34.1674 14.9941 32.7674 14.9941H30.6031V11.6229H32.7111Z" fill="white"/>
<path d="M38.9587 16.8044H47.488V14.8493H42.2941V14.6642L44.3655 12.6608C46.4816 10.7056 47.2423 9.61138 47.2423 8.29185V8.26771C47.2423 6.26429 45.4152 4.89648 43.0255 4.89648C40.483 4.89648 38.8219 6.65557 38.8219 8.88428L38.83 8.91646H41.0748V8.87623C41.0748 7.77394 41.8552 6.78727 42.9897 6.78727C44.1 6.78727 44.7759 7.47922 44.7759 8.46886V8.493C44.7759 9.30563 44.3334 9.89298 42.7 11.478L38.9587 15.0175V16.8044Z" fill="white"/>
<path d="M54.2908 17.078C56.7609 17.078 58.5954 15.5485 58.9816 13.4244V13.4083H57.5172L57.5011 13.4244C57.1391 14.76 55.908 15.6656 54.2908 15.6656C52.0541 15.6656 50.7309 13.9159 50.7309 11.0114V10.9953C50.7309 8.0907 52.0541 6.33303 54.2828 6.33303C55.8839 6.33303 57.123 7.19761 57.5092 8.6861L57.5172 8.70219H58.9735L58.9816 8.6861C58.6356 6.45739 56.7287 4.92062 54.2828 4.92062C51.1288 4.92062 49.0888 7.25393 49.0888 10.9953V11.0114C49.0888 14.7447 51.1368 17.078 54.2908 17.078Z" fill="white"/>
<path d="M64.3924 16.9573C66.8625 16.9573 68.468 15.2515 68.468 12.4757V12.4596C68.468 9.67574 66.8625 7.97806 64.3924 7.97806C61.9223 7.97806 60.3936 9.67574 60.3936 12.4596V12.4757C60.3936 15.2515 61.9223 16.9573 64.3924 16.9573ZM64.3924 15.7182C62.751 15.7182 61.8258 14.5194 61.8258 12.4757V12.4596C61.8258 10.4079 62.751 9.21713 64.3924 9.21713C66.0338 9.21713 66.959 10.4079 66.959 12.4596V12.4757C66.959 14.5194 66.0338 15.7182 64.3924 15.7182Z" fill="white"/>
<path d="M70.1573 16.8044H71.634V11.4297C71.634 10.1585 72.5835 9.31368 73.9191 9.31368C74.2248 9.31368 74.5671 9.42265 74.8568 9.47093V8.11117C74.72 8.08703 74.3455 7.97806 74.08 7.97806C72.9053 7.97806 72.0926 8.50909 71.7628 9.41828H71.634V8.13093H70.1573V16.8044Z" fill="white"/>
<path d="M79.4791 16.9573C81.5228 16.9573 82.7618 15.7987 83.0595 14.624L83.0756 14.5596H81.6756L81.6434 14.632C81.4101 15.155 80.686 15.7102 79.5113 15.7102C77.9665 15.7102 76.9768 14.6642 76.9366 12.87H83.1802V12.3228C83.1802 9.73207 81.748 7.97806 79.3906 7.97806C77.0331 7.97806 75.4276 9.81252 75.4276 12.4918V12.4999C75.4276 15.2194 77.001 16.9573 79.4791 16.9573ZM79.3825 9.22517C80.6618 9.22517 81.6113 10.0378 81.7561 11.7516H76.9607C77.1136 10.1022 78.0952 9.22517 79.3825 9.22517Z" fill="white"/>
</svg>
