<svg width="87" height="36" viewBox="0 0 87 36" fill="none" xmlns="http://www.w3.org/2000/svg">
<path d="M22.3022 23.4922V12.8738H26.1164C27.4826 12.8738 28.5206 13.1242 29.2304 13.625C29.9451 14.1257 30.3025 14.8526 30.3025 15.8055C30.3025 16.3549 30.1761 16.8241 29.9232 17.213C29.6704 17.602 29.2985 17.8888 28.8074 18.0736C29.3617 18.2195 29.7871 18.4917 30.0837 18.8904C30.3803 19.2891 30.5285 19.7753 30.5285 20.349C30.5285 21.3894 30.1979 22.1722 29.5367 22.6973C28.8804 23.2175 27.9056 23.4825 26.6123 23.4922H22.3022ZM24.862 18.9779V21.5231H26.5394C27.0012 21.5231 27.3562 21.4186 27.6041 21.2095C27.8521 20.9956 27.9761 20.6966 27.9761 20.3125C27.9761 19.4276 27.536 18.9828 26.656 18.9779H24.862ZM24.862 17.3006H26.1966C26.7557 17.2957 27.1544 17.1936 27.3926 16.9943C27.6309 16.7949 27.75 16.5008 27.75 16.1118C27.75 15.6645 27.6211 15.3436 27.3635 15.1492C27.1058 14.9498 26.6901 14.8502 26.1164 14.8502H24.862V17.3006ZM39.1997 23.4922H31.7902V21.8878L35.2033 18.2997C36.0444 17.3419 36.4649 16.581 36.4649 16.017C36.4649 15.56 36.3653 15.2124 36.1659 14.9741C35.9666 14.7359 35.6773 14.6168 35.2981 14.6168C34.9237 14.6168 34.6198 14.7772 34.3865 15.0981C34.1531 15.4141 34.0364 15.8104 34.0364 16.2869H31.5714C31.5714 15.6354 31.7343 15.0349 32.06 14.4855C32.3858 13.9313 32.838 13.4986 33.4165 13.1874C33.9951 12.8762 34.6417 12.7206 35.3564 12.7206C36.5038 12.7206 37.3863 12.9856 38.0037 13.5156C38.626 14.0455 38.9372 14.8064 38.9372 15.7982C38.9372 16.2164 38.8594 16.6248 38.7038 17.0234C38.5483 17.4172 38.3052 17.8329 37.9745 18.2705C37.6488 18.7032 37.1213 19.2842 36.392 20.0135L35.0209 21.596H39.1997V23.4922ZM42.8316 12.8738L46.303 21.5377L49.7744 12.8738H51.5903V23.4922H50.1901V19.3571L50.3213 14.8939L46.8354 23.4922H45.7633L42.2846 14.9158L42.4232 19.3571V23.4922H41.023V12.8738H42.8316ZM58.7227 23.4922C58.6449 23.3366 58.5817 23.0595 58.5331 22.6608C57.9059 23.3123 57.1572 23.638 56.2869 23.638C55.509 23.638 54.8697 23.4193 54.3689 22.9817C53.873 22.5393 53.625 21.9801 53.625 21.3043C53.625 20.4827 53.9362 19.8458 54.5585 19.3936C55.1857 18.9366 56.0657 18.7081 57.1985 18.7081H58.5112V18.0882C58.5112 17.6166 58.3702 17.2422 58.0882 16.9651C57.8062 16.6831 57.3906 16.5421 56.8412 16.5421C56.3598 16.5421 55.9563 16.6636 55.6305 16.9067C55.3048 17.1498 55.1419 17.444 55.1419 17.7892H53.7855C53.7855 17.3954 53.924 17.0161 54.2011 16.6515C54.4831 16.282 54.8624 15.9903 55.3388 15.7764C55.8202 15.5624 56.3477 15.4555 56.9214 15.4555C57.8306 15.4555 58.5428 15.684 59.0582 16.141C59.5735 16.5932 59.8409 17.2179 59.8604 18.0153V21.6471C59.8604 22.3715 59.9528 22.9477 60.1375 23.3755V23.4922H58.7227ZM56.4838 22.4639C56.9068 22.4639 57.3079 22.3545 57.6871 22.1357C58.0664 21.9169 58.3411 21.6325 58.5112 21.2825V19.6634H57.4538C55.8007 19.6634 54.9742 20.1472 54.9742 21.1147C54.9742 21.5377 55.1152 21.8683 55.3972 22.1065C55.6792 22.3448 56.0414 22.4639 56.4838 22.4639ZM65.7895 16.8119C65.5853 16.7779 65.3641 16.7609 65.1258 16.7609C64.241 16.7609 63.6405 17.1377 63.3245 17.8913V23.4922H61.9753V15.6013H63.288L63.3099 16.5129C63.7523 15.808 64.3795 15.4555 65.1915 15.4555C65.454 15.4555 65.6533 15.4895 65.7895 15.5576V16.8119ZM66.5698 19.4811C66.5698 18.2511 66.8542 17.2738 67.4231 16.5494C67.9919 15.8201 68.7455 15.4555 69.6839 15.4555C70.6465 15.4555 71.3977 15.7958 71.9374 16.4765L72.003 15.6013H73.2355V23.3026C73.2355 24.3236 72.9316 25.1282 72.3239 25.7165C71.721 26.3048 70.9091 26.5989 69.8881 26.5989C69.3192 26.5989 68.7625 26.4774 68.218 26.2343C67.6735 25.9912 67.2578 25.6582 66.9709 25.2352L67.671 24.4257C68.2496 25.1404 68.957 25.4977 69.7933 25.4977C70.4496 25.4977 70.9601 25.313 71.3248 24.9435C71.6943 24.574 71.879 24.0537 71.879 23.3828V22.7046C71.3393 23.3269 70.6028 23.638 69.6693 23.638C68.7455 23.638 67.9968 23.2661 67.4231 22.5222C66.8542 21.7784 66.5698 20.7647 66.5698 19.4811ZM67.9263 19.6343C67.9263 20.524 68.1086 21.2241 68.4733 21.7346C68.8379 22.2402 69.3484 22.4931 70.0048 22.4931C70.8556 22.4931 71.4803 22.1065 71.879 21.3335V17.7308C71.4658 16.9772 70.8459 16.6004 70.0193 16.6004C69.363 16.6004 68.8501 16.8557 68.4805 17.3662C68.111 17.8767 67.9263 18.6327 67.9263 19.6343ZM76.7433 23.4922H75.3942V15.6013H76.7433V23.4922ZM75.2848 13.5083C75.2848 13.2895 75.3504 13.1047 75.4817 12.954C75.6178 12.8033 75.8172 12.7279 76.0797 12.7279C76.3422 12.7279 76.5416 12.8033 76.6777 12.954C76.8138 13.1047 76.8819 13.2895 76.8819 13.5083C76.8819 13.7271 76.8138 13.9094 76.6777 14.0552C76.5416 14.2011 76.3422 14.274 76.0797 14.274C75.8172 14.274 75.6178 14.2011 75.4817 14.0552C75.3504 13.9094 75.2848 13.7271 75.2848 13.5083ZM80.1856 15.6013L80.2293 16.5932C80.8322 15.8347 81.6198 15.4555 82.5922 15.4555C84.2598 15.4555 85.101 16.3962 85.1155 18.2778V23.4922H83.7664V18.2705C83.7615 17.7017 83.6302 17.2811 83.3725 17.0088C83.1197 16.7366 82.7235 16.6004 82.1838 16.6004C81.7462 16.6004 81.3622 16.7171 81.0315 16.9505C80.7009 17.1839 80.4433 17.4902 80.2585 17.8694V23.4922H78.9093V15.6013H80.1856Z" fill="white"/>
<circle cx="14.5" cy="22.4922" r="2" fill="#09C19A"/>
<circle cx="14.5" cy="22.4922" r="2" fill="#00C1AA"/>
<circle cx="14.5" cy="17.4922" r="2" fill="#09C19A"/>
<circle cx="14.5" cy="17.4922" r="2" fill="#00C1AA"/>
<circle cx="14.5" cy="12.4922" r="2" fill="#59C59E"/>
<circle cx="14.5" cy="12.4922" r="2" fill="#FF5252"/>
<circle cx="8.5" cy="22.4922" r="2" fill="#09C19A"/>
<circle cx="8.5" cy="22.4922" r="2" fill="#00C1AA"/>
<circle cx="8.5" cy="17.4922" r="2" fill="#59C59E"/>
<circle cx="8.5" cy="17.4922" r="2" fill="#FF5252"/>
<circle cx="2.5" cy="22.4922" r="2" fill="#59C59E"/>
<circle cx="2.5" cy="22.4922" r="2" fill="#FF5252"/>
</svg>
