<svg width="86" height="16" viewBox="0 0 86 16" fill="none" xmlns="http://www.w3.org/2000/svg">
<path d="M0.50289 0.246884H8.26292C10.3417 0.246884 13.7071 1.19231 13.7071 4.3553C13.7071 7.08751 11.4028 7.80453 11.4028 7.80453C11.4028 7.80453 14.2564 8.25556 14.2709 11.5053C14.2824 13.9397 12.5072 15.9867 8.88164 15.9867H0.505784V14.1074L2.22317 13.7836V2.43843L0.5 2.10883V0.246884H0.50289ZM15.41 5.11859C15.41 5.11859 15.3262 0.0126953 20.8831 0.0126953C25.8473 0.0126953 26.1914 3.7973 26.1856 4.55769C26.1827 5.48866 25.7519 6.93138 25.2199 7.57034C24.367 8.59961 19.8104 13.5956 19.8104 13.5956L24.0923 13.5841L24.2167 12.0084H26.6222V15.9722H15.6644V13.9137L20.7472 8.62852C20.7472 8.62852 23.0631 6.28086 22.9734 4.61841C22.9358 3.94764 22.6236 2.43554 20.8628 2.43554C19.0992 2.43554 18.5585 3.88982 18.5585 5.13593L15.41 5.11859ZM8.98862 13.5841C8.98862 13.5841 11.1252 13.4511 11.1252 11.459C11.1252 9.46698 9.6854 8.99282 9.14185 8.99282H5.43242V13.587H8.98862V13.5841ZM8.17907 2.64081H5.42374L5.42953 6.84754C5.42953 6.84754 8.29183 6.84464 8.42194 6.84464C8.55204 6.84464 10.4776 6.69141 10.4776 4.78899C10.4805 2.71888 8.17907 2.64081 8.17907 2.64081Z" fill="#18B893"/>
<path d="M42.5546 5.17328H41.5889L41.4125 2.87766C41.0107 2.4006 40.4874 2.01318 39.8426 1.71828C39.1979 1.42337 38.4548 1.27592 37.6077 1.27592C35.9163 1.27592 34.5719 1.89175 33.5744 3.12052C32.577 4.34929 32.0768 5.93945 32.0768 7.88524V8.10208C32.0768 10.0479 32.5712 11.6409 33.5571 12.8784C34.543 14.1158 35.8412 14.7345 37.4487 14.7345C38.3016 14.7345 39.0735 14.5842 39.7703 14.2864C40.4671 13.9886 41.0107 13.6041 41.4068 13.1328L41.5831 10.8372H42.5488V13.4971C42.0775 14.1476 41.3894 14.6912 40.4873 15.1277C39.5824 15.5643 38.5705 15.7812 37.4487 15.7812C35.5087 15.7812 33.9214 15.0612 32.6897 13.6243C31.4552 12.1874 30.8394 10.3457 30.8394 8.10208V7.90548C30.8394 5.65322 31.4552 3.80863 32.684 2.37169C33.9127 0.934757 35.5231 0.214844 37.5123 0.214844C38.6341 0.214844 39.6373 0.434576 40.522 0.874041C41.4039 1.31351 42.0833 1.85995 42.5546 2.51047V5.17328Z" fill="white"/>
<path d="M37.4507 16C35.4528 16 33.7962 15.2483 32.5269 13.768C31.2664 12.2963 30.6245 10.391 30.6245 8.10408V7.90748C30.6245 5.61474 31.2635 3.70365 32.5211 2.23202C33.7875 0.751717 35.4673 0 37.5143 0C38.665 0 39.7087 0.228406 40.6195 0.682328C41.5302 1.13625 42.2414 1.70871 42.73 2.38525L42.7705 2.44308V5.38923H41.3856L41.1977 2.9635C40.8247 2.5356 40.3361 2.18287 39.7492 1.91399C39.1363 1.63354 38.4134 1.49187 37.6039 1.49187C35.9906 1.49187 34.6896 2.08457 33.7412 3.25551C32.7814 4.44091 32.2927 5.99638 32.2927 7.88435V8.10119C32.2927 9.98916 32.7756 11.5504 33.7268 12.7416C34.678 13.9357 35.8981 14.5139 37.4478 14.5139C38.266 14.5139 39.0177 14.3694 39.6856 14.0831C40.3217 13.8113 40.8305 13.4615 41.1977 13.0423L41.3856 10.6166H42.7705V13.5627L42.73 13.6205C42.2414 14.2971 41.5186 14.8695 40.5848 15.3206C39.6567 15.7716 38.6014 16 37.4507 16ZM37.5143 0.433683C35.6003 0.433683 34.0333 1.13336 32.8507 2.51536C31.6625 3.90604 31.0582 5.71883 31.0582 7.90748V8.10408C31.0582 10.2841 31.6625 12.0969 32.8565 13.4846C34.0419 14.8666 35.5858 15.5663 37.4507 15.5663C38.5349 15.5663 39.5266 15.3524 40.3968 14.9331C41.2382 14.5284 41.8916 14.0195 42.3368 13.4268V11.0531H41.7875L41.6198 13.2186L41.5764 13.2707C41.163 13.7651 40.5848 14.1727 39.8591 14.485C39.1391 14.7944 38.3296 14.9505 37.4507 14.9505C35.7824 14.9505 34.4149 14.3 33.3885 13.0134C32.3737 11.7441 31.8591 10.0903 31.8591 8.10408V7.88724C31.8591 5.89808 32.3795 4.25009 33.403 2.98663C34.438 1.70871 35.8518 1.06108 37.6039 1.06108C38.4771 1.06108 39.2577 1.2172 39.9284 1.52367C40.5992 1.83014 41.1514 2.24069 41.5736 2.74087L41.6198 2.79292L41.7875 4.95844H42.3368V2.58764C41.8887 1.99205 41.2468 1.48319 40.4257 1.07264C39.5757 0.647632 38.5985 0.433683 37.5143 0.433683Z" fill="white"/>
<path d="M57.8895 8.10216C57.8895 10.3747 57.2824 12.2221 56.071 13.6475C54.8595 15.07 53.2809 15.7841 51.3438 15.7841C49.4327 15.7841 47.8772 15.07 46.6832 13.6446C45.4891 12.2164 44.8906 10.3718 44.8906 8.10505V7.90845C44.8906 5.64174 45.4862 3.79425 46.6774 2.36599C47.8686 0.934833 49.4212 0.220703 51.3323 0.220703C53.2723 0.220703 54.8509 0.934833 56.0652 2.36599C57.2824 3.79714 57.8895 5.64463 57.8895 7.90845V8.10216ZM56.6434 7.88243C56.6434 5.92218 56.1664 4.33491 55.2094 3.12349C54.2524 1.91207 52.96 1.30491 51.3323 1.30491C49.7305 1.30491 48.4671 1.91207 47.5332 3.12349C46.6022 4.33491 46.1367 5.92218 46.1367 7.88243V8.09927C46.1367 10.074 46.6051 11.667 47.539 12.8785C48.4728 14.0899 49.7421 14.697 51.3409 14.697C52.9831 14.697 54.2755 14.0928 55.2209 12.8842C56.1664 11.6757 56.6405 10.0798 56.6405 8.09927V7.88243H56.6434Z" fill="white"/>
<path d="M51.3456 16C49.3738 16 47.7518 15.2541 46.5172 13.7825C45.2943 12.3224 44.6755 10.4113 44.6755 8.10412V7.90752C44.6755 5.60033 45.2943 3.68923 46.5143 2.22628C47.7431 0.751755 49.3651 0.00292969 51.3369 0.00292969C53.3347 0.00292969 54.9827 0.751755 56.2346 2.22628C57.4778 3.68923 58.111 5.60322 58.111 7.91041V8.10701C58.111 10.42 57.4807 12.334 56.2404 13.7911C54.9885 15.2541 53.3434 16 51.3456 16ZM51.334 0.43372C49.4981 0.43372 47.9889 1.1305 46.844 2.50094C45.6904 3.88583 45.1063 5.70441 45.1063 7.90463V8.10123C45.1063 10.3043 45.6932 12.12 46.8468 13.502C47.9918 14.8725 49.5039 15.5664 51.3398 15.5664C53.2046 15.5664 54.7399 14.8725 55.9021 13.5078C57.0731 12.1316 57.6687 10.313 57.6687 8.10412V7.90752C57.6687 5.70441 57.0731 3.88873 55.8964 2.50383C54.737 1.12761 53.1988 0.43372 51.334 0.43372ZM51.3456 14.9187C49.6831 14.9187 48.3445 14.2798 47.3701 13.0163C46.4103 11.7702 45.9217 10.1193 45.9217 8.10412V7.88728C45.9217 5.88656 46.4074 4.24145 47.3644 2.99534C48.3358 1.73188 49.6716 1.09292 51.334 1.09292C53.0254 1.09292 54.3842 1.73188 55.3817 2.99534C56.3647 4.24145 56.862 5.88656 56.862 7.89017V8.10701C56.862 10.128 56.3705 11.7846 55.3962 13.025C54.4132 14.2798 53.0485 14.9187 51.3456 14.9187ZM51.334 1.52371C49.7901 1.52371 48.6047 2.09039 47.7084 3.25844C46.8121 4.42649 46.3553 5.98197 46.3553 7.88439V8.10123C46.3553 10.0181 46.8121 11.5823 47.7142 12.7474C48.6134 13.9155 49.8017 14.4821 51.3456 14.4821C52.9328 14.4821 54.1443 13.9155 55.055 12.7532C55.9657 11.588 56.4283 10.0239 56.4283 8.10123V7.88439C56.4283 5.98197 55.9629 4.42649 55.0406 3.25844C54.1183 2.09039 52.9068 1.52371 51.334 1.52371Z" fill="white"/>
<path d="M66.0699 0.443359C67.6919 0.443359 68.9351 0.796087 69.8054 1.50444C70.6756 2.20989 71.1093 3.23338 71.1093 4.56913C71.1093 5.35843 70.878 6.06967 70.4125 6.69995C69.9471 7.33024 69.2936 7.78705 68.4494 8.07039C69.3862 8.30458 70.0598 8.7267 70.4704 9.33385C70.8809 9.94101 71.0891 10.7043 71.0891 11.6237V13.0057C71.0891 13.5406 71.1729 13.9338 71.3377 14.1911C71.5054 14.4484 71.757 14.5872 72.0952 14.6074L72.6041 14.6392V15.5644H71.8148C71.0804 15.5644 70.5687 15.3158 70.2767 14.8156C69.9846 14.3154 69.8401 13.7083 69.8401 12.9855V11.6439C69.8401 10.7303 69.5481 10.0046 68.9612 9.46685C68.3742 8.92908 67.5589 8.65153 66.5152 8.63129H62.7132V14.512L64.4075 14.6566V15.5615H59.7844V14.6566L61.4787 14.512V1.50155L59.7844 1.35698V0.443359H66.0699ZM62.7132 7.57021H65.9254C67.29 7.57021 68.2875 7.29554 68.9178 6.7491C69.5481 6.20266 69.8632 5.47119 69.8632 4.55756C69.8632 3.589 69.5481 2.83729 68.9178 2.30241C68.2875 1.77043 67.3392 1.50155 66.0699 1.50155H62.7132V7.57021Z" fill="white"/>
<path d="M72.8232 15.7814H71.817C71.0017 15.7814 70.4235 15.4922 70.091 14.9256C69.7816 14.3965 69.6255 13.743 69.6255 12.9884V11.6469C69.6255 10.7882 69.3624 10.129 68.8188 9.62884C68.2753 9.13155 67.5004 8.86845 66.5145 8.84821H62.9323V14.3155L64.6266 14.4601V15.7814H59.5698V14.4601L61.2641 14.3155V1.70401L59.5698 1.55945V0.229492H66.0722C67.7375 0.229492 69.0386 0.602459 69.9435 1.33683C70.8629 2.08276 71.3284 3.17275 71.3284 4.5721C71.3284 5.40477 71.0798 6.16516 70.5911 6.83014C70.2124 7.34478 69.7122 7.75244 69.0935 8.04735C69.7816 8.31045 70.3049 8.70076 70.6519 9.21251C71.0856 9.85147 71.3082 10.6639 71.3082 11.6267V13.0087C71.3082 13.4973 71.3804 13.8558 71.5221 14.0755C71.6522 14.275 71.8402 14.3762 72.1119 14.3936L72.8232 14.4369V15.7814ZM62.4957 8.41742H66.5145C67.6132 8.44055 68.4863 8.73835 69.108 9.31081C69.7382 9.88905 70.0563 10.6755 70.0563 11.6469V12.9884C70.0563 13.665 70.1922 14.2461 70.4639 14.7087C70.7155 15.1395 71.1578 15.3506 71.8141 15.3506H72.3866V14.8475L72.0801 14.8301C71.6696 14.8041 71.3573 14.6306 71.152 14.3155C70.9612 14.0206 70.8687 13.5927 70.8687 13.0116V11.6296C70.8687 10.7564 70.6721 10.0278 70.2876 9.46115C69.9088 8.90315 69.2699 8.50705 68.3909 8.28732L67.6739 8.10806L68.3736 7.87387C69.1716 7.60499 69.7961 7.17131 70.2326 6.57861C70.6663 5.9888 70.8861 5.31514 70.8861 4.57788C70.8861 3.29707 70.4871 2.34875 69.6631 1.68088C68.8362 1.01012 67.6276 0.668957 66.0635 0.668957H59.9948V1.16625L61.6891 1.31081V14.7203L59.9948 14.8648V15.3535H64.1842V14.8648L62.49 14.7203V8.41742H62.4957ZM65.9247 7.79003H62.4957V1.28768H66.0693C67.3848 1.28768 68.388 1.57391 69.0559 2.14059C69.7353 2.71305 70.0794 3.52837 70.0794 4.56054C70.0794 5.53777 69.7353 6.32996 69.0588 6.91688C68.3909 7.49801 67.3356 7.79003 65.9247 7.79003ZM62.9294 7.35634H65.9247C67.2287 7.35634 68.1885 7.09902 68.7755 6.58728C69.3624 6.07842 69.6457 5.41634 69.6457 4.55765C69.6457 3.64691 69.3624 2.96169 68.7755 2.46729C68.1885 1.97 67.2778 1.71847 66.0693 1.71847H62.9294V7.35634Z" fill="white"/>
<path d="M83.1978 8.23894H76.9932V14.5158H84.1432L84.2357 12.2491H85.3373V15.5653H74.0615V14.6517L75.7558 14.5158V1.49662L74.0615 1.36074V0.435547H75.7558H85.2852V3.76045H84.1837L84.0911 1.49373H76.9932V7.18076H83.1978V8.23894Z" fill="white"/>
<path d="M85.552 15.7812H73.8425V14.4483L75.5368 14.3125V1.69519L73.8425 1.5593V0.217773H85.4999V3.97636H83.9733L83.8808 1.70964H77.2079V6.96009H83.4125V8.45485H77.2079V14.298H83.9329L84.0254 12.0313H85.552V15.7812ZM74.2791 15.3475H85.1212V12.465H84.4446L84.3521 14.7317H76.7771V8.02117H82.9817V7.39378H76.7771V1.27885H84.3001L84.3926 3.54557H85.0691V0.654348H74.2791V1.1632L75.9734 1.29909V14.7201L74.2791 14.856V15.3475Z" fill="white"/>
</svg>
