<svg width="54" height="928" viewBox="0 0 54 928" fill="none" xmlns="http://www.w3.org/2000/svg">
<path fill-rule="evenodd" clip-rule="evenodd" d="M18.0439 2H0.0439453V0H20.0439V46.7692H0.0439453V44.7692H18.0439V2Z" fill="#B0C4D4"/>
<path fill-rule="evenodd" clip-rule="evenodd" d="M18.0439 46.7695H0.0439453V44.7695H20.0439V91.5388H0.0439453V89.5388H18.0439V46.7695Z" fill="#B0C4D4"/>
<path fill-rule="evenodd" clip-rule="evenodd" d="M18.0439 91.5391H0.0439453V89.5391H20.0439V136.308H0.0439453V134.308H18.0439V91.5391Z" fill="#B0C4D4"/>
<path fill-rule="evenodd" clip-rule="evenodd" d="M18.0439 181.078H0.0439453V179.078H20.0439V225.847H0.0439453V223.847H18.0439V181.078Z" fill="#B0C4D4"/>
<path fill-rule="evenodd" clip-rule="evenodd" d="M18.0439 225.848H0.0439453V223.848H20.0439V270.617H0.0439453V268.617H18.0439V225.848Z" fill="#B0C4D4"/>
<path fill-rule="evenodd" clip-rule="evenodd" d="M18.0439 270.613H0.0439453V268.613H20.0439V315.383H0.0439453V313.383H18.0439V270.613Z" fill="#B0C4D4"/>
<path fill-rule="evenodd" clip-rule="evenodd" d="M18.0439 315.383H0.0439453V313.383H20.0439V360.152H0.0439453V358.152H18.0439V315.383Z" fill="#B0C4D4"/>
<path fill-rule="evenodd" clip-rule="evenodd" d="M18.0439 360.152H0.0439453V358.152H20.0439V404.922H0.0439453V402.922H18.0439V360.152Z" fill="#B0C4D4"/>
<path fill-rule="evenodd" clip-rule="evenodd" d="M18.0439 404.922H0.0439453V402.922H20.0439V449.691H0.0439453V447.691H18.0439V404.922Z" fill="#B0C4D4"/>
<path fill-rule="evenodd" clip-rule="evenodd" d="M18.0439 449.691H0.0439453V447.691H20.0439V494.461H0.0439453V492.461H18.0439V449.691Z" fill="#B0C4D4"/>
<path fill-rule="evenodd" clip-rule="evenodd" d="M18.0439 494.461H0.0439453V492.461H20.0439V539.23H0.0439453V537.23H18.0439V494.461Z" fill="#B0C4D4"/>
<path fill-rule="evenodd" clip-rule="evenodd" d="M18.0439 539.23H0.0439453V537.23H20.0439V584H0.0439453V582H18.0439V539.23Z" fill="#B0C4D4"/>
<path fill-rule="evenodd" clip-rule="evenodd" d="M18 704H0V702H20V748.75H0V746.75H18V704Z" fill="#B0C4D4"/>
<path fill-rule="evenodd" clip-rule="evenodd" d="M18 748.75H0V746.75H20V793.5H0V791.5H18V748.75Z" fill="#B0C4D4"/>
<path fill-rule="evenodd" clip-rule="evenodd" d="M18 793.5H0V791.5H20V838.25H0V836.25H18V793.5Z" fill="#B0C4D4"/>
<path fill-rule="evenodd" clip-rule="evenodd" d="M18 883.25H0V881.25H20V928H0V926H18V883.25Z" fill="#B0C4D4"/>
<path fill-rule="evenodd" clip-rule="evenodd" d="M18 838.25H0V836.25H20V883H0V881H18V838.25Z" fill="#B0C4D4"/>
<path fill-rule="evenodd" clip-rule="evenodd" d="M47.1068 306.93L53.4708 313.294C53.8613 313.684 53.8613 314.317 53.4708 314.708L47.1068 321.072C46.7163 321.462 46.0831 321.462 45.6926 321.072C45.3021 320.681 45.3021 320.048 45.6926 319.658L50.3495 315.001L18.7637 315.001L18.7637 313.001L50.3495 313.001L45.6926 308.344C45.3021 307.953 45.3021 307.32 45.6926 306.93C46.0831 306.539 46.7163 306.539 47.1068 306.93Z" fill="#B0C4D4"/>
<path fill-rule="evenodd" clip-rule="evenodd" d="M24.1637 584.201L18.7637 584.201L18.7637 581.801L24.1637 581.801L24.1637 584.201ZM35.5637 584.201L31.3637 584.201L31.3637 581.801L37.9637 581.801L37.9637 589.001L35.5637 589.001L35.5637 584.201ZM35.5637 609.001L35.5637 597.001L37.9637 597.001L37.9637 609.001L35.5637 609.001ZM35.5637 629.001L35.5637 617.001L37.9637 617.001L37.9637 629.001L35.5637 629.001ZM35.5637 649.001L35.5637 637.001L37.9637 637.001L37.9637 649.001L35.5637 649.001ZM35.5637 669.001L35.5637 657.001L37.9637 657.001L37.9637 669.001L35.5637 669.001ZM35.5637 689.001L35.5637 677.001L37.9637 677.001L37.9637 689.001L35.5637 689.001ZM35.5637 701.801L35.5637 697.001L37.9637 697.001L37.9637 704.201L31.3637 704.201L31.3637 701.801L35.5637 701.801ZM18.7637 701.801L24.1637 701.801L24.1637 704.201L18.7637 704.201L18.7637 701.801Z" fill="#B0C4D4"/>
</svg>
