<svg width="51" height="782" viewBox="0 0 51 782" fill="none" xmlns="http://www.w3.org/2000/svg">
<path fill-rule="evenodd" clip-rule="evenodd" d="M50.7071 8.70642C51.0976 8.31592 51.0976 7.68274 50.7071 7.29224L44.3431 0.928284C43.9526 0.53772 43.3194 0.53772 42.9289 0.928284C42.5384 1.31879 42.5384 1.95197 42.9289 2.34247L47.5858 6.99933L19 6.99933L18.9999 774.999L47.5857 774.999L42.9288 779.656C42.5383 780.047 42.5383 780.68 42.9288 781.07C43.3193 781.461 43.9525 781.461 44.343 781.07L50.707 774.706C51.0975 774.316 51.0975 773.683 50.707 773.292L44.343 766.928C43.9525 766.538 43.3193 766.538 42.9288 766.928C42.5383 767.319 42.5383 767.952 42.9288 768.342L47.5857 772.999L20.9999 772.999L21 8.99933L47.5858 8.99933L42.9289 13.6562C42.5384 14.0467 42.5384 14.6799 42.9289 15.0704C43.3194 15.4609 43.9526 15.4609 44.3431 15.0704L50.7071 8.70642Z" fill="#03E2B2"/>
<path fill-rule="evenodd" clip-rule="evenodd" d="M50.7071 273.794C51.0976 274.184 51.0976 274.817 50.7071 275.208L44.3431 281.572C43.9526 281.962 43.3195 281.962 42.9289 281.572C42.5384 281.181 42.5384 280.548 42.9289 280.158L47.5858 275.501L7.31199e-07 275.501L5.56353e-07 273.501L47.5858 273.501L42.9289 268.844C42.5384 268.453 42.5384 267.82 42.9289 267.43C43.3195 267.039 43.9526 267.039 44.3431 267.43L50.7071 273.794Z" fill="#03E2B2"/>
</svg>
