<svg  width="96" height="106" viewBox="0 0 96 106" fill="none" xmlns="http://www.w3.org/2000/svg">
                    <path d="M52.6129 8.07422L52.6129 7.07422L51.6129 7.07422L51.6129 8.07422L52.6129 8.07422ZM95.252 8.78133C95.6425 8.3908 95.6425 7.75764 95.252 7.36711L88.8881 1.00315C88.4975 0.612629 87.8644 0.612629 87.4738 1.00315C87.0833 1.39368 87.0833 2.02684 87.4738 2.41737L93.1307 8.07422L87.4738 13.7311C87.0833 14.1216 87.0833 14.7548 87.4738 15.1453C87.8644 15.5358 88.4975 15.5358 88.8881 15.1453L95.252 8.78133ZM52.6129 98.0742L51.6129 98.0742L51.6129 99.0742L52.6129 99.0742L52.6129 98.0742ZM95.252 98.7813C95.6425 98.3908 95.6425 97.7576 95.252 97.3671L88.8881 91.0031C88.4975 90.6126 87.8644 90.6126 87.4738 91.0031C87.0833 91.3937 87.0833 92.0268 87.4738 92.4174L93.1307 98.0742L87.4738 103.731C87.0833 104.122 87.0833 104.755 87.4738 105.145C87.8644 105.536 88.4975 105.536 88.8881 105.145L95.252 98.7813ZM52.6129 9.07422L94.5449 9.07422L94.5449 7.07422L52.6129 7.07422L52.6129 9.07422ZM53.6129 98.0742L53.6129 52.4266L51.6129 52.4266L51.6129 98.0742L53.6129 98.0742ZM53.6129 52.4266L53.6129 8.07422L51.6129 8.07422L51.6129 52.4266L53.6129 52.4266ZM52.6129 99.0742L94.5449 99.0742L94.5449 97.0742L52.6129 97.0742L52.6129 99.0742ZM52.6129 51.4266L0.54492 51.4266L0.54492 53.4266L52.6129 53.4266L52.6129 51.4266Z" fill="#B0C4D4"/>
                  </svg>