<svg  width="81" height="206" viewBox="0 0 81 206" fill="none" xmlns="http://www.w3.org/2000/svg">
                    <path d="M42.4497 8.07422L42.4497 7.07422L41.4497 7.07422L41.4497 8.07422L42.4497 8.07422ZM80.252 8.78132C80.6426 8.3908 80.6426 7.75763 80.252 7.36711L73.8881 1.00314C73.4975 0.612622 72.8644 0.612622 72.4739 1.00314C72.0833 1.39367 72.0833 2.02684 72.4739 2.41736L78.1307 8.07422L72.4739 13.7311C72.0833 14.1216 72.0833 14.7548 72.4739 15.1453C72.8644 15.5358 73.4975 15.5358 73.8881 15.1453L80.252 8.78132ZM42.4497 198.074L41.4497 198.074L41.4497 199.074L42.4497 199.074L42.4497 198.074ZM80.252 198.781C80.6426 198.391 80.6426 197.758 80.252 197.367L73.8881 191.003C73.4976 190.613 72.8644 190.613 72.4739 191.003C72.0833 191.394 72.0833 192.027 72.4739 192.417L78.1307 198.074L72.4739 203.731C72.0833 204.122 72.0833 204.755 72.4739 205.145C72.8644 205.536 73.4976 205.536 73.8881 205.145L80.252 198.781ZM42.4497 9.07422L79.5449 9.07422L79.5449 7.07422L42.4497 7.07422L42.4497 9.07422ZM43.4497 198.074L43.4497 101.707L41.4497 101.707L41.4497 198.074L43.4497 198.074ZM43.4497 101.707L43.4497 8.07422L41.4497 8.07422L41.4497 101.707L43.4497 101.707ZM42.4497 199.074L79.5449 199.074L79.5449 197.074L42.4497 197.074L42.4497 199.074ZM42.4497 100.707L0.544918 100.707L0.544918 102.707L42.4497 102.707L42.4497 100.707Z" fill="#B0C4D4"/>
                  </svg> 