<svg width="89" height="412" viewBox="0 0 89 412" fill="none" xmlns="http://www.w3.org/2000/svg">
                    <path d="M42.4497 8.07422L42.4497 7.07422L41.4497 7.07422L41.4497 8.07422L42.4497 8.07422ZM88.252 8.78131C88.6426 8.3908 88.6426 7.75763 88.252 7.36712L81.8881 1.00314C81.4975 0.612637 80.8644 0.612637 80.4739 1.00314C80.0833 1.39367 80.0833 2.02682 80.4739 2.41735L86.1307 8.07422L80.4739 13.7311C80.0833 14.1216 80.0833 14.7548 80.4739 15.1453C80.8644 15.5358 81.4975 15.5358 81.8881 15.1453L88.252 8.78131ZM42.4497 404.074L41.4497 404.074L41.4497 405.074L42.4497 405.074L42.4497 404.074ZM88.252 404.781C88.6426 404.391 88.6426 403.758 88.252 403.367L81.8881 397.003C81.4976 396.613 80.8644 396.613 80.4739 397.003C80.0833 397.394 80.0833 398.027 80.4739 398.417L86.1307 404.074L80.4739 409.731C80.0833 410.122 80.0833 410.755 80.4739 411.145C80.8644 411.536 81.4976 411.536 81.8881 411.145L88.252 404.781ZM42.4497 9.07422L87.5449 9.07421L87.5449 7.07421L42.4497 7.07422L42.4497 9.07422ZM43.4497 404.074L43.4497 203.225L41.4497 203.225L41.4497 404.074L43.4497 404.074ZM43.4497 203.225L43.4497 8.07422L41.4497 8.07422L41.4497 203.225L43.4497 203.225ZM42.4497 405.074L87.5449 405.074L87.5449 403.074L42.4497 403.074L42.4497 405.074ZM42.4497 202.225L0.544913 202.225L0.544913 204.225L42.4497 204.225L42.4497 202.225Z" fill="#B0C4D4"/>
                  </svg>  