<svg width="604" height="103" viewBox="0 0 604 103" fill="none" xmlns="http://www.w3.org/2000/svg">
<path d="M153.863 91.3991C170.077 91.3991 181.265 83.1866 181.265 69.8151C181.265 59.918 172.92 52.5479 162.707 51.6003V50.6527C170.34 49.4419 177.528 42.3876 177.528 34.3857C177.528 22.6988 167.55 15.4339 153.126 15.4339H122.028V91.3991H153.863ZM136.255 26.0153H149.81C158.022 26.0153 163.458 29.9636 163.458 36.7547C163.458 43.7037 157.706 47.4414 148.072 47.4414H136.255V26.0153ZM136.255 80.8177V57.0752H150.231C160.601 57.0752 166.722 61.1288 166.722 68.8675C166.722 76.6588 160.759 80.8177 150.757 80.8177H136.255Z" fill="#292929"/>
<path d="M188.296 38.5585H201.681C201.681 30.5566 206.3 24.436 214.565 24.436C222.514 24.436 227.252 29.7531 227.252 36.6494C227.252 42.4402 224.936 46.0727 215.355 55.7592L189.033 82.239V91.3991H242.427V80.1333H207.458V79.2383L224.423 63.1819C237.479 50.3895 241.322 44.2301 241.322 35.386C241.322 22.7514 230.411 13.5387 215.302 13.5387C199.457 13.5387 188.296 24.1867 188.296 38.5585Z" fill="#292929"/>
<path d="M286.533 91.3991C302.747 91.3991 313.935 83.1866 313.935 69.8151C313.935 59.918 305.59 52.5479 295.377 51.6003V50.6527C303.01 49.4419 310.198 42.3876 310.198 34.3857C310.198 22.6988 300.22 15.4339 285.796 15.4339H254.698V91.3991H286.533ZM268.925 26.0153H282.479C290.692 26.0153 296.128 29.9636 296.128 36.7547C296.128 43.7037 290.376 47.4414 280.742 47.4414H268.925V26.0153ZM268.925 80.8177V57.0752H282.901C293.271 57.0752 299.392 61.1288 299.392 68.8675C299.392 76.6588 293.429 80.8177 283.427 80.8177H268.925Z" fill="#292929"/>
<path d="M322.401 91.3991H335.457V57.9702C335.457 49.863 340.707 45.2442 349.183 45.2442C351.394 45.2442 354.868 45.6127 355.869 45.9813L358.451 33.4381C357.24 33.1223 352.341 32.9117 350.446 32.9117C343.024 32.9117 336.812 37.1232 335.232 42.8087H334.983V33.2137H322.401V91.3991Z" fill="#292929"/>
<path d="M385.669 92.5572C402.883 92.5572 414.005 81.2915 414.005 62.6029C414.005 44.0196 402.831 32.7538 385.669 32.7538C368.56 32.7538 357.333 44.0722 357.333 62.6029C357.333 81.2915 368.402 92.5572 385.669 92.5572ZM385.669 81.2249C376.562 81.2249 370.704 74.8162 370.704 62.6555C370.704 50.4948 376.562 44.0861 385.669 44.0861C394.724 44.0861 400.581 50.4948 400.581 62.6555C400.581 74.8162 394.776 81.2249 385.669 81.2249Z" fill="#292929"/>
<path d="M436.685 57.4438H436.435V10.9453H423.38V91.3991H436.435V71.1838L440.422 67.1968L458.255 91.3991H475.339L450.807 58.5493L473.759 33.8593H458.598L436.685 57.4438Z" fill="#292929"/>
<path d="M514.812 74.3674C512.916 78.6842 508.442 82.397 501.967 82.397C493.386 82.397 488.504 76.2903 488.188 66.5512L487.542 65.8668H528.407V61.7079C528.407 43.6511 517.918 32.7538 501.493 32.7538C484.805 32.7538 473.789 44.3881 473.789 62.8661C473.789 81.2915 484.647 92.5572 501.598 92.5572C515.18 92.5572 525.459 85.3838 527.828 75.013L514.812 74.3674ZM501.44 42.914C509.284 42.914 514.443 48.4416 514.706 57.1805H488.241C488.82 48.5469 493.649 42.914 501.44 42.914Z" fill="#292929"/>
<path d="M537.203 91.3991H550.259V57.9702C550.259 49.863 555.509 45.2442 563.985 45.2442C566.196 45.2442 569.67 45.6127 570.671 45.9813L573.253 33.4381C572.042 33.1223 567.143 32.9117 565.248 32.9117C557.826 32.9117 551.614 37.1232 550.034 42.8087H549.785V33.2137H537.203V91.3991Z" fill="#292929"/>
<path d="M592.026 23.1054V17.1599H594.638V15.4441H587.415V17.1599H590.026V23.1054H592.026Z" fill="#292929"/>
<path d="M603.555 23.1054V15.4715H601.294L599.712 19.8282H599.618L598.012 15.4715H595.846V23.1054H597.695V18.3637H597.79L599.111 22.4351H600.29L601.611 18.3637H601.706V23.1054H603.555Z" fill="#292929"/>
<ellipse cx="17.3246" cy="17.8951" rx="16.928" ry="16.9285" fill="#0ABE98"/>
<ellipse cx="17.324" cy="51.752" rx="16.928" ry="16.9285" fill="#079270"/>
<ellipse cx="17.324" cy="85.609" rx="16.928" ry="16.9285" fill="#046A51"/>
<ellipse cx="51.1804" cy="17.8949" rx="16.928" ry="16.9285" fill="#28F3C8"/>
<ellipse cx="51.1804" cy="51.752" rx="16.928" ry="16.9285" fill="#0ABE98"/>
<ellipse cx="51.1804" cy="85.609" rx="16.928" ry="16.9285" fill="#079270"/>
<ellipse cx="85.0364" cy="17.8949" rx="16.928" ry="16.9285" fill="#7DFFE0"/>
<ellipse cx="85.0364" cy="51.752" rx="16.928" ry="16.9285" fill="#28F3C8"/>
<ellipse cx="85.0364" cy="85.609" rx="16.928" ry="16.9285" fill="#0ABE98"/>
</svg>
