<svg width="125" height="253" viewBox="0 0 125 253" fill="none" xmlns="http://www.w3.org/2000/svg">
<path d="M0.792892 141.293C0.402367 141.683 0.402367 142.317 0.792892 142.707L7.15685 149.071C7.54738 149.462 8.18054 149.462 8.57107 149.071C8.96159 148.681 8.96159 148.047 8.57107 147.657L2.91422 142L8.57107 136.343C8.96159 135.953 8.96159 135.319 8.57107 134.929C8.18054 134.538 7.54738 134.538 7.15685 134.929L0.792892 141.293ZM123.5 1H124.5V0H123.5V1ZM123.5 245V246H124.5V245H123.5ZM0.792892 244.293C0.402367 244.683 0.402367 245.317 0.792892 245.707L7.15685 252.071C7.54738 252.462 8.18054 252.462 8.57107 252.071C8.96159 251.681 8.96159 251.047 8.57107 250.657L2.91422 245L8.57107 239.343C8.96159 238.953 8.96159 238.319 8.57107 237.929C8.18054 237.538 7.54738 237.538 7.15685 237.929L0.792892 244.293ZM1.5 143H123.5V141H1.5V143ZM124.5 142V1H122.5V142H124.5ZM123.5 0H106.568V2H123.5V0ZM122.5 142V245H124.5V142H122.5ZM123.5 244H1.5V246H123.5V244Z" fill="#B0C4D4"/>
</svg>
