<svg  width="16" height="434" viewBox="0 0 16 434" fill="none" xmlns="http://www.w3.org/2000/svg">
                    <path d="M8.52742 0.804612C8.13689 0.414088 7.50373 0.414088 7.11321 0.804612L0.749245 7.16857C0.358721 7.5591 0.358721 8.19226 0.749245 8.58279C1.13977 8.97331 1.77293 8.97331 2.16346 8.58279L7.82031 2.92593L13.4772 8.58279C13.8677 8.97331 14.5009 8.97331 14.8914 8.58279C15.2819 8.19226 15.2819 7.5591 14.8914 7.16857L8.52742 0.804612ZM7.11322 433.219C7.50375 433.609 8.13691 433.609 8.52744 433.219L14.8914 426.855C15.2819 426.464 15.2819 425.831 14.8914 425.441C14.5009 425.05 13.8677 425.05 13.4772 425.441L7.82033 431.098L2.16348 425.441C1.77295 425.05 1.13979 425.05 0.749263 425.441C0.358739 425.831 0.358739 426.464 0.749263 426.855L7.11322 433.219ZM6.82031 1.51172L6.82033 432.512L8.82033 432.512L8.82031 1.51172L6.82031 1.51172Z" fill="#3A4550"/>
                  </svg> 