<svg width="16" height="37" viewBox="0 0 16 37" fill="none" xmlns="http://www.w3.org/2000/svg">
                    <path d="M9.02742 0.804612C8.6369 0.414088 8.00373 0.414088 7.61321 0.804612L1.24924 7.16857C0.85872 7.5591 0.85872 8.19226 1.24924 8.58279C1.63977 8.97331 2.27293 8.97331 2.66346 8.58279L8.32031 2.92593L13.9772 8.58279C14.3677 8.97331 15.0009 8.97331 15.3914 8.58279C15.7819 8.19226 15.7819 7.5591 15.3914 7.16857L9.02742 0.804612ZM7.61321 36.2188C8.00373 36.6093 8.6369 36.6093 9.02742 36.2188L15.3914 29.8549C15.7819 29.4643 15.7819 28.8312 15.3914 28.4407C15.0009 28.0501 14.3677 28.0501 13.9772 28.4407L8.32031 34.0975L2.66346 28.4407C2.27293 28.0501 1.63977 28.0501 1.24924 28.4407C0.85872 28.8312 0.85872 29.4643 1.24924 29.8549L7.61321 36.2188ZM7.32031 1.51172L7.32031 35.5117H9.32031L9.32031 1.51172H7.32031Z" fill="#3A4550"/>
                  </svg>