<svg width="41" height="41" viewBox="0 0 41 41" fill="none" xmlns="http://www.w3.org/2000/svg">
                <path d="M21.654 0.633241C21.6949 0.632956 21.7359 0.632812 21.7768 0.632812C26.1707 0.632812 30.6936 2.4445 33.8117 5.17658L21.654 19.1763V0.633241Z" fill="#01BD95"/>
                <path d="M21.5312 39.9415C21.5721 39.9418 21.6131 39.9419 21.654 39.9419C31.5562 39.9419 40.3203 31.1778 40.3203 21.2756C40.3203 15.8101 37.8748 10.9157 34.0182 7.62707L21.5312 21.8896V39.9415Z" fill="#01BD95"/>
                <path d="M19.969 39.06C9.37649 38.9912 0.32032 30.6604 0.32032 20.3937C0.32032 10.127 9.37649 1.79616 19.969 1.7274V20.138C19.8961 20.138 19.8369 20.1952 19.8369 20.2658C19.8369 20.3364 19.8961 20.3937 19.969 20.3937V39.06Z" fill="#01BD95"/>
                <path d="M21.654 0.633241C21.6949 0.632956 21.7359 0.632812 21.7768 0.632812C26.1707 0.632812 30.6936 2.4445 33.8117 5.17658L21.654 19.1763V0.633241Z" stroke="white" stroke-width="0.6"/>
                <path d="M21.5312 39.9415C21.5721 39.9418 21.6131 39.9419 21.654 39.9419C31.5562 39.9419 40.3203 31.1778 40.3203 21.2756C40.3203 15.8101 37.8748 10.9157 34.0182 7.62707L21.5312 21.8896V39.9415Z" stroke="white" stroke-width="0.6"/>
                <path d="M19.969 39.06C9.37649 38.9912 0.32032 30.6604 0.32032 20.3937C0.32032 10.127 9.37649 1.79616 19.969 1.7274V20.138C19.8961 20.138 19.8369 20.1952 19.8369 20.2658C19.8369 20.3364 19.8961 20.3937 19.969 20.3937V39.06Z" stroke="white" stroke-width="0.6"/>
              </svg>