<svg width="65" height="582" viewBox="0 0 65 582" fill="none" xmlns="http://www.w3.org/2000/svg">
<path d="M64.7071 8.5157C65.0976 8.12518 65.0976 7.49201 64.7071 7.10149L58.3431 0.737526C57.9526 0.347002 57.3195 0.347002 56.9289 0.737526C56.5384 1.12805 56.5384 1.76122 56.9289 2.15174L62.5858 7.80859L56.9289 13.4654C56.5384 13.856 56.5384 14.4891 56.9289 14.8797C57.3195 15.2702 57.9526 15.2702 58.3431 14.8797L64.7071 8.5157ZM31 8.80859H64V6.80859H31V8.80859Z" fill="#B0C4D4"/>
<path d="M64.7071 89.5157C65.0976 89.1252 65.0976 88.492 64.7071 88.1015L58.3431 81.7375C57.9526 81.347 57.3195 81.347 56.9289 81.7375C56.5384 82.1281 56.5384 82.7612 56.9289 83.1517L62.5858 88.8086L56.9289 94.4654C56.5384 94.856 56.5384 95.4891 56.9289 95.8797C57.3195 96.2702 57.9526 96.2702 58.3431 95.8797L64.7071 89.5157ZM31 89.8086H64V87.8086H31V89.8086Z" fill="#B0C4D4"/>
<path d="M64.7071 170.516C65.0976 170.125 65.0976 169.492 64.7071 169.101L58.3431 162.738C57.9526 162.347 57.3195 162.347 56.9289 162.738C56.5384 163.128 56.5384 163.761 56.9289 164.152L62.5858 169.809L56.9289 175.465C56.5384 175.856 56.5384 176.489 56.9289 176.88C57.3195 177.27 57.9526 177.27 58.3431 176.88L64.7071 170.516ZM31 170.809H64V168.809H31V170.809Z" fill="#B0C4D4"/>
<path d="M64.7071 251.516C65.0976 251.125 65.0976 250.492 64.7071 250.101L58.3431 243.738C57.9526 243.347 57.3195 243.347 56.9289 243.738C56.5384 244.128 56.5384 244.761 56.9289 245.152L62.5858 250.809L56.9289 256.465C56.5384 256.856 56.5384 257.489 56.9289 257.88C57.3195 258.27 57.9526 258.27 58.3431 257.88L64.7071 251.516ZM31 251.809H64V249.809H31V251.809Z" fill="#B0C4D4"/>
<path d="M64.7071 332.516C65.0976 332.125 65.0976 331.492 64.7071 331.101L58.3431 324.738C57.9526 324.347 57.3195 324.347 56.9289 324.738C56.5384 325.128 56.5384 325.761 56.9289 326.152L62.5858 331.809L56.9289 337.465C56.5384 337.856 56.5384 338.489 56.9289 338.88C57.3195 339.27 57.9526 339.27 58.3431 338.88L64.7071 332.516ZM31 332.809H64V330.809H31V332.809Z" fill="#B0C4D4"/>
<path d="M64.7071 413.516C65.0976 413.125 65.0976 412.492 64.7071 412.101L58.3431 405.738C57.9526 405.347 57.3195 405.347 56.9289 405.738C56.5384 406.128 56.5384 406.761 56.9289 407.152L62.5858 412.809L56.9289 418.465C56.5384 418.856 56.5384 419.489 56.9289 419.88C57.3195 420.27 57.9526 420.27 58.3431 419.88L64.7071 413.516ZM31 413.809H64V411.809H31V413.809Z" fill="#B0C4D4"/>
<path d="M64.7071 494.516C65.0976 494.125 65.0976 493.492 64.7071 493.101L58.3431 486.738C57.9526 486.347 57.3195 486.347 56.9289 486.738C56.5384 487.128 56.5384 487.761 56.9289 488.152L62.5858 493.809L56.9289 499.465C56.5384 499.856 56.5384 500.489 56.9289 500.88C57.3195 501.27 57.9526 501.27 58.3431 500.88L64.7071 494.516ZM31 494.809H64V492.809H31V494.809Z" fill="#B0C4D4"/>
<path d="M31 574H30V575H31V574ZM64.7071 574.707C65.0976 574.317 65.0976 573.683 64.7071 573.293L58.3431 566.929C57.9526 566.538 57.3195 566.538 56.9289 566.929C56.5384 567.319 56.5384 567.953 56.9289 568.343L62.5858 574L56.9289 579.657C56.5384 580.047 56.5384 580.681 56.9289 581.071C57.3195 581.462 57.9526 581.462 58.3431 581.071L64.7071 574.707ZM30 7V574H32V7H30ZM31 575H64V573H31V575Z" fill="#B0C4D4"/>
<path d="M0 291.809L31 291.809" stroke="#B0C4D4" stroke-width="2"/>
</svg>
