<svg width="53" height="316" viewBox="0 0 53 316" fill="none" xmlns="http://www.w3.org/2000/svg">
                <path d="M25.8378 315.535C26.2284 315.926 26.8615 315.926 27.252 315.535L33.616 309.171C34.0065 308.781 34.0065 308.148 33.616 307.757C33.2255 307.367 32.5923 307.367 32.2018 307.757L26.5449 313.414L20.8881 307.757C20.4976 307.367 19.8644 307.367 19.4739 307.757C19.0833 308.148 19.0833 308.781 19.4739 309.171L25.8378 315.535ZM25.5449 0.828125L25.5449 314.828L27.5449 314.828L27.5449 0.828125L25.5449 0.828125Z" fill="#B0C4D4"/>
                <rect width="52" height="20" transform="translate(0.544922 193.828)" fill="#EFF4F6"/>
                <path d="M12.791 201.327C13.3516 200.639 14.0807 200.295 14.9785 200.295C16.5417 200.295 17.3301 201.177 17.3438 202.94V207.828H16.0791V202.934C16.0745 202.4 15.9515 202.006 15.71 201.751C15.473 201.496 15.1016 201.368 14.5957 201.368C14.1855 201.368 13.8255 201.478 13.5156 201.696C13.2057 201.915 12.9642 202.202 12.791 202.558V207.828H11.5264V197.328H12.791V201.327ZM20.9531 198.641V200.432H22.334V201.409H20.9531V205.996C20.9531 206.292 21.0146 206.516 21.1377 206.666C21.2607 206.812 21.4704 206.885 21.7666 206.885C21.9124 206.885 22.113 206.857 22.3682 206.803V207.828C22.0355 207.919 21.7119 207.965 21.3975 207.965C20.8324 207.965 20.4062 207.794 20.1191 207.452C19.832 207.11 19.6885 206.625 19.6885 205.996V201.409H18.3418V200.432H19.6885V198.641H20.9531ZM25.5332 198.641V200.432H26.9141V201.409H25.5332V205.996C25.5332 206.292 25.5947 206.516 25.7178 206.666C25.8408 206.812 26.0505 206.885 26.3467 206.885C26.4925 206.885 26.693 206.857 26.9482 206.803V207.828C26.6156 207.919 26.292 207.965 25.9775 207.965C25.4124 207.965 24.9863 207.794 24.6992 207.452C24.4121 207.11 24.2686 206.625 24.2686 205.996V201.409H22.9219V200.432H24.2686V198.641H25.5332ZM34.6455 204.212C34.6455 205.338 34.388 206.244 33.873 206.933C33.3581 207.621 32.6608 207.965 31.7812 207.965C30.8835 207.965 30.1771 207.68 29.6621 207.11V210.672H28.3975V200.432H29.5527L29.6143 201.252C30.1292 200.614 30.8447 200.295 31.7607 200.295C32.6494 200.295 33.3512 200.63 33.8662 201.3C34.3857 201.97 34.6455 202.902 34.6455 204.096V204.212ZM33.3809 204.068C33.3809 203.234 33.2031 202.576 32.8477 202.093C32.4922 201.61 32.0046 201.368 31.3848 201.368C30.6191 201.368 30.0449 201.708 29.6621 202.387V205.921C30.0404 206.595 30.6191 206.933 31.3984 206.933C32.0046 206.933 32.4854 206.693 32.8408 206.215C33.2008 205.732 33.3809 205.016 33.3809 204.068ZM40.5654 205.866C40.5654 205.524 40.4355 205.26 40.1758 205.073C39.9206 204.882 39.4717 204.718 38.8291 204.581C38.1911 204.444 37.6829 204.28 37.3047 204.089C36.931 203.897 36.653 203.67 36.4707 203.405C36.293 203.141 36.2041 202.826 36.2041 202.462C36.2041 201.856 36.4593 201.343 36.9697 200.924C37.4847 200.505 38.141 200.295 38.9385 200.295C39.777 200.295 40.4561 200.511 40.9756 200.944C41.4997 201.377 41.7617 201.931 41.7617 202.605H40.4902C40.4902 202.259 40.3421 201.961 40.0459 201.71C39.7542 201.459 39.3851 201.334 38.9385 201.334C38.4782 201.334 38.1182 201.434 37.8584 201.635C37.5986 201.835 37.4688 202.097 37.4688 202.421C37.4688 202.726 37.5895 202.956 37.8311 203.111C38.0726 203.266 38.5078 203.414 39.1367 203.556C39.7702 203.697 40.2829 203.866 40.6748 204.062C41.0667 204.257 41.3561 204.494 41.543 204.772C41.7344 205.046 41.8301 205.381 41.8301 205.777C41.8301 206.438 41.5658 206.969 41.0371 207.37C40.5085 207.767 39.8226 207.965 38.9795 207.965C38.387 207.965 37.863 207.86 37.4072 207.65C36.9515 207.441 36.5938 207.149 36.334 206.775C36.0788 206.397 35.9512 205.989 35.9512 205.552H37.2158C37.2386 205.976 37.4072 206.313 37.7217 206.563C38.0407 206.81 38.46 206.933 38.9795 206.933C39.458 206.933 39.8408 206.837 40.1279 206.646C40.4196 206.45 40.5654 206.19 40.5654 205.866Z" fill="#718697"/>
              </svg>