<svg width="59" height="90" viewBox="0 0 59 90" fill="none" xmlns="http://www.w3.org/2000/svg">
                    <path d="M6.83781 89.5352C7.22834 89.9258 7.8615 89.9258 8.25202 89.5352L14.616 83.1713C15.0065 82.7807 15.0065 82.1476 14.616 81.7571C14.2255 81.3665 13.5923 81.3665 13.2018 81.7571L7.54492 87.4139L1.88806 81.7571C1.49754 81.3665 0.864375 81.3665 0.473851 81.7571C0.0833261 82.1476 0.0833261 82.7807 0.47385 83.1713L6.83781 89.5352ZM6.54492 0.828125L6.54492 88.8281L8.54492 88.8281L8.54492 0.828125L6.54492 0.828125Z" fill="#B0C4D4"/>
                    <path d="M28.8378 89.5352C29.2283 89.9258 29.8615 89.9258 30.252 89.5352L36.616 83.1713C37.0065 82.7807 37.0065 82.1476 36.616 81.7571C36.2255 81.3665 35.5923 81.3665 35.2018 81.7571L29.5449 87.4139L23.8881 81.7571C23.4975 81.3665 22.8644 81.3665 22.4739 81.7571C22.0833 82.1476 22.0833 82.7807 22.4739 83.1713L28.8378 89.5352ZM28.5449 0.828125L28.5449 88.8281L30.5449 88.8281L30.5449 0.828125L28.5449 0.828125Z" fill="#B0C4D4"/>
                    <path d="M50.8378 89.5352C51.2283 89.9258 51.8615 89.9258 52.252 89.5352L58.616 83.1713C59.0065 82.7807 59.0065 82.1476 58.616 81.7571C58.2255 81.3665 57.5923 81.3665 57.2018 81.7571L51.5449 87.4139L45.8881 81.7571C45.4975 81.3665 44.8644 81.3665 44.4739 81.7571C44.0833 82.1476 44.0833 82.7807 44.4739 83.1713L50.8378 89.5352ZM50.5449 0.828125L50.5449 88.8281L52.5449 88.8281L52.5449 0.828125L50.5449 0.828125Z" fill="#B0C4D4"/>
                  </svg>