<svg width="126" height="66" viewBox="0 0 126 66" fill="none" xmlns="http://www.w3.org/2000/svg">
                      <path d="M119.252 1.12102C118.861 0.730494 118.228 0.730494 117.838 1.12102L111.474 7.48498C111.083 7.87551 111.083 8.50867 111.474 8.8992C111.864 9.28972 112.498 9.28972 112.888 8.8992L118.545 3.24234L124.202 8.89919C124.592 9.28971 125.225 9.28971 125.616 8.89919C126.006 8.50867 126.006 7.8755 125.616 7.48498L119.252 1.12102ZM118.545 57.8281L118.545 58.8281L119.545 58.8281L119.545 57.8281L118.545 57.8281ZM0.708906 57.121C0.31838 57.5115 0.31838 58.1447 0.708906 58.5352L7.07287 64.8992C7.46339 65.2897 8.09655 65.2897 8.48708 64.8992C8.87761 64.5087 8.87761 63.8755 8.48708 63.485L2.83023 57.8281L8.48708 52.1713C8.87761 51.7808 8.87761 51.1476 8.48708 50.7571C8.09656 50.3665 7.46339 50.3665 7.07287 50.7571L0.708906 57.121ZM117.545 1.82813L117.545 57.8281L119.545 57.8281L119.545 1.82812L117.545 1.82813ZM118.545 56.8281L1.41601 56.8281L1.41601 58.8281L118.545 58.8281L118.545 56.8281Z" fill="#03E2B2"/>
                      <circle cx="118.545" cy="30.8281" r="5" fill="#EFF4F6" stroke="#03E2B2" stroke-width="4"/>
                    </svg>