<svg width="415" height="205" viewBox="0 0 415 205" fill="none" xmlns="http://www.w3.org/2000/svg">
                      <path d="M208.252 204.535C207.862 204.926 207.228 204.926 206.838 204.535L200.474 198.171C200.083 197.781 200.083 197.148 200.474 196.757C200.864 196.367 201.498 196.367 201.888 196.757L207.545 202.414L213.202 196.757C213.592 196.367 214.225 196.367 214.616 196.757C215.007 197.148 215.007 197.781 214.616 198.171L208.252 204.535ZM206.838 125.121C207.228 124.73 207.862 124.73 208.252 125.121L214.616 131.485C215.007 131.876 215.007 132.509 214.616 132.899C214.225 133.29 213.592 133.29 213.202 132.899L207.545 127.242L201.888 132.899C201.498 133.29 200.864 133.29 200.474 132.899C200.083 132.509 200.083 131.876 200.474 131.485L206.838 125.121ZM206.545 203.828L206.545 125.828L208.545 125.828L208.545 203.828L206.545 203.828Z" fill="#03E2B2"/>
                      <circle cx="207.545" cy="172.828" r="5" fill="#EFF4F6" stroke="#03E2B2" stroke-width="4"/>
                      <path d="M8.25201 1.12101C7.8615 0.730487 7.22832 0.730487 6.8378 1.12101L0.473831 7.48497C0.0833127 7.8755 0.0833127 8.50866 0.473831 8.89919C0.864364 9.28971 1.49753 9.28971 1.88805 8.89919L7.54491 3.24233L13.2018 8.89919C13.5923 9.28971 14.2254 9.28971 14.616 8.89919C15.0065 8.50866 15.0065 7.8755 14.616 7.48497L8.25201 1.12101ZM7.5449 172.828L6.5449 172.828L6.5449 173.828L7.5449 173.828L7.5449 172.828ZM174.545 172.828L175.545 172.828L175.545 171.828L174.545 171.828L174.545 172.828ZM173.838 204.535C174.228 204.926 174.861 204.926 175.252 204.535L181.616 198.171C182.007 197.781 182.007 197.148 181.616 196.757C181.225 196.367 180.592 196.367 180.202 196.757L174.545 202.414L168.888 196.757C168.498 196.367 167.864 196.367 167.474 196.757C167.083 197.148 167.083 197.781 167.474 198.171L173.838 204.535ZM6.54491 1.82812L6.5449 76.8279L8.5449 76.8279L8.54491 1.82812L6.54491 1.82812ZM6.5449 76.8279L6.5449 172.828L8.5449 172.828L8.5449 76.8279L6.5449 76.8279ZM7.5449 173.828L174.545 173.828L174.545 171.828L7.5449 171.828L7.5449 173.828ZM173.545 172.828L173.545 203.828L175.545 203.828L175.545 172.828L173.545 172.828Z" fill="#03E2B2"/>
                      <circle cx="174.545" cy="172.828" r="5" fill="#EFF4F6" stroke="#03E2B2" stroke-width="4"/>
                      <path d="M406.838 1.12101C407.228 0.730487 407.862 0.730487 408.252 1.12101L414.616 7.48497C415.007 7.8755 415.007 8.50866 414.616 8.89919C414.225 9.28971 413.592 9.28971 413.202 8.89919L407.545 3.24233L401.888 8.89919C401.498 9.28971 400.864 9.28971 400.474 8.89919C400.083 8.50866 400.083 7.8755 400.474 7.48497L406.838 1.12101ZM407.545 172.828L408.545 172.828L408.545 173.828L407.545 173.828L407.545 172.828ZM240.545 172.828L239.545 172.828L239.545 171.828L240.545 171.828L240.545 172.828ZM241.252 204.535C240.862 204.926 240.228 204.926 239.838 204.535L233.474 198.171C233.083 197.781 233.083 197.148 233.474 196.757C233.864 196.367 234.498 196.367 234.888 196.757L240.545 202.414L246.202 196.757C246.592 196.367 247.225 196.367 247.616 196.757C248.007 197.148 248.007 197.781 247.616 198.171L241.252 204.535ZM408.545 1.82812L408.545 76.8279L406.545 76.8279L406.545 1.82812L408.545 1.82812ZM408.545 76.8279L408.545 172.828L406.545 172.828L406.545 76.8279L408.545 76.8279ZM407.545 173.828L240.545 173.828L240.545 171.828L407.545 171.828L407.545 173.828ZM241.545 172.828L241.545 203.828L239.545 203.828L239.545 172.828L241.545 172.828Z" fill="#03E2B2"/>
                      <circle r="5" transform="matrix(-1 0 0 1 240.545 172.828)" fill="#EFF4F6" stroke="#03E2B2" stroke-width="4"/>
                    </svg> 