<svg width="184" height="276" viewBox="0 0 184 276" fill="none" xmlns="http://www.w3.org/2000/svg">
                      <path d="M0.544922 193.828H67.5449V195.828H0.544922L0.544922 193.828Z" fill="#B0C4D4"/>
                      <path d="M34.5449 274.828H33.5449V275.828H34.5449V274.828ZM182.545 274.828V275.828H183.545V274.828H182.545ZM182.545 7.82812H183.545V6.82812H182.545V7.82812ZM164.098 7.12102C163.708 7.51154 163.708 8.14471 164.098 8.53523L170.462 14.8992C170.853 15.2897 171.486 15.2897 171.876 14.8992C172.267 14.5087 172.267 13.8755 171.876 13.485L166.219 7.82812L171.876 2.17127C172.267 1.78075 172.267 1.14758 171.876 0.757057C171.486 0.366533 170.853 0.366533 170.462 0.757057L164.098 7.12102ZM33.5449 194.828V274.828H35.5449V194.828H33.5449ZM34.5449 275.828H182.545V273.828H34.5449V275.828ZM183.545 274.828V7.82812H181.545V274.828H183.545ZM182.545 6.82812H164.805V8.82812H182.545V6.82812Z" fill="#B0C4D4"/>
                    </svg> 