 <svg width="581" height="64" viewBox="0 0 581 64" fill="none" xmlns="http://www.w3.org/2000/svg">
                      <path d="M1.54493 7.82823L0.544929 7.82823L0.544929 6.82823L1.54493 6.82823L1.54493 7.82823ZM580.252 7.12101C580.643 7.51153 580.643 8.1447 580.252 8.53522L573.888 14.8992C573.498 15.2897 572.864 15.2897 572.474 14.8992C572.083 14.5087 572.083 13.8755 572.474 13.485L578.131 7.82812L572.474 2.17126C572.083 1.78074 572.083 1.14757 572.474 0.757049C572.864 0.366525 573.498 0.366524 573.888 0.757049L580.252 7.12101ZM2.54493 7.82823L2.54492 63.8281L0.544924 63.8281L0.544929 7.82823L2.54493 7.82823ZM189.045 8.82812L1.54493 8.82823L1.54493 6.82823L189.045 6.82812L189.045 8.82812ZM579.545 8.82812L213.545 8.82812L213.545 6.82812L579.545 6.82812L579.545 8.82812Z" fill="#B0C4D4"/>
                      <circle cx="188.545" cy="7.82812" r="2" fill="#B0C4D4"/>
                      <circle cx="214.545" cy="7.82812" r="2" fill="#B0C4D4"/>
                    </svg>