<svg width="192" height="72" viewBox="0 0 192 72" fill="none" xmlns="http://www.w3.org/2000/svg">
                    <path d="M191.252 32.121C191.643 32.5115 191.643 33.1447 191.252 33.5352L184.888 39.8992C184.498 40.2897 183.864 40.2897 183.474 39.8992C183.083 39.5087 183.083 38.8755 183.474 38.485L189.131 32.8281L183.474 27.1713C183.083 26.7807 183.083 26.1476 183.474 25.7571C183.864 25.3665 184.498 25.3665 184.888 25.7571L191.252 32.121ZM150.545 31.8281L190.545 31.8281V33.8281L150.545 33.8281V31.8281Z" fill="#B0C4D4"/>
                    <path opacity="0.4" d="M6.66209 1.66797V1.66797C3.83596 1.66797 1.54492 3.959 1.54492 6.78514V62.828C1.54492 67.2462 5.12664 70.828 9.54492 70.828H142.545C146.963 70.828 150.545 67.2463 150.545 62.828V6.78515C150.545 3.95901 148.254 1.66797 145.428 1.66797V1.66797" stroke="#9DAFBD" stroke-width="2"/>
                  </svg>