<svg width="33" height="32" viewBox="0 0 33 32" fill="none" xmlns="http://www.w3.org/2000/svg">
                    <path d="M32.2 16.9052C32.2029 15.6203 31.8083 14.366 31.0703 13.3142C30.3324 12.2624 29.2872 11.4645 28.078 11.0299C28.3259 9.73534 28.2853 8.402 27.9592 7.12486C27.633 5.84772 27.0293 4.6582 26.191 3.64099C25.3527 2.62378 24.3004 1.8039 23.1091 1.23973C21.9178 0.675566 20.6168 0.380983 19.2987 0.37696C17.8822 0.375267 16.4857 0.710562 15.2245 1.35516C13.9632 1.99975 12.8734 2.93515 12.045 4.08409C11.3422 3.54123 10.5012 3.20624 9.61761 3.11712C8.73401 3.02801 7.84311 3.18834 7.04602 3.57992C6.24892 3.9715 5.57753 4.57865 5.10804 5.33249C4.63854 6.08633 4.38973 6.95667 4.38984 7.84476C4.39182 8.41074 4.49143 8.97215 4.68427 9.50427C3.47094 9.93834 2.42123 10.7365 1.6786 11.7896C0.935959 12.8427 0.536625 14.0995 0.53516 15.3881C0.533696 16.6768 0.930173 17.9345 1.67041 18.9893C2.41065 20.0441 3.45854 20.8446 4.67089 21.2814C4.28139 23.2796 4.58698 25.3508 5.53693 27.1513C6.48688 28.9518 8.02404 30.3733 9.89322 31.1797C11.7624 31.9861 13.8512 32.129 15.8128 31.5847C17.7744 31.0404 19.4908 29.8415 20.6771 28.1871C21.503 28.8436 22.5263 29.2019 23.5813 29.2043C24.8412 29.2039 26.0495 28.7032 26.9404 27.8123C27.8313 26.9214 28.332 25.7132 28.3323 24.4532C28.3303 23.8873 28.2307 23.3259 28.0379 22.7937C29.2509 22.3561 30.3003 21.5568 31.0446 20.5037C31.7889 19.4507 32.1922 18.1946 32.2 16.9052Z" fill="white"/>
                    <path d="M12.9826 13.9604L19.915 17.1188L26.901 10.9894C27.0043 10.483 27.0536 9.96707 27.0483 9.45029C27.0494 7.78198 26.5163 6.15715 25.5269 4.81385C24.5376 3.47055 23.144 2.4794 21.5505 1.98562C19.9569 1.49185 18.2471 1.52139 16.6716 2.06993C15.096 2.61847 13.7375 3.65718 12.7952 5.03385L11.6309 11.0697L12.9826 13.9604Z" fill="#FED10A"/>
                    <path d="M5.80777 21.2949C5.70452 21.8103 5.65518 22.3351 5.66055 22.8608C5.6626 24.536 6.20119 26.1665 7.1974 27.5133C8.19361 28.8602 9.59504 29.8525 11.1963 30.3448C12.7975 30.8372 14.5144 30.8036 16.0952 30.2492C17.676 29.6947 19.0376 28.6485 19.9805 27.2638L21.1315 21.2548L19.5924 18.3105L12.6332 15.1387L5.80777 21.2949Z" fill="#24BBB1"/>
                    <path d="M5.7676 9.30391L10.5186 10.4281L11.5625 5.03469C10.918 4.54123 10.1307 4.27037 9.31907 4.26286C8.50741 4.25534 7.71525 4.51158 7.06175 4.99303C6.40824 5.47448 5.92874 6.1551 5.69535 6.93253C5.46196 7.70995 5.48732 8.54214 5.7676 9.30391Z" fill="#EF5098"/>
                    <path d="M5.35319 10.4414C4.32528 10.7787 3.42719 11.4263 2.78252 12.2951C2.13785 13.1639 1.77829 14.2111 1.75335 15.2927C1.7284 16.3742 2.03928 17.4369 2.64321 18.3345C3.24713 19.2321 4.11441 19.9204 5.12568 20.3048L11.7905 14.2824L10.5726 11.6727L5.35319 10.4414Z" fill="#17A8E0"/>
                    <path d="M21.1855 27.2638C21.8305 27.7513 22.6157 28.0171 23.4241 28.0216C24.2326 28.0262 25.0208 27.7691 25.6711 27.2889C26.3214 26.8087 26.799 26.131 27.0326 25.3571C27.2662 24.5831 27.2432 23.7544 26.9671 22.9946L22.2294 21.8838L21.1855 27.2638Z" fill="#93C83E"/>
                    <path d="M22.1499 20.6387L27.3694 21.8565C28.3973 21.5192 29.2954 20.8716 29.9401 20.0028C30.5847 19.1341 30.9443 18.0868 30.9692 17.0053C30.9942 15.9237 30.6833 14.861 30.0794 13.9634C29.4754 13.0659 28.6082 12.3775 27.5969 11.9932L20.7715 17.9754L22.1499 20.6387Z" fill="#0779A1"/>
                  </svg>