<svg width="38" height="36" viewBox="0 0 38 36" fill="none" xmlns="http://www.w3.org/2000/svg">
<path d="M34.8041 10.8241H2.78694C1.52391 10.8241 0.5 9.72142 0.5 8.36123V3.43551C0.5 2.07532 1.52391 0.972656 2.78694 0.972656H34.8041C36.0671 0.972656 37.091 2.07532 37.091 3.43551V8.36123C37.091 9.72142 36.0671 10.8241 34.8041 10.8241ZM31.3737 4.05123C30.4264 4.05123 29.6585 4.87821 29.6585 5.89837C29.6585 6.91853 30.4264 7.74551 31.3737 7.74551C32.321 7.74551 33.0889 6.91853 33.0889 5.89837C33.0889 4.87821 32.321 4.05123 31.3737 4.05123ZM26.7998 4.05123C25.8525 4.05123 25.0846 4.87821 25.0846 5.89837C25.0846 6.91853 25.8525 7.74551 26.7998 7.74551C27.7471 7.74551 28.515 6.91853 28.515 5.89837C28.515 4.87821 27.7471 4.05123 26.7998 4.05123ZM34.8041 23.1384H2.78694C1.52391 23.1384 0.5 22.0357 0.5 20.6755V15.7498C0.5 14.3896 1.52391 13.2869 2.78694 13.2869H34.8041C36.0671 13.2869 37.091 14.3896 37.091 15.7498V20.6755C37.091 22.0357 36.0671 23.1384 34.8041 23.1384ZM31.3737 16.3655C30.4264 16.3655 29.6585 17.1925 29.6585 18.2127C29.6585 19.2328 30.4264 20.0598 31.3737 20.0598C32.321 20.0598 33.0889 19.2328 33.0889 18.2127C33.0889 17.1925 32.321 16.3655 31.3737 16.3655ZM26.7998 16.3655C25.8525 16.3655 25.0846 17.1925 25.0846 18.2127C25.0846 19.2328 25.8525 20.0598 26.7998 20.0598C27.7471 20.0598 28.515 19.2328 28.515 18.2127C28.515 17.1925 27.7471 16.3655 26.7998 16.3655ZM34.8041 35.4527H2.78694C1.52391 35.4527 0.5 34.35 0.5 32.9898V28.0641C0.5 26.7039 1.52391 25.6012 2.78694 25.6012H34.8041C36.0671 25.6012 37.091 26.7039 37.091 28.0641V32.9898C37.091 34.35 36.0671 35.4527 34.8041 35.4527ZM31.3737 28.6798C30.4264 28.6798 29.6585 29.5068 29.6585 30.5269C29.6585 31.5471 30.4264 32.3741 31.3737 32.3741C32.321 32.3741 33.0889 31.5471 33.0889 30.5269C33.0889 29.5068 32.321 28.6798 31.3737 28.6798ZM26.7998 28.6798C25.8525 28.6798 25.0846 29.5068 25.0846 30.5269C25.0846 31.5471 25.8525 32.3741 26.7998 32.3741C27.7471 32.3741 28.515 31.5471 28.515 30.5269C28.515 29.5068 27.7471 28.6798 26.7998 28.6798Z" fill="#9DAFBD"/>
</svg>
