<svg width="16" height="41" viewBox="0 0 16 41" fill="none" xmlns="http://www.w3.org/2000/svg">
<path d="M7.11321 40.2989C7.50373 40.6894 8.1369 40.6894 8.52742 40.2989L14.8914 33.9349C15.2819 33.5444 15.2819 32.9113 14.8914 32.5207C14.5009 32.1302 13.8677 32.1302 13.4772 32.5207L7.82031 38.1776L2.16346 32.5207C1.77294 32.1302 1.13977 32.1302 0.749246 32.5207C0.358722 32.9113 0.358722 33.5444 0.749246 33.9349L7.11321 40.2989ZM8.82031 39.5918L8.82031 23.0918L6.82031 23.0918L6.82031 39.5918L8.82031 39.5918ZM6.82031 0.591797L6.82031 23.0918L8.82031 23.0918L8.82031 0.591797L6.82031 0.591797Z" fill="#B0C4D4"/>
</svg>
