<svg width="681" height="70" viewBox="0 0 681 70" fill="none" xmlns="http://www.w3.org/2000/svg">
<path fill-rule="evenodd" clip-rule="evenodd" d="M679.892 63.2299L673.528 69.5938C673.137 69.9844 672.504 69.9844 672.113 69.5938L665.75 63.2299C665.359 62.8393 665.359 62.2062 665.75 61.8157C666.14 61.4251 666.773 61.4251 667.164 61.8157L671.821 66.4725L671.821 41.1175L341.321 41.1175L341.321 66.4725L345.977 61.8157C346.368 61.4251 347.001 61.4251 347.392 61.8157C347.782 62.2062 347.782 62.8393 347.392 63.2299L341.028 69.5938C340.637 69.9844 340.004 69.9844 339.614 69.5938L333.25 63.2299C332.859 62.8393 332.859 62.2062 333.25 61.8157C333.64 61.4251 334.273 61.4251 334.664 61.8157L339.321 66.4725L339.321 41.1175L8.82062 41.1175L8.82061 66.4725L13.4775 61.8157C13.868 61.4251 14.5012 61.4251 14.8917 61.8157C15.2822 62.2062 15.2822 62.8393 14.8917 63.2299L8.52771 69.5938C8.1372 69.9844 7.50403 69.9844 7.11352 69.5938L0.74957 63.2299C0.359006 62.8393 0.359006 62.2062 0.74957 61.8157C1.14007 61.4251 1.77325 61.4251 2.16375 61.8157L6.82061 66.4725L6.82062 39.1175L339.321 39.1175L339.321 0.886704L341.321 0.886704L341.321 39.1175L673.821 39.1175L673.821 66.4725L678.477 61.8157C678.868 61.4251 679.501 61.4251 679.892 61.8157C680.282 62.2062 680.282 62.8393 679.892 63.2299Z" fill="#B0C4D4"/>
</svg>
