<svg  width="75" height="340" viewBox="0 0 75 340" fill="none" xmlns="http://www.w3.org/2000/svg">
                <path d="M1.28125 112.004V1.00391H30.2812" stroke="#AABDCC" stroke-width="2"/>
                <path d="M1.28125 112.004H0.28125L0.28125 111.004H1.28125L1.28125 112.004ZM1.28125 225.004L1.28125 226.004H0.28125L0.28125 225.004H1.28125ZM1.28125 111.004H74.2813V113.004H1.28125L1.28125 111.004ZM74.2812 226.004H1.28125L1.28125 224.004H74.2812V226.004ZM0.28125 225.004L0.28125 112.004H2.28125L2.28125 225.004H0.28125Z" fill="#AABDCC"/>
                <path d="M1.28125 225.004H0.28125L0.28125 224.004H1.28125L1.28125 225.004ZM1.28125 338.004L1.28125 339.004H0.28125L0.28125 338.004H1.28125ZM1.28125 224.004H74.2813V226.004H1.28125L1.28125 224.004ZM74.2812 339.004H1.28125L1.28125 337.004H74.2812V339.004ZM0.28125 338.004L0.28125 225.004H2.28125L2.28125 338.004H0.28125Z" fill="#AABDCC"/>
              </svg>