 <svg width="31" height="36" viewBox="0 0 31 36" fill="none" xmlns="http://www.w3.org/2000/svg">
                      <path d="M0.53125 6.42163C0.894355 5.3824 1.62057 4.64367 2.49703 4.03015C4.4002 2.69041 6.57883 2.00177 8.82006 1.52597C11.462 0.950013 14.1414 0.7622 16.8459 0.874888C20.2767 1.02514 23.6323 1.53849 26.775 3.01596C27.8017 3.50427 28.7533 4.08023 29.5546 4.90661C30.8443 6.27138 30.8568 7.68624 29.5546 9.05101C28.5404 10.1153 27.2633 10.7789 25.9236 11.3298C23.6698 12.2313 21.3409 12.7196 18.9369 12.945C15.1181 13.3081 11.3493 13.1328 7.63058 12.1687C5.72741 11.6804 3.89936 10.9917 2.30921 9.80227C1.5204 9.20127 0.869313 8.5001 0.53125 7.54851C0.53125 7.17288 0.53125 6.79726 0.53125 6.42163Z" fill="white"/>
                      <path d="M0.53125 12.4316C3.23576 14.3223 6.30337 15.2363 9.49619 15.7872C12.0004 16.2255 14.5296 16.3382 17.0713 16.238C20.8276 16.0877 24.4962 15.4617 27.952 13.8715C28.8034 13.4834 29.5922 12.9826 30.4812 12.5068C30.4937 12.657 30.5187 12.7947 30.5187 12.945C30.5187 14.6353 30.5187 16.3256 30.5312 18.0159C30.5312 18.8173 30.1681 19.4558 29.6548 20.0318C28.7282 21.071 27.5388 21.7472 26.2867 22.2856C24.0079 23.2497 21.6164 23.763 19.1623 24.026C16.9837 24.2639 14.7925 24.2764 12.6014 24.1011C9.45863 23.8382 6.40354 23.2246 3.59886 21.7221C3.04794 21.4341 2.53459 21.0585 2.04628 20.6829C1.34511 20.157 0.831751 19.4684 0.543771 18.6295C0.53125 16.5635 0.53125 14.4976 0.53125 12.4316Z" fill="white"/>
                      <path d="M0.53125 23.5376C3.23576 25.4282 6.30337 26.3423 9.49619 26.8932C12.0004 27.3314 14.5296 27.4441 17.0713 27.3439C20.8276 27.1937 24.4962 26.5676 27.952 24.9775C28.8034 24.5894 29.5922 24.0885 30.4812 23.6127C30.4937 23.763 30.5187 23.9007 30.5187 24.051C30.5187 25.7413 30.5187 27.4316 30.5312 29.1219C30.5312 29.9232 30.1681 30.5618 29.6548 31.1378C28.7282 32.177 27.5388 32.8531 26.2867 33.3915C24.0079 34.3556 21.6164 34.869 19.1623 35.1319C16.9837 35.3698 14.7925 35.3823 12.6014 35.207C9.45863 34.9441 6.40354 34.3306 3.59886 32.8281C3.04794 32.5401 2.53459 32.1645 2.04628 31.7888C1.34511 31.263 0.831751 30.5743 0.543771 29.7354C0.53125 27.6695 0.53125 25.6035 0.53125 23.5376Z" fill="white"/>
                    </svg> 