<svg width="1" height="210" viewBox="0 0 1 210" fill="none" xmlns="http://www.w3.org/2000/svg">
<path opacity="0.33" fill-rule="evenodd" clip-rule="evenodd" d="M0.999966 209.117V210H0.120361V209.117H0.999966ZM0.999966 205.586V207.352H0.120361L0.120361 205.586H0.999966ZM0.999966 202.055V203.82H0.120361V202.055H0.999966ZM0.999966 198.523V200.289H0.120361V198.523H0.999966ZM0.999966 194.992V196.758H0.120361L0.120361 194.992H0.999966ZM0.999966 191.461V193.227H0.120361V191.461H0.999966ZM0.999966 187.93L0.999966 189.695H0.120361V187.93H0.999966ZM0.999966 184.398V186.164H0.120361L0.120361 184.398H0.999966ZM0.999966 180.867V182.633H0.120361V180.867H0.999966ZM0.999966 177.336V179.102H0.120361V177.336H0.999966ZM0.999966 173.805V175.57H0.120361L0.120361 173.805H0.999966ZM0.999966 170.273V172.039H0.120361V170.273H0.999966ZM0.999966 166.742V168.508H0.120361V166.742H0.999966ZM0.999966 163.211V164.977H0.120361L0.120361 163.211H0.999966ZM0.999966 159.68V161.445H0.120361V159.68H0.999966ZM0.999966 156.148V157.914H0.120361V156.148H0.999966ZM0.999966 152.617V154.383H0.120361L0.120361 152.617H0.999966ZM0.999966 149.086V150.852H0.120361V149.086H0.999966ZM0.999966 145.555V147.32H0.120361V145.555H0.999966ZM0.999966 142.023V143.789H0.120361V142.023H0.999966ZM0.999966 138.492V140.258H0.120361V138.492H0.999966ZM0.999966 134.961V136.727H0.120361L0.120361 134.961H0.999966ZM0.999966 131.43V133.195H0.120361V131.43H0.999966ZM0.999966 127.898V129.664H0.120361V127.898H0.999966ZM0.999966 124.367V126.133H0.120361L0.120361 124.367H0.999966ZM0.999966 120.836V122.602H0.120361V120.836H0.999966ZM0.999966 117.305V119.07H0.120361V117.305H0.999966ZM0.999966 113.773V115.539H0.120361L0.120361 113.773H0.999966ZM0.999966 110.242V112.008H0.120361V110.242H0.999966ZM0.999966 106.711V108.477H0.120361V106.711H0.999966ZM0.999966 103.18V104.945H0.120361L0.120361 103.18H0.999966ZM0.999966 99.6484L0.999966 101.414H0.120361V99.6484H0.999966ZM0.999966 97V97.8828H0.120361V97H0.999966Z" fill="black"/>
<path opacity="0.33" fill-rule="evenodd" clip-rule="evenodd" d="M0.999966 43.9972L0.999966 44.8599L0.120361 44.8599L0.120361 43.9972L0.999966 43.9972ZM0.999966 40.5464L0.999966 42.2718L0.120361 42.2718L0.120361 40.5464L0.999966 40.5464ZM0.999966 37.0957L0.999966 38.821L0.120361 38.821L0.120361 37.0957L0.999966 37.0957ZM0.999966 33.6449L0.999966 35.3703L0.120361 35.3703L0.120361 33.6449L0.999966 33.6449ZM0.999966 30.1941L0.999966 31.9195L0.120361 31.9195L0.120361 30.1941L0.999966 30.1941ZM0.999966 26.7434L0.999966 28.4688L0.120361 28.4688L0.120361 26.7434L0.999966 26.7434ZM0.999966 23.2926L0.999966 25.018L0.120361 25.018L0.120361 23.2926L0.999966 23.2926ZM0.999966 19.8419L0.999966 21.5673L0.120361 21.5673L0.120361 19.8419L0.999966 19.8419ZM0.999966 16.3911L0.999966 18.1165L0.120361 18.1165L0.120361 16.3911L0.999966 16.3911ZM0.999966 12.9404L0.999966 14.6657L0.120361 14.6657L0.120361 12.9404L0.999966 12.9404ZM0.999966 9.48961L0.999966 11.215L0.120361 11.215L0.120361 9.48961L0.999966 9.48961ZM0.999966 6.03885L0.999966 7.76423L0.120361 7.76423L0.120361 6.03885L0.999966 6.03885ZM0.999966 2.58809L0.999966 4.31347L0.120361 4.31347L0.120361 2.58809L0.999966 2.58809ZM0.999966 2.76181e-05L0.999966 0.86271L0.120361 0.862709L0.120361 2.67029e-05L0.999966 2.76181e-05Z" fill="black"/>
</svg>
