<svg width="64" height="121" viewBox="0 0 64 121" fill="none" xmlns="http://www.w3.org/2000/svg">
<path fill-rule="evenodd" clip-rule="evenodd" d="M57.3431 63.9291L63.7071 70.2931C64.0976 70.6836 64.0976 71.3168 63.7071 71.7073L57.3431 78.0713C56.9526 78.4618 56.3195 78.4618 55.9289 78.0713C55.5384 77.6807 55.5384 77.0476 55.9289 76.657L60.5858 72.0002L20 72.0002L20 70.0002L60.5858 70.0002L55.9289 65.3433C55.5384 64.9528 55.5384 64.3197 55.9289 63.9291C56.3195 63.5386 56.9526 63.5386 57.3431 63.9291Z" fill="#B0C4D4"/>
<path fill-rule="evenodd" clip-rule="evenodd" d="M21 70H4.44444V72H19V119H0V121H21V70Z" fill="#B0C4D4"/>
<path fill-rule="evenodd" clip-rule="evenodd" d="M21 0H0V2H19V70H0V72H21V0Z" fill="#B0C4D4"/>
</svg>
