<svg width="22" height="254" viewBox="0 0 22 254" fill="none" xmlns="http://www.w3.org/2000/svg">
<path fill-rule="evenodd" clip-rule="evenodd" d="M0 175H16.5556V177H2V245H18.5858L13.9289 240.343C13.5384 239.953 13.5384 239.319 13.9289 238.929C14.3195 238.538 14.9526 238.538 15.3431 238.929L21.7071 245.293C22.0976 245.683 22.0976 246.317 21.7071 246.707L15.3431 253.071C14.9526 253.462 14.3195 253.462 13.9289 253.071C13.5384 252.681 13.5384 252.047 13.9289 251.657L18.5858 247H0V175Z" fill="#B0C4D4"/>
<path fill-rule="evenodd" clip-rule="evenodd" d="M0 56H16.5556V58H2V126H18.5858L13.9289 121.343C13.5384 120.953 13.5384 120.319 13.9289 119.929C14.3195 119.538 14.9526 119.538 15.3431 119.929L21.7071 126.293C22.0976 126.683 22.0976 127.317 21.7071 127.707L15.3431 134.071C14.9526 134.462 14.3195 134.462 13.9289 134.071C13.5384 133.681 13.5384 133.047 13.9289 132.657L18.5858 128H0V56Z" fill="#B0C4D4"/>
<path fill-rule="evenodd" clip-rule="evenodd" d="M15.3431 0.929124L21.7071 7.29308C22.0976 7.68361 22.0976 8.31677 21.7071 8.7073L15.3431 15.0713C14.9526 15.4618 14.3195 15.4618 13.9289 15.0713C13.5384 14.6807 13.5384 14.0476 13.9289 13.657L18.5858 9.00019H1V7.00019H18.5858L13.9289 2.34334C13.5384 1.95281 13.5384 1.31965 13.9289 0.929124C14.3195 0.538599 14.9526 0.538599 15.3431 0.929124Z" fill="#B0C4D4"/>
<path fill-rule="evenodd" clip-rule="evenodd" d="M0 126H16.5556V128H2V175H18.5858L13.9289 170.343C13.5384 169.953 13.5384 169.319 13.9289 168.929C14.3195 168.538 14.9526 168.538 15.3431 168.929L21.7071 175.293C22.0976 175.683 22.0976 176.317 21.7071 176.707L15.3431 183.071C14.9526 183.462 14.3195 183.462 13.9289 183.071C13.5384 182.681 13.5384 182.047 13.9289 181.657L18.5858 177H0V126Z" fill="#B0C4D4"/>
<path fill-rule="evenodd" clip-rule="evenodd" d="M0 7H19.8889V9H2V56H18.5858L13.9289 51.3431C13.5384 50.9526 13.5384 50.3195 13.9289 49.9289C14.3195 49.5384 14.9526 49.5384 15.3431 49.9289L21.7071 56.2929C22.0976 56.6834 22.0976 57.3166 21.7071 57.7071L15.3431 64.0711C14.9526 64.4616 14.3195 64.4616 13.9289 64.0711C13.5384 63.6805 13.5384 63.0474 13.9289 62.6569L18.5858 58H0V7Z" fill="#B0C4D4"/>
</svg>
