<svg width="64" height="170" viewBox="0 0 64 170" fill="none" xmlns="http://www.w3.org/2000/svg">
<path fill-rule="evenodd" clip-rule="evenodd" d="M57.3431 77.9291L63.7071 84.2931C64.0976 84.6836 64.0976 85.3168 63.7071 85.7073L57.3431 92.0713C56.9526 92.4618 56.3195 92.4618 55.9289 92.0713C55.5384 91.6807 55.5384 91.0476 55.9289 90.657L60.5858 86.0002L20 86.0002L20 84.0002L60.5858 84.0002L55.9289 79.3433C55.5384 78.9528 55.5384 78.3197 55.9289 77.9291C56.3195 77.5386 56.9526 77.5386 57.3431 77.9291Z" fill="#B0C4D4"/>
<path fill-rule="evenodd" clip-rule="evenodd" d="M21 0H0V2H19V49H0V51H21V0Z" fill="#B0C4D4"/>
<path fill-rule="evenodd" clip-rule="evenodd" d="M21 119H4.44444V121H19V168H0V170H21V119Z" fill="#B0C4D4"/>
<path fill-rule="evenodd" clip-rule="evenodd" d="M21 49H4.44444V51H19V119H0V121H21V49Z" fill="#B0C4D4"/>
</svg>
