<svg  width="52" height="469" viewBox="0 0 52 469" fill="none" xmlns="http://www.w3.org/2000/svg">
                    <path d="M20.4918 153.299V154.299H19.4918V153.299H20.4918ZM20.4918 8.20026H19.4918V7.20026H20.4918V8.20026ZM51.1989 7.49315C51.5895 7.88367 51.5895 8.51684 51.1989 8.90736L44.835 15.2713C44.4444 15.6618 43.8113 15.6618 43.4208 15.2713C43.0302 14.8808 43.0302 14.2476 43.4208 13.8571L49.0776 8.20026L43.4208 2.5434C43.0302 2.15288 43.0302 1.51971 43.4208 1.12919C43.8113 0.738664 44.4444 0.738664 44.835 1.12919L51.1989 7.49315ZM43.8252 154.299H20.4918V152.299H43.8252V154.299ZM19.4918 153.299V8.20026H21.4918V153.299H19.4918ZM20.4918 7.20026H50.4918V9.20026H20.4918V7.20026Z" fill="#B0C4D4"/>
                    <path d="M20.4918 298.396V299.396H19.4918V298.396H20.4918ZM20.4918 153.298H19.4918V152.298H20.4918V153.298ZM51.1989 152.591C51.5895 152.981 51.5895 153.614 51.1989 154.005L44.835 160.369C44.4444 160.76 43.8113 160.76 43.4208 160.369C43.0302 159.978 43.0302 159.345 43.4208 158.955L49.0776 153.298L43.4208 147.641C43.0302 147.251 43.0302 146.617 43.4208 146.227C43.8113 145.836 44.4444 145.836 44.835 146.227L51.1989 152.591ZM48.8252 299.396H20.4918V297.396H48.8252V299.396ZM19.4918 298.396V153.298H21.4918V298.396H19.4918ZM20.4918 152.298H50.4918V154.298H20.4918V152.298Z" fill="#B0C4D4"/>
                    <path d="M20.4918 468H21.4918V469H20.4918V468ZM20.4918 298.397H19.4918V297.397H20.4918V298.397ZM51.1989 297.69C51.5895 298.08 51.5895 298.714 51.1989 299.104L44.835 305.468C44.4444 305.859 43.8113 305.859 43.4208 305.468C43.0302 305.078 43.0302 304.444 43.4208 304.054L49.0776 298.397L43.4208 292.74C43.0302 292.35 43.0302 291.716 43.4208 291.326C43.8113 290.935 44.4444 290.935 44.835 291.326L51.1989 297.69ZM19.4918 468V298.397H21.4918V468H19.4918ZM20.4918 469H0V467H20.4918V469ZM20.4918 297.397H35.4918V299.397H20.4918V297.397ZM35.4918 297.397H50.4918V299.397H35.4918V297.397Z" fill="#B0C4D4"/>
                    </svg>