 <svg width="48" height="16" viewBox="0 0 48 16" fill="none" xmlns="http://www.w3.org/2000/svg">
                    <path d="M0.785081 7.29289C0.394556 7.68342 0.394556 8.31658 0.785081 8.70711L7.14904 15.0711C7.53956 15.4616 8.17273 15.4616 8.56325 15.0711C8.95378 14.6805 8.95378 14.0474 8.56325 13.6569L2.9064 8L8.56326 2.34315C8.95378 1.95262 8.95378 1.31946 8.56326 0.928933C8.17273 0.538409 7.53957 0.538409 7.14904 0.928933L0.785081 7.29289ZM47.1993 8.70711C47.5898 8.31659 47.5898 7.68343 47.1993 7.2929L40.8353 0.928939C40.4448 0.538415 39.8116 0.538415 39.4211 0.928939C39.0306 1.31946 39.0306 1.95263 39.4211 2.34315L45.078 8.00001L39.4211 13.6569C39.0306 14.0474 39.0306 14.6805 39.4211 15.0711C39.8116 15.4616 40.4448 15.4616 40.8353 15.0711L47.1993 8.70711ZM1.49219 9L46.4922 9.00001L46.4922 7.00001L1.49219 7L1.49219 9Z" fill="#B0C4D4"/>
                  </svg>  