<svg width="12" height="9" viewBox="0 0 12 9" fill="none" xmlns="http://www.w3.org/2000/svg">
                  <path d="M6.8994 1.67514H10.1843V0H1.03623V1.67514H4.26097V5.87911C3.42043 5.81545 2.67558 5.69368 2.08903 5.53338C1.64495 5.41202 1.31347 5.27439 1.10205 5.13779C0.996945 5.06988 0.935923 5.01138 0.903876 4.96858C0.888602 4.94818 0.882013 4.93416 0.879292 4.92683C0.877946 4.92321 0.877446 4.92098 0.87726 4.91998L0.877084 4.91851C0.877161 4.91798 0.877445 4.91593 0.877995 4.91405C0.879076 4.91035 0.881856 4.90266 0.88879 4.89087C0.903334 4.86614 0.933513 4.82796 0.991415 4.77968C1.10965 4.68111 1.30531 4.57187 1.58695 4.46488C2.14656 4.2523 2.96081 4.08003 3.9336 3.98607L3.85941 3.21803C2.84833 3.31569 1.95996 3.49777 1.31293 3.74356C0.991246 3.86576 0.707572 4.01172 0.497308 4.18702C0.290032 4.35983 0.105469 4.60428 0.105469 4.91851C0.105469 5.31518 0.39487 5.59954 0.683302 5.7859C0.988827 5.9833 1.40537 6.14646 1.88562 6.27771C2.54115 6.45685 3.35635 6.58741 4.26097 6.65283V9H6.8994V6.65553C7.81914 6.59104 8.64796 6.45935 9.31262 6.27771C9.79287 6.14646 10.2094 5.9833 10.5149 5.7859C10.8034 5.59954 11.0928 5.31518 11.0928 4.91851C11.0928 4.60428 10.9082 4.35983 10.7009 4.18702C10.4907 4.01172 10.207 3.86576 9.88531 3.74356C9.23828 3.49777 8.34991 3.31569 7.33883 3.21803L7.26464 3.98607C8.23743 4.08003 9.05168 4.2523 9.6113 4.46488C9.89293 4.57187 10.0886 4.68111 10.2068 4.77968C10.2647 4.82796 10.2949 4.86614 10.3095 4.89087C10.3164 4.90266 10.3192 4.91035 10.3202 4.91405C10.3208 4.91593 10.321 4.91708 10.3211 4.91761L10.321 4.91998C10.3208 4.92098 10.3203 4.92321 10.319 4.92683C10.3162 4.93416 10.3096 4.94818 10.2944 4.96858C10.2623 5.01138 10.2013 5.06988 10.0962 5.13779C9.88478 5.27439 9.5533 5.41202 9.10921 5.53338C8.51387 5.69608 7.75545 5.81909 6.8994 5.88193V1.67514Z" fill="#33D1C8"/>
                  </svg>