<svg width="9" height="9" viewBox="0 0 9 9" fill="none" xmlns="http://www.w3.org/2000/svg">
                  <path d="M5.50932 8.99996C5.13159 8.99996 4.76151 8.8953 4.43992 8.69365C3.9065 8.36436 3.55173 7.80535 3.48027 7.18252C3.41135 6.57756 3.61554 5.97515 4.03666 5.53865C4.05453 5.38039 3.99838 5.22469 3.88608 5.11237C3.77378 5.00006 3.61554 4.9439 3.45985 4.96177C2.72224 5.67394 1.57116 5.7301 0.76975 5.09195C-0.0316646 4.45125 -0.235847 3.31791 0.292474 2.43982C0.820795 1.56173 1.91827 1.20948 2.85751 1.62044C3.3501 1.8272 3.73805 2.2254 3.93202 2.72316L4.06474 2.84058C4.19746 2.95799 4.38377 3.00139 4.55477 2.95289C4.72578 2.90439 4.86105 2.77166 4.91464 2.60063L4.95803 2.44748C4.82531 1.80678 5.01163 1.14056 5.45317 0.658118C5.89472 0.17568 6.543 -0.0642625 7.19383 0.0148675C7.82169 0.0888924 8.38063 0.451359 8.70733 0.992506C9.1259 1.68681 9.09272 2.55979 8.62565 3.22091C8.15859 3.88203 7.34441 4.20365 6.55065 4.04029L6.40007 4.08624C6.22907 4.13729 6.09635 4.27257 6.04785 4.44615C5.99936 4.61717 6.04275 4.80351 6.16015 4.93624L6.27756 5.06898C6.53023 5.16853 6.76249 5.31913 6.95646 5.51058C7.39801 5.94962 7.6124 6.56735 7.54094 7.18507C7.46947 7.8079 7.11471 8.36436 6.58128 8.6962C6.25969 8.8953 5.88961 9.00251 5.50932 8.99996Z" fill="#CDA4FF"/>
                  </svg>